<mxfile host="65bd71144e">
    <diagram id="EuCtn4vt8ruAzinbVmaW" name="第 1 页">
        <mxGraphModel dx="784" dy="518" grid="1" gridSize="10" guides="1" tooltips="1" connect="1" arrows="1" fold="1" page="1" pageScale="1" pageWidth="827" pageHeight="1169" math="0" shadow="0">
            <root>
                <mxCell id="0"/>
                <mxCell id="1" parent="0"/>
                <mxCell id="2" value="&lt;font style=&quot;font-size: 15px&quot;&gt;DispatcherServlet&lt;br&gt;前端控制器&lt;br&gt;&lt;/font&gt;" style="rounded=1;whiteSpace=wrap;html=1;fillColor=#a20025;strokeColor=#6F0000;fontColor=#ffffff;" parent="1" vertex="1">
                    <mxGeometry x="305" y="220" width="120" height="60" as="geometry"/>
                </mxCell>
                <mxCell id="3" value="用户" style="shape=umlActor;verticalLabelPosition=bottom;verticalAlign=top;html=1;outlineConnect=0;strokeWidth=3;" parent="1" vertex="1">
                    <mxGeometry x="350" y="20" width="30" height="50" as="geometry"/>
                </mxCell>
                <mxCell id="5" value="1.&lt;br&gt;发&lt;br&gt;送&lt;br&gt;请&lt;br&gt;求" style="text;html=1;align=center;verticalAlign=middle;resizable=0;points=[];autosize=1;strokeColor=none;" parent="1" vertex="1">
                    <mxGeometry x="370" y="100" width="30" height="80" as="geometry"/>
                </mxCell>
                <mxCell id="9" value="" style="endArrow=classic;html=1;entryX=0.5;entryY=0;entryDx=0;entryDy=0;strokeWidth=2;strokeColor=#33FFFF;" parent="1" edge="1">
                    <mxGeometry width="50" height="50" relative="1" as="geometry">
                        <mxPoint x="377" y="70" as="sourcePoint"/>
                        <mxPoint x="377" y="220" as="targetPoint"/>
                    </mxGeometry>
                </mxCell>
                <mxCell id="10" value="&lt;font style=&quot;font-size: 15px&quot;&gt;HandlerMapping&lt;br&gt;处理器映射器&lt;/font&gt;" style="rounded=1;whiteSpace=wrap;html=1;fillColor=#1ba1e2;strokeColor=#006EAF;fontColor=#ffffff;" parent="1" vertex="1">
                    <mxGeometry x="560" y="220" width="120" height="60" as="geometry"/>
                </mxCell>
                <mxCell id="11" value="" style="endArrow=classic;html=1;entryX=0;entryY=0.25;entryDx=0;entryDy=0;exitX=1;exitY=0.25;exitDx=0;exitDy=0;strokeColor=#33FFFF;strokeWidth=2;" parent="1" edge="1">
                    <mxGeometry width="50" height="50" relative="1" as="geometry">
                        <mxPoint x="425" y="246" as="sourcePoint"/>
                        <mxPoint x="560" y="246" as="targetPoint"/>
                    </mxGeometry>
                </mxCell>
                <mxCell id="12" value="2.查找handler" style="text;html=1;align=center;verticalAlign=middle;resizable=0;points=[];autosize=1;strokeColor=none;" parent="1" vertex="1">
                    <mxGeometry x="440" y="226" width="90" height="20" as="geometry"/>
                </mxCell>
                <mxCell id="13" value="" style="endArrow=classic;html=1;exitX=0;exitY=0.75;exitDx=0;exitDy=0;entryX=1;entryY=0.75;entryDx=0;entryDy=0;strokeColor=#FF6666;strokeWidth=2;" parent="1" edge="1">
                    <mxGeometry width="50" height="50" relative="1" as="geometry">
                        <mxPoint x="560" y="256" as="sourcePoint"/>
                        <mxPoint x="425" y="256" as="targetPoint"/>
                    </mxGeometry>
                </mxCell>
                <mxCell id="14" value="3.返回执行链" style="text;html=1;align=center;verticalAlign=middle;resizable=0;points=[];autosize=1;strokeColor=none;" parent="1" vertex="1">
                    <mxGeometry x="440" y="255" width="90" height="20" as="geometry"/>
                </mxCell>
                <mxCell id="15" value="&lt;font style=&quot;font-size: 15px&quot;&gt;HandlerAdapter&lt;br&gt;处理器适配器&lt;br&gt;&lt;/font&gt;" style="rounded=1;whiteSpace=wrap;html=1;fillColor=#008a00;strokeColor=#005700;fontColor=#ffffff;" parent="1" vertex="1">
                    <mxGeometry x="560" y="340" width="120" height="60" as="geometry"/>
                </mxCell>
                <mxCell id="16" value="" style="endArrow=classic;html=1;entryX=-0.025;entryY=0.383;entryDx=0;entryDy=0;entryPerimeter=0;exitX=0.75;exitY=1;exitDx=0;exitDy=0;strokeColor=#33FFFF;strokeWidth=2;" parent="1" source="2" target="15" edge="1">
                    <mxGeometry width="50" height="50" relative="1" as="geometry">
                        <mxPoint x="450" y="440" as="sourcePoint"/>
                        <mxPoint x="500" y="390" as="targetPoint"/>
                        <Array as="points">
                            <mxPoint x="395" y="310"/>
                            <mxPoint x="395" y="363"/>
                        </Array>
                    </mxGeometry>
                </mxCell>
                <mxCell id="17" value="4.请求适配器的执行" style="text;html=1;align=center;verticalAlign=middle;resizable=0;points=[];autosize=1;strokeColor=none;" parent="1" vertex="1">
                    <mxGeometry x="414" y="340" width="120" height="20" as="geometry"/>
                </mxCell>
                <mxCell id="18" value="&lt;font style=&quot;font-size: 15px&quot;&gt;Controller&lt;br&gt;控制器&lt;br&gt;&lt;/font&gt;" style="rounded=1;whiteSpace=wrap;html=1;fillColor=#fa6800;strokeColor=#C73500;fontColor=#000000;" parent="1" vertex="1">
                    <mxGeometry x="560" y="470" width="120" height="60" as="geometry"/>
                </mxCell>
                <mxCell id="19" value="" style="endArrow=classic;html=1;entryX=0.658;entryY=-0.033;entryDx=0;entryDy=0;entryPerimeter=0;strokeColor=#33FFFF;strokeWidth=2;" parent="1" edge="1">
                    <mxGeometry width="50" height="50" relative="1" as="geometry">
                        <mxPoint x="630" y="402" as="sourcePoint"/>
                        <mxPoint x="629.96" y="468.02" as="targetPoint"/>
                    </mxGeometry>
                </mxCell>
                <mxCell id="20" value="5.执行" style="text;html=1;align=center;verticalAlign=middle;resizable=0;points=[];autosize=1;strokeColor=none;" parent="1" vertex="1">
                    <mxGeometry x="630" y="420" width="50" height="20" as="geometry"/>
                </mxCell>
                <mxCell id="23" value="" style="endArrow=classic;html=1;entryX=0.408;entryY=1.033;entryDx=0;entryDy=0;entryPerimeter=0;exitX=0.408;exitY=0.033;exitDx=0;exitDy=0;exitPerimeter=0;strokeColor=#FF6666;strokeWidth=2;" parent="1" source="18" target="15" edge="1">
                    <mxGeometry width="50" height="50" relative="1" as="geometry">
                        <mxPoint x="450" y="440" as="sourcePoint"/>
                        <mxPoint x="500" y="390" as="targetPoint"/>
                    </mxGeometry>
                </mxCell>
                <mxCell id="24" value="6.返回&lt;br&gt;ModelAndView" style="text;html=1;align=center;verticalAlign=middle;resizable=0;points=[];autosize=1;strokeColor=none;" parent="1" vertex="1">
                    <mxGeometry x="520" y="420" width="100" height="30" as="geometry"/>
                </mxCell>
                <mxCell id="25" value="" style="endArrow=classic;html=1;entryX=0.567;entryY=1;entryDx=0;entryDy=0;entryPerimeter=0;exitX=0;exitY=0.75;exitDx=0;exitDy=0;strokeColor=#FF6666;strokeWidth=2;" parent="1" source="15" target="2" edge="1">
                    <mxGeometry width="50" height="50" relative="1" as="geometry">
                        <mxPoint x="450" y="440" as="sourcePoint"/>
                        <mxPoint x="500" y="390" as="targetPoint"/>
                        <Array as="points">
                            <mxPoint x="373" y="385"/>
                        </Array>
                    </mxGeometry>
                </mxCell>
                <mxCell id="26" value="7.返回ModelAndView" style="text;html=1;align=center;verticalAlign=middle;resizable=0;points=[];autosize=1;strokeColor=none;" parent="1" vertex="1">
                    <mxGeometry x="400" y="390" width="130" height="20" as="geometry"/>
                </mxCell>
                <mxCell id="27" value="&lt;font style=&quot;font-size: 15px&quot;&gt;&lt;font color=&quot;#000000&quot;&gt;View Resolver&lt;br&gt;视图解析器&lt;/font&gt;&lt;br&gt;&lt;/font&gt;" style="rounded=1;whiteSpace=wrap;html=1;fillColor=#ffff88;strokeColor=#36393d;" parent="1" vertex="1">
                    <mxGeometry x="46" y="400" width="120" height="60" as="geometry"/>
                </mxCell>
                <mxCell id="29" value="8.请求视图解析" style="text;html=1;align=center;verticalAlign=middle;resizable=0;points=[];autosize=1;strokeColor=none;" parent="1" vertex="1">
                    <mxGeometry x="205" y="450" width="100" height="20" as="geometry"/>
                </mxCell>
                <mxCell id="30" value="" style="endArrow=classic;html=1;entryX=1;entryY=0.75;entryDx=0;entryDy=0;exitX=0.417;exitY=1.017;exitDx=0;exitDy=0;exitPerimeter=0;strokeColor=#33FFFF;strokeWidth=2;" parent="1" source="2" target="27" edge="1">
                    <mxGeometry width="50" height="50" relative="1" as="geometry">
                        <mxPoint x="280" y="340" as="sourcePoint"/>
                        <mxPoint x="330" y="290" as="targetPoint"/>
                        <Array as="points">
                            <mxPoint x="355" y="445"/>
                        </Array>
                    </mxGeometry>
                </mxCell>
                <mxCell id="31" value="" style="endArrow=classic;html=1;exitX=1;exitY=0.5;exitDx=0;exitDy=0;entryX=0.308;entryY=1;entryDx=0;entryDy=0;entryPerimeter=0;strokeColor=#FF6666;strokeWidth=2;" parent="1" source="27" target="2" edge="1">
                    <mxGeometry width="50" height="50" relative="1" as="geometry">
                        <mxPoint x="280" y="340" as="sourcePoint"/>
                        <mxPoint x="330" y="290" as="targetPoint"/>
                        <Array as="points">
                            <mxPoint x="342" y="430"/>
                        </Array>
                    </mxGeometry>
                </mxCell>
                <mxCell id="32" value="9.&lt;br&gt;返&lt;br&gt;回&lt;br&gt;view" style="text;html=1;align=center;verticalAlign=middle;resizable=0;points=[];autosize=1;strokeColor=none;" parent="1" vertex="1">
                    <mxGeometry x="310" y="340" width="40" height="60" as="geometry"/>
                </mxCell>
                <mxCell id="33" value="&lt;font style=&quot;font-size: 15px&quot;&gt;&lt;font color=&quot;#000000&quot;&gt;View&lt;br&gt;视图&lt;/font&gt;&lt;br&gt;&lt;/font&gt;" style="rounded=1;whiteSpace=wrap;html=1;strokeColor=#10739e;fillColor=#b1ddf0;" parent="1" vertex="1">
                    <mxGeometry x="50" y="220" width="120" height="60" as="geometry"/>
                </mxCell>
                <mxCell id="35" value="10.视图渲染" style="text;html=1;align=center;verticalAlign=middle;resizable=0;points=[];autosize=1;strokeColor=none;" parent="1" vertex="1">
                    <mxGeometry x="198" y="256" width="80" height="20" as="geometry"/>
                </mxCell>
                <mxCell id="37" value="11.返回视图的渲染结果" style="text;html=1;align=center;verticalAlign=middle;resizable=0;points=[];autosize=1;strokeColor=none;" parent="1" vertex="1">
                    <mxGeometry x="166" y="224" width="140" height="20" as="geometry"/>
                </mxCell>
                <mxCell id="38" value="" style="endArrow=classic;html=1;exitX=0;exitY=0.75;exitDx=0;exitDy=0;entryX=1;entryY=0.633;entryDx=0;entryDy=0;entryPerimeter=0;strokeColor=#33FFFF;strokeWidth=2;" parent="1" target="33" edge="1">
                    <mxGeometry width="50" height="50" relative="1" as="geometry">
                        <mxPoint x="305" y="257" as="sourcePoint"/>
                        <mxPoint x="180" y="257" as="targetPoint"/>
                    </mxGeometry>
                </mxCell>
                <mxCell id="39" value="" style="endArrow=classic;html=1;exitX=1;exitY=0.383;exitDx=0;exitDy=0;exitPerimeter=0;entryX=0;entryY=0.4;entryDx=0;entryDy=0;entryPerimeter=0;strokeColor=#FF6666;strokeWidth=2;" parent="1" source="33" target="2" edge="1">
                    <mxGeometry width="50" height="50" relative="1" as="geometry">
                        <mxPoint x="380" y="320" as="sourcePoint"/>
                        <mxPoint x="430" y="270" as="targetPoint"/>
                    </mxGeometry>
                </mxCell>
                <mxCell id="40" value="" style="endArrow=classic;html=1;entryX=0;entryY=1;entryDx=0;entryDy=0;entryPerimeter=0;exitX=0.375;exitY=-0.033;exitDx=0;exitDy=0;exitPerimeter=0;strokeColor=#FF6666;strokeWidth=2;" parent="1" source="2" target="3" edge="1">
                    <mxGeometry width="50" height="50" relative="1" as="geometry">
                        <mxPoint x="380" y="320" as="sourcePoint"/>
                        <mxPoint x="430" y="270" as="targetPoint"/>
                    </mxGeometry>
                </mxCell>
                <mxCell id="41" value="12.&lt;br&gt;返&lt;br&gt;回&lt;br&gt;前&lt;br&gt;端&lt;br&gt;页&lt;br&gt;面" style="text;html=1;align=center;verticalAlign=middle;resizable=0;points=[];autosize=1;strokeColor=none;" parent="1" vertex="1">
                    <mxGeometry x="325" y="100" width="30" height="100" as="geometry"/>
                </mxCell>
                <mxCell id="59" value="" style="group" parent="1" vertex="1" connectable="0">
                    <mxGeometry x="30" y="70" width="680" height="490" as="geometry"/>
                </mxCell>
                <mxCell id="46" value="" style="endArrow=none;html=1;strokeColor=#33FF33;strokeWidth=2;rounded=1;dashed=1;endFill=0;" parent="59" edge="1">
                    <mxGeometry width="50" height="50" relative="1" as="geometry">
                        <mxPoint x="390" y="10" as="sourcePoint"/>
                        <mxPoint x="390" y="130" as="targetPoint"/>
                    </mxGeometry>
                </mxCell>
                <mxCell id="47" value="" style="endArrow=none;html=1;strokeColor=#33FF33;strokeWidth=2;rounded=1;dashed=1;endFill=0;" parent="59" edge="1">
                    <mxGeometry width="50" height="50" relative="1" as="geometry">
                        <mxPoint x="390" y="130" as="sourcePoint"/>
                        <mxPoint x="680" y="130" as="targetPoint"/>
                    </mxGeometry>
                </mxCell>
                <mxCell id="48" value="" style="endArrow=none;html=1;strokeColor=#33FF33;strokeWidth=2;rounded=1;dashed=1;endFill=0;" parent="59" edge="1">
                    <mxGeometry width="50" height="50" relative="1" as="geometry">
                        <mxPoint x="680" y="130" as="sourcePoint"/>
                        <mxPoint x="680" y="490" as="targetPoint"/>
                        <Array as="points">
                            <mxPoint x="680" y="220"/>
                            <mxPoint x="410" y="220"/>
                            <mxPoint x="410" y="260"/>
                            <mxPoint x="680" y="260"/>
                        </Array>
                    </mxGeometry>
                </mxCell>
                <mxCell id="51" value="" style="endArrow=none;html=1;strokeColor=#33FF33;strokeWidth=2;rounded=1;dashed=1;endFill=0;" parent="59" edge="1">
                    <mxGeometry width="50" height="50" relative="1" as="geometry">
                        <mxPoint x="670" y="490" as="sourcePoint"/>
                        <mxPoint x="480" y="490" as="targetPoint"/>
                    </mxGeometry>
                </mxCell>
                <mxCell id="52" value="" style="endArrow=none;html=1;strokeColor=#33FF33;strokeWidth=2;rounded=1;dashed=1;endFill=0;" parent="59" edge="1">
                    <mxGeometry width="50" height="50" relative="1" as="geometry">
                        <mxPoint x="480" y="490" as="sourcePoint"/>
                        <mxPoint x="480" y="360" as="targetPoint"/>
                    </mxGeometry>
                </mxCell>
                <mxCell id="53" value="" style="endArrow=none;html=1;strokeColor=#33FF33;strokeWidth=2;rounded=1;dashed=1;endFill=0;" parent="59" edge="1">
                    <mxGeometry width="50" height="50" relative="1" as="geometry">
                        <mxPoint x="480" y="360" as="sourcePoint"/>
                        <mxPoint y="420" as="targetPoint"/>
                        <Array as="points">
                            <mxPoint x="340" y="360"/>
                            <mxPoint x="340" y="210"/>
                            <mxPoint x="330" y="210"/>
                            <mxPoint x="330" y="320"/>
                            <mxPoint x="330" y="360"/>
                            <mxPoint x="330" y="420"/>
                        </Array>
                    </mxGeometry>
                </mxCell>
                <mxCell id="54" value="" style="endArrow=none;html=1;strokeColor=#33FF33;strokeWidth=2;rounded=1;dashed=1;endFill=0;" parent="59" edge="1">
                    <mxGeometry width="50" height="50" relative="1" as="geometry">
                        <mxPoint y="420" as="sourcePoint"/>
                        <mxPoint y="320" as="targetPoint"/>
                    </mxGeometry>
                </mxCell>
                <mxCell id="55" value="" style="endArrow=none;html=1;strokeColor=#33FF33;strokeWidth=2;rounded=1;dashed=1;endFill=0;" parent="59" edge="1">
                    <mxGeometry width="50" height="50" relative="1" as="geometry">
                        <mxPoint y="316" as="sourcePoint"/>
                        <mxPoint y="230" as="targetPoint"/>
                        <Array as="points">
                            <mxPoint x="270" y="316"/>
                            <mxPoint x="270" y="230"/>
                        </Array>
                    </mxGeometry>
                </mxCell>
                <mxCell id="56" value="" style="endArrow=none;html=1;strokeColor=#33FF33;strokeWidth=2;rounded=1;dashed=1;endFill=0;" parent="59" edge="1">
                    <mxGeometry width="50" height="50" relative="1" as="geometry">
                        <mxPoint y="230" as="sourcePoint"/>
                        <mxPoint y="130" as="targetPoint"/>
                        <Array as="points">
                            <mxPoint y="180"/>
                        </Array>
                    </mxGeometry>
                </mxCell>
                <mxCell id="57" value="" style="endArrow=none;html=1;strokeColor=#33FF33;strokeWidth=2;rounded=1;dashed=1;endFill=0;" parent="59" edge="1">
                    <mxGeometry width="50" height="50" relative="1" as="geometry">
                        <mxPoint y="130" as="sourcePoint"/>
                        <mxPoint x="290" y="130" as="targetPoint"/>
                    </mxGeometry>
                </mxCell>
                <mxCell id="58" value="" style="endArrow=classic;html=1;strokeColor=#33FF33;strokeWidth=2;rounded=1;dashed=1;" parent="59" edge="1">
                    <mxGeometry width="50" height="50" relative="1" as="geometry">
                        <mxPoint x="290" y="130" as="sourcePoint"/>
                        <mxPoint x="290" as="targetPoint"/>
                    </mxGeometry>
                </mxCell>
            </root>
        </mxGraphModel>
    </diagram>
    <diagram id="7yzk9PYEYOXgA34sVtf2" name="第 2 页">
        <mxGraphModel dx="784" dy="1687" grid="1" gridSize="10" guides="1" tooltips="1" connect="1" arrows="1" fold="1" page="1" pageScale="1" pageWidth="827" pageHeight="1169" math="0" shadow="0">
            <root>
                <mxCell id="5mr8kqb3Nry0wDjkXf5w-0"/>
                <mxCell id="5mr8kqb3Nry0wDjkXf5w-1" parent="5mr8kqb3Nry0wDjkXf5w-0"/>
                <mxCell id="h9OEV1z8nox2Ov8Pxtjx-0" value="" style="shape=image;verticalLabelPosition=bottom;labelBackgroundColor=#ffffff;verticalAlign=top;aspect=fixed;imageAspect=0;image=data:image/png,iVBORw0KGgoAAAANSUhEUgAAArAAAAGICAYAAAC5hdPrAAAgAElEQVR4Aey9+VccR5rvff+blPIUZObJWqi6FMV6KJYq9qJAHIQQi1gEkow2ZO0rRrIka0EYC8RigQRCEpSRhN33zJ3utu/M2MdLuz3uGVvTnpHHrbnd9szc8X1n3nnv/b4nsiqrkiJrEYug0PMDJ3KLiCee+GTkN56MLP7LJoMRr+JfE0Tddkc6rvqIndf+sePa/Vj51XIofTW5o36nficGiAFigBggBpbPwH9ZbSdafQIqemRdsbjadccqfyliU5tH3VZTVp92m+Ml5P9BUI41/L8Ctj4VUXBKAs8v9gfHy8j8RETNbQmbdM7HastanGfty/lahKtzcXtWyh5OkpB2T8SWn0Q0/Cyi6r+JsGSuXn1au1mfFP1vf/81YnXbqa2Xtpc/sJEPyYfEADFADGxsBlZEwHLJMiyXRBQeXiwsUqYFlJ9afHy5YHE2CekjEsr/TkDDL5cn+pjojPQXbqdWoKrbasqu1W6rAja/RsYmmwzjPgmenwSUn13sDyaWsj4VUDO+vLaE2xvPPlcpouZTEUkvKJxfhoCV3xFQ9z9EmDJk8OkSUs6LKHh9sf/iaedSr2F9k/3bpQvYpfo3HnstAyKcXTI2v2DfxVM2XbOxB3/qX+pfYoAYSGQGliVg2YPdUCvB/bWAynsSJMtiYWG5K6D0yOLjy3UaZ5Zh3i3BfkdE4zIFrNYWrQDVHle3tefVbTVl12i3FwjYwFINw2ER9c9FmNaR4OCaJdQtWcAKcO9c+f5lvmR82X8hwNu3OuWrfRorXbaAXaJ/Y9mlnHdKcP5aRPWvJFida+unuOx9RZcskW9IKBADxAAxsLIMLFnAclYJ6fcE1H4jIqtOjvja2zgmoPjA6j1Y+ZNLE7BaoamFKtJx9RrteXVbTdk12m09AcuZJZRDRFaODHY+96n/FTXLx15T51aE+apIQuEnIup+FrD9XwR4HkgwpfuvCUZA35RQ8tci6n8WUPOJiNQ8TRn5ErJ9Arb8JGD7v4mo+jMRppRA/iwJFT8LaPg/IRsUO/5eghQQ2JxBhvm8iIq/E1D/7wLqnorIaWK2++3P+VpA4WEJeX8loP4/RNR9KyJD0wbOIsMxKaL6fwrY/r8EVP1ShE1jH5crwfu3IkzVElyfCtj2HwLqvxaD9Rv2iNj6s4jSQQnGDE27AkJoOeVzhSKq/iTCKofK5ZwSvM9FWATNsSgR2Gj1c3H4V+VqOSnrC6lbQuUzAcVXZCRpbF9OuZR3ZQdb8if5kxggBoiBlWNgyQI2+ZKIhm9EmEyhB71ex8hDIor2LLyGCa+Cf1oomhThFIikxjqvrWepApaVoRWbapl6x7Tn2Pl4/lge1g62BlZZQqAKLmVdpQhnuZ5PFgtYtoa45p6EZFmGIUeC9U0Rdrc/r1/ACqj7KxGpZTL4VAlpjwTUfyQFlwMIhyTknZIgZ8rYnCrB8b6ALTelBWuSuQMiGnUisEwYyTdEbPtORHq9DN4sQ2yW4HzDv8xBrb/+qYiMWhmbzTJSfQK2/yJ0PvV9EeVXJUgOGZtkGdIREVs+FZGsCmQmYP9NRPWnItLrZPCSjKTM0DIKZkNSnYT8X4vY9u8CKu+LMAYi/az+5ZTPyk7789ASF7ZvHBVR3R/mnwgCNp76FQ4i+nfl7gOF0QIJ5f8qoKBhIVsqv5Su3MBJviRfEgPEADGwtgwsWcCqEdiavxGRudUfkdPrTKlfhLtj9R6oyxGwqr3RBKl6jZpqBa66rabsGu02EziLBKyFRWAFZGYt9Am7tuCfFgtYQ4sEz1MBZT4JOT0SLAUhX7M84R9RcW4J1T+LsKoCUZaR0iuh6NcitvwgoP4/BTT8WUggMpsjC1gJBc8FuNoW2qr6wl+/ALfmIy6uU8T2ryQILELL2vp/dSYq/yHCptrHBOx/iki36dcRqkuGoVRC3qcC6v9cgmGlym8QUfu3IkRWniyh6J9EpAci3Nq69dbAxtO+aP5Vy19uyoS3dEiC55mAkqsUgV2uPyn/2j6UyP/kf2KAGIiHgSULWFY4e3AG18BO6a+BjceI5VyzEgJWW79WgGqPq9va8+q2mrJrtNt6AjbppIjt34swBgScWm4kAcvOc4IMcZuE9LdEFP9OQGVfKMK5SMBW+r/YtwRe8bMIY81/l5DWKkPMlpF0ZvGSC26fiMbPpWBUVGtT3jMBhc364lJXQLeJqP9a8gtCJmD/j4isKGszlSUEGkGr1q2mbAmDus1S5YOof5WQogrY5ZbPJgFf+aOWSadE1PoWinulzkgR2Djap+SP4F9tu5a8zdbAfuhfA5sSxc9LLp/WrC7gj/xID1ZigBggBtYHA8sSsGonKr9CcFlEYdjHWpxBgvOpgK1P9H86Ss2/nHQ5AlYrNlUb9I6p51iqPa9uq2n4+QUClv0KwUERlf8soOz4QlHG8ukJWOa/zCcicvZLkFjEVpZhvCGiISA2/QJSwJZ5CaYsGXyOhOy/EFA7LSlfpSv1Pxfg3itjsyxD2Coh96+ERR+9cV4JNf8mIrNSxmZRRnKR7I9wslfqQyLqvxXhqJNhMMkQ2Ov8Eb/Y9de/8Ot8TitgeRmpHwjY9qkEW7mMzUa/DentoVf00QQs4yrvtwLc5ySIVv8vOdgmRdT9KhCBXWb5ar/yr4uonZeQ+1sRzkq9vvEvNah+V4KB+THfv+abTeBitU/p2wj+VetfTqr8CgHr37AJ0XLKpLzrY3CmfqB+IAaIAWIgMgMrImAjOTgoYB+vrIBlwiH9L3ReTWs+Popkk3pcKzrVYyyNdFy9Rnte3VbT8PyKgAz8Dmzjf/o/gCo87heXanlqyq4NX0KgRLirJRR8xD5kEtDws4Atn0lID4gsv4AUUP5QROU/Cqj/VxEenwg5uEZUhnhQhPe5gIZ/F1D9kQjHGyLqwn61gdVjvSWimn3o9b/9dZgDHwIxEZlyXYTn79lHWgLq/kZENovIBiK8iyLAGgHL2qZ85DQhovq5gO2K/SKyAx+BKefZEoIoEVi+VELB/xD8H7H9swjv+xIsmlf8yy1fsUGQUfhMQL3OOmC1fzZvkVD29yK2/7uAml/5I8zxtE+5Jop/1fIpjTxIkW/IN8QAMUAMEAPhDKyqgA2vbD3uM/EZ60+1O1yoqvm057XXqMdXK1UFrKt9cdRwteqkcmkQIQaIAWKAGCAGiIG1ZuCVF7Br3QHLqd8vYBe+wl9OeZSXBiRigBggBogBYoAYSAQGSMAm8EcqJGBpkEmEQYZsJE6JAWKAGCAGVpoBErAJLGBXGgYqjwYYYoAYIAaIAWKAGEgEBkjAkoClnwkiBogBYoAYIAaIAWIgoRggAUvAJhSwiTArJBspekEMEAPEADFADKwuAyRgScCSgCUGiAFigBggBogBYiChGCABS8AmFLA0o13dGS35l/xLDBADxAAxkAgMkIAlAUsClhggBogBYoAYIAaIgYRigAQsAZtQwCbCrJBspOgFMUAMEAPEADGwugyQgCUBSwKWGCAGiAFigBggBoiBhGKABCwBm1DA0ox2dWe05F/yLzFADBADxEAiMLAhBSzHZ+OupwM/VXXiR287xlNkEmkk1IkBYoAYIAaIAWKAGNggDKyIgOWS0lHUeQHH6tPWFRgcb0WPe+kCljOW4EtXIaz8YgFcsvci9m/Jg0HnXCLMXMhGmmETA8QAMUAMEAPEQKIysCwBy/FGGAt34sytCQycbEGWvFjoraVjli1gLR78PoKA5dNqsPfKbYxePojyNPO6Eu5r6XOqmwZDYoAYIAaIAWKAGFhtBpYsYDmjGw0nB3Fn5ALaXA5sCotEGiQnhl2NeOppx/OKJvxZrgteIdShXFIaDuTU4rPyNvxQsQMfF5SiVdScF934qLgYFcYCjLmb8F3lTjwrKkYRL4OT3PjLci+aDCHBzAkufFjmwVaNHdEEbLT6OaEQv/C04XmlfxkCW4qgLEcoLVXqVzuFlZ9Rdwz942Po3eWFJTlkj3oNpaE+JV+QL4gBYoAYIAaIAWJgJRhYsoC1dg7i0cgR5Ev6om2Hsw1f5mTDbjDBJKZhh6MIuyR/p3G8BR352zGfnoV8wYQkQwqKUr34wlWI9IAA5ZiA9bTgc7cHB002GA0mpAoW5ZU9x5vRVdCCeXuKEvnkeBkVWU34JMO+IBIaScDGUz9zLmerxo8RIrALnJ/ejmsPp3G0WN8XC67dIGtPqE00ABEDxAAxQAwQA8TAWjGwZAG7yehG44lBTAz3osWVtigCm2IpxS9LtuORsxwX0nJRI5qD13BJ+fjAuzC6qUQ4K71o0QrYylocjBDVNJgr8HVxMfJYRNaQjcmyWnQLCwVkRAEbR/2sQ2IJWCUCu+04+ifGcJ4isAsmD2sFNNVLgykxQAwQA8QAMbDxGVi6gGUCT1kD2+FfA3t88RpYzmCB05SDbkcZHhQ34dcZDn8ElQnIynqcERcKTi1wSgS2sgqtmiUBC87zNvQWNWPILMNqr8XvnNlICrtWEbBFiz/iUgR0jPpZXZy1Gn9yu2APK5edY2tgu67SGlhtn9D2xh8wqI+pj4kBYoAYIAbWAwPLErBqA7ikjAW/QsDxdpzK8+K8NR35gllZIlCeUYfnATHIXuF35u3Ad64ytMopEJMsyDI50W3xLwlg5cYSsOwac+oW/C7PhYtFjbiq8wEZx5vQVdCBT7IzkGIwIVNMCSxBiF2/YoOxFF95anHKaEGywQSHZIMpIGZL9l7CgRr6FQKVAUppQCMGiAFigBggBoiBl8XAigjYcGPZmtQUYz6GChvwDfuIy9OC37i8OGQMfa3PPqLan12LT8pb8YNnBz53VaHHYg0tM2BrYKNEYFmdnCEDt0p34h/dhUjTiZKya5KNbjwpbcUfPK34qqAQzsB1sepXyudT0JhZi88r1DYUo1rz4Vh4u2mfblxigBggBogBYoAYIAZWn4FVEbDUcavfceRj8jExQAwQA8QAMUAMvKoMkIClXwWgj6+IAWKAGCAGiAFigBhIKAZIwBKwCQXsqzrTpHZTlIUYIAaIAWKAGAgxQAKWBCwJWGKAGCAGiAFigBggBhKKARKwBGxCAUuzz9Dsk3xBviAGiAFigBh4VRkgAUsClgQsMUAMEAPEADFADBADCcXACwnY/5ruTKjGvaqzEmo3zciJAWKAGCAGiAFiYCMzQAKWZlw0KSEGiAFigBggBogBYiChGCABS8AmFLAbeTZJbaNoCTFADBADxAAxEB8DJGBJwJKAJQaIAWKAGCAGiAFiIKEYIAFLwCYUsDQzjW9mSn4iPxEDxAAxQAxsZAZIwJKAJQFLDBADxAAxQAwQA8RAQjFAAnYVgOX4bNz1dOCnqk786G3HeIqcUFBspBkbx+eg9cYMxg9XYDO/MfuB41NQ3TuFN2qs64Iz4p+iPhtpDKG2EM/EwPpkYEMIWC4pHUWdF3CsPm1dPMBV2Dneih730gUsZyzBl65CWBNQeJXsvYj9W/JgWGPbmYBt65/BxBFPwgrYWHxz5hZcmexBSdL6EujE/9rzr45FlK7PBzD1C/ULMbB0BhJawHK8EcbCnThzawIDJ1uQJW+wB7jFg98nqIDl02qw98ptjF4+iPI087qaWCTKgBEv39b2AYwfLsOmNZ4shPt12QKW+Kf7ZhXekIVzSvtLFxDkO/LdWjKQsAKWM7rRcHIQd0YuoM3lWPTwNkhODLsa8dTTjucVTfizXBe8Qgg2LikNB3Jq8Vl5G36o2IGPC0rRKmrOi258VFyMCmMBxtxN+K5yJ54VFaOIl8FJbvxluRdNhpBg5gQXPizzYKtGRER7gEernxMK8QtPG55X+pchsKUIynKE0lKl/ljAcLwN54u346IlFwOuJjyrbMfT4i04IofalyRmo9e5FV+Ut+G5pwUfF7jhDUTwOLMH3xZWYKCoFX+oqEWPvQQflrfhqbsIZYE2R7NftY+1P6PuGPrHx9C7ywtLcshfmzMbcfzGOKZ9c5h7OIG+U50oSPHbx6Kmu27dxsmdB3FhaBIzvgcYv3EKVWmm4AOds+/BzZH9yMvfiZP9E3g49wizQ/uRxfqHz8fe0Xm8//77yt/8/Dj25obq9pc/gtfK6vF63wRm53yYHrmM5lxN+XIJ2s8PY8r3OFgOK693qwyu9AzuXTuN14dm8N50HzobD+HmfR+mB/bBmSyDS+/C0HQPygVNnWm7cXPyLIpUHxsccLWfRd/YFGbfew/To29hV2mI41h8h3ych9eGx/BaVqgudo74X9/8q/1HaWhMIl+QL4gBYuBFGEhYAWvtHMSjkSPIlxY+uNXG73C24cucbNgNJpjENOxwFGGXpAokCzryt2M+PQv5gglJhhQUpXrxhasQ6QEByjEB62nB524PDppsMBpMSBUsyitxjjejq6AF8/YURVBxvIyKrCZ8kmEPCixmRyQBy/Gx61fy26rxo04EluPTMVS2UNwqArcgP2AfE7Ad+L7Ei9dNKRCTbOhwNuN5vhNJgfZlppaiz54Jl2BCcnIq9uc147NMv/1MwP7esw0XjDZ05rXgeVEpKoVcTFc044aJCcT47Ff7YlN6O649nMbR4lBfec7OYvzEFlgECyS7G56d+1CTqfYPE7BPcK+vG1U5DojmAtT13IHvahtMav8wATt7D2P9Z9DgyoEopMBstYPXTCD8fVCGo1N6AvYxfKO9aCrMQLKcg+qzdzF3oSGYP+/QBO72tiDDZIW5cC/6Ji9hi8lvPxOwD3yD2J2fjeo3HuDR0GHkp9XjjQeT6C5k/klF3aUHuNLsCPBhBCtvpKsgsG9CTtcwZm6fR2NRDiTZjrTSThxoKwkuuYjFd9C3BUcw/s6eRctMiP/1zX+w/yjCuGDMJL+QgCEGiIF4GUhYAbvJ6EbjiUFMDPeixZW2KAKbYinFL0u245GzHBfSclEjmoPXcEn5+MCrIwArvWhRBRITsJW1OKiJGmqdajBX4OviYuSxiJ8hG5NltejWRNzYtREFbBz1K/kjCFitHXrb/ghsG+5oPh7jUirxQ1ERMtX2GWxocJThbuE2fFrWgu+9HfhjgVNZJ6oI2JJiOHkZhRkN+CwzTRFlF0taMWyWEY//1PZnbDuO/okxnA+LwMplh9E/OoLLZ49hd+t2uNNtof5RIrA+nK4MCV4ucx9GfL0oV+1nAvZRHxoColLPD34bIglYH854QwMFV9kD32AXbEoE1wgmsAd35yo2ccnlODYZinIqAnbkABy8jIyuUYzud4Hj8/DayEMcL/XbzBefxN2R/co1nFCDc1N9aAz0B8eX4cjUQ5ysCEV8F9kfg29/20woOTkZFMraMoj/9c2/tq9oO3Qfki/IF8QAMRAvA4krYBWByNbAdvjXwB5fvAaWM1jgNOWg21GGB8VN+HWGwx+hZAKysh5nxJBACneYEoGtrEJrWERPvY6JxN6iZgyZZVjttfidMzsY3QxdY0VP0eKPuBQBGKN+VgZnrcaf3C7YI9ig1hOe+gXswno5iwfPiouRrQg0C/bmt+C3BcXosjjgFCyw2WvxoxrBZRHYWAI2hv1sDWzX1ehrYLlkOxzuOjR2HkXv8B0MvFbiF9B6AjbvEG7fPx1cQqEsIZi7gMoYvmFiUT8CGyaQK85i9ta+oK8N+Ycw8ngG4zcHMDQ5gzvnd8CmLp9gEdgYAlZZpjA4iaPFJpiar2PyXE0wusrxbnSPP8Dx0ugDlX8NbBS+xTq8MXkJ1RHWfhP/oft7PfIfft/SfvT7gfxD/iEGiAEtAwktYNWGcEkZC36FgOPtOJXnxXlrOvIFs7JEoDyjDs8DYpC9Au/M24HvXGVoldkrdguyTE50W/xLAli5sQQsu8acugW/y3PhYlEjruqICI43oaugA59kZyDFYEKmmBJ4xR+7fsUGYym+8tTilNGCZIMJDskWfIWutl0vjS1gHXinfAfuWK0QDRZkm5y44toRv4CNw38ley/hQI3+V9icIR9tb5zHrtoypNts4AUHnF0DmBvYDYsisNkSgsd4t7cdBTYbRHs5Oq/dx92TVcFJwmoL2Jy9w7i+uwLOkkoUZqcHxafSL3EIWHadtO0yJnt34bXB29jnDA08jIu8A2OYHelBvTsbkpSKVHczursbkaIjyMP5VvtcbriCu2dqFv26AvHPltBEm8CtLf9q/1EauifIF+QLYoAYeFEGNoSADW80W5OaYszHUGEDvmEfcXla8BuXF4eMoa/h2UdI+7Nr8Ul5K37w7MDnrir0WKyh19jKEoLIEVhWJ2fIwK3SnfhHdyHSdIQHuybZ6MaT0lb8wdOKrwoKldfySt4Y9SvX8ClozKzF5xVqG4pRrflwjF2j9xdbwBqRbfPgwzJ/uZ8VluOAw4tv44zAxmu/nm1KXt4IOb8NR6+OYso3h0e+B7jd34PGPP/vmPo/snqI66fPov/ODHwPJ/H22XZkayYJqy1gHW1v4+GcD3NP5jE//wSPfNMYvbofLqP/I65YEVilnWzpwfhj+Po7FWGu9QeXlIWyPb14+/a08hHZveGL2FWasUiMavNotzk+A239d3HIvZgB4j+WgF1b/rX9SNuL+SWfkE+IAWIgHgY2pICNp+F0zfq9QfwCdhanKkKvgF9mfzFxWH3yFOpsfh+xV/mbTSXoHpnDuar14Te2JvjWaHdwTfPL9A/VtT4YoH6gfiAGiIFXmQESsBGimK8yFGvddr+AXbhG9WXaxCXX44JvGIcq8yALJhjkLDi3nsDg1HXU29ZGVIe339k9joHOHN0IfPi1tE8POWKAGCAGiIGNxgAJWBKw604ErbmA5c3I2H4afWPTmJl7BN/9Sdy6cgLb81LXna822oBE7aGHLDFADBADxEA8DJCAJQFLoowYIAaIAWKAGCAGiIGEYoAELAGbUMDGMyuja2j2TgwQA8QAMUAMbGwGSMCSgCUBSwwQA8QAMUAMEAPEQEIxQAKWgE0oYGlGvbFn1NS/1L/EADFADBAD8TBAApYELAlYYoAYIAaIAWKAGCAGEooBErAEbEIBG8+sjK6h2TsxQAwQA8QAMbCxGSABSwKWBCwxQAwQA8QAMUAMEAMJxQAJWAI2oYClGfXGnlFT/1L/EgPEADFADMTDAAlYErAkYIkBYoAYIAaIAWKAGEgoBkjArgKwHJ+Nu54O/FTViR+97RhPWR//flSd0ax3+1Q7X4WU/dex1hszGD9cgc38KnDiqMexGxO475vDzNQIjlalJdQAtVQGKnt8GOjMWpO2rvV/kluqz9R8HF+Dc755vP/++5iff/n/0pnjS/D6pL/+J498mBrtw7FmNwSd+2PV759VeT7kYNet1fUrJ+Sj7kQ/bt/3Yc53D7fe3I8Sq+ml3A9rzY/KsZpyfAqqe6fwRo31pbRfrTdSut6fv+vdPq1fN4SA5ZLSUdR5Acfq19fDmeOt6HEvXcByxhJ86SqEVWfg1nbiUreXa99S62X5SvZexP4teTCsUtuWY9vLzMsewG39M5g44llxAcv6t+bCLEZP1CBVNiMpJR9p62wytVq+JgG7/FeQHJ+FzptLF1pc3iGM93fC9IL3uF/ATqK7UMZmUw6cNYfRf38W13bkLBIgq3n/xGJz6e1bfQGbvW8M96/tQZ7VCiElH2XtZ3B428ud0L0sfmI9/zlzC65M9qAkaRUCBMuY4Cz3+Uv6wIiEFrAcb4SxcCfO3JrAwMkWZMkbDFCLB7/foAKWT6vB3iu3MXr5IMrTzIseTLEeHnQ+tkDheBf2357C6671dV+8jL4jARubj1j9sGwBUnoa95cpYFUb5fq3MDt5AgUvKIbV/KuRcktuX0DAelbnvmTPxZoLjzG0J29Nx9XV5ife57+1fQDjh8uwaR2xw3hctoAlfZC4ApYzutFwchB3Ri6gzeVYBKdBcmLY1YinnnY8r2jCn+W64BVCgzqXlIYDObX4rLwNP1TswMcFpWgVNedFNz4qLkaFsQBj7iZ8V7kTz4qKUcTL4CQ3/rLciyZDaADiBBc+LPNgq+YmiQZotPo5oRC/8LTheaV/GQJbiqAsRygtVeqPZzBWXpukefDfSnbgmacdT0u24LwlZYGfotmXJGaj17kVX5S34bmnBR8XuOHVzGBj+TfWefUGzqg7hv7xMfTu8sKSHPLnJlsV9py/hTsPfZiZGsOVIw1wCKHznH0Pbo7sR17+Tpzsn8DDuUeYHdqPrID/ObkE7eeHMeV7rLwKZa9D2V/v1lAZ0fy4ObMRx2+MY9o3h7mHE+g71YmCFD8f/lfEt3Fy50FcGJrEjO8Bxm+cQlVa6BVdNPs4Ph97R/2vSP2vacexNzdkl7/8EbxWVo/X+yYwO+fD9MhlNOdqyo/RPu+5GfjmHuPJvKae24dD/onhP4OjBrvO9eNd9gpydhrDF7tQYPTbyJWewb1rp/H60Azem+5DZ+Mh3Lzvw/TAPjgDfcjJLmw/3ofRqVn4ZqYwfPkIKtNMUB5qg7M4XckGcBMK2npwqC5XedCaWvsxfdLrf+gus/+1ApZLzsHWnhHcPFoDi+ae1ev/eO2L1D4/10ygPMTFA/tx4dYkZn0PcLvvxAI+9OrWHovGn1JHBP+qZUTlL70LQ9M9KNfeT2m7cXPyLIo093g0ARK1/bYOXPf58OhJiD2Fcw1/qp16qTYCq57n5BZcmx9Cu11GrPuH5Ynmv3ju36j8x9E+zuCAq/0s+samMPvee5gefQu7Sv3PKX/90zhevw2HIt7f+vdP0B8x7l9jdQ+mfBO4eKAZeTpLB6L1H6tjvfMT6/kf9BOfh9eGx/BaVmh8ZediPZ+iPZ8V/5A+WFt9EIh8J2wE1to5iEcjR5AvLQRTBXeHsw1f5mTDbjDBJKZhh6MIuyRVgFjQkb8d8+lZyBdMSDKkoCjViy9chUhXBRAD1NOCz90eHDTZYDSYkCpYlFfeHG9GV0EL5u0pysOW42VUZDXhkwz7ghlvJIHI8bHrV24SWzV+1KxkcRgAACAASURBVInAcnw6hsoWiltF4BbkB+yTUZKxHc9KvThkssGcZEGO2YXrDgeS4hTYmaml6LNnwiWYkJyciv15zfgsM9S+aP5ltsc6r/aTkqa349rDaRwtDggkPg+dN2cxcqIemWYrpDQv9tx4gDsnvEH7lQF29h7G+s+gwZUDUUiB2WoHH2hf3qEJ3O1tQYbJCnPhXvRNXsIWkz4rC2wJ3Bies7MYP7EFFsECye6GZ+c+1GSq/DCB8gT3+rpRleOAaC5AXc8d+K62BV+XxrJPrZPjy3B0Sk/APoZvtBdNhRlIlnNQffYu5i40vFD7OL4I3RP+V7FqfWoayz7btsPobvIi02qFwZyP+t4pjO53+XkvPYMHvkHszs9G9RsP8GjoMPLT6vHGA39dHG9Hde8IruyqRnpKCnjBgaz6Xrzb36kshyk4MomRvYVgQuXw4DTu9XVC5o3wnJvBpe1WcCvQ/6qA5SQX2q6M4vqeUoga9lU/6KWx7YvePr9Aic6HXr3aY9H5i14/Kyda/3J8KuouPcCVZkdg/DKC3S8jXQVh45f+EoJY/au2g9t6EfMrFIH1r6tceJ8o7dS5f9jx6P6Lff9G4z9W+9jELKdrGDO3z6OxKAeSbEdaaScOtJUExmdWf+T7Ox7/Rutfv1+MMLvb8fqVccy8N4X+U+3IDbyhXG7564GfWM9/tY82FRzB+Dt7Fi3Di/Z8iuf5zJE+WDN9EOxbQyIvITC60XhiEBPDvWhxpS2ILLIGplhK8cuS7XjkLMeFtFzUiObgNVxSPj7w6gjASi9atAK2shYHtVFBzXoXg7kCXxcXI49FZA3ZmCyrRbcmouEfRPTXwMZTv5I/goDVdqDeNhO4g2WtGLNEF2yRBLZSt8GGBkcZ7hZuw6dlLfje24E/FjiD6zSj+Zflj3VeqYO3ImPbcfRPjOG8JgLLpb2GobmLqNZGg5yvY/z+mWAEWhnAH/WhQUeUsldL7AE2uDtX6XMuuRzHJhfPwvV8px6Tyw6jf3QEl88ew+7W7XCn20L88OwBtHBtIJe5DyO+XpSr/LAISQT71Dr8PogkYH0449W8EajsgW+wCzbGW5ztiylgo9jHCTkoaz+Cc1cGMXr3AXyPn+DJxUa/P5mAHTkABy8jo2tUEbZMdL428hDHS2Uo0bKw6JsSgZs7Dw8vg695UxH7QnoXbl4+jVPjF1GVVIh9745gV7qM5fY/86siYA80Yf87M3g8dgQ5Ee5jbV+o2zHtY9HAKO3zC9jofKh1RUqj8hejflZmtPuDneeLT+LuyH6lDzmhBuem+tAYtj46UgQ2Vv+qbVpRASu34dr8TbTZFo5pehNAVn9U/8Vz/0bhP1b7mE1Hph7iZEXojYmah6UqHxHv7xXoX7U+NlZI2fXo7n+AmUvNMLLxYwXKX3N+Yjz//X42oeTkZHCipvqEpdGeT/E8nxUBS/pgTfSBth8TNgLrB5Stge3wr4E9vngNLGewwGnKQbejDA+Km/DrDId/BswEbGU9zogLB0OtY/yAVqE1QtSG423oLWrGkFmG1V6L3zmzg9FBtRxFIBYt/ohLuUFi1K+0z1qNP7ldsEewQa0nPOX4NPSVtmDYHBJA4dco5bOPzPTs4y3Ym9+C3xYUo8vigFOwwGavxY+BCK9aViT/xnOerYHtuqq/BlYRMO9dRJVGdHDOQ7h9/+xCATt3AZURfGPIP4SRxzMYvzmAockZ3Dm/A7YYr49Vu9WUS7bD4a5DY+dR9A7fwcBrJYqAVx9ApytD/LAPOm7fPx23fcE6dCJIuuVXnMXsrX1BFuJpX0wBG8F/LELDInTjlw6grrwYjtQ0mHZcx/zlHUoEmC0hiC1gh7AzLeQftb0s5aydePv+WVQ1X8fQHhe2XryLw5WtuHbvDNzsAcsmMMvsfyZgn8xN4NzWIlSdvYPRIx7dr9i1dqnbMe1TBECU9ukJpPzDmJj2t0+tJ1Yakb8Y9bNyFQEboX+V88zGwUkcLTbB1Hwdk+dqlLFRa5N/OcVCIa7kjaN+5bqaN/FkYDcsEe5RbV3abb0lBOam6/DdOQpnWFmRBKxS/xLv31j8q7ZyEdrH8W50jz/A8VL98TfW/e0XmJH5UtrGJshR+le1UU05FgB42IOSoIBdXvlKG9aYH/8a2CjPf7EOb0xeQnWEb2MiPb/ieT6TPlg7faAyzdKEFrBqQ7ikjAW/QsAGoFN5Xpy3piNfMCtLBMoz6vA8IAbZK4LOvB34zlWGVjkFYpIFWSYnutka0UCUNRag7Dpz6hb8Ls+Fi0WNuKpzk7BXSV0FHfgkOwMpBhMyxZTAK6TY9bPyOWMpvvLU4pTRgmSDCQ7JFnxFrdqpl/qXNDTiWXEl9pttMCWZkWXOw40spxJxUfNEts+Bd8p34I7VCtFgQbbJiSuuHUEBG9u/0f3P6i/ZewkHavR/hYCtcds1NItbJ7Yhw2yFmFaJ3X33lSUEyYEHWKwHdM7eYVzfXQFnSSUKs9MXPZyZDZxcg1N3fJi+thOpmgcjZ8hH2xvnsau2DOk2m/IK3Nk1gLnAw9j/AHqMd3vbUWCzQbSXo/Pafdw9WRWcxMSyL9QHkSOwCwRymICNq32xlhBEeAAqr/Ynp3CmJgvJgh2prgbs65uKX8DyadhyfhoP+w+jMjcdySIroxGNFZmBV9ZsacMQrl17F4fdMixtb2PoyjXcvdQcuD+W3/9MwLJlCuzDDU4sQ/fIJN6oyQje31H7X/FbNPtitc//inrizU647akQ7RXY1fdgAR9R64/JX/T6lbLjEDjStsuY7N2F1wZvY59zsdhi42TdpccYOVwOWbDC5sgITOBi16/YkHcYE7N9aMtLgyHZipTMHEja+yzS/af8jJbmVwi2HsHAg4e43Lj4K3o9Abvc+zcW/6xt0drHxtW8A2OYHelBvTsbkpSKVHczursbkcJ41JvgaO5vFoCIdv/E6l8uqRgHb47gdIsHdqMFBlMevMdHcP9yiz8Cu8zy1favNT+qHeHPf/W43HAFd8/UBN8aqsdjP79iP59JH6ydPlD7kaUbQsBqG8S2mYBLMeZjqLAB37CPuDwt+I3Li0PG0NfubJH2/uxafFLeih88O/C5qwo9FmvoNTFb41IZOQKr1GPIwK3SnfhHdyHSNAOz1p5koxtPSlvxB08rviooDEYQYtXvb0cKGjNr8XmF2oZiVMcZReQMVjRkePEr9hFXZRu+La5Gr9kaXEOp2qhnH5vZZts8+LDMX+9nheU44PDiW80a22j+jcf/av0RU3s1ui4M4+5DH2bvjeHakUZkaCLmsQSio+1tPJzzYe7JPObnn+CRbxqjV/fDFfgQSfGvXIvTkz7cv94RjGwqx3kj5Pw2HL06iinfHB6xj3D6e9CY5/8dQf8D6CGunz6L/jsz8D2cxNtn25GtmcTEsk9tt+4DOMYDjuWNq31LFrBG2Leewc1JH+bee4DRq8exva0H9+KMwPp960L9kesYmXwIn28a7/b3orM0wy8oeRO8PTN47GNLB2Rw2Qcx8vgxbu7S/EzSMvtfXQOr+pnP2oOBqX60ZIZe63IR+z+2fewjmMjtYwL2XZzbewY3xvX58PtoafzF8q9yPg4BqyytGX8MX39nxCipoWAPrtyewXvvPcTEWx3BCXC09qs+53gHyg72YUz5LVJ2Dx1AofatSkT/a34H9rEP99jvwDa6oE5e1fKVduq+wVje/cvGv2j8q/VHax+XlIWyPb14+/a08hHmveGL2FWqTgB0liBpBKzSrih8Kedj9K+Q3Ywj18aUj1B9D+7iZu9eFGmWiMTqv3jGr7XmR+0HvZTjM9DWfxeH3HoTM9IHCa8PApPIDSlg9YCmY4tv5I3qEzZ4VZ88hTpbIFLCG7HZVILukTmcq1q+H/wCdhanKvRfka+2X1e7fattP5W/fAbJh0v34Vrfv9R3S++7eH3Hvkm4NdqNzAiBpXjLoetWv6+W42MSsJoPs5bjSMq7fkDnkutxwTeMQ5V5kAUTDHIWnFtPYHDqOurDPgJZSr/pvQJcSjlLzbPa7VuqXZRv/dwD1BeR+2Kt71/qm8h9s1K+cXaPY6BT80aHnvMLlk+tlJ/XuhwSsAT2hgOb/cxZxvbT6BubxszcI/juT+LWlRPYnpe6Im1d6wfgardvrQclqn/1H/Cvso/X+v59lX1Pbad7eyUZIAFLAnZFRN1KQkll0SBHDBADxAAxQAwQA9EYIAFLApYELDFADBADxAAxQAwQAwnFAAlYAjahgI02G6NzNFsnBogBYoAYIAZeDQZIwJKAJQFLDBADxAAxQAwQA8RAQjFAApaATShgaWb9asysqZ+pn4kBYoAYIAaiMUAClgQsCVhigBggBogBYoAYIAYSigESsARsQgEbbTZG52i2TgwQA8QAMUAMvBoMkIBdpoBtgqgrACMdD7+xwq8L3w+//lXd1/OL3rHl+IeVF+svWvkvYo/etXrHotVH516NQZr6mfqZGCAGiIHFDJCAXaaAZVCFC4/wfRU8djz8T5s/Uj41/6uaRvJLtOPhflb3VX9r91W/astTt9VUzadeGynVXh/pGm1Z2uu129Hy0rnFAxn5hHxCDBADxMCrxcCGF7BWn4CKnrX5n/V6N5MqUtRU75rVOMbxMjI/EVFzW8KmBPr/0MxP4X+qfyId155n25F8HX48vDy9fbVstVy9a/SOhedT99m1etvqMUpfrQGZ+pv6mxggBoiB+BjYEAKWS5ZhuSSi8PBioZoyLaD81OLjKwGInlAJPxZejypYtGmsPOFlLGWfCdisTwXUjCeegNW2V+s3vePsWLg/tfuR8miPq9tqXep+pDTSdfEc19oWvh2pvhc9bhkQ4eySsTmBJi4v2ka6Pr4Bn/xEfiIGiIGNwkBCC1gmygy1EtxfC6i8J0GyLBaqlrsCSo8sPr4aHRhJsGjr0oqU8OPafdr2DzLhPlX9F+4f7XXqdqRUzaueZ/tsO94/Nb+aastRj6llavfVY+r1aqpeE76vHl926pTg/LWI6l9JsDpfzr2wbJtXYGkP2UAPamKAGCAGNi4DCStgOauE9HsCar8RkVUnR3wtbhwTUHzg5Ty04xEg6jVqqt5c4fvq8U1FEgo/EVH3s4Dt/yLA80CCKd3fHo6XkPO1CNebEkr+WkT9zwJqPhGRmhc6n/tUCAqzRojIrQj5wp9fQG6LhPyPBdT/h4i6b0VkaK+xSMj6QMTWn0PlMFuZT7lmCXV/ISL/r0Vs/1FE9gkR3p8E1H0uwijI4ApFVP1JhFXW1OmU4H0uwiIEbDTIMJ8XUfF3Aur/XUDdUxE5TTLY5IT5INwv2v1Y2+p5vZQdU48HfR0mmmKd1+YLvzZ8P9q16rloedRrlpoyf0rdEiqfCSi+IiMp4P+llkf5Nu5DgfqW+pYYIAYSgYGEFbDJl0Q0fCPCZAqJIz2Hy0MiivYsvIYJt4J/WijImHho/KX/9Xqs86wedn28f1q7XjQPW8Nbc09CsizDkCPB+qYIuzsg/hQBK6Dur0SklsngUyWkPRJQ/5GEpLDXxf426QvY+qciMmplbDbLSPUJ2P6L0DID04iA2vclSDYJSbUSPH8QkWoL1N8sYdv/IyKnWkbqEwENX0swOSUU/7OAvFq/CE3789ASDiaijKMiqvslRZyyffmGiG3fiUivl8GbZYjNEpxvhOrX81e4P9X+UI+redR99Tw7rm5rz2m31bx6qfa68G21bPV4+L56nKWRzukdj8VirPPaepXtAgnl/yqgoGHhPbHoujAxT+fpgUYMEAPEADGwnhhIWAGrRmBr/kZE5tZQxC7cuVK/CHfHy3lY6wmQcHvUa9RUPR++rx43tEjwPBVQ5pOQ0yPBUhBqKxMvSgS2M9Q+zi2h+mcR1hcQsG5t/k4R27+SIPD+epiA9l7zb3OihII/CMgt0QjYbySILLrXL2LLTf91ud8IKGwO2NQgovZvReUaTpZQ9E8i0jUR5ILnAlxtIfvVdqtpuF8i7WuPa7fVcliqHldT7Tl1O9K5SMfVfPGWH34dKzfSn7bs5W4rEdhDEjzPBJRcpQjscv1J+elBTgwQA8TA2jKQsAKWgcMeysE1sFP6a2BfFmCqwFHTSPWq51XRwq7THtPLxwkyxG0S0t8SUfw7AZV9oUjxIgFbKWLLTyIscQtYES6tgG0TUf+1X5QyWzZXiaj+TwE1X4qoei6i5gMJgiF+AauI7K/8Eb+kUyJqfaHoKjuX90wjdnWifqpvVL+E7+sdV32rl7LrI5UR7Vy0PKoN0fLHc028dWjLimubrYH90L8GNoXWwAZ/9SEu3+kwSfnW9qFF/if/EwPEAGMgoQWsCrHyKwSXRRSGfazFGSQ4nwrY+kQCHybo1LwrkYYLj/B9tQ52XPunPc62w/Mx+zOfiMjZL0HKkrFJlmG8IaLhcwnJSoSURWAFbJmXYMqSwedIyP4LAbXT0qIvzv2vmvWWEEQXsPLbIsqvyTA2SjCXLlxrzNbAbosVgTUYwb8uonZeQu5vRTgrQ9FWZUnBkIj6b0U46mQYTDKEOgn5I/726fkk3EfhPtTLE36NWoaaqufD82rPa7e112u31WvUVHtOux3pfKTj2rxL2VZ+hWAv/QrBUnxHeehBSQwQA8TA+mRgQwjYSHAFBezj1ROwkURHpOOqrep5NQ0/zvaVCHO1hIKP/B9RNfwsYMtnEtIDItC/hEBA+UMRlf8ooP5fRXh8ImSdX2NYqoAV3xCx7T8EbP+/AhohQLHhQxHmFP9HXPEIWBZBLnwmoP5TcfHa3GQZKddFeP6efUQmoO5vRGSz5QeBCQfzT/if6ittqvVj+PXafZZHvVZNo5WjntO7Vnsu/DzbDz+mvV7d1qaRrtdeQ9vrcyClfqF+IQaIAWLg5TKwoQXsasIUTaCo9Ua7JtY5tYxoqSpgXe2hqGa061/0HCs/9Z6INBb9DQjqTTYZed8IKNq9OnWG2xgu6vT29Y6Fl8P2tdexbb199Xi0VC1bvUbd10v1rmHHIl2rd5yOvdxBkfxN/iYGiAFiYP0zQAJ2Ha9x2zXSBGO6XRE7LA3f7xyuReE3/iUAeufDr3/R/c6RcpT/LCGvQ4Y5JxWdt+tgP21SfgYrtzx1kT0vWn6s62kAWf8DCPUR9RExQAwQA8TAWjBAAnYdC9j0shxFJEZKHaUZaPujDM/Z7KjXRcof67ijNBsdv3JiyzMJjf+fiO3/IqP5mROufVmrUl+4PWtxQ1CdNBATA8QAMUAMEAPrnwESsOtYwLIbaDUiq7Ein+vpPA0i638QoT6iPiIGiAFigBh42QyQgF3nAvZlA0H10SBEDBADxAAxQAwQA+udARKwJGB1Pyha7+CSfTS4EgPEADFADBADry4DJGBJwJKAJQaIAWKAGCAGiAFiIKEYIAFLwCYUsDTbfnVn29T31PfEADFADBADKgMkYEnAkoAlBogBYoAYIAaIAWIgoRggAUvAJhSw6syLUpqFEwPEADFADBADry4DJGBJwJKAJQaIAWKAGCAGiAFiIKEYIAFLwCYUsDTbfnVn29T31PfEADFADBADKgMbXsByvA0nXa34MjsDPC+/sFhbbn7V0ZTSTUcMEAPEADFADBADxMDKMLAhBCyXlI6izgs4Vp+2SKAyAXrK3YqvcpYuYCPl54wl+NJVCOsShPF6B7hk70Xs35IHwwZs23r3Pdm3MoMb+ZH8SAwQA8TAxmUgoQUsxxthLNyJM7cmMHCyBVnyi0dYlwM3Z/Hg9xtUwPJpNdh75TZGLx9EeZp50cRgOX6jvBt3QKG+pb4lBogBYoAYeBkMJKyA5YxuNJwcxJ2RC2hzObBJEynkeDveKunAT1Wdyt+P3ia8pRG3LCp7vng7LlpyMeBqwrPKdjwt3oIjsh+6mPmFQvzC04bnlaE6WF0/lpaiSGNHpA7019+IMUcJZoqa8Q+eVnzpqsBOMQR9kpiNXudWfFHehueeFnxc4IY3KSTQOdGNj4qLUWEswJi7Cd9V7sSzouJg/dHyc2YPvi2swEBRK/5QUYseewk+LG/DU3cRygyaOngrMuqOoX98DL27vLAkh85FahsdD/Uh+YJ8QQwQA8QAMUAMrA4DCStgrZ2DeDRyBPlSdFHF8ekYKtMTsB34vsSL100pEJNs6HA243m+E0lhAlQvvwojZ6vGjzoRWH+eheJWEbgF+coreb+A7cC3rhK0yykwJtvR5WzC94X5weUImaml6LNnwiWYkJyciv15zfgs0x6MhCoC1tOCz90eHDTZYDSYkCpYgq/8o+VnAvb3nm24YLShM68Fz4tKUSnkYrqiGTdMOv5Mb8e1h9M4Wqxzjj6CC/aJygWlqzNYkV/Jr8QAMUAMEAMqAwkrYDcZ3Wg8MYiJ4V60uNIWRGDVxrFUT4D6BWQb7qSEBBmXUokfioqQuQICVlu/3ra//naMa+uXivGJx4umQP2cwYYGRxnuFm7Dp2Ut+N7bgT8WOLFZPc8isJW1OBghKhotvyJgS4rh5GUUZjTgs8w0cHwqLpa0Ytis8QmLwG47jv6JMZynCCwJVZqsEAPEADFADBAD64SBxBWwijhla2A7/Gtgj+uvgY0sYMMEpMWDZ8XFyH4RAWutxp/cLtjD8uiJVu0xXQFrLMFvKipQy8vgeAv25rfgtwXF6LI44BQssNlr8WMggsvKUiKwlVVo1ak7Vv54BCxbA9t1ldbAavuNtmnmTwwQA8QAMUAMrA8GElrAqhBxSRlRfoUg0hKCFRCwxlJ85anFKaMFyQYTHJINJh1Bqdqppn4BuxNf5BXAK5hhFDPQU9iCr3MyISgC1oF3ynfgjtUK0WBBtsmJK64dLyBgo+ePR8CW7L2EAzX0KwRqn1G6PgYs6gfqB2KAGCAGiAHGwIYQsNFgXtUILJ+CxsxafF7Rrnxo9RtXMao1H0FFsssvYFvxQa4HvyxrxfcVzfiVMx9FgY+02K8rZNs8+LDMX+5nheU44PDi27gjsNHzxyNgI9lOx2ngIAaIAWKAGCAGiIG1ZmDDC9i1drBe/X4B24Z3LaH1pnrX0TEaIIgBYoAYIAaIAWKAGFjMAAnYNViMrLcGluBcDCf5hHxCDBADxAAxQAwQA3oMkIAlAUtfVK4BA3o3Ix2jQZoYIAaIAWKAGIiPARKwJF5IwBIDxAAxQAwQA8QAMZBQDJCAJWATCliamcY3MyU/kZ+IAWKAGCAGNjIDJGBJwJKAJQaIAWKAGCAGiAFiIKEYSCgB+1/TnQnl3I0886G20cyeGCAGiAFigBggBtaKARKwNOOiSQExQAwQA8QAMUAMEAMJxQAJWAI2oYBdq5ke1UtRBmKAGCAGiAFiYP0wQAKWBCwJWGKAGCAGiAFigBggBhKKARKwBGxCAUuz3/Uz+6W+oL4gBogBYoAYWCsGSMCSgCUBSwwQA8QAMUAMEAPEQEIxQAKWgE0oYNdqpvey6+V4E1K93XhzeAqzc3N4ON6Hg1U54Hl5ZfvLUY9jNyZw3zeHmakRHK1KW1A+x+eg9cYMxg9XYPML1M1VnMXsyAE4XiDPy/Yxq2+p7VtJWzk+BdW9U3ijxrrA9ytZB5VFUTJigBjYaAyQgF0BAcslpaOo8wKO1S98+G80WF5me0r2XsT+LXkwrKEA4vIOYby/E6ZVsiFa+VJlD+7OjOBYfQmsJjtsRe14/cA2mFfQFo63oubCLEZP1CBVNiMpJR9pKQsFMhN4bf0zmDjiSTgBG82/KstLbZ+aP5401vjAmVtwZbIHJUkLfR9P2XSNvihZD+MH9Y1+35BfyC8rxQAJ2GUIWI43wli4E2duTWDgZAuyZHoArRSYfFoN9l65jdHLB1GeZl6TyBRXehr3V1PARiif453YMzyHG205q9pujndh/+0pvO5aeW7XQwR2tfsvFuvxjg/W9gGMHy7DphWcnMSybaOfXw/jx0b3MbWPhOhaM0ACdokCljO60XByEHdGLqDN5Vjw8OF4G84XN2LMUYKZomb8g6cVX7oqsFMMAZ8kZqPXuRVflLfhuacFHxe44dVEYDjRjY+Ki1FhLMCYuwnfVe7Es6JiFAUectHyc2YPvi2swEBRK/5QUYseewk+LG/DU3cRygyxxYrf/u24aMnFgKsJzyrb8bR4C47I8dkfT/1cUhoO5NTis/I2/FCxAx8XlKJV4x92Y7AIYUbdMfSPj6F3lxeW5JDtnMEBV/tZ9I1NYfa99zA9+hZ2lWr6wVaFPedv4c5DH2amxnDlSAMcgj8/i7rtujWC18rq8XrfBGbnfJgeuYzmXJMiGDlbB677fHj0ZB7vv/9+8G/+9mFkBfzPyS5sP96H0alZ+GamMHz5CCrTAvl5O8rPTODdE1WQeBmcIQtNV+/iWkuuwkms8jlTO/rmB9FmDbV30UCxjPaxsrznZuCbe4wn86E2qu3j+HzsHdUcnx/H3tyFtnByCdrPD2PK9zjoH+ar3q0BH8daQhDFfqXvY/SvwVGDXef68e59H+ZmpzF8sQsFxkDdMfovnvZtimJfLH4U+6OMD9q+5Pg8vDY8hteyQv6l8SP2+LXc8UPbB7QdGtfJF+SLRGKABOwSBay1cxCPRo4gXwo9eNSO9z+AOvCtqwTtcgqMyXZ0OZvwfWE+rAEBlJlaij57JlyCCcnJqdif14zPMu3BiJsiYD0t+NztwUGTDUaDCamCJfhKPVp+JiB/79mGC0YbOvNa8LyoFJVCLqYrmnHDJIPj0zFU1oGfqjoX/P1YkK+Ur9r/fYkXr5tSICbZ0OFsxvN8J5LisD92/RZ05G/HfHoW8gUTkgwpKEr14gtXIdID5au+VNL0dlx7OI2jxQGBwpuQ0zWMmdvn0ViUA0m2I620EwfaSgL256Hz5ixGTtQj02yFlObFnhsPcOeEV7HfL0Aewzfai6bCDCTLOag+exdzFxoWrDHltl7EvE4EluPtqO4dwZVd1UhPSQEvOJBVYAOF+AAAIABJREFU34t3+zuD/csJxdg3PIne2gykdwzgdm/9oqUIEcvP2IfhJ5dRE2GywUTPirSPL0L3xCS6CxczrPqf48twdGqxgM07NIG7vS3IMFlhLtyLvslL2GIKlRMtAhvb/uj9y2yzbTuM7iYvMq1WGMz5qO+dwuh+V/D+YddE8q/aNuUanfbFto9NgKLzE2180Na/qeAIxt/ZE+TGbxObANP4EXn8Wt74scD/Sxz/qQwSesTA2jNAAnapA5jRjcYTg5gY7kWLK00nAtuOcc16Qk4qxiceL5rUCJ7BhgZHGe4WbsOnZS343tuBPxY4g+sMFQFbWYuDmqij9obhouRXBGRJMZy8jMKMBnyWmQaOT8XFklYMm0MiQ1uedtsvYNtwR2t/SiV+KCpCZhz2x6qfS8rHB14dAV3pRYtGwCoR2G3H0T8xhvOaCCwTVUemHuJkhT/iqbWdbXNpr2Fo7iKqtRFt5+sYv39GiWD7BawPZ7yhG5Cr7IFvsAs2bf2RBKzcgmth0VkWfZyfOw+PJv+m9A70TU5javg4XDrLSyIJLM7MIrA30WbT76sVa98SBSx7Ne45O4vB3YGIcnI5jk2GRRGjRGBj2x+9f5U+FnJQ1n4E564MYvTuA/geP8GTi40L78MI/aflRU+gx7aPCdgY/EQZH9T62Yd6JScncaXZsVB4K29waPyINH4td/xQ/U9paPwjX5AvEpEBErBLFbDKK262BrbDvwb2eGgNrF8Ahj2AjCX4TUUFatkrZd6Cvfkt+G1BMbosDjgFC2z2WqgRUAaSX8BWoVUriAK2xsofS0DGAlXXfosHz4qLkR2H/bHqVx5AlfU4I+oLNGYfW8PWdVV/DSzHu9E9/gDHS/UHHUWAvHcRVRrxzzkP4fb9swsE7OnKUP1KxPDWPtg1/uZq3sSTgd2waI4pfaMI2CHsTAvl1/OpVHoKI6MjGLvdC49l8bURy+ed2DX0Hvp36q+BXbH2LVHAsrYa8g9h5PEMxm8OYGhyBnfO74BNEzGOGoFlE4yo/ROjf3k76i49wPilA6grL4YjNQ2mHdcxf3nHwgh6hP7T9lVEARvVPr+AjcmPskZ+8fig1s+JdXhj8hKqwyY3uvcfjR/BCfhyxw/V/5Tqj5/kF/JLojBAAnYZAlbtZC4pY8GvEPgfQDvxRV4BvIIZRjEDPYUt+DonE4IiAB14p3wH7litEA0WZJucuOLa8QICNnr+WAJStTtSqvsAXSBgl1c/E+CdeTvwnasMrTJbomBBlsmJbktKMBJVsvcSDtTo/woBi1zlHRjD7EgP6t3ZkKRUpLqb0d3diBTFv/nYNTSLWye2IcNshZhWid1995UlBMnK+TgFSN5hTMz2oS0vDYZkK1Iyc/xrWvk0bDk/jYf9h1GZm45k0Y5UVyMaKzKD9nOpjbg4MYC2TBMcrX2409cJhyYizHzPRSifnUsuPY27s4FfITCmwuZqwakrx1AssgnQCrVvGQI2Z+8wru+ugLOkEoXZ6cGlLSpTUQVsTPtj9W8JDk9O4UxNFpIF5vsG7OubWixgo/g3aKfuEoKV8W+wjrDxQT0uN1zB3TM1wbcu6nEaPzz4fZQ3SMsdP1Q/U0pCjRhIbAZIwK6AgA2/CfwPoFZ8kOvBL8ta8X1FM37lzEdRQMCwV7DZNg8+LGtXPuD6rLAcBxxefBtYg8rKix6BjZ5/9QXs8utnH2Hsz67FJ+Wt+MGzA5+7qtBjsS54BRzuV+0+l5SFsj29ePv2tPIR1r3hi9hVmhESA/ZqdF0Yxt2HPszeG8O1I43ICER81SUEsSNoDpQd7MMY+1DI9wC3+w+gMBDVZR9x1R+5jpHJh/D5pvFufy86SzP8H2klF6Bz4C4u1mcpgpbj0+A5N4GRI5XKBEZtB8dHKZ83wV5zBG+NTsP3aA4PbvfhoDd7hdu39DWwjra38XDOh7kn85iff4JHvmmMXt0Pl/ohFVtCoPlATFliMX8d2wIf0m2K0j8K/1H6l90/9q1ncHPSh7n3HmD06nFsb+vBvfAIbBT/hvpAf41vNPvi5UetQy/l+Ay09d/FIffiBwiNH9EFrJ+P5Y0fen1CxxazSD4hn6xnBkjArpqAbcO7Oq+N1zMMZBsNVvEwwMRX9clTqLP5/cUE5WZTCbpH5nCuinwYlw8z9+HWaHdwTbk2j1/A0vih9Qlt031FDBAD4QyQgF01AbtwDWy442mfbsZEZYBLrscF3zAOVeZBFkwwyFlwbj2BwanrqI/w4VmitnW17HZ2j2OgM8IaZ52PuFbLDiqXxiFigBhIVAZIwJKADa7bTFSIye6XOwBzvBkZ20+jb2waM3OP4Ls/iVtXTmB7XiqxtALjiT8CSxNguq9f7n1N/iZ/JxoDJGBX4IGTaJ1O9tJARQwQA8QAMUAMEAOJzAAJWBKwFDUjBogBYoAYIAaIAWIgoRggAUvAJhSwiTxbJNsp2kEMEAPEADFADKwMAyRgScCSgCUGiAFigBggBogBYiChGCABS8AmFLA0c12ZmSv5kfxIDBADxAAxkMgMkIAlAUsClhggBogBYoAYIAaIgYRigAQsAZtQwCbybJFsp2gHMUAMEAPEADGwMgyQgCUBSwKWGCAGiAFigBggBoiBhGKABCwBm1DA0sx1ZWau5EfyIzFADBADxEAiM0AClgTsigtYjs/GXU8HfqrqxI/e9fcfhTi+Bud883j//fcxP+/D6Up5xX2wloMCx+dg163EaBeztfXGDMYPV2Azv7H6Ya0YSHS+V9p+jk9Bde8U3qixbqj7fKl8rffxeantonyvnhgnAbsCApZLSkdR5wUcq0+jAVLjT463ose9OgK2ZO9F7N+SB8MyRA/HZ6HzZmIIPb3Bmcs7hPH+TpjCfJBoAratfwYTRzwkYDX3jl5/v+ix5fIdia8XtWOp18drf6zxlzO34MpkD0qSaIKk7Yv1Pj5rbaXtV0+cxtPnJGCX8dDgeCOMhTtx5tYEBk62IEumAVIL3WoOkHxaDfZeuY3RywdRnmZe0sQh3gektk3raZsrPY370QSsJzqPnFyDU3d8mL62E6lhIng9tZNsWdrDa7l8R+LrZfVHLPvjHX+t7QMYP1yGTcT4gnFyvY/PL4szqmdp48t68BsJ2CUKWM7oRsPJQdwZuYA2l2PB4MjxNpwvbsSYowQzRc34B08rvnRVYKcYAiVJzEavcyu+KG/Dc08LPi5ww6uJEHCiGx8VF6PCWIAxdxO+q9yJZ0XFKAoMwtHyc2YPvi2swEBRK/5QUYseewk+LG/DU3cRygzRRQ2DkpPc+MtyL5o013KCCx+WebA1jvpVsCMNkBzvhM9bh2NCyJaizAb8bU5GcIDlktJwIKcWn5W34YeKHfi4oBStGv8pdvJWZNQdQ//4GHp3eWFJDpXHGRxwtZ9F39gUZt97D9Ojb2FXaXg/RY7AGhw12HWuH+/e92FudhrDF7tQYAyVvzmzEcdvjGPaN4e5hxPoO9WJgpRQ/0Y774+Q3sbJnQdxYWgSM74HGL9xClVppmD7o9XP2Tpw3efDoyf+ZRBsKYSyHOL2YWTxMvzlT+N4/TYc6pvA7JwP0yOX0ZwbKl/xn1yL05M+3L/eAXvYw3259nP2Pbg5sh95+Ttxsn8CD+ceYXZof8C+fOwdDdk+Pz+Ovbkh3/rtH8FrZfV4PYL9nFyC9vPDmPI9Vtqu+qB3qwyu9AzuXTuN14dm8N50HzobD+HmfR+mB/bBmSyDS+/C0HQPyjX8cWm7cXPyLIoC92A8/Kic66XR/Of3vQvbj/dhdGoWvpkpDF8+gkpN/0f1Xxz2K3VEecPAyZHrj8WXXnu1xzjejvIzE3j3RBUkxqMhC01X7+JaS64yTsbqH7WsaAI22vir5mcpx+fhteExvJal5YvGZ79v9N+QvYzxWdtHtB16bpAvXswXJGCXKGCtnYN4NHIE+VJoYFTh8wvYDnzrKkG7nAJjsh1dziZ8X5gPa0AoZKaWos+eCZdgQnJyKvbnNeOzTHtQwCgC1tOCz90eHDTZYDSYkCpYgq/Mo+VnAvb3nm24YLShM68Fz4tKUSnkYrqiGTdMTOCkY6jMv0aVrVNV/34syFfK53gzugpaMG9PUezheBkVWU34JCNkX7T6Q35Y2gDJ8RZ05G/HfHoW8gUTkgwpKEr14gtXIdLDhJZSV3o7rj2cxtFif19wvAk5XcOYuX0ejUU5kGQ70ko7caCtJOg/li/aA9K27TC6m7zItFphMOejvncKo/tdwf7xnJ3F+IktsAgWSHY3PDv3oSYzdPNFO+8XaE9wr68bVTkOiOYC1PXcge9qW3A5QKz6Ffu3XsR8xAjsY/hGe9FUmIFkOQfVZ+9i7kIDeD3/6dwDy7VfEWCz9zDWfwYNrhyIQgrMVvui+jm+DEen9ARsdPvzDk3gbm8LMkxWmAv3om/yEraYAv1fegYPfIPYnZ+N6jce4NHQYeSn1eONB5PoLmT8p6Lu0gNcaXYE+DaClTfSVRDYj86P3+aQAFfF8/zlHcH2RfefHdW9I7iyqxrpKSngBQey6nvxbn9ncHyI5r9Y9ofuP/0JGhOYseqPxpdafrSUE4qxb3gSvbUZSO8YwO3e+iDbTMBG6x+13Gj3Z7TxV82vpAVHMP7OnqBf2TEan/3j1FIDDMsdnxf0j87YQ+dDzxHyRXRfkIBd6g1kdKPxxCAmhnvR4krTicAuXPvJScX4xONFU0BAcAYbGhxluFu4DZ+WteB7bwf+WOAMrgNUBGxlLQ5qoopamKPlVwRsSTGcvIzCjAZ8lpmmPLQvlrRi2LxYcGvLVbcN5gp8XVyMPCWCko3Jslp0ayNWMexn5Sx5gEzKxwdeHYFd6UWLRoCx8jO2HUf/xBjOayKwTGAcmXqIkxULI45q29Q02gOSE3JQ1n4E564MYvTuA/geP8GTi43BfpbLDqN/dASXzx7D7tbtcKfbgudY+dHO+wXswrW3XOY+jPh6Ua7yEaN+xb9RBawPZ7yhm5+r7IFvsAs2jf9UP+ily7afRWAf9aEhICr16lDaEFHARrafvTpmAnFwdyCil1yOY5OhKJsikEYOwMHLyOgaVSYeSiRu5CGOl/r554tP4u7IfuUaTqjBuak+NKaoE6D4+InUJnY8qv/kFlwLi54rEfS58/Co/R/Df9HsV+2KxDcXR/1K30TgSy0/Zpregb7JaUwNH4dLs7wqnv5R6o8SQd4UZfxV7WIT2ZKTk8GJSug4i8DS+LxW47PaD5SGxmfyxdJ8QQJ2qQJWEWhsDWyHfw3s8dAaWP8MP2yANJbgNxUVqFVe8VqwN78Fvy0oRpfFAadggc1eCzUCymD2C9gqtOoIDjYDjpZ/JQQsa0NvUTOGzDKs9lr8zpmNJPXhGqN+9WZUBsiihX5Q2sbnYsa7DSc1grgkqzG4hIBjArayHmfEyGKbrYHtuqq/Bpbj3egef4DjpdFvCuUBP7hQSPrtsysRuvFLB1BXXgxHahpMO65DG2FTrku2w+GuQ2PnUfQO38HAayXBCUi087oCNu8Qbt8/rSwRYREyFiGMWX/Nm3gysBuWMEZ0y684i9lb+xYtFWB2RvrjIrRPt3yN/UrbmQCbu4DKMNvC64ocgV3YL1yY/Yb8Qxh5PIPxmwMYmpzBnfM7YAsseYlHICltGJzE0WITTM3XMXmuJhidj5ef8LaE70f0nyIgh7AzLTLfSgQ2iv+i2a/aEZHvOOpnZXAR+FLLj5VKpacwMjqCsdu98FhCbY2nf5T6mYDVuT/Vev1rYBePv8HzYh3emLyEao149perI2BpfA6OA9wqj89q/1Aaeewl38TnGxKwUR7g8ULEJWUs+BUCv4DdiS/yCuAVzDCKGegpbMHXOZkQFAHrwDvlO3DHaoVosCDb5MQV144XELDR86+EgGVtN6duwe/yXLhY1IirmocAx0evX/Ubi4B0FXTgk+wMpBhMyBRTAksU0vF2WTs+SLfDbDAj31qGX1a0hwQsb0Fn3g585ypDq5wCMcmCLJMT3Rb/kgZWfsneSzhQo/8rBKzevANjmB3pQb07G5KUilR3M7q7G5GiEVRsIlB36TFGDpdDFqywOf7/9t70uY3jXve//83YKJAYFAAC4OW+FEFiJ0AAoljURlLcRMq2ZG2xvEiRI0uKbEu2oijRHmu14kWxY8U5N1VOnFW/SI7jY+faOnYiLzp1Itc5VXlz3zy/aoBNDIczGHATOeTzAtU93d9e5tufmXm60QM05gWo4kjiiStXsa+nGZWuWtRE+/D4sauTAlZxdmDkuYPY3JtCQ3V1/ivg0JYTeGtCTFrm53/m6uf4yYFRhKurodamMf7ST3F5z6r8JMGq/Un/tj+Bi28ew0h7HZyVQQSaWgt7Dg1+RksvAEUdZi9xzbX/+boXWMC2bj2Dlx/pQiiZRaSlYVJ85tsWX1FbrMAKO/e6F3DlwGY8dvIVPB4q3jDL5UfUYfSx9l8dVh+8htePP4FsWwMqVcFYP/q7mibrsxKwpfov+2TOt3X7og7FhK/J+ku8BKjU9OPwxRMYafKhfvgYLh0bR73cX1zm+Jj1X7YvQ/39V6Z7+o7g8r6eKZNKkcf7c4Hbxbo/y/FhaHz/oF/K9wsFrMlDaC4QFW6Qw3i3LYP3UsP4smsjfh3qKL4g4vCipTqD91Oj+Re4bkXS2F6fw2cTe1BF26VXYEuXny8BqzgbcbpzE76KRVA3RfiVbl/ru0pvDO90DuObzDA+Ckfy2xpEflOwC79JFV5g+30ognTtavxN9xLXtpZe3EwP4+vMIG5HV2G/Pzjla3ptO/q4UtGM1KMH8MNXruVfYnr1zGFs7iwIVK2tM/wojrzyBn72s9dx8cWxwlfKDi9q1+zDj69cx1s/ew3njj6NDSP78erEHkex8uPpGMGTR8/h6vW38Pb11/DK8f3oby/8zqR1vvid1tfx8nefxfFLb+D661fww2dH0TIxSRDlS7Uv+y8mEqkdx3BevGiW78N2RMRLSmULWOOXuObaf9G/cgRY3q7EFgLt7/PqBXj9yA/x+lvX8dY7N3Djxjt4+/o1nDu6DVFv4SWucgSsIrYeXPg5rh8fn76KXSY/ciy0oZX/8uftiWL97pdx9srruH79Gn5y/ADGOxsn+S7Hf6X6L/tjxHc57edtTPiSdSsmLwEqlWGMn7iMw+ub84JccdQh872LOLs7W5jAlylgRTtm/Zd9MAsVRyNGjl/Grtj0hyHvz0WfLNb92WzcmF4cG/rC2hcUsAsmYEfwE83XZoTRGsaV4qOCwHwTe7uKX6va6dwXu/9CnHTv2Yu11QWmhGB82JfEzrNv4XuryJmdWFqovoo95afP7USTZuIt2yoIWN6fpT8Y8p5hVwYoYBdMwE7f+2lXSNjv+b3BGa2Q2snHi91/pXI9Dl0/g13ZdnhcPjg9zQiteQYnr76M9dX2nBTYafzt0NfQzgs4Md46uSVD2+eCgOX9WesTxuf3Hk9/Phh/UsBSwBre5HkBLtwFuNgCcK5ju9j9Fz/z1rjhuzh2/hreeOttXP/pFZw+8gw2tNeQ5QW4n82Vl6VWngJ24e5tS22s2Z/lPdYUsLzh86FPBsgAGSADZIAMkAFbMUABS2BtBSxn1Mt7Rs3x5fiSATJABshAOQxQwFLAUsCSATJABsgAGSADZMBWDNhKwJajyGnDmRsZIANkgAyQATJABpY3AxSwnHHZasbFG9LyviFxfDm+ZIAMkAEyUA4DFLAUsBSwZIAMkAEyQAbIABmwFQMUsATWVsCWMyujDWfvZIAMkAEyQAaWNwMUsBSwFLBkgAyQATJABsgAGbAVAxSwBNZWwHJGvbxn1Bxfji8ZIANkgAyUw8CKELCKI4DuA1fxXE9wmlgT/8qyJzqMD1sa4TD432wrJ861vFX9zOeFTAbIABkgA2SADJCBqQwsCwGrVDQgPn4IT62vmyZQxYArVUM4cmU/khXT/yddCNC9sWF81Dp7AWtWXvEm8WE0guAshPFSBzW59TC2rW6Hcxme21L3Pfs39SZGf9AfZIAMkIGVx4CtBazi8MIb2YR9py/ixJ4hNHumC1QBdXD0BC48kcJDD1hsKf4MPl+mAtZR14OtR17BuRd2IF1XZThx4A1l5d1QOOYcczJABsgAGXgQDNhWwCreGPr2nMSls4cwEq03FaeKox2PnTmPx5qL4lZx1OLF5Bi+XTWe/9zPDeBFjfgVq7IHExtw2N+GE9EB3M2O4k5iNXZ7ClBalndF8MvMCO5li22Itu53diJehogutN+P8/VJvBHfiH9khvFhtAub1OJFUaG24EBoDT5Ij+BeZgh/CseQ06wwK2oMv00k0OUN43xsAF9kN+FuPDHZfqnySlUGn0W6cCI+jG+6erG/Non30yO4E4sj5dT6MYjGtU/h+IXzOLA5B39lMe9BwMs2ijzQF/QFGSADZIAMrCQGbCtgg+Mn8fbZ3ehwW4im8G5c+NGjpl/jK44GnEoZCdgxfJnM4Tu+ANSKaoyFNuJeRwgVOgFqVF4CpFR3477BCmyhzFRxmxe44Y78V/IFATuGz6JJjHoC8FbWYktoAF9GOibPo6mmE8dqmxB1+VBZWYNt7Rtxq6l2ciU0L2AzQ7gdy2CHrxpepw81Lv/kV/6lygsB+3lmHQ55qzHePoR78U5kXW241rURP/AZ+LthFC+9fg1PJgzy+JLc5JhILhjyIUMGyAAZIANkYG4M2FbAPuSNof+Zk7h45gCGonWGK7CKw4fknis4srHeVEQYCdCCgBzBpUBRkCmBLL6Ox9E0DwLWCtpC+6O4oG3fncDNTA4DE+0rzmr01adwObIOf04N4cvcGP4rHMLDMl+swGZ7scNkVbRU+byATSYQcngQaezDraY6KI4aHE4O40yVxieOIBrXPY3jF8/jIFdgTRmzGm/mz+0mRv/Rf2SADJCBlceAfQWseDkrvwd2rLAH9unpe2AVdS2eu/I8ujXbA/SQmwtYnYD0Z3A3kUDLTARssBv/jEVRqyuj74P+2FDAepP4S1cXeh0eKA4/tnYM4a/hBLb46xFy+VFd24v7Eyu4or78Cmx2FYYN2rYqX46AFXtgtxzlHlj92PF45d1EOeYcczJABsjAg2fA1gJWAqNUNBr+CoGn7wgu7+uZXJWU9tpwQQWstxMfZXqx1+tHpdOHenc1fAaCUtsfES8I2E34oD2MnKsKXrUR+yND+Li1Ca68gK3Hj9KDuBQMQnX60eIL4Uh0cAYCtnT5cgRscuvz2N7DXyHQjx2PH/xNjD6nz8kAGSADK4+BZSFgjcBVHI0YOX4Zu2KlB3VBBawjgP6mXtzuGs2/aPWXaALdmpegjPot0goCdhjvtmXwXmoYX3ZtxK9DHYhPvKQlVp5bqjN4P1Wo91Ykje31OXxW9gps6fLlCFizvjO9NG/0D/1DBsgAGSADZGDuDCxfAdv0OE6f2zltz6odoCkI2BH8xF/cb2qHfrOPc78g6UP6kAyQATJABsiANQPLVsCGdl7AifFWW75YY7QHljBbw0wf0UdkgAyQATJABlYGA8tWwNoZYArYlXHx2ZlR9p2MkgEyQAbIwGIyQAHL3ym15Sr1Yl40bJs3bTJABsgAGSADi8sABSwFLAUsGSADZIAMkAEyQAZsxQAFLIG1FbCc8S7ujJf+p//JABkgA2RgKTBAAUsBSwFLBsgAGSADZIAMkAFbMUABS2BtBexSmPWxD1x9IANkgAyQATKwuAxQwFLAUsCSATJABsgAGSADZMBWDFDAElhbAcsZ7+LOeOl/+p8MkAEyQAaWAgMUsPMoYAegzloMWpW1ytfDJOyNPlq7mdapLcs4b2BkgAyQATJABsjAYjFAATuPAlYMopUo1IpK7aCXU07Wr61DxrV1STurNKs29eV5zBsVGSADZIAMkAEysBQYWPYCNnjdha79nlmvjFoNkhSQpUKrOkR+KTGpz7M6NqtPltOH5fSPNrxhkQEyQAbIABkgA0uFgWUhYJVKD/zPq4g8MV2oBq65kN47PX2+BkCKQbP6rPJFOWGj/8j6tOVlXIZGNuWkyfIylGXmEvpPqAht8eBhx8L5ei79Y1nedMkAGSADZIAMLB8GbC1gFYcHzl43Yh+7kH3VDbd/unjyX3ahc/f09PmC2EoEavNFXP+R/dDbadNlGW2aUVymiVCW0YcyTxtqy806HnIj9BsV3b92IxhaOH/Pun/zvFWE/Vg+N0GOJceSDJABMmA/BmwrYJWgGw2vutD7qYrmtR48ZLLy5z3vQmL7wgkqvUA0OtZfGMKmVNpM8rXt6esUx6XqMsozqqPcNDGhcO90I3vXhcQRDypcC+f3cvtEO/vdlDhmHDMyQAbIABmwYsC2ArbyeRV9n6rw+UqLJM8pFfFHp9ooDjfC/+matkrZ/547L4St8rVOnakINLPXpmvjoi2rY72NsDf7aG1lvVbna5Wv9Uc+HnYj/T8uhPum+n2aHVdFp01k6CPetMkAGSADZIAMWDNgWwErV2B7/qaiaY0HYvXPaMDdx1XExozzjOxnmmYmFLXp2jqlaJShzNMe6+PiWH6EvTZuVF6mSVt5LOvVhzJ/rmF+BXaXG5m7LiSPcgV2rv5keesbGH1EH5EBMkAGViYDthWwAtgpe2CvGu+BXWiwjcSktk0pFkWaNq4/1uZp49q6ZFzm60OZL0OZrz+W6TKU+XMKxR7Y9wt7YAPcA2s4mZqTf7laTZ+SATJABsgAGZhkwNYCVgqC/K8QvKAiontZS3G6Ebrjwpp33HCYrNDKOmYTSgEoQ6M6tHkirv+IMlobo2OZJstq29GXLZWnt9Ufa8vONJ7/FYKt/BWCmfqN9itz5YDjznEnA2SADMyNgWUhYM0gmBSwP194ASvFpVFo1j+ZrheS2mNZn5GttJOhtBFhOWlGNto6GJ/bxUX/0X9kgAyQATJABhaGgWUtYBcSGq3408b1bZard+ohAAAgAElEQVTKE7bafBHXHpeqS2+nPdbHxbE2TbarT9O3x+OFuejoV/qVDJABMkAGyMDcGKCA5X6Syf0kvJjmdjHRf/QfGSADZIAMkIEHwwAFLAUsBSwZIANkgAyQATJABmzFAAUsgbUVsJzZPpiZLf1MP5MBMkAGyMBSZoAClgKWApYMkAEyQAbIABkgA7ZigAKWwNoK2KU8G2TfuFpBBsgAGSADZODBMPC/nO4alPv53w2hsm3LrXM2dsnuEZT6+IIN4Gf5+qDU2Is8K6asylvlk63ly5YYW6vxt+KL+eU/U+gr+ooMkIHZMkABS7FrO7E/V4FhVd4qnwKWAna2N1yW48OaDJABMjA/DFDAUsBSwFqs6OsF7XIWsJ0HAPFZzudodW768dYf8+EzPw8f+pF+JANkYC4MUMBSwNpOrOgFhf7Y6oLQ28/02EoA2TmfApZbCKyuH+ZTdJABMrAUGKCApYClgOUK7CQDFLAUsEvhwcQ+UCCRATJgxQAFLAXspHixy8qh1YqpFfRW5a3y7eKn2fSTApYC1ur6YT6FBRkgA0uBgWUpYL2BCF7NjuHbVeO4nxvF1cb6BRdpnaF+fBGJLHg7sxEly62MlcC0urCsyuvzE6s24bHjb+DYzrH8G+rLmS8KWApYq+uH+RQvZIAMLAUGloWATXRvxui+Uzj8xHheYEjB5g204HCSAlb6Qx9667L4KJFCS2BhBP5C1S8E5thzp7F/+1akVg1P+9kjcWE5qnMYfOI5vPSTN/DOkVFUqtWTP681TaDq+JmWv24/fvzTE9i0utCW9ONy5Gs+BexCjf+k/xeI33L4Wgo3b/aBIoIMkIGVzICtBWxi1Qhy48/h6MWf4tzR/ehbs3gCI2nDFVhvYze+WEgBu0D1C4HROfA0nj31Ki7/+EWMD4xOEbHignb44+js7cOap8/ihomANeNHL2B79l7A1cPfQXJCLE8KqAc4QXpQfM2rgF2g8Z/0/wLVXw5fK/mhwXOnaCIDZGApMGBbAZtYuwM7j17Cq5dO4cnxzUhoVuImH3AlBEZVTQRHo334JDOKu10DeDccR2ewuBIZrI3ihch6fNg1inuZYfx/8TTWVxfz/TURnIgP4E5mFJ91rsX5+MYZbSEo1b430IoXO/vxUmMcpxODuJsdxX90rsV368r//c1AbRw/SWzEf2RF/wfxXiSF9TWF8t6aTvwqM4p7E9ssxFaL/HaLVBa5idVYq/P31qTx+84Meus7cTE5iL9nN+HLzky+vFX93kAcb+U24Nmaoj9z7QP4NBzOb8EonP9GXGzL4Gedg/hHdgQfJbrxWG3BXgrMxKoxrN/1Ms5evYpj33sSqydWSLUXlmfomKGALcWPrF+EiVVbse/iVewbLq70Lme+yhWw5IsPMO11xjh5IANk4EEzYFsB27PvEn5+6WUM9haFhRQeVgJDCCSxteBWOI5MdSMaasM4mhjBx5EwaiYEXLQlix+1RpCpaUR1dRt2xwZxuz00IbDa8ELnKG5H4shVN6G5NooTyZFJAesNtONcurAHV4rDvECMJ+EP1MOq/YKAG8NXqV48U9+M2mALtkYHcS8WRzBfvnT94vzHo6P4KBxFKCjOL4Txti5sq50qgL3NvbhvsgJb6vxF/XkBmxnGB8nVeKqhBfXBBrTVNOfPb9L/JvWXJ2DHcCeRxaN1zaivbsOuyCC+iifz2x3kOMswMbgfp66/ie8/UmBBexGZCdhS/Mh68+HYy7j6k++jZwYTJKvxFf4p5V9vYPH4kgK2FL/kiw8q7TXGOHkgA2RgMRiwrYBNrt2BXUcu4erFH2P3+Pjk17tCdEwKKJMVWG9tGn/M9mKLZu9nfr9eZjU2TqR5gy0Ybcvh1cQG3E4P46vcGP4rHkeVEJC1afwpuwaPa1ZsZ/ISl1X7BQE7iqtNxRVKb9NqfN3Zhaimz/I8jcLmxix+k+rHjcgqHGmNob+2CT5d2VICttT5i/byAja3Dk9pVqX1/TCrvzwBO3Xvsre2C3/O9mAsUD+5XSC/AvudYzj76lX8YIYrsKX4kQJWbDHYdPQ1/PipzZNtLne+pIDVj6X+mHzxgbUYDyy2Se7IABmQDNhXwOa/3hV7YA/giNgD+6LxHtjvG7zElReQmTV4TCPovPVZ/LVrNQbzK5zN+E5sGB/FM9jV2I7Omia0tq7DfbmCWtuFW9kebJ6LgC3ZvthCoBNwjd2429mFmKbPelGhP/YGmtDZEMPTbTlc7xzE70LtCGjKe5vW4J/JFEKaNFGHN1D6/PM2YgtBtheP6Mpq+2Befxw/y/Vhv2YLQXf7Rt0WAt3512Xx10w3BiYErNgDu6/EHlgJuNkKrBCihT2w0/mZFLA9e3Dsp2fw2MTeapkuz1G8xLXc+CpXwBY4IV+SM4Z8qJIBMkAGHiwDthawUlAkuh/B6LMnDX6FoBHfiY3hzx1hNAcbEa1tzgs4+RXtzUgMXdWNqK8J40hiGJ+EI6id+Ir+TNcQrja3oDbYhFh9HD9IDBUFbKADZ9Oj+E17GNHqJnTUJ3E1tWlyC4EUOGahdftzE7Ci/ueiPXixqQOpmiYEg83oDW3APZ1YFaL93zPr8FxdE6qDjeiobUFDGeefFy/lCNgS9Z9Kj+LfQiE0BRuRasrh15lRnYAdw4fRJNbXNKG+NozD+fEpbPEQ4z723Bns32H+KwTyRlJKwJrxI9Nzu8/i2stPo1OzfUDkyXH1BpYfX+UIWPL1YG/SkmWG9DsZIANkoMjAshCwUnDIUAoMEVbXp/FuahjfZEbw7/FOdE6sGFbVRvBSrD//EteXXQP4t3Ac6Ymvw72BBsSaV+N3Ey9w3Y6vwpNtPbgzsQIr6q2vT+Facgj/yIzib8lu7OtYj89n8Duwpdufq4CtR3N9EufiA/gs/7LWMP6a6MHTdY2T4kucg1hp3dS+Dh9M2mTQlxew1uef30JgtQJrUr9oO9rcjd8K/2aH8cdoCr2ta/B/p7zENYL/E+nGr9Mj+CoziPcjSeQmVrzlOJuFDrURg8du4Be/+MWUz41XnkKbWj1lO4BZHYlVj+DJc6/hwLj5HuvlyFd5AnZl88UHSPEBQl/QF2SADCwWA8tewAqRwY+9fCD3AF8y+QMKM9Ep060uJmlXKkwMPY9XrhzBBt3qqyiznHkqR8Da/fwXmi8r/pjPBz4ZIANkYO4MUMBS4C45QSYFhtk/qJUSniLP6sZgVV7kD3z/Gs49+5jhaq3dBVyp/q8kAbtQfFnxx/y5P7joQ/qQDJABClgKWArY7hFDoWomdEsJQLvnUcDyr2QpDCgMyAAZsAMDFLAUsEtOwFqJQDNhKdOtLjxpN9vQqn92zl8JAtZqfKy4sOKL+Xz4kwEyQAYWngEKWApYCliuwNqOASsROpd8CtiFf/Dw4U4fkwEyMFcGKGApYG0nXuYqMKzKW+XPRRyx7NJ/odBq/Od602V5PrjJABkgA3Nn4H895PSCH/qADJABMkAGyAAZIANkwC4MUMBSwHMCQwbIABkgA2SADJABWzFAAUtgbQWsXWaG7CdXMcgAGSADZIAMLBwDFLAUsBSwZIAMkAEyQAbIABmwFQMUsATWVsByNrtws1n6lr4lA2SADJABuzBAAUsBSwFLBsgAGSADZIAMkAFbMfBABKziCKD7wFU81xNcEs5RHC24nBnDt6vGcT83igsBz5Lol11mPewnZ+hkgAyQATJABsjAYjIwLwJWqWhAfPwQnlpfZygElaohHLmyH8mKpSUUFUcQ+2OzF7CKN4kPoxEEHdPPK7n1MLatbofTIG8xB5xt84ZDBsgAGSADZIAM2J2BOQlYxeGFN7IJ+05fxIk9Q2j2TBdywkHB0RO48EQKDy0xMTdnAevP4HMTAeuo68HWI6/g3As7kK6rMhT2doeH/ecNkAyQATJABsgAGVgMBmYtYBVvDH17TuLS2UMYidabilPF0Y7HzpzHY81Txa3THcKZaD/uZEZxr2sAv2qLIucqQqBU1GF7ay9upUfwddcg/hTuxLCqyVdj+G0igS5vGOdjA/giuwl34wnEHR4o7hj+kM5hwFlsU3FF8X4qgzUaEV1KwJZqX3FF8MvMCO5lC9sQxFaE/HaEzs58+3IgRf2Na5/C8QvncWBzDv7KYn+kDcPimNIX9AUZIANkgAyQATJQDgOzFrDB8ZN4++xudLgtRFl4Ny786NFpX7MPhkbwYWsLap0++NQ6DNbHsdldGDTF4cdYxwbcaGhGh8uHCmcA8ZocPohG0DAhQBUhYDNDuB3LYIevGl6nDzUuf/4re8VRhS3hIdyoDeRXPhWHB13NA7jZWDtlJdRMwJbTvnCuUt2N+yYrsFOc3zCKl16/hicTFr7iBvIp4zPFh/QNfUMGyAAZIANkgAxMMDBrAfuQN4b+Z07i4pkDGIrWGa7AKg4fknuu4MjG+mkOD/g78V5yA94OpXGorg09atVkHUpFB97NTV3dzK9wZnMY0grYbC92mKxqOqu68HEigXaxIutswZVUL3a6pgpIUwFbRvvlCNj8Cuy6p3H84nkc5ArsNAYoUDnLJgNkgAyQATJABmbDwOwFrFiBzO+BHSvsgX16+h5YRV2L5648j26TvbGK04+QrxU761N4LTGA3zTWF1ZQhYDMrsc+darg1J5gfgU2uwrDmi0BU/Id1TgQ34hTVR4Ea3vxSagFFTrbvICNT3+JKy+gLdoXbSnBbvwzFkWtrl6RJ/bAbjnKPbDaMWGcNykyQAbIABkgA2RgPhiYk4CVHVAqGg1/hcDTdwSX9/XgYZ3AUxy12Nuew8FgAzpcVfktAunGtbg3IQbFV/jj7YP4IprCsCcAtcKPZl8IO/2FLQGiXSsBK2yqalbjk/YoDsf7cdRARIsV4i3hMdxsaUTA6UOTGpjYgmDdfr4P3k58lOnFXq8flU4f6t3V8E2ca3Lr89jew18hkIww5A2LDJABMkAGyAAZmC8G5kXAGnVGcTRi5Phl7IpNHyyxJzXg7cCpSB8+FS9xZYbwl2gOu7zFt/XFS1TbWnpxMz2MrzODuB1dhf3+YHGbgdgDW2IFVvRJcTbidOcmfBWLoE4nomWfK70xvNM5jG8yw/goHEFows6q/Xz9jgD6m3pxu0ueQwLdmhfHZBsMpzNAn9AnZIAMkAEyQAbIwGwZWDgB2/Q4Tp/biSYT4TjbDrMcYScDZIAMkAEyQAbIwMpmYMEEbGjnBZwYb+WLO3xjkgyQATJABsgAGSADZGBeGVgwAcuZ0cqeGXH8Of5kgAyQATJABsjAQjFAAcsZ0bzOiBYKVNbLmyAZIANkgAyQATIgGaCApYClgCUDZIAMkAEyQAbIgK0YoIAlsLYCVs68GHIWTgbIABkgA2Rg5TJAAUsBSwFLBsgAGSADZIAMkAFbMUABS2BtBSxn2yt3ts2x59iTATJABsiAZIAClgKWApYMkAEyQAbIABkgA7ZigAKWwNoKWDnzYshZOBkgA2SADJCBlcsABSwFLAUsGSADZIAMkAEyQAZsxQAFLIG1FbCcba/c2TbHnmNPBsgAGSADkgEKWApYClgyQAbIABkgA2SADNiKAQpYAmsrYOXMiyFn4WSADJABMkAGVi4DFLAUsBSwZIAMkAEyQAbIABmwFQMUsATWVsBytr1yZ9sce449GSADZIAMSAYoYClgKWDJABkgA2SADJABMmArBihgCaytgJUzL4achZMBMkAGyAAZWLkMUMBSwFLAkgEyQAbIABkgA2TAVgxQwBJYWwHL2fbKnW1z7Dn2ZIAMkAEyIBmggKWApYAlA2SADJABMkAGyICtGKCAJbC2AlbOvBhyFk4GyAAZIANkYOUyQAFLAUsBSwbIABkgA2SADJABWzFAAUtgbQUsZ9srd7bNsefYkwEyQAbIgGSAApYClgKWDJABMkAGyAAZIAO2YoAClsDaClg582LIWTgZIANkgAyQgZXLAAUsBSwFLBkgA2SADJABMkAGbMUABSyBtRWwnG2v3Nk2x55jTwbIABkgA5IBClgKWApYMkAGyAAZIANkgAzYigEKWAJrK2DlzIshZ+FkgAyQATJABlYuAxSwFLAUsGSADJABMkAGyAAZsBUDFLAPGNgBqNMAEWlG6XJmWSrPyqacsrIOEWrttXGtzULFZ9OeWRmRLj8L1V/Wu3Jn/hx7jj0ZIANkYHEZWNECVgocq1BCWspO2GjzZRmzdDNbbTkZF7YyXiqUdtq6jeLl1CFtZJ3yWBsqdR50/F5F0O+Z7J9Re2Zp2rpEvFRbelt5LMvo25D5SylUUm50/sIN1VX011LqH/uyuDdj+p/+JwNkgAyUz8CCC9jgdRe69i/sA1txeFDzCxcSW92TQqocCKT4EbZmcaN6pK0M9Tb6dP2xvj2j8qJMOR99Wf2xUdvSppz6pY0sI0Ol0o3WD1TEt3og/C/TzcJS/ZBlZFtmobTThkb1GqVpy1jFxfk03VTR84obD5Vxblb1yXxRr++kC91X3XDMY72yfobl3/joK/qKDJABMmBvBuZFwCqVHvifVxF5YrqQCVxzIb13evp8gqPUuJG+50ZghitbWqFjFtf2U9iYffR2pY5FnrY9ra0+Xq6dUTmjvurt9MfltqceVrH6tfKFmFW9M83Xn5v2PKzq0toaxYXQbP6zCz0X5lfAiraUCjda/qqiY938XxP+EypCWzx4mOLYckJlNO5Ms/fDjOPH8SMDK4uBOQlY8aB39roR+9iF7KtuuDVfJUuQ/Jdd6Nw9/w9rWb8IKw8WVstEf7TpVnGt0DGLa+uQNmahtJX52mORJj8iXca1obSXoTbPKC7ttPVp02S6Pk17LOrVH2vTtHFppzjcaP+7ipZQef42qkPWJUKZL0L9R9pJG3ksQ5muL6c9lrZLJXz4cRVr3lkAoRlyI/QbFd2/diNY5tgsFZ+wHyvrwcPx5niTATIwVwZmLWCVoBsNr7rQ+6mK5rUe069aveddSGwvT+jM5mSEaG37m4q25MzbkOJHtGsW1/ZJ2pQKRZ7Ml2W1xzIuQ33b2jJaG5kuQ6M8mSbCUh9ZhwxlOXEsy8m4tNGGStiNVf+hwlPGhKGc+mTd2n7o29fnmZXRl5N2VqEQ5W13XJPn3w8VbV06puJuRG6qWPsvFzb8twuZ19zwNRRsRPnWj1VEv+9G8t9VrP+XCz03VdS06+oQq7BeN1LfqvCX4T+rfuvzxfXg3ulG9q4LiSMeVMzwWwl9fTzmQ4YMkAEyQAaWIgOzFrCVz6vo+1SFzzf9Aa09Uc8pFfFHp9qIh334P4tiQYqc/vcKX9la5WvrV1ar6PnAjcpZiAGtKCo3rrUT/ZB9l3Ft32RcW0bGZWhUTuaJsNRH1i9DWc6oTrM0WVbmyzpkqM2XcWVAxdrfq5b7OGUdMpRtyHr0odZOb6vPk2VFuj5Pfyxtyw0L/E0XsGI/d8+rblR6PHC2uhH8voramFbAurD2jypqUh44atyoe9uF9b91o0LHpqg/cl9FvebasWLeKn/auYXdSP+PC+G+qdfeNLsH/CscbJ8PQjJABsgAGZgPBmYtYOUKbM/fVDStMX+Rx31cRWxsYR6iYrUpcE2d9R5bKXRkKB2qPTaLS1sRShsZavNkvsiTH5km7UqVkzb60KiMNk22pQ/19chjWVYfynxtqGx0Y+3vSu9/lfWIctq40bGsW9jpP9o8GZd1SFv9sUyXobZcOXEzAescciNzx4XUdTda97vhDxe5F2XyK7DjRdaVmBvd/1IRNBKw36qo9xZty+lXOTb5FdhdbmTuupA8yhXYcnxGGz5MyQAZIAP2Y2DWAlYMtnhYTu6BvWq8B3YhoRBfxSbuqaipmp0QEAJH9E+G2r5K8aPN06bp42b16NNlfTLU55v1Qd+etrwso03Txo3yZZoItbZmca19qS0Eory2Dn39sh69jZmdTDeyl3naUMS1H7NyWht93EzACjvF5YG6zo2GF1UkPnEhe6z4rcE0AZtVsdpgq8CCbSEQe2DfL+yBDXAP7BQO9GPM46nXCf1Bf5ABMmA3BuYkYOXJ5n+F4AUVEd3LWorTjdAdF9a8U3q1TtYz09D5lIreN2f/prgQNzMROGa2Ml0fyvOR6fJYhNo0bdzMRpuuLy/ztPWIuNFH2so6tGVkmt5GeyziQuDlX+Iy2N+ptxXH+jaMbMqxM6pHpslQX7c+XfF7EP3KlV9BdulWRmVZIwErWG56R0XrNjfczR485PHA+wMVfbcL21cKK7AurL7hhq/ZA0erGy2/d6H3mnvarwIs1Etc+V8h2LoAL4fpJgXSTwz5wCMDZIAMkIHFYmBeBKxZ5ycF7M/nX8CK1V/xU0cd4gWyWT5g9eLGqh5hb/YRZWV9MpT1zfTYrJxM17alT5NtyVCfrz02ipdbLv8zWj8tb1yN6iy3ba2dUT0yTYRmH20dit+N2Dcq1v7BDXUmAlZ829DtRvi3Ktb8y4W+f7mw+pYbDdkCf1LApl9Xkf3KhfX/oyJzXYVH98scC/kzWtrzZJwPFTJABsgAGVjODCyogF1Ix4n9havulPcmvFk/zASPPl2WF+kyrg216bKszNfmiTT9sVmaVbpVPfp8caxPk32UYTk20nYmf2Rg1a6sU4SyD2ahka0sp82T8Zm0LcsIMRr5VkVrvPzJkRSw0VHzMmLSxT8y4ANFcsaQLJABMkAGZs+AbQWs96yK7AvmYoFQzB6Kcn2n1Lmn/ZVsuWWXmp1S4YF7lQcOjwfqIyp6/ltFUC2fr4KAVRHVvMSlP0f+lezCM6n3OY/pczJABsjA8mTAtgKWQC5PIBdrXJVWN2J/c2H9/3Nh/VcqOjaXL15Fn8sRsIt1bmyX1woZIANkgAwsNwYoYGe5f3a5gcDz4c2NDJABMkAGyAAZsAsDFLAUsIb7eu0CMPvJmy0ZIANkgAyQgZXHAAUsBSwFLBkgA2SADJABMkAGbMUABSyBtRWwnGWvvFk2x5xjTgbIABkgA3oGKGApYClgyQAZIANkgAyQATJgKwYoYAmsrYDVz8B4zFk5GSADZIAMkIGVxwAFLAUsBSwZIANkgAyQATJABmzFAAXsEgPW6J+j5L9Smc0wjcrobc1szNL15eWx1l4bl/nlhrMpa1ZGpMtPue3TbuXN1jnmHHMyQAbIwPJhgAK2hICVosgqlBdEKTtho82XZczSzWy15WRc2Mp4qVDaaes2ipdTh7SRdcpjbajUeUz/qatUOW0d2rgso++z1mapxPmvW8vnJrlUmGI/yBQZIANkoMjAggvY4HUXuvbP7F+NZjpA4j/ma37hQmKruywhV279UjAJe7O4UV3SVoZ6G326/ljfnlF5Uaacj76s/tiobWlTTv3SRpaRoVLpRusHKuJbPRDjI9NlKMuZhdJOGwpb7bGIG6XpbUodi7413VTR84obDxn0s1TZUnmiXt9JF7qvuuGYx3pLtcm84o2NvqAvyAAZIAPLm4F5EbBKpQf+51VEnpguVALXXEjvnZ4+n2ApNW6k77kRcBm00+BGZZVBeomVV9k3rTgyi0tbEQobs4/ertSxrEtrYxbX9svMxii9nH6alTNK16eph1Wsfs1YvFn1WZ+v76u2Lb2tNq+cuBCazX92oefC/ApY0bZS4UbLX1V0rJsdf6X67z+hIrTFg4cpjqdNakr5jXnL+4HG8eX4koGVw8CcBKx4+Dt73Yh97EL2VTfc/ukPav9lFzp3T0+fT8gqDxZW0ER/9PW6XlAR3jg9XW9ndKwVR2ZxbTlpYxZKW5mvPRZp8iPSZVwbSnsZavOM4tJOW582Tabr07THol79sTZNG5d2isON9r+raAlN97u0F6H+I8tLG3ksQ5muL6c9lrZLJXz4cRVr3lkAoRlyI/QbFd2/diNo4Oelcv7sx8p5mHCsOdZkgAw8SAZmLWCVoBsNr7rQ+6mK5rUe069fveddSGyfLmTm6ySFaG37m4q2ZLENkeYZdcNT64HnhIrYuAeOdg+qRT/LWHmVNlIwiWOzuLTV2khbo1CkyXRZVnss4zLU1ivtZZrWRpsn883SRLlSH7Nysl7Zrgz19krYjVX/ocJjMKGQtvqy2mNtXNrLtrXHZml6G/2xENhtd1yTPuiHirYuHRtxNyI3Vaz9lwsb/tuFzGtu+BoKNqJ868cqot93I/nvKtb/y4Wemypq2nV1iFVYrxupb1X4S/hC379yjwXn7p1uZO+6kDjiQYXRNxAz4L3cdmnHhxQZIANkgAwsNgOzFrCVz6vo+1SFzzf9oa09Kc8pFfFHp9oIARD+z6KAEIJFfPrfK3yNa5WvrV9ZraLnAzcqNQJBlPfsUpH+uwtr7ruw7j9d6P2riqb1U/uhrccorhVS5ca1dqJOcSzTZKhvS5su4zKUdWjLyDwRlvpoy+jrkXVobYzS9PnSRobafBlXBlSs/b1acu+nvrz2WBuXdYpQpOvz9Mda+3LiBdamC1ixd7vnVTcqPR44W90Ifl9FbazAjyjT+rELa/+ooiblgaPGjbq3XVj/WzcqNByK9oVt5L6Kes11UmhzfvjPn2PYjfT/uBDumxnf5fiHNnxIkQEyQAbIwFJkYNYCVq7A9vxNRdMa4xd1xAm7j6uIjS3Mg1WsQAWuqaZ7bJVaN1L/cqHvP1S4nTPvgxRHMpQDqD02i0tbEUobGWrzZL7Ikx+ZJu1KlZM2+tCojDZNtqUP9fXIY1lWH8p8bahsdGPt74z3v0o7fbuyXpGvjctjaa8/lukylPWXG5oJWOeQG5k7LqSuu9G63w1/uMh4QcCqiI4XmVJibnT/S0XQSMB+q6LeW7Qtt29WdvkV2F1uZO66kDzKFVgrfzGfD2EyQAbIwPJhYNYCVkAgHqCTe2CvGu+BXUhYxNeziXsqagxe0hJ9q7qgInvMjbp/U9Fp8IKZVd+kkJKh1l4KJm2eNk0fF2W1tvq65LG0kaFVOX072mNZpwyt6tTmyzL69lzoDjwAACAASURBVLU22rjWfjZbCGR5UadZvTJdhrKMDM3SZb5RaCZgha3i8kBd50bDiyoSn7jyLIlfKjAUsFkVqw22CizYFgKxB/b9wh7YAPfAzmhrkBEHTFs+DzWOJceSDKwMBuYkYCUk+V8heEFFRPeyluJ0I3THhTXvlF6Nk/XMNHQ+paL3TeO3xxW/G5FfuOFyeqAECnFVtzpm1Z4QRDMRRWa2Ml0fyvZlujwWoTZNGzez0abry8s8bT0ibvSRtrIObRmZprfRHou4EHj5l7gM9oRKW329Ml2GRvkyTYbSVob6dMXvQfQrV3412GUy9kYCVnDb9I6K1m1uuJs9eMjjgfcHKvpuF7aqFASsC6tvuOFr9sDR6kbL713oveae9qsAC/USV/5XCLYuwMth3DNLMUwGyAAZIAM2YGBeBKwUEPpwUsD+fP4FrFhhFT9/1DHDF7P0fSx1rBdEpWxFnrA3+8h8bSjr07djdWxWTqYbtSHTZN0ytCqjzZd1lJOW/xmtn5qPu1H72nqN8mWaCM0+2jrEJCb2jYq1f3DDbPJiKGDFNwvdboR/q2KN2ILyLxdW33KjIVvYBiAFbPp1FdmvXFj/Pyoy11V4dL/CsZA/o6U9T8ZXxmoDx5njTAbIABkoMrCgAnYhHS32HK66U/pN97m2byaS9OmyHZEu49pQmy7LynxtnkjTH5ulWaVb1aPPF8f6NNlHGZZjI22t/shA9l/WaRTKurS2Mq7Nk3Gr/ks7bSjEaORbFa3x8veoSgEbHTUvIyZY/COD4o1G63PG6RcyQAbIABmYKwO2FbDesyqyL5gLiLk6huXnfnEpdW7Tv5JdTP8qFR64V3ng8HigPqKi579VBNXyWSoI2KkvcenPh38lO3d+9D7lMX1KBsgAGSADkgHbClh5AgwJ80wZUFrdiP3NhfX/z4X1X6no2Fy+eBVtlSNgZ9on2pNjMkAGyAAZIAPlM0ABa4ONygS6fKDpK/qKDJABMkAGyMDyZ4AClgLWcN8uL/7lf/FzjDnGZIAMkAEyYFcGKGApYClgyQAZIANkgAyQATJgKwYoYAmsrYC160yR/eYqBxkgA2SADJCB+WOAApYClgKWDJABMkAGyAAZIAO2YoAClsDaCljOXudv9kpf0pdkgAyQATJgVwYoYClgKWDJABkgA2SADJABMmArBihgCaytgLXrTJH95ioHGSADZIAMkIH5Y4AClgKWApYMkAEyQAbIABkgA7ZiYFkKWMXRgsuZMXy7ahz3c6O4EJjZPy0tpxmS4qjGnugwPmxphMOxcv2wnMaU5zJ/M3j6kr4kA2SADNiTgXkRsEpFA+Ljh/DU+rolpd4VRxD7Y7MXsIo3iQ+jEQRtLPyEgN0bG8ZHrfMrYJNbD2Pb6nY4bewb3rTsedPiuHHcyAAZIANkYE4CVnF44Y1swr7TF3FizxCaPUtrhW/OAtafwec2F7ALdZE76nqw9cgrOPfCDqTrqpbUxGWhzpn18oZJBsgAGSADZGBpMDBrAat4Y+jbcxKXzh7CSLQeD+lW4pzuEM5E+3EnM4p7XQP4VVsUOVfxpJWKOmxv7cWt9Ai+7hrEn8KdGFY1+WoMv00k0OUN43xsAF9kN+FuPIG4wwPFHcMf0jkMOIuCWXFF8X4qgzWafpQSsKXaV1wR/DIzgnvZwjYEsRUhvx2hszPfvhW8SlUGn0W6cCI+jG+6erG/Non30yO4E4sjNdHnCrUFB0Jr8EF6BPcyQ/hTOIZcReF8xKrpwUQ/ztcn8UZ8I/6RGcaH0S5smvCPdX4tXkwW+34/N4AXNZOLQvkNOOxvw4noAO5mR3EnsRq7PRr/V9Tju+0b8OnEVgzpg9eqNT53BNG49ikcv3AeBzbn4K8s5ln5iPlFX9MX9AUZIANkgAyQgZkxMGsBGxw/ibfP7kaH21i0DIZG8GFrC2qdPvjUOgzWx7HZXeic4vBjrGMDbjQ0o8PlQ4UzgHhNDh9EI2iYEKCKELCZIdyOZbDDVw2v04calz//lbXiqMKW8BBu1AbyK3+Kw4Ou5gHcbKydshJoJmDLaV+ApFR3477BCqziaMCpVFEgSnF3P9xR6F9VBp9n1uGQtxrj7UO4F+9E1tWGa10b8QNfwV9NNZ04VtuEqMuHysoabGvfiFtNhf4XBOYYPosmMeoJwFtZiy2hAXwZ6chvZ7DK114Ehb4aCdgxfJnM4Tu+ANSKaoyFNuJeRwgVE/4X/vy4vQPhSh9qfHH8KtWNcTOB2jCKl16/hicTxixo+8P4zC5Q+ov+IgNkgAyQATIwnYFZC9iHvDH0P3MSF88cwFC0btoKbMDfifeSG/B2KI1DdW3oUasmbZSKDrybMxCA2RyGtAI224sdJqLJWdWFjxMJtIsVWWcLrqR6sdM1VUCZCtgy2hewmAlYK5DECuznyQRCDg8ijX241VQHxVGDw8lhnKkq9FFxVqOvPoXLkXX4c2oIX+bG8F/hEB4W55NfgZ26d1dxJ3Azk8NAGfna/pkL2BFc0rzcpgSy+DoeR1O+fg/EBOR3DdX5MVOcjTid6sNh3WRF+Ldx3dM4fvE8DnIFdsrkSTsGjE+/8dAn9AkZIANkgAzMhYHZC1gh8PJ7YMcKe2Cfnr4HVnH6EfK1Ymd9Cq8lBvCbxvrCCqUQkNn12KdOFZzaE8mvwGZXYVizJWBKvqMaB+IbcarKg2BtLz4JtUyuHkq7vICNTxWCIi8voC3az9sFu/HPWBS1Jn2Q7ehDKwErVoC3dgzhr+EEtvjrEXL5UV3bi8kVXCMB603iL11d6DUTsJp8bX/MBexUvyj+DO4mEmiZONdKbxJ/zg3jw/ha/CE9nF+NFeJW1i32wG45yj2w0h8MeSMmA2SADJABMvDgGJiTgJUDpVQ0TvkVAsVRi73tORwMNqDDVZXfIpBuXIt7E2JQCLjx9kF8EU1h2CO+wvaj2RfCTn9hS4Co10rACpuqmtX4pD2Kw/F+HNXs8Zzsl8OHLeEx3GxpRMDpQ5MamNiCYN1+vg/eTnyU6cVerx+VTh/q3dXwaUScbEcfWgvYevwoPYhLwSBUpx8tvhCORAd1AnYTPmgPI+eqgldtxP7IED5ubYJrUsCa52v7M1sBm2jcgHcbGpGuakK3JzBtcpDc+jy29/BXCLS+ZvzB3bjoa/qaDJABMrCyGZgXAauHSOxJDXg7cCrSh0/FS1yZIfwlmsMub/FtdfES1baWXtxMD+PrzCBuR1dhvz9Y3GYg9sCWWIEVbea/2u7chK9iEdSZCMtKbwzvdA7jm8wwPgpH8l/r58tatJ+3cQTQ39SL213yHBLo1rw4pj9veWwtYL1oqc7g/VSh3luRNLbX5/CZ3EObX4EdxrttGbyXGsaXXRvx61AH4lNe8jLPl/0onIPYr2u0B7b0Cmyofi3+nh3BvdwY7ufG8mN4KxLH6ok+aNtgfGXfRDj+HH8yQAbIABl40AwsiIB90Cex3Nor7IEdwU/8xa/stedola+1nU1ccQQw1taFrRO/GiEmJM7KBhxLjuKyZt/sbOpmGd7kyAAZIANkgAyQgbkyQAG7BP86zuglLu1AW+VrbWcTV5xteCOzHscDNQg4vaioCCJdncbvUr3YpntRbjb1swxvXGSADJABMkAGyMBcGKCApYCdfDFLgiRezovUZPBvySHczW7CV+mN+GMkjR2aLSDSliFvQGSADJABMkAGyMCDZoACdgkK2AcNAdvjjYcMkAEyQAbIABmwEwMUsBSw01Zg7QQw+8obLhkgA2SADJCBlccABSwFLAUsGSADZIAMkAEyQAZsxcCMBOz/bgjZ6uQ4I1t5MzKOOcecDJABMkAGyMDyZ4ACljMuTkrIABkgA2SADJABMmArBihgCaytgOWsevnPqjnGHGMyQAbIABmwYoAClgKWApYMkAEyQAbIABkgA7ZigAKWwNoKWKsZGfM5aycDZIAMkAEysPwZoIClgKWAJQNkgAyQATJABsiArRiggF0AYBVHCy5nxvDtqnHcz43iQsBjKyiW08xVcbRi+Adv4MITXXjYsTzHQXEE0H3gKp7rCS4Jzsj/8l/5WE73CJ4LeSUD9mRgWQhYpaIB8fFDeGp93ZJ4gMuLQXEEsT82ewGreJP4MBpB0IbCK7n1MLatbodzkfsuBOzI8TdwcXfGtgLWim+laghHruxHsmJpCXTyv/j8y3sRQ3s+oDluHDcyYM6ArQWs4vDCG9mEfacv4sSeITR7ltkD3J/B5zYVsI66Hmw98grOvbAD6bqqJTWxsMsNoVy+g6MncOGJFB5a5MmC3q9zFrDkn9fNAnxDpueUx+YCgb6hb5YyA7YVsIo3hr49J3Hp7CGMROunPbyd7hDORPtxJzOKe10D+FVbFDlXEUalog7bW3txKz2Cr7sG8adwJ4ZVTb4aw28TCXR5wzgfG8AX2U24G08g7vBAccfwh3QOA86iYFZcUbyfymCNRkSUeoCXal9xRfDLzAjuZQvbEMRWhPx2hM7OfPtWQCmOahxMbMBhfxtORAdwNzuKO4nV2O0pnl+F2oIDoTX4ID2Ce5kh/CkcQ25iBU+pyuCzSBdOxIfxTVcv9tcm8X56BHdicaQmzrlU/2X/xPk3rn0Kxy+cx4HNOfgri/56uKkfT//gAq5dfwtvvX4Rx/aOIxwo9E+smm4+/Qr2bNqBQ6eu4I3rr+HCD/ZiVZ1v8oGu1D6KH5/dhvaOTdhz/CJef+ttvHlqG5rF+Dg6sPXcDfziF7/If27cuICtbcW2C/WfxWOp9fjOsYt4863ruHb2BWxs09TvSWL04Blcvf7zyXpEfQfWeKB07sOrL30X3zn1Bn527RjG+3fhxz+9jmsnHkeo0gOlYQtOXduPtEvTZt0j+PGVZxGXPnbWIzr6LI6dv4o3f/YzXDv3IjZ3Fjm24rvo43Y8duY8HmsutiXyyP/S5l+OH8PiPYm+oC/IABmYCQO2FbDB8ZN4++xudLinPrjlyQ+GRvBhawtqnT741DoM1sex2S0Fkh9jHRtwo6EZHS4fKpwBxGty+CAaQcOEAFWEgM0M4XYsgx2+anidPtS4/PmvxBVHFbaEh3CjNpAXVIrDg67mAdxsrJ0UWKIfZgJWcVi3ny9f3Y37BiuwiqMBp1JTxW1e4IY7JvonBOwYvkzm8B1fAGpFNcZCG3GvI4SKifNrqunEsdomRF0+VFbWYFv7RtxqKvRfCNjPM+twyFuN8fYh3It3Iutqw7WujfiBTwjE8vovx+KhhlG89Po1PJkojlXm2Tdx4ZnV8Lv8cNfGkNn0OHqa5PgIAfsOXj22E6ta66FWhbF2/yVcPzoCnxwfIWDffBXnj+9DX7QVqiuAqmAtHJoJRGEMUnjyqpGA/TmunzuAgUgjKj2t6H72Mt461DdZvn3XRVw+MIRGXxBVka04duV5rPYV+i8E7GvXT+KRjhZ0P/ca3j71BDrq1uO5165gZ0T4pwZrn38NRzbWT/Dhhajv7JbwxLEPrVvO4I1XDqI/3gq3pxZ1nePYPpKc3HJhxfekb8O7ceFHj07bZkL+lzb/k+PHFcYp90z6hQKGDJCBchmwrYB9yBtD/zMncfHMAQxF66atwAb8nXgvuQFvh9I4VNeGHrVq0kap6MC7OQMBmM1hSAokIWCzvdihWTXUOtVZ1YWPEwm0ixU/ZwuupHqxU7PiJmxNBWwZ7efLmwhYbT+M4oUV2BFc0rw8pgSy+DoeR5M8P2c1+upTuBxZhz+nhvBlbgz/FQ7l94nmBWwygZDDg0hjH2411eVF2eHkMM5UeVCO/+T5N657GscvnsdB3QqsJ/UEjp87ixeefQqPDG9ArKG6OD75Fdjr+G62KHiVpsdx9voBpGX/hYB9+xj6JkSlkR8KfTATsNexL1e8USjZ/bh+cguq8yu4XgiBffKRtnyflMo0nrpSXOXMC9iz21Hv8KBxyzmc2xaF4mjHY2dfx9OdhT47Entw+ey2vI3i6sH3rh5D/8R4KI4Udl99HXu6iiu+0/pvwXfh3HxI7rkyKZS1dZD/pc2/dqwYL16H9AV9QQbIQLkM2FfA5gWi2AM7VtgD+/T0PbCK04+QrxU761N4LTGA3zTWF1YohYDMrsc+tSiQ9A7Lr8BmV2FYt6In7YRIPBDfiFNVHgRre/FJqGVydbNoE8T++PSXuPIC0KJ9UYcS7MY/Y1HUmvRBtqMPCwJ2aruKP4O7iQRa8gLNj60dQ/hrOIEt/nqEXH5U1/bivlzBFSuwVgLWov9iD+yWo6X3wCqVtaiPrUX/+JM4cOYSTjyWLAhoIwHbvguv/PS7k1so8lsI3jqErIVvhFg0XoHVCeSuZ/Hm6ccnfe3s2IWzP38DF358AqeuvIFLBwdRLbdPiBVYCwGb36Zw8gqeTPjg2/gyrnyvZ3J1VXHEsPPCa3i6s/SNqrAHtgTf6lo8d+V5dJvs/Sb/xet7KfKvv255XPp6oH/oHzJABrQM2FrAyhNRKhqn/AqB4qjF3vYcDgYb0OGqym8RSDeuxb0JMSi+Ah9vH8QX0RSGPeIrdj+afSHs9Be2BIh6rQSssKmqWY1P2qM4HO/HUQMRoTh82BIew82WRgScPjSpgYmv+K3bz/fB24mPMr3Y6/Wj0ulDvbt68it0ee5GobWArceP0oO4FAxCdfrR4gvhSHSwfAFbhv+SW5/H9h7jt7AVZwdGnjuIzb0pNFRXw+GqR2jLCbx14hH48wJbbCH4OX5yYBTh6mqotWmMv/RTXN6zanKSsNACtnXrGbz8SBdCySwiLQ2T4jM/LmUIWGHnXvcCrhzYjMdOvoLHQ8Ubj+Cifft5vHl2P9bHWuB216AmthE7d/YjYCDI9XzLMff0HcHlfT3Tfl2B/IstNKUmcIvLvxw/hsVrgr6gL8gAGZgpA8tCwOpPWuxJDXg7cCrSh0/FS1yZIfwlmsMub/FtePES0raWXtxMD+PrzCBuR1dhvz9Y/Bo7v4XAfAVWtKk4G3G6cxO+ikVQZyA8hE2lN4Z3OofxTWYYH4Uj+a/l82Ut2s/bOALob+rF7S55Dgl0a14cEzZGH2sB60VLdQbvpwr13oqksb0+h8/KXIEtt/9GfcuXdXjh6RjBk0fP4er1t/D29dfwyvH96G8v/I5p4SWr1/Hyd5/F8Utv4PrrV/DDZ0fRopkkLLSArR/5IV5/6zreeucGbtx4B29fv4ZzR7ch6i28xGW1Aps/T7H14MLPcf34eF6Ya/2hVDQj9egB/PCVa/mXyF49cxibOxuniVFtGW1ccTRi5Phl7IpNZ4D8WwnYxeVfO46MT+eXPqFPyAAZKIeBZSlgyzlx2izdC6QgYN/E3q7iV8APcryEOOzesxdrqws+El/lP+xLYufZt/C9VUvDb2JP8OlzOyf3ND9I/7CtpcEAx4HjQAbIwEpmgALWZBVzJUOx2OdeELBT96g+yD4pletx6PoZ7Mq2w+PywelpRmjNMzh59WWsr14cUa0//9DOCzgx3mq4Aq+35TEfcmSADJABMrDcGKCApYBdciJo0QWsowqNG76LY+ev4Y233sb1n17B6SPPYEN7zZLz1XK7IfF8+JAlA2SADJCBchiggKWApSgjA2SADJABMkAGyICtGKCAJbC2AracWRltOHsnA2SADJABMrC8GaCApYClgCUDZIAMkAEyQAbIgK0YoIAlsLYCljPq5T2j5vhyfMkAGSADZKAcBihgKWApYMkAGSADZIAMkAEyYCsGKGAJrK2ALWdWRhvO3skAGSADZIAMLG8GKGApYClgyQAZIANkgAyQATJgKwYoYAmsrYDljHp5z6g5vhxfMkAGyAAZKIcBClgKWApYMkAGyAAZIANkgAzYigEKWANgFUcLLmfG8O2qcdzPjeJCYGn8fWg5M5KlaKM4Aug+cBXP9QRndXHMtbzeJxxfzu71TPCYTJABMkAG7MXAshCwSkUD4uOH8NT6ulkJJDNoFUcQ+2OLJ2AVbxIfRiMIOowFtFW+2XnNR3py62FsW90Op0nftG0oVUM4cmU/khUm52ExflbltW3NJM7xNb9ZzWR8Z+Jz2pr7nL6hb8gAGSAD5TNgawGrOLzwRjZh3+mLOLFnCM0eY4E0WyAWXeD4M/i8lIC1yJ/teZdTzlHXg61HXsG5F3YgXVdVcuIQHD2BC0+k8JBO7JY7fmbly+lnKRuOr/mNYibjW8rHzDP3MX1D35ABMkAGZs+AbQWs4o2hb89JXDp7CCPR+iniSHGEcD23Fk+5ioI23tSH/9vaOCm0FDWG3yYS6PKGcT42gC+ym3A3nkBcI7JmK3AURzUOJvpxvj6JN+Ib8Y/MMD6MdmGTWhyoCrUFB0Jr8EF6BPcyQ/hTOIbcxAql4orgl5kR3MsWtjGIrQz57Qydnfn+WeWLC0KpqMP21l7cSo/g665B/CnciWFN+6XOv9D/DTjsb8OJ6ADuZkdxJ7Eauz3F/ufbcATRuPYpHL9wHgc25+CvLPpbXpSKox2PnTmPx5qn5pUaP1m20Mb08hzfpTO+2rFifOr1QX/QH2SADJCBhWPAtgI2OH4Sb5/djQ73VGEkYClb4GSGcDuWwQ5fNbxOH2pc/ilfiZsJWMXRgFOpqeIyLzDDHfnyBQE4hs+iSYx6AvBW1mJLaABfRjomtwM01XTiWG0Toi4fKitrsK19I2411U4K7Px5VHfjfqkVWJN8xeHHWMcG3GhoRofLhwpnAPGaHD6IRtAwIdDzAtbk/GX/v0zm8B1fAGpFNcZCG3GvI4QKjcCfvDAbRvHS69fwZGL6WDwU3o0LP3p08rxlmVLjJ23yoUF5ju8SGl+DPeRTxo/5U65p+mbhHmb0LX1LBlYWA7YVsA95Y+h/5iQunjmAoWjd7FZgs73YYbBqKC8CMwEr883CggCcundWcSdwM5PDgBSQzmr01adwObIOf04N4cvcGP4rHMLDGoGomAhU2a5ZvlLRgXdzBgI7m8OQbF+sQJucf6H/I7ikeXlNCWTxdTyOJm3/xArsuqdx/OJ5HDRYgVUcPiT3XMGRjfXTH+Ilxm/y/EzKly1gTc6vWP/s9jhzfFfWTVLywpDjTgbIABlYOgzYV8DmV1rFHtixwh7Yp4t7YBVHG97IrcMezRaCZHP/9C0E2VUY1ggyPZh5ARufKkT1NkbHhgLHm8RfurrQ6/BArJBu7RjCX8MJbPHXI+Tyo7q2F/cnVnBlnUqwG/+MRVFr0kez/LyAza7HPtVgRXRiRSy/Amty/ob992dwN5FAy0RfxB7JLUdL74FV1LV47srz6DbZm1zYAzt9/CbP36Q8x7cD7y6B8ZXjxHDp3NA5FhwLMkAGVgoDthawcpCUisYpv0IgvuL/YWoU7zbUospZhY5gCu91jc5CwPqwJTyGmy2NCDh9aFIDU7YYyPb1YUEAbsIH7WHkXFXwqo3YHxnCx61NcOUFbD1+lB7EpWAQqtOPFl8IR6KD0wWstxMfZXqx1+tHpdOHenc1fBoxq5jkC4E83j6IL6IpDHvEFgA/mn0h7PQHJldC5ypgk1ufx/ae0r9C4Ok7gsv7eqasKut9JY714ydtzMpzfJfG+MpxYsgHJhkgA2SADDxoBpaFgDVyWlOwC79JFV6Q+n0ognTtavxN/xKXyQqktr5KbwzvdA7jm8wwPgpHENIISK2dNl4QsMN4ty2D91LD+LJrI34d6kBcvqTl8KKlOoP3U6P5F7huRdLYXp/DZ/oVWEcA/U29uN1VsPtLNIFuZ3FVVfw+qlm+eIlrW0svbqaH8XVmELejq7DfH5zcajFXAas9X6O44mjEyPHL2BWb3UVtVZ7ju7jjazTmTJsd6/Qb/UYGyAAZmDkDy1bALiYMBQE7gp/4i2JzMfuzGG0rTY/j9LmdU/bMzqQfcy0/k7ZmasvxnfmNZqY+pj19TAbIABkgA6UYoIBdgLekCwJn5ntnSw2U3fJCOy/gxHjr5JaFmfZ/ruVn2t5M7Dm+vKnOhBfakhcyQAbIwPwzQAFLATtrkblSL0gK2Pm/Ea1UlnjeZIkMkAEyMDsGKGAXQMASxtnBSL/Rb2SADJABMkAGyEA5DFDAUsByBZYMkAEyQAbIABkgA7ZigAKWwNoK2HJmZbTh7J0MkAEyQAbIwPJmYEYCljAsbxg4vhxfMkAGyAAZIANkwA4MUMByBZYrsGSADJABMkAGyAAZsBUDFLAE1lbA2mFWyD5y9YIMkAEyQAbIwMIyQAFLAUsBSwbIABkgA2SADJABWzFAAUtgbQUsZ7QLO6Olf+lfMkAGyAAZsAMDFLAUsBSwZIAMkAEyQAbIABmwFQMPRMAqjgC6D1zFcz3BJeEcxdGCy5kxfLtqHPdzK/svX8W/Su2JDuPDlkY4HJ4lMT52mPmxj1yhIANkgAyQATKweAzMi4BVKhoQHz+Ep9bXGQogpWoIR67sR7JiaQkkxRHE/tjsBaziTeLDaARBGws/IWD3xobxUev8Ctjk1sPYtrodThv7hjemxbsx0ff0PRkgA2SADJRiYE4CVnF44Y1swr7TF3FizxCaPcYCNTh6AheeSOGhJSZm5ixg/Rl8bnMBWwqOueQ56nqw9cgrOPfCDqTrqgwnNnOpn2V5YyMDZIAMkAEysHIZmLWAVbwx9O05iUtnD2EkWm8qThVHOx47cx6PNU8Vt053CGei/biTGcW9rgH8qi2KnKs4EEpFHba39uJWegRfdw3iT+FODKuafDWG3yYS6PKGcT42gC+ym3A3nkDc4YHijuEP6RwGnMU2FVcU76cyWKMR0aUEbKn2FVcEv8yM4F62sA1BbEXIb0fo7My3b3VBKVUZfBbpwon4ML7p6sX+2iTeT4/gTiyO1ESfK9QWHAitwQfpEdzLDOFP4RhyEyvYYtX0YKIf5+uTeCO+Ef/IDOPDaBc2TfjHOr8WLyaLfb+fG8CLmslHofwGHPa34UR0AHezo7iTWI3dHo3/K+rx3fYN+HRiK4b0wWvVC8izOgAABd9JREFUGp87gmhc+xSOXziPA5tz8FcW86x8xPyir+kL+oIMkAEyQAbIwFQGZi1gg+Mn8fbZ3ehwW4iS8G5c+NGj075mHwyN4MPWFtQ6ffCpdRisj2Ozu9A5xeHHWMcG3GhoRofLhwpnAPGaHD6IRtAwIUAVIWAzQ7gdy2CHrxpepw81Ln/+K2vFUYUt4SHcqA3kV/4UhwddzQO42Vg7ZSXQTMCW074ASanuxn2DFVjF0YBTqaJAlOLufrij0L+qDD7PrMMhbzXG24dwL96JrKsN17o24ge+gj+bajpxrLYJUZcPlZU12Na+EbeaCv0vCMwxfBZNYtQTgLeyFltCA/gy0pH3s1W+9iIo9NVIwI7hy2QO3/EFoFZUYyy0Efc6QqiY8L/w58ftHQhX+lDji+NXqW6MmwnUhlG89Po1PJmwYIUb6KfwqR0nxqfeuOgP+oMMkAEysLIZmLWAfcgbQ/8zJ3HxzAEMResMV2AVhw/JPVdwZGP9tAdzwN+J95Ib8HYojUN1behRqybrUCo68G7OQABmcxjSCthsL3aYiCZnVRc+TiTQLlZknS24kurFTtdUAWUqYMtoX1w4ZgLW6qISK7CfJxMIOTyINPbhVlMdFEcNDieHcaaq0EfFWY2++hQuR9bhz6khfJkbw3+FQ3hYnE9+BXbq3l3FncDNTA4DZeRr+2cuYEdwKVD0lxLI4ut4HE35+j0QE5DfNVTnx0xxNuJ0qg+HdZMZ4d/GdU/j+MXzOMgV2GnXgHYcGF/ZN2KOP8efDJABMjAzBmYvYIWAy++BHSvsgX16+h5YRV2L5648j27N19PaAVKcfoR8rdhZn8JriQH8prG+sEIpBGR2PfapRQGlLSfi+RXY7CoMa7YEaG2EyDsQ34hTVR4Ea3vxSahlcvVQ2uUFbHyqEMzXXUb7ebtgN/4Zi6LWpA+yHX1oJWDFCvDWjiH8NZzAFn89Qi4/qmt7MbmCayRgvUn8pasLvWYCVpOv7Y+5gJ3qF8Wfwd1EAi0T51rpTeLPuWF8GF+LP6SH86uxQtzKusUe2C1HuQdW+oPhzG5M9Bf9RQbIABkgA6UYmJOAlRUrFY2Gv0Lg6TuCy/t68quG0laEiqMWe9tzOBhsQIerKr9FIN24FvcmxKAQcOPtg/gimsKwR3yF7UezL4Sd/sKWgHwdYgtBCQErbKpqVuOT9igOx/tx1EBEixXiLeEx3GxpRMDpQ5MamNiCYN1+vg/eTnyU6cVerx+VTh/q3dXwaUScsDH6WAvYevwoPYhLwSBUpx8tvhCORAd1AnYTPmgPI+eqgldtxP7IED5ubYJrUsCa52v7NFsBm2jcgHcbGpGuakK3JzBtcpDc+jy29/BXCLS+Ztz4eqBf6BcyQAbIABmYKQPzImCNGlUcjRg5fhm7YtMHRexJDXg7cCrSh0/FS1yZIfwlmsMub/FtdfES1baWXtxMD+PrzCBuR1dhvz9Y3GZQhoDNf7XduQlfxSKoMxGWld4Y3ukcxjeZYXwUjuS/1hfnY9V+3sYRQH9TL253yXNIoFvz4piRX/LlLLYQiJXtluoM3k8V6r0VSWN7fQ6fyT20+RXYYbzblsF7qWF82bURvw51ID7lJS/zfG2/ZitgQ/Vr8ffsCO7lxnA/N5Yfw1uROFYvsZ9K054r49OvRfqEPiEDZIAMkAE7MrBwArbpcZw+tzO/Z9KOjlnKfS7sgR3BT/zFr+y1/bXK19rOJi7+mGKsrQtbJ341QkxInJUNOJYcxWXNvtnZ1M0yvJGSATJABsgAGSADVgwsmIAN7byAE+Othl+hW3WK+aXBNXqJS+szq3yt7WziirMNb2TW43igBgGnFxUVQaSr0/hdqhfbdC/KzaZ+lik9/vQP/UMGyAAZIAMrnYEFE7Ar3bELef5WAtUqf659E1scIjUZ/FtyCHezm/BVeiP+GEljh2YLyFzbYHnenMkAGSADZIAMkAEzBihgTV60MnMY03kxkQEyQAbIABkgA2RgcRn4/wGlTc0qCJnbEgAAAABJRU5ErkJggg==;" parent="5mr8kqb3Nry0wDjkXf5w-1" vertex="1">
                    <mxGeometry x="10" y="-470" width="688" height="392" as="geometry"/>
                </mxCell>
                <mxCell id="h9OEV1z8nox2Ov8Pxtjx-2" value="" style="shape=image;verticalLabelPosition=bottom;labelBackgroundColor=#ffffff;verticalAlign=top;aspect=fixed;imageAspect=0;image=data:image/png,iVBORw0KGgoAAAANSUhEUgAAAq0AAAEpCAYAAAC5lRv4AAAgAElEQVR4Aey9+Xdbx5Uu2v8NLCySOGcBJEguApwXQRAkQRIEwWFxHsQRnElxkESRGmjZigcNsWVbtmRHsiTbcSzbsiw71uBBbafjpFdy87qT9Otuu/Oc7pvczu3kdb/77vveqnNQROHwDCBBipS0f+DadWrYtWvXV1XfqaoD/tVjaS7QH/mAMEAYIAwQBggDhAHCAGFgN2Pgr3azcWQbDR7CAGGAMEAYIAwQBggDhAGGASKttNNMO+2EAcIAYYAwQBggDBAGdj0GiLQSSHc9SOkNm96wCQOEAcIAYYAwQBgg0kqklUgrYYAwQBggDBAGCAOEgV2PASKtBNJdD1J6u6a3a8IAYYAwQBggDBAGdj1p7YW0jlTpxemBmeUz+hPza/OwNL04sYxRmJUzSuN6jdL1yurZoRdnpJPiaZATBggDhAHCAGGAMPAwYOChIq0imWOdI5JAo7BRPqv82ro4GMRyPI5LsYxePqs4ns6l1nZeD0manAgDhAHCAGGAMEAYeNgwkDJpzbnmQP2q03R3MRWnMYIm/jFdImnT6hbTkglzfXp1aON4XXp6xbw8zPNzqVeOpzEppvN4rotLno8/65XhZUnShEUYIAwQBggDhAHCwMOCgaRIqy3DCfdTEgKL68lp9psOhFbWx2+Vg0RSxsOcsOnVwfOwNJ5PT+qV5XFaHTyeS710HqeVvAyTLE3804vj5cVyYlhMF8NinlTC7rMSfJNO7LFvX5+mYh+VpcmXMEAYIAwQBggDjyYGTEmrze5EWquMql850PCGDNm9nsi4LztQu399/FYASkvK+LNWinXxNBaXTFgsy8NiOa0e7TPPayS5TqNyRulivBjm9fA47TOP37T0yfB9KqHprowc3/b066Zto4/mtu1Eg/rk0VwAqN+p3wkDhIEHCQOGpNWWI6PgDQdafy2huN2Jxwx23lyvOhCc3R5yoyVk/JlL5mhtmD3zOC718vFO4vmTkUZlRP28Ti55GZ5HrEdM4+linJjXKiyWSzXMXlbkORkN3zgQfNaJdMf29G+qdlJ5mmwJA4QBwgBhgDDw6GDAkLRmPCWh+9cSMjPNCYvznITq8cQ8NruMit87Eo7CGenquSMr5NcqnQGQ5deTYpw2rH02I3osr96ftl6zPGJ92nL8WSwvxvEwl6IusYwY5nm5FNNY2MqvVulafY9VyAj9yYGK7sT+XZfPwJeUTx9j5BfyC2GAMEAYIAwQBjaOAUPSyndaW/5OQlGbE2z3Tc/B8nMSqkb00/TybzSOEzQuWXkxrNVnlGYUz8uzdG0evTht/TyPkdTqF/OJaVq9PI3Hs3JWcWJ6KmFlp3VeRvgbB2pO0k5rKr6kshuflMhn5DPCAGGAMEAY0MOAIWllmRPutF7Vv9Oqp3Sr4/QIm1EdYl6RIGrDvDyP5896UpuHPfN8YpjFaZ95Pi55OpdiGTGOx2vjuB4uWbpVHp43KcnutH6m3mnNpjuta/2clO9ox5n8RRggDBAGCAOEgW3DgClp5Qu18usBT0sIaD64sqXJ8P3WgbYPZNgNdmK5js1KTsi4ZHrEsFYvS9NL14vjZXkZLnkd/FlbVowX03iYS66fSzFeDOuli3EsL/9j8TzMJc+7FVL59YAp+vWArfAl6aCdAsIAYYAwQBggDGwdBpIirUYOXyOt17eHtDJSJtatfRbTWNiMxJmVFdN4mEuuV6xLL02Msyqjl55MHK+DS6MyLJ7+yAeEAcIAYYAwQBggDDxMGEiJtG6nI0RiJtbD4rV/YjoPa/Non3k+JvXS9OLEMmKY5RWfedgsXkwT6+JluRTTeBm9OJ6fJE1QhAHCAGGAMEAYIAw8jBjYtaT1YXQ2tYkmEcIAYYAwQBggDBAGCAObwwCRVjpK190lpgG1uQFFfiO/EQYIA4QBwgBhYHswQKSVSCuRVsIAYYAwQBggDBAGCAO7HgNEWgmkux6k9Ma6PW+s5FfyK2GAMEAYIAw8SBgg0kqklUgrYYAwQBggDBAGCAOEgV2PASKtBNJdD9IH6S2QbKVdC8IAYYAwQBggDGwPBoi0Emkl0koYIAwQBggDhAHCAGFg12OASCuBdNeDlN5Yt+eNlfxKfiUMEAYIA4SBBwkDRFqJtBJpJQwQBggDhAHCAGGAMLDrMUCklUC660H6IL0Fkq20a0EYIAwQBggDhIHtwQCRViKtRFoJA4QBwgBhgDBAGCAM7HoMbIq02uy5eCI4hIvZzl3fQL23HZu9CKdP9eBnz/fi6+e68Gzl7muHze5B6LUJLKyWQgzrtedhjrPZ81B7YQLzR4vxmH0b+qnQj45XR7B0ZwqHPhhER1v2A4npjWKg7JkpjE/l7khbWZ+Gr06hu2Ub+vM+LDo2uw+9d2aw+tezOHbv/rdjJ/yXNTeApSdLFbzsfPuzUP1KzP9fTOPQh8OIHg/AnXF/8GSzl6L71gxmDxbAFpuTbJ3tOHohiIztmKM0mLbZy7H30wGEC+PttbW0YuVSLaQk6rfqP139rH1J6t/oXMTy30982bKqEL03g7HxnBieXSh7dgLH3o0gLwn/baZ9RmW2a30TOYMY1rPDZs9G0/GreLxF9Ydent0UlxRptaUXoDr6JA52emOd/GCTVt4BrLPmlncrac1B6NIMDhxnpDUe5rY/KpINuDpG3o+WbDlptdmz4D8zgdnjPricLthzvcjMjS8ED7OPibSmfnTFXt7DlzdPWm2BBsy/VgPHBhfKnSatfFyk2n6uZ6OSjVtGWof6M2FLdyGjsBQtlyYxNpl3X17CFNL68QSWr3ei3KXOFw8SaeX+Nuq/nSatVvbx9M1KhbR+MoGl89XKS4YtvQw91yZwaEdI6/asbyJnEMN6PrNl9ePZK6uoSY+vfTVT38NMcznSNjg36enf6jhT0mqzu+AKDOPIy5dwdrkfxc7YAH3Ad1q5E3c3aXUh8Pw0phc8YP3Aw9x2kltBOvLR/M4o2mrig/VR8evOk9ZJ9DQ/2H43WvSTxZAt3IylTZPWSXTfR/9lzg2u7bTy9qXafq5no1Ikrbxs9sIQDh5Xd4J53HZJhbR+0ouuJ6OYnvOoGzkP0E4r94tR/+0Eab2f+FJI67U+RK/1oDLTiccamrHwSg8mdoC08r7YailyBjGsV0/O0FlcXKxL2BSye1sw9ewPcOHpfQh5s+7Ly6CebXpxhqTV5qpC9/JLeP38kxiszE9oEAP7E8EBXCuuxo+CffgmPIC/rQxhWIoTCVu6F7Olrfg6NIjf1e/FVxW1GBDS06USHPe14eehQXwX7sdXFVWIxJi+qr8L33OX4WxlL75pGMJvg83Y74zr12uMGGdLc6O2pQYXV9vx+eku3DlWj4Vyt6YdxjutaTmFmB+P4PrTXfjyZAfemfUjKMcXWbunBCcOtOLOyW58+UwrXo+WI5gZt88s3WYvRscN9XiLHTHyv2MvVGKP8GZTuDqK4UEVMGJYaaenFJEzA1j4eAqHbgxj5GgFsqS4fbb8Wky+WQ9PVTW6XxvBobvTWL5aj5yYfpurEHVnBnHg9vRa/cyO/u64DtGf68KlAXReGMHB21M4/PEIRp+sgTdXbb+6EzSM7sl6DFyJ4tDtccxfaIavIO4fM/tsdi8a347759i9ETT643ap+gcRifjRdmEEy3encPCtTgT9gn6L9pU9PYGVT6dx7J5Qz7WGuH8s/Len0Ifw032YuzmJw7fGMP18HbxsAkxzwRZuwYFXmtF2ZQKHb/aifiiMyY8mcfBiCHmxI0ybqwCVqz2YvTGBlU9GMf1CBGUFLjDs11+eQE8zC7vgHW9Fa6+6MDpG+3DwidjCnGL/i6TVluFBxTODmFz1QU6L+3ldn7O2JWmfUfsU/yjXA8YxtBTCwNUolm+PY+5CUwI+9OpOiDPBn1KHgX+5DlP8Fddh+mYbSsTxVFCLyestKBSOoJkvjHZaTdvvCSJ6exJHPo9jT7lqIOCP26knVfyPonOvH63n9fFvik/F/+bj57ECH1peHMaBWxM48EYnOp4f2RBpNWu/0j8W40uv3TxOJK229Ew4SsvR+WYU3c3xxdWq/lT8o14P6EOwqhaTN9pQIjuh3Wk11Z/C/KD4LonrAWb4jvtRH7/JkFbT9u1yfCmk9WYzGh6PYrAvCwWrUQzMN2BGIK3W7TNe36zWv/uxvrE+FjmDGOb9z7E08cqrmCheP++zHdrC9oN47uKrOD4auW/Xb0T79MKGpDUn+hLeP78ffoGocQVssn4iOILfVNZgyJkNV4YHk75efBvwK4u+ze7GiL8LNwqK4XdkIj0tG9V5Efy8MoCCGGkqyqvFGU8RKh2ZyMjIw0x5H74uir21xvR/WxPBQmY2pPRcjPj68J3fh3SB1HF7tJLdM6robsbnq3WIluXAJWWhsLwch5s9CdvdZjut3rpKHG0oQFlWJtKduRicbMN7vfHjp9axTtwYKUROhgvO7Dy0tlag1xMnTVbpWpv1njOCFSgqUMEkhhnow5cnMHPcj2x3JjIKShG5MI6F46Wwc1LKFoVbo9j3WguqajxId2RBynOvkWLPyggWT1fBnZUJKRjCKDvqyloPXD27WFzp0xOYP14GWcpEhrcApZMh+EtE0jqDA+fD8JVnI92dj8CzUSyfq1o7ClUmVRP7eL0qwdcjrdNY/mEbgsEcpDnz4Hs6isNnKjbUPpu9AK3vRtFavb7dVva5+hrQOlyK7Lws2N1eVJ6OYt+B/DXSunSnHw1VeSg/NY4jVxvgKfCj/+MoWoJOsPHhOz2EkdkyuHOysEfKRk5/G+Zeq4HT7oT3aBSz+/Nhsxei7fIoDsTuypU+M4Gh/ixsRf9z0mpz5qPupSFE54qSGlusX6ztM2+fOqmb44P3v5E0x595/UynWf+y/qk4O46RYfV+M5tP8laimFlQ+5fbZERarfp3rXx3J45teqfVHP+m+FRIhXF5diUnfGUSs08FkJOdhYwyH1oujidNWpNpv5n/uX+MJCetay/796Yx/3wNPLH5K5n6U/MPu9PajzpvFnwnxzA+kQdbRzuOCHdaTfWHW5DK/KBLKjV3WpPxrzF+2Z3ZxBcq5aVKuNNq2r5dji+FtN5uQ0ldE/adCqPtzQ74gmHsE0irdfuM56+NzG/bub6JnEEMJ4yriv24+ML42mZNQhq/S10whFNvv4kDwfXrpG5+Xm6bpCFpfcxVhZ5DL+HSK8fRX+nV7FCuv9Nqk4P4STiCXrsTtnQ/bkZG8MfGaMLfHxoi6OekKi0X3fl1uBzowE/r+vFtZAT/VuFTSIdKigfxuvChly27Ab+rrkZRUqTVi+MnOvF0hbmTzUirLSMHjS1VOD3fhHef7MC9Mz34m9mSNVKU6a/EldVmnB+rxmJTMUK5mQk+MktPdqfVCBC2glpM3+1EubjrU9GA+Zstay8FyqT1WQ+qdIgoW4TZoj+1j109cMLmKEbH9WFEysz9JdqTEWnA2NuDGH6qEQ2jFSgoYmRKLa8O2sS7fraSEGZut6OE52Gk2sA+sR7jQT2Jnta4vcqHCJfr4GLtSbJ9lqTVxD6b5EHxeAS9L/Vj9v1xLH82g6PPBxQMsJ3WpbfqkWV3gh1b7jvAPtjwIvLWODrDTthclYh+obMo3G1Hqd2JPV0dWDlXhfSiOky+0Izuax3wZeSj6UeDaCh2ItX+Z/5VSOtSAM2XJnD07QhyBSyJ/tcLW9pn0b5k8KFXrxhnij+L+pkes/HB0veEmrD4ptqHNqkMfTd6Ua2572y46CdRv2JDSqTVGP+KbjN8KqTCuLytsA5Tn3ai3BEfX+KHMky/UofBTrMVvpWySY5/XpcoOWlV7rTaXbBne1A404P9b4aRzcZ/Ev43Hb9W/lE+xBpAKN8Jm68es9dbUNDWhmWBtJrqT3F+YB9S9d0dQljYHbO1tuHwD2rWPsSywrdp/+nt5Go+xDJtn5X/dhhfCmm9046StGJ0XJvEwVN+7PGHMSeQVuv2Ga9vG5nftnN9E8eMXthmz0TN8hU825f4Ms7zKjutHUt47tKreOJB2GlVQc3utI6od1qXzO+02lx1+GV9GC2ctDZ04ohwvMYdoep1Y8rfj19UBDHpzofP4UaupxV/qPArO6EqaU38dQKbO4xvgsE10iPq04YZaI4+3oET5fGdT20e1Y5s7NP5EItNiv2zHfhwNoD+Cg+K3G64Gxvw9b74TqZSPj0LRaVFGGmvwtkjrXijy7O205lMup5NycSppIURmfiiYqsIY+6jFhSKpPDTdpQZkHx7ZQNmP5vA/Ot7MX19AgtnKuGyOBrW2mbLcCOrthzVMxH0X41iYr5QJW3KpKUZ1IEGzN1sTto+XpfxoNbob2zB8tUQMmPtTaZ9lqTVwH9sJydwdhzzz9cjEClEljcb0kgP+PWOpEjr5wMIxXbReVu5tOUGMf5RC3zDPZiay0fF81G0NVch+qH6UrIV/c9I69G7UfT2FCi71PuOliScQnBb9KSlfYw0mLVPDx+VESwIL1169WrjDPFnUT/ToyzqBv2rpNvz0HA5io6QC47hHiw+Xbb2wsrtYPNUvc6HWAppMmn/WvmuDhy7WAvZYIzyfFqpuygK+LfEp57/xfKlIczcaUep8GGGEWndbPut/K9ts/gsklYeb8sIYOjzPgQzY6TVxP8p+0ckrWxX/vkxDB1vWzsRsdSfDGk1tb8I7dfH0RGOz//yeN/aSzPzSTL+NcSvBWm1bN8ux9caabU7kTPUjLraTNgE0rqp9gnrm+74FNI5ZpV+Uq4K6p0kpr6+ifXohW1SOx6/8hSaYt8qiXnYndbJkw/YnVaxAbb0Qp1fDxjGL/2VaJGy4JIK8UTlAH5VWqQc/7JOj5bvxT9W1mHAyY733SjO9GHOzY/b8vFCaC9ez8mBlOZGSaYPz1bu3ULS6kRVXwu+OFqDwdIcOB1ZyC8txbG9JcgVFgh2Z7B/Xw+uDXiRmZEJb062QjrZ8djjJ9pxKpgNR0YW8ktKcGixfY202tJyMTVZh4UaL0rcmUjLcKOyO4KvlmLXIyzSRd9uJqwcD1+ZwPTxcmS7s5BeUIKG82PK9QD+tZ/VpJW7OIjovmJ46kuQ78tZtyAzu2wuH7rfm8TBl6vXyKASn+ZF3al2hLuK4Paox9uehb04EluA1UE7jblT1fB6spDuLUb4lTEsPBEn/Vb2cb9slrQm1T6r6wEGpEY5tr8+ip7OXKRJbmTWVKDp/GjypNWejfIzozj0WgRl5TlIk91w1VSgukn9CSqVTPcj+vIw2mqdYAvS1EvdWDgbiOHTi3CK/c9I64xyBcEJm1yElrei6O9K/MkTw/5X/GZmn1X72E9eTWPhuRoU5LtVfJwfT8BHavgzr1/RzXb6DPqXYy+jrxOLp2oQuTyMJp1TG7ZTUXF2GjNHipHB5sHCnNhLm3X9ig2BBizc6kVdIBt2Rxbk0ryEn0wy9v/6nwyziaSTXSsxw6cVqcgoQvt7kxg7UAqXKwtyTRV63p7UuR6w+fYnM/6N2y/8egDbac3xoPhAHw6906DM7+wEzXx8pegfgbQqWKmMYN+Px3EottO6/fODCwXHolh6pRaenExklPjR8844Bvrcax/MJOVfQ/zq/KSWsNNq2b5dji+RtPKxnkhak8GH8fqWzPq3Vu8mSWsy6xuvw0g6u5/F5SMtumt/zdRTmG15AH89wKix6k5oDy4XhXGrdgDf1vfhrs+PauHNnH2INVPSip+EBvC78F78rLIRq24+qbtQkhvGZ3VDykdYXwdCmM2P4DdbtNPK7LalZ6OxsxZXV9vxxZku3DoSwnx59roOSi/24/zjnfjydAduzvmU6weMzBbUBvHmk1346nQH3luoxlBzLW7FdlrZ8XNmURmeWGjBrVPd+OpkBz44WItoYWbs2Mw83civG4r3lqLxzCAWfjyJZfY7hccCcAv3j60mrayxPhy6O4nDX8woHyMduT2GfedCKIh9TKT40OVDz/UpLL0STCStdicyqqrQcW4IB25P4Qj7kOa1NlQH1A8h1EE7juiJFoy/N4HlH0cx/lQVcmI/D6PoToI0KPk2OaiTat+mSasLmT0tmLw+iSN3xzF7rhGVY204EPuQzmqnVfVtASqP9WDm+jhWbrO7x+2oD+eq1zXs6u8GHr2t7qYrR5CfT2NyJn6n+rEU+5/faWW2sL89ZbUYv9GHmti9ZNVGo/63tk/5EMawfYx0DaN3fwvGrunjw7x+c/ypZY39q6QngT9bBjs+nMbKa0HD3VB7VS1Grk3g8N1xLLwYVK6EJFO/kseejeKlXuxjH/PdYWOoHvni6Ynh+LMirRb4tCAVzLb0QBB9l6PKHLF4sQXB5V4cjP1OK0vnf5ttv9X8pPjHsP3C77Tem8bhH0cx/VIT/GVxu8zxl5p/1A+x1OsBip32bFS/PIlja6TVQr/FTqvadgv8Zhai9uQAFj+ZxPLNYQwvJX5EmYx/WT16/ad7ZzaBtFq0b5fjy5q0JtM+4/UtmfWP+V7FDvsoe+M7rcmsb7wOPclePAafu4z5qviY0cu3G+OM77QKE9NuNJxs2jzY2F0V3/FmBGIfjil3UbOK0PrWFHrb4kdOm/WxOmgn0N2Uuq7N2LDd7duMTVRm83gl35HvCAOEgd2CAav1zSo91XZsxfpmK5rGyxfmkvpGKFV7t7o8kdZHkJzbMvwYuD2A1mYvMiQX9rhy4elpwtQHPaj0pE401UGbeCdnq4Frpm+722dWN6XR4koYIAwQBh5eDFitb1bpqWJjK9Y339xFnI3en981TrW92vJEWh9F0mp3Ibu/GdG3x5Tfb125qR6vVQXid6K0QNnI83YPWitb2PWO7WyfVf2U/vAuWNS31LeEgUcbA1brm1V6qvh51Nc3Iq2PIGlNddBQ+Ud70qb+p/4nDBAGCAOEgZ3AAJFWIq1rH1XsBACpTpr4CAOEAcIAYYAwQBhIBgNEWom0EmklDBAGCAOEAcIAYYAwsOsxQKSVQLrrQZrM2xflobd0wgBhgDBAGCAMPNwYINJKpJVIK2GAMEAYIAwQBggDhIFdjwEirQTSXQ9SenN+uN+cqX+pfwkDhAHCAGEgGQwQaSXSSqSVMEAYIAwQBggDhAHCwK7HwK4nrb2Q1jlRL06PobN8Rn9ifm0elqYXpy0jPothXlaM22yY6+KS6eFhLjerm8rRmy1hgDBAGCAMEAYIAw8KBh4q0spJHJOsA7g0CxulGZUVO1abhz2Lcdq8PF0ruQ08XluOP3PdXPJyPJ0kTTyEAcIAYYAwQBggDDysGEiZtOZcc6B+NfV//WnkYE7kuGT5RNKmLSemJRPm+rh+XkZ85nHauvSerfLydC61OrTx7Fn8M7JXq4eeadIiDBAGCAOEAcIAYeBhwkBSpNWW4YT7KQmBxfXkNPtNB0Ir6+O3ykkiieNhTuL06uB5WBrPpyf1yvI4rQ4en4wUy4r59Wzgcdp84rM2LOoXw9p8m312n5Xgm3Rij337+nSztlE5mnwJA4QBwgBhgDDw6GLAlLTa7E6ktcqo+pUDDW/IkN3riYz7sgO1+9fHbwWotKSMP2ulWBdPY3HJhMWyPCyW0+rhzywPz8fDelKrUyzDdfE8es9iml4616fNt+lnnwzfpxKa7srI8W1Pv27aNrokv+5+N/ny0Z28qe+p7wkDhIFHDQOGpNWWI6PgDQdafy2huN2Jxwx23lyvOhCc3R5yoyVk/JlL1lnaMHvmcVzq5eMdzfMnI3kZLkX9ZnEsjec1k9wGURePs5K8zFZI9rIiz8lo+MaB4LNOpDu2p3+3wlbSQZM2YYAwQBggDBAGHg0MGJLWjKckdP9aQmamOWFxnpNQPZ6Yx2aXUfF7h0LURLLVc0dWyK9VOgMfK6cnxThtWPss1q0Ns7x6f9p69fLwOJ6XPWv1i2liOi+rjdPmF/PxMM/DJY/n0sqvVulcz5qskBH6kwMV3Yn9u5Zu4ENK18cW+YX8QhggDBAGCAOEgc1jwJC08p3Wlr+TUNTmBNt903O0/JyEqhH9NL38G43jBI1LVl4Ma/UZpRnF8/IsXZtHL47n19qhV9Yor168trw2jzbdyjax/EbDyk7rvIzwNw7UnKSd1o36j/JvfkIi35HvCAOEAcIAYcAIA4aklRVIuNN6Vf9Oq5HirYzXI2xG+sW8nNjpSV6ep/FnPWmUh8Xz/GKYxek9cz1aqZefx2n18Pq45Lr4c8qS3Wn9TL3Tmk13Wtf6N2W/0q40+ZIwQBggDBAGCAMpYcCUtPKFWvn1gKclBDQfXNnSZPh+60DbBzLsBjuxXMdmJSdtXDI9Ylir14jEJVNGLMvDXGrr0drB84lSLMPixWce5vFaKaZrdYrPvBzPn6pUfj1gin49IFU/UnnaKSAMEAYIA4QBwsDWYiAp0mrk9DXSen17SKuWkGmftXZxMqeNZ89mZcU0HubSqCxP51KvTjGO5TP6E+vQ6hOfeZhLsZxYF4W3dpCQP8mfhAHCAGGAMEAY2HkMpERat7MDRWIm1sPitX9iOg9r82ifeT4m9dL04ngZlsbDeuXFsjyftoxePC/H0/R0G8WJZSi88wOL+oD6gDBAGCAMEAYIA1uLgV1LWqmjt7ajyZ/kT8IAYYAwQBggDBAGHmQMEGmlS9EJu8YPMpjJdpqMCQOEAcIAYYAw8PBigEgrkVYirYQBwgBhgDBAGCAMEAZ2PQaItBJIdz1I6a354X1rpr6lviUMEAYIA4SBZDFApJVIK5FWwgBhgDBAGCAMEAYIA7seA3+VJudB+1fTNAizP21+el7vQ/IJ+YQwQBggDBAGCAOEgQcJA2bcL5m07W4rkVYd0r7dTif9NIkRBggDhAHCAGGAMLDbMJAMMTXLs93tIdJKpHXdTvt2g47000RNGCAMEAYIA4SB3YcBM0JqlVZ7HGB/29mvRFqJtG4rwLYTvKR790141CfUJ4QBwgBh4MHFgBUxNUsn0quQrIMAACAASURBVEqEkgglYYAwQBggDBAGCAOEgfuCATNSapVGpJVAel9ASm/FD+5bMfUd9R1hgDBAGCAMbBUGrIipWfquJa12qRAnaobwel7uA0mq7JIPZ0734GfP9+Lr57pwKrj72mGXihG+OInFxwMQw1sFzAdFj10qQt2rE5hf9SNN2oZ+KqtG12tRLN2ZwvKNIXR25T+QmN5of5afnMLEbOGOtJX1aeSNKfS2b0N/3ocXXbtUib67M1j961kcu/fgtmOjmBHz2zNLUHWiH3M3p3Dkzihmnm9ESeH6/tyO8bsV/rdLeXB3NmHojVGsfDqFQ9f2orWrCOnbMcdsMSat2m+VLvbjZsJ2qQr9nw6hoSze3/aeLhx9PQzXNvkvZ3EIS9+rUOar7W4f9wnjCe3vz2DlbA0cFu0S7ePld7MUOYUYZjZrSWmwcRgTz/0IZ+ZG1qVp8+4a0hpsGsXQkXP43mJUMfpBJ60cTHYpH/OHdytpLUT49RkcfLICzN88zG1/VCQbUKEfTGJhG0irXfIg8NwEZp+sRJY7DxkFJcjOj0/ED7OPibSmvjPDxmXD1c2TVnuwGfMX6+G0WBB3Iw49h0Zw8HwY+QUeSAUlKJ1qR8fA+peg7R2/m/e/3N6O/Z8MoXPYh6w8L9wNdehYrt7Svtju/rXCn1X6ZnG106SV271d7VvTX9uMuXOdGLjegwq3+bqwHaR1O/HDfMc5hRhmbdcS0WDHKl586yyGmwfW0kYefxmrs1Ooa4zHsXI7TlqDjYOIRB/HyUtv4cLJVXS3qQayRrKd1ksP6E7rGih3NWnNRdXZGczsL4Zdioe57SS3gnSUovWdMXTUm09ID6Ovd560TqK37cH2e6qLpr2xDUsPIGllu5SB56YxvViyIzv1fDxu1v+MSDe+OYXxqaJttX+7+9eq/Vbp3I8blTtBWrOFnVZu73a1j+v3rowgOloI/+kx9Pd4TLGiZx/Xs1m5nfgROYUYZrZqSWvLykVc/d4CagSCWtu7hKPn3sDlF59BtHdorcyOktZg+z7MnXwdb7x+DgeiowgKBjOwnKgZxLuldXinZi++aRjA31Y1IJoVX4TscjHmfO34Wf0gflffj59UhjEkpEtZfjxZ3oG/rR/Cd+F+/CRQi2anWl7V342n8gJ4saoP3zQM4R9qWnHQnTxRsctehNpDuLTagc9Pd+PuagP2B7wJR8xmO62O/DIsTjThg2e68eXJDlzbV4U64W0ro9CPpw624e6pbnz5TBsuj1WiLidun1m6XSpH54fq8SI7YuR/x16qSTieKj4+ipERdbCIYWUQFFWg6fuDWPx4CssfjiC6Wo0cwb/24jAm32pEfm0den4QxaG701i52ghPbFfHnuND/feHcODO9Fr9zI6Bvngfmg42fw26X1WP1Q9/HMXY9+pRmK+2Xz3+HUHPTASDV0dx6M445l9tg780rtvMPrtUguYfxf1z7F4UzVVCWeV4eQiNLdXoeDWK5btTWPphN2qr4v63al/5MxNY+XQax+4J9VxrivvHwn/pZZWIPNOP+Y+mcPjWGGbONqAwN4bfpjYcON+GjqsTOHxzL8LRJkx9PIWlSxF4OcazS1F9vA/7PpzAyidjmHmpBeWluequ+pUJ9LblKS8rhVMdaO8vViZM50Q/lk4E1Mkzxf4XSavdWYzKk8OYerwSLjnuZ73+Z2MznIR9doP2MZ0qPiYwvBzB4BujWL4zjrlXWxPwoVd3QpwJ/pQ6TOpX0k361+5rwPTNTpSJ46k0jKkP2lHiivvHbNE0bX9RCKO3p3Dk8zj2lKsGAv4S2qo5XrZb4CsZ++1yPgqn2jH6ozF1/Lzdg0hjvoI5s7p5mrOrE/tvRzF0qAYFBfFxp/jWavxa2a+Mb/P5Q63HeKfV1P95dRi9N4CQznUG3r40k/Gl4td4/rEn0b9m859ig0n93EYz/KXiH6Ws2fhI4nqA6fyYxPydVlKJ1nMjOHBrAgfe7EbX2eja9YBk2m/W/1btU31Xgpa3BxAqyEVGTxf2n65O4A5W9lm33xjfSeEnhfmN+0/kFGJYJK3BxikcuXQVRwYSd1RZnmDjCDrnT+P81as4c+wAmpsHdnanteXI67j++mnsbV1vrEoqR/CbqnqMuPOR5SrGtL8P31ZWKYs+I4PRim58WFyOSlceJDkftQXN+NvqIIpjpKk0vx7fLyxHdaYHsqsI+yr24usSdXHm+r+tbcZiTj5cciGi/r34LhCAlMRRGntzqOxtwRerYUQrCuDO9KC4shJH2ooT7qaYkdbCcBDHmstQnueBlF2I4el2vLc3/mbePtGJG6NlyHPlIdNThPaOauwtjE/eVukcOGZSDgVREiN6YpiRuoark5g5UY1cjwdSaQWaXh3HwpMVyOCklE06t0Yx94N2BOuL4cj0wFmYv0aK849Esf9MLXLyPHCGIhi73o2KDeyc+56dwPyJAFxZHkhFZfDNRBAoF0nrDA5caIK/Mh8OTymqTkWx/HLt2vGbMmmb2Mf9ohJ8PdI6jeW3O1ETKoDDXQT/s1Ecfq56Q+2zS2Voey+Ktro4EVmr18J/7oEmtI0GkFvoRYanBNVnRrFvqVQhlIxULN0ZQGNtESrOTODI1SYUlFZj4MejaAsxYpoP/5lhROcDyPV6kJ6VD89wp3JUnCXlomA1itmlUih3qq6M4cCrIchSLnwnJzA85MVW9D8nrWxyD50bxuhiecLY4H7Qk9b2mbdPXfTN8aFXrxhnjj/z+pkeM/zZJS8qX5hANKreb2bzCRsvswfU/uV2GJEGq/5dK9/XjWOb2Gm1xpe5/Wyn1LN/CMvvdCHYUAzZ7UV2Uz1aJn1r44fbaCSZDmeoDh3n2EvjGMa/F4I3R2ccKS/omvFrOT7YnWdrfGzW/4zUz3zRjUDsBVLbRqvxpeLXfP5hOu0m/WuOP+v5XdFvcT1ls/5RdJvMf+pOa+ILl/LSJdxpNZ0fFdJq7D+2Ex65Ool9z9TA4/FCDlSi9dJE0qQ1mfFn5n+l/RURzL7egEwpF3Z3EEMfdqKMbzgkYZ91+5PAtwF+tqJ9rI0ipxDDImmtGTmNq6+dQIuwaZmQzsjr3lWcu/YOToztMGmtad+H+Wdfx9VLL2J/NJqwNaySysQPsexZdfibhib0s052VuNmZAR/bIwm/P2hoRmDnFTJhegtDONKZSd+WjeAbyMj+LdApTJpcv2XPfFJ0O5pwu+CdShNirSW4InvdeKZ6nh51knaP9b5Rnda7a4CNLfV4MxCM959shP3zvTgb/b51yb17Kogrq624vxELQ60liOc70l4EzNLT3anVWsvf7aXhjF9txsV4q5PsAnzN9vXXgqUQfl5H4I6RJQtwmzRn1pQrx7YM/3ouj6CxoC5v3j9TMotTRj/0TBGnmlB40QQRWWMTKnl1Uk98a6fvbwBs3c64eN52KRoYJ9YjzFpnUJvZ9xee0cHVq40wM3wl2T7LEmriX32rGKUTjaj79wAZt+fwPJnMzh6tkbBgEIq3mpEjpSL3APDCpllC2HjW+PobsqFPacW0S90Jv27XYp/0vu6sPJyLaSyBky+1Iaea13wu0rR8s4QIr5cpNr/zL8KaV2uQevrEzj6o2Z4DBZwsS942NI+i/Ylgw9el5E0xZ9F/Uyn2fhg6emRVuyP9aE9K4C9H+5Fjea+syEpSKJ+xQaDRcmozTzeCl9W9rMx1XFjHD2t6+dEXkeyko01KVCNtosTOPRizdpLKS+vO34ZaTUbHwqpMZ8/mP7N+t/uCWHs3iBCRfH5g9ur6LWYX9fwazD/cF2WpNVgfklmfJu1f61+A1JrNf8ouk3m52SuB5jOj7x/DfxnL2vA9Kc9qMiM94/endHN9r9V+1g6O+7nJ6AKIb83gZ622KZMEvYl1X7hQ1Tt+qjYaDA/pNp/TLfZHyel7Hro8Mkf4sWDo2vH/zyNSWWndeEMzr9xFd/fDTutqlHsTutxPMvutD6z/k6r+OsB9uwwflkfQRsnrQ1dOCaATnQSI4szgQH8IhDCdF4JKlxeeAva8YfKKmW3h5PWBP15jfimpg5lSZHWIhw73omnKs07h9kxt7L+Qyy20zI414kP9wUxWF2E0jwvclsa8fW8f20nUwGV7EGp34doVw1eONqGN3uKN5Qu+mQjYXVS64JfIBr26ibMfdyOEpEUftqFcgN/ZdQ0Y/azScxfHsD09Qksfr8GboujYa2NdqcXOeEq1Mw1Y+CNKCYXfSpp45OSOCiDzZi72ZZIqk3s43XpLnp6+lvbsfyGSlpZ2WTaZ0laDexjuKl6cQLzZxtR1VKGnKJ8uEb7wK93WJEKZdL5fBDhkvikzNvLpL2gHhMft8Mf7cPUYikqz0bR3laL6IdtKGLjS1lUU+t/RlqP3o2ib2+Zsku9b9Wf9E6rpX2MtJm1T6//apqxcFNtn+gLs7Ah/izqV3zMFmWD/lXSmY1XRtEZyYMz2ofFZwJrL6zcJjZPha8kkiulbBL1K/n6unDs0sa/uLbCl5X9Cu7fnUB3k/n8yNupJ+2aucLOXpp/HJ9/eBnd8bsZ0qqZP9Q2bs7/6k7eFMZn1JM9biuXVuNrjbSK85tm/lHsM+lf5aXJAH9W9a/ZaYA/q3Sr+Uex3WR8WJFWy/lRb/wL/rP7I5hhL/DC+mZEWjc7/kz9LxWh4cpowglc5uwADrJfL2Dzr4V9m2q/Hr4N8JNq/3F8GElOTIMtyzjz1iuYiH3LxOOZZHdaj+y2O62igcGmMQwdfUnz6wHD+GWgBm2ZXmRl+nCiagC/8vmUN23WaaMV/fjH6jCG3PlwOb0ozanEQl6BenwqleLFUD8uewvgkr0oywngVFX/FpLWXNT0t+LesRCGywuQmelBYbkfq4N+eAUSx464Bud6cG2oBNkuDwrz8xXSySa14yc6cDqUDyeLLy/Hyv6ONdJqlwsxMx3G/voS+DweOFxeVPc24atDVchjoLZINwJLsvFs144dn8w8WaVcD3CU+tF4fhyLJwJrxMNsULJ6vAeHMLpQjvxGPwoDBesWZJbHnlOJnvcnsXS+TtnB5PbZ5RLUn+lCpK8cuUVe5Xg7f/8AjsQWYHVSn8H86ToUFnnhKPKjQbFPc33BYNLm9Sg26B0vWkx6rFxS7bO6HmBgn3Jsf30Mvb2FcGR54a6vRsv5seRJq1SAiu+P4dDFZpRXsusNXmTVB1HTpl4/Ucn0IKLnR9AezoVrqh/T53qx+EIwhs/U+5+R1hnlCgI7/ipH2w+jGOhTxyf3v2H/K34zs8+qfez4dxoLZ+tRVJyv4CNygeE3jg+l7zeNP/P6Fd0mizJvvzzQjcXT9Wi8MoIWnZ/FY78+UfnCNGaP+SEzHJQVxF7arOtXbAg2YeHWXtQHC5CR6UWmvyjh+pOh/y1In5X9bN7LXx7Byg87UB0qgpTtRVaoBm1HapTjUF7esH6nD61Xh9A77oc714P0vBKUHx/G0kvx6z9rOvTGr4X9ycwfiv9S8L+jqQ37bw2ji/16QC4bw7XoOdeCYjc7qTEfX0mTVpP+NZufreqP+1Yff1bpdov5R/GtyfiwJq0+tJvNjxbzt91Zjo73JzG+VAF3jheZ9bXo/dGUzvUA/fan3L6iekx+1IESgTTbKxvVTRcnO0k2t89yfVDab74+Kn1ggJ9U28fxYSQ594vsP483Ty+hVudqwMjjr2B13y789QBuvFaqO6G9uFLaiNvsaL9+L+76q1ErvH2zD7H2+drxN6FB/C7cj59XN2M1l0/qeSjzNuLzEPsIawA/q2zAXFEzfrNFO61Khzvz0dxTj6uPd+DemW7cOtqAxcr4nU7eYZKvChce78SXpztxcyGgXD9gk3pRfR3eOtGFr0534v3FWoy01eNWbKeVHYlll1XgycVW3DrVja9OdeKDQyFES2PHBxbpvO6UJLuo/9wQFn88hRX2IdbjNcgRPhQzmxRZvTmTe3Ho7hQOfzGjfIx05M449r0cQVHsYyKWhy1avdensHQ+lEhapVzItbXofHkYB9gHJXcmMHexA8Gg+tGYOqlPYPSpdoy/P4nlH49i4pk6eLLjO4tW9nHf6O7UWEx6Sbdv06Q1D+697Zj6YBJH7k5g38stqJ7sxIHYh3RJ7YSxi/SP92H2+gRWbo9h7mInwo2FytUGhq/yU5M4eptdC8iFPRDB7OczmJyL36lWPhRJof/5nVbu5/RAGBMf9qOuXOgjk/63sk/5EMKwfYy0jqBvqR3j707o4iMV/CllTfyrpJssytwnbHHqfHcaKz+oTyBzPJ3JjNowotcmcPjuBBbOhZQrIYp+i/qVPFI+Slf2Yu7mpFJ+7mIjCsWF0sj/FqSP22dmv91ZiNLFTkxcG1N+p5R97BJpKlRI91p5g/pZuiMQRMf5ERy8M4WVH49i6kwExZrrE2ob2UenOndaLa8HmM8f3MbN+p/N8dm9LRh5e1xp/9K1PrR2FsXbbzK/Jk1aTfrXcv4zqZ+3nUmj9vM8Rulm45OVNbPPmrRazI9JzN+OYAh7r7APiCexeKkdtUf2qjudmqPt7Whf5lQ/Vr4fTNjIYetQ14ej6GhQ50cz+xi2TNcHpf3W+Gabf0bzQyr9x7FhJBnfCzaO4cCFH+J4dP03TVo+KD7v6K8HiIZow0aNpfjNH7fdT9+xlw7/k22oKoqT7LQ8H9remkJfV5y0bNYmTlp7dugnjba7fZv1C5V7MMYH9dPO9tNOzx/U/zvb/w+7/3c7vhnfC/Y/hR9ceRZdOrusWj4oPhNp1bxVPexgvl/tYx/KDd4eQntbCeSsPKTnFCJ/byumbvSh2uDjhI3YprcTsZHyqebd7valah+Vp0WRMGCMgZ2eP6hvjPuGfJO6b3Y7vhkJ7T3xJi4cndD9AEskqdowkVYiraZf+W12AmHHF7lDbbHfaJzGykejmDnXimDQuyX17fSg3O72bdbvVC71CZ98+PD7cKfnD8LYw4+xnezj3Y5vLRHdyDORViKtW0Iid3KAUt20ABAGCAOEAcIAYeDBwMBGSKo2L5FWIq1EWgkDhAHCAGGAMEAYIAzcFwxoiehGn7f75eSv9CqwMlKvDMU9GG9R1E/UT4QBwgBhgDBAGCAM6GHAiv9Zpevp3Mq4v3oszQX6Ix8QBggDhAHCAGGAMEAYIAzsZgwQaSXSTi8thAHCAGGAMEAYIAwQBnY9Boi0Ekh3PUh381sf2Ua7EoQBwgBhgDBAGLg/GCDSSqSVSCthgDBAGCAMEAYIA4SBXY+BXU1aeyFtyIEsf7J/2rcibV16eqzK8HSxLI9jUozn9enFiWUofH/e3h41P3P8ie3WixPTWVibR/tslV9Ph7YMPRPmCQOEAcIAYUAPA7uatDKDxUWRhbV/YqPEvNqyZvl4Xq6b5xX1iWGjdG15no9LUQcPc8nyiGFehiQN3O3AgB7W9OK0dWvzaJ/F/EZpRvFiWQoT7gkDhAHCAGFAi4GUSWvONQfqV50b2hHVGqH3zBY28Y/l0S52Zs9iWR7m9ViV08unLaO1Ry+d6+GS28El18Gfk9HBdelJm12G//9yKH7q/n8caPuthIoVGXb7+v6x2Z0o+omElh/IeEwnXU//Tsex9pX+SkJldH17tso2myzD+4aE5j9K6P6zhMaPJbiLtq8+0W7WJ9V/UfuvB9vXTj2c8TguRbt4WEzjYVHyMMvPwto/UY+YxuJtuRLq4UD4uKzMJcwXue870PONBNcm8SmdcaDjh6o+XreRTNb3yhj7nQOdn8jYs0m7uA0J9kUldP6jBFnQaXPKqP2/JRQVJuLvQRy7vM0kiYQQBggDqWAgKdJqy3DC/ZSEwGLi5Mkqzn7TgdDK+vhUjNKW5YuhkeT5xXQe1qaxZzEt2bA2H3vmf1qdvE4rqdVpld8qnZNWf4sTj+U64ZqWEf6jA6Gj6/uHLXzFP3Wg5eL9J622BgktP5WQLizQVm1j6feDtDpfcKD9CwmZhU7YC2RkPyGhYmG9/5Kxd7N5WN+U/GLzpNXMv3qYE+OYzdpn3g4xnoeZFMN6eUWdPK82n0Ja/6cD7V/KSLM7YcuQUfXPEjruE2nl9lj53tYko+lTCcHvJOS5UsOFSFrZy1LwLxJKfILOERkdv5Dg0IyTnRy73E960n1Wgm/SmTKZ19NNcUR0CAOEAYYBU9LKJse0VhlVv3Kg4Q0ZsluYUGMXlt2XHajdvz5+qwAmLnI8rJW8Lh4vPrM4vXieh0meR5RiulFY1CuWFcNGZXm9YrqoTxtvlCbmSyCtsf5JW5TQ+Z2ETM3CJ5a732Fbn4z2TZNWB6qGtwdvDO+ejxyInNke/cn62Yo4Wekx868Wm0a40sbzcrxu/izmMwqzMjw/L88lL6OQ1n+WUP/PEvJznHhsr4SWexIaUiGtp6Wkd1q5PVa+d73sQOiwjLzrDgSnUsOJJNjHxq73duILZtYlBxqfS26nmNu/o9Inw/ephKa7MnJE8k0ft2z5SeSO9jP1J/XnDmLAkLTacmQUvOFA668lFLc7DY+QXa86EJxNbfI2G4DiYscXOK3k5XleLnk8kzyOS20az2MmtWWYLh5nFBbTed1Wkpfhkufnz0ZSj7TasmSEIKG41KnsVJb9Vj1+ZjrZEXRZvabvqmUEfiKh/c8OdP27A+EfysgsUPOs7XSekFHz3yR0/tmBlp9IyCsXdPhllFxzoPmPDnT9h4TGTyRkZsfKF8uo/7MD3f87boNixz/Ja8eitjQnsp6QUP8PDnT+pwPtv5VQ2stsV+0v/ZUDgUUZ5V860PlfEtp/I6FQaIPN7UT+FQlN/+pA1/90oPGOhFzBPluZjMjfS8hsklH5Uwc6/suBzl/Fj2XTxiW0/VlC7UsyXJpjWeb3VPTbAhIa/7uEHGfcXzafjMh3EtwOIc5kp9WsflsS/uXYYX4XwxxjXPI0JnleUYphnpfHiWWs0ngZhbT+QULpVQdqF5xwX5ZQc0ZGk0hai50ouymh5d8ldPyrA6GLMiTBl4/5nCi/K6H9Pxxo+zsJFZ8kklYz33E7zUgrw3/Zb9Xj+j1TEtqux08p1LHhQFm/DP9X+ti0si9tRVq7dqDU9Q8O+BpiY0epOz5u9MauUfvUNjlQNaKOo8zjEvxzqt70VQntb24dMWZ1yXMyGr5xIPisE+kCrrmPSdKOGWGAMLBZDBiS1oynJHT/WkJmZnwx1avEeU5C9XhiHjbhVvw+PsGyhYn99dxRJ3mrdF4PL8eetWEex/MaPbNyYh6zfLwOXkZ85nFcl5im1anNy8uIkufhUkzbbJj5ld1pVa4HxN6E2CJS/RcJvpBeH60nreyOcssbMjKcTqSVysg5IcFTpZZl+hlpbP9SQl6dE/Y8Gd73Hej8XF476nfMyyhfkeEscmJPnoz8Dx1ofjFxUbTNSujR2Wlltjq/L6HjHyUUdDphz3JC6pPhezyOG1Z/528lFLY6sSfLibxrDnR9FE/P+1BC6KQMOd+Jx5xOyPslNP9UQkZsp1khrf8hoemnEgranbDLTqQXieTDifR2Gf5PJXT8pwMNb0lwxU4YWPtT0c/ap+ymxa7TsGfXBQlNmt00Fq93PSCZ+hl2jPzLcbVZzInleJhLplsbZs/iH69fzMvLKKT1zxJyuiQ035Dh/3sJea0ymmOkVfWJA01vyHDmyUgrd6LsJw60XlWPo5lvSv6bA03vyHB6nUirkVH+s/id1qR9Z+B7ZrMtKKHp57KCJZtLRu3vJWTHSBnTb4VNM/sU/QUywv8uITvDCQWn38m693lZXRW/Txy7Vu3LvOhA01n1xc//Swfav1KvYeS+K6H2gBq/FXP2Wh9XyAj9yYGK7sR5Zy19B3dqyAYiTISBBxcDhqSV77S2/J2Eojb1DV2vo+XnJOUNXi8tlTi+mHHJdPGwVvJ6eDx/5lIbb/TM45nkYbFerT6jPGI8L8OlVjfXb1aGl7WSbOFaR1rdbKfVgaLixMVDb+Fj+tP6ZYR/60DdNRmlqzLcFfG+Z2W0H0LZqmQ0MbLBSaHTiezjMqo/ldDMPlj5Xw50fxInhawOI1Kl2PSdA5WDibbydqv1O1AlfIhli0ro+qWs3Puzsbb+fzovS/8lIZfbx3Za/5eEglz9OuJ1OZFWK6P8pw503o7ds9wK/d0SWv9egsR2jp0yqn8voSC2ky3WrUtak6jfzL8sjeOPS704IyyK8TwsSh7mOpnkf2KamM7jFdL6Fwk5aTIq/smB9hsyHquX4qS1XELjf0nIE3bulLu7f5SQxXzplxBh6VK8XxPujCbrOxPSyvQxe/mf8rHckFqfJTYt7GM+4cTc3+GEfVlC2xvxscf9qObTIa1W7ZuWlJdLe4WMyB0Jlf+s+tL3fzpQGoj7TKxnM2HWBnleRvgbB2pO0k7rZnxIZeLzBvmCfKHFgCFpZRnZBLR2p/Wq/p1WrcKtfuaLGtfLn7nk8UyKcSwsPhvl4+V4fi7N8vM0Ub9RWMwr5uHxotSrm6UbxYtlWZgtnFrSmr4soevb9V9gKwRRs1vD9dkcTkgdMgqekRD8PxxoOBPfyVxHWhvUL+3dseN7tpPYckuGd8AJqcSJ9CPxHfY1/dMSen6m7ljxOG5/+TcOBPr0F1GVGCR+oGQblND5K1klgWzh/t8Sik3u0yk7WAKJFetXbEhLrFshRn+Skc3atxX6GfH/pboDlb4iofVaIqFX/WCw05pE/Up5A/9q28qftbjUPuvl43m45Hm41MZrn7X51kgr221fllDc4YRNS1r/U0NawwL2qiU0/UVCbnq8/9aRVgtsMJtU4piIMR5f+ksp4RQj43sS2t4yGRsiNi3s4/6Qvu9A0/PqnVl2nM/jRak3dq2waSuUEP6jhLwVCY1nZHg/ccA/IqP+32SwsSvq33SY3Wn9TL3Tmm0yBjetX3gJIh1EZggDjyYGTEkrB4Xy6wFPSwhoPriypcnw/daBtg/0f1aJl09Fahc7l9jTdwAAIABJREFU/sylqNsoThtv9MzjRcnC/E+si4XFfGIajxfjeH6ui+cRn3mcUTltvPY5gbSyXw/YJ6HhfzhQt7R+UdJd+NJkFH0goXRGhsx2Zp1OuL4voTtGMFXS6FCObzOLnbCXyii550Drm+rP/yj1f+dA1ZQTe5xOONpklH3pWLsWwu21RWS0/IeEogYn9khOZFQ71S/G2XH5OQmdv5GQ3+5EWqYTDnZUfz52JKu30ysSA7sTeTcd6PipjNyQE3tcqg0FQ/HrCWakleG8/BcOVB2TIbGPgXKdyL0iof1ubKc1Rf28/fYFCa03ZJT9Qlq7s8jTmGTEiZH/ptdkpDE/+tU75Szeqn1KeQP/inVw3LE4Le60z7ycGC+Gk0nXyy/WLZJWri+BtMaO/xvZy3OeE3afjNIv1ass7KenbA4ZFf/iQPhFJxxuJzLaZFT9g3g9IEnfGfm+VEbDHyW4BVJsC8lo/u9qnDo2EsluwguVhX0Jbf65hFq2EyqvH7csn+7YtcCGMja/kRD6wgG2k5tx3IHIpxJab6f+013cduXXA9jY3yoSTCR1a14myI/kx4cIA0mRVj4paeUaab1+f0iruPDxMJfMNhZO9k9sC9ehlTwPj+fPXPJ4LrXx/JlLMR8Pc8nyiGFeZiNSWZhiv9Pa87/Uj5gCS/qLktHCl9Yko+Jz9jGSA91/dqD5axkFwscg7N5e6G0JDf/iQOefJISvSXCu3fl0QtonIfKdA93/6UDT5xLyH5fQHrvLzNvCyFfOyxKa2Mdaf1HryOJ3AzOcyD4tIfxP7GMWB9r/TkIJ23mN7eSu2+kVSCvTr3yMcklC03cOdCn2SyiJfcilpLPrASY7rfZaGRVfONQP0f6HhMiHMtzC8X2q+hUbHE4EvnGgU+deL/fRnmYZdf8koes/HWi5q+4kJ9M+JY+JfxnGtDjjcaLkdohSLCeGeR4xTtTFwzyfKHkZK9KqlCmVUfaRhNY/OdD5bw6ELsmQhZ+dskdkVP9C/YCv9WcSCs9LaBd+p9Wq77hder5PP+5A583EXXGG48C/SqjoUu+EWmHTyj5WP9Pp/xcHukzIpN7YVcqyjxANsM/0st+9Zb89zK5Y2GplNP2/DkSejb/Q8faTfDR3sKjfqd8fBAykRFrvRwP5osalWKd2MdTLI+bnYTGfGGbpWp08jpcVpV7eZPKL5XiYS1H/bguzxZKR1srYPb7dZh/Zs7lJl2FP9J32madp4zlmRWmWl6cxycuIcRTeXP+R38hvhAHCwKOCgV1PWh+VjngQ2qmS1sQj0AfBbrKRJnTCAGGAMEAYIAw8+Bgg0voQ3fXY7gFJpPXBH/DbjRHSTxghDBAGCAOEge3CAJFWIq0JR8PbBTTSS5MYYYAwQBggDBAGCAOpYIBIK5FWIq2EAcIAYYAwQBggDBAGdj0GiLQSSHc9SFN5K6Oy9FZPGCAMEAYIA4SBhwMDRFqJtBJpJQwQBggDhAHCAGGAMLDrMUCklUC660FKb8gPxxsy9SP1I2GAMEAYIAykggEirURaibQSBggDhAHCAGGAMEAY2PUYINJKIN31IE3lrYzK0ls9YYAwQBggDBAGHg4MEGkl0kqklTBAGCAMEAYIA4QBwsCuxwCRVgLprgcpvSE/HG/I1I/Uj4QBwgBhgDCQCgY2RVpt9lw8ERzCxWznA0l4bPYinD7Vg58934uvn+vCs5W7rx02uweh1yawsFoKMZxKZz+IZW32PNRemMD80WI8Zt+Gfir0o+PVESzdmcKhDwbR0Zb9QGJ6o31b9swUxqdyd6StrE/DV6fQ3bIN/XkfXkJtdh9678xg9a9nceze7m7Hto8fHX+z9SF0SfUP8xH/279avCN42+jYsMpv1f82eyaqznF8TOPIrTHMnmuEr+ARISutbVh+pwHZwnxtkyoweGcvanITx/x24HOn/W+FDyt8bUW6yBnE8EZ12+w5mDzQiRuD+dgj9KdWT1FnE+5GC5Ie36JNYlirVw8fSZFWW3oBqqNP4mCnVzHqQSet3DE2ezbmlncrac1RJv4DxxlpjYe57Y+KZICuY+T9aMmWk1abPQv+MxOYPe6Dy+mCPdeLTM2k+rD6mUhr6gSCzYPhy5snrbZAA+Zfq4HDZDFIFX/bOX6Ssa381BQmZ/KSXsxEnffDP2J9Gw0b9T8nTSNDWbDZXbDneOE7PoSVl6uRsY19vVH7tyu/zVGO/juDqC8QCGpzGw5droNL0/7twOdu8b8RPrbL76JekTOIYTFPMmFWdupgJ25uOWmNcxoz+/TwYUpa2YBzBYZx5OVLOLvcj2KnCkIirakveFaAYb4PPD+N6QWPMvHxsFU5Sk++b2z2fDS/M4q2GmFy1dk5ehh9uvOkdRI9zQ+231NdlGzhZixtM2ndaeymRFp3uX+M+l8kTdz/tuoIFq43waMhbTz9YZKs/YGzk4hG46dW+ceimF5UN722u627xf9G+Nju9jP995s/FHY2b3CndfP8xpC02lxV6F5+Ca+ffxKDlfkJu1wqaR3AteJq/CjYh2/CA/jbyhCGpThhsKV7MVvaiq9Dg/hd/V58VVGLASE9XSrBcV8bfh4axHfhfnxVUYVIukiKu/A9dxnOVvbim4Yh/DbYjP3OuH6rjreluVHbUoOLq+34/HQX7hyrx0K5W9MO453WtJxCzI9HcP3pLnx5sgPvzPoRlOOLrN1TghMHWnHnZDe+fKYVr0fLEcyM22eWbrMXo+PG+uOzYy9UJmzBF66OYngwS9mlEMNK2z2liJwZwMLHUzh0YxgjRyuQJcXts+XXYvLNeniqqtH92ggO3Z3G8tV65MQmTZurEHVnBnHg9vTa8R07xuvvjusw9XFpAJ0XRnDw9hQOfzyC0Sdr4M1V268e/w6je7IeA1eiOHR7HPMXmhOOx8zss9m9aHw77p9j90bQ6I/bpeofRCTiR9uFESzfncLBtzoR9Mf9b9W+sqcnsPLpNI7dE+q51hD3j4X/9hT6EH66D3M3J3H41himn6+DN1O10RZuwYFXmtF2ZQKHb/aifiiMyY8mcfBiCHkZsTyuAlSu9mD2xgRWPhnF9AsRlBWwySYX9Zcn0NOsTjze8Va09noUDDhG+3DwiVJ11yrF/hdJqy3Dg4pnBjG56oOcFvezXv8na5/NoH1Mp9p/4xhaCmHgahTLt8cxd6EpAR96dSfEmeBPqcOkfiXdpH9txXWYvtmGEnE8FdRi8noLCmP9p+gw2Wk1bb8niOjtSRz5PI495aqBgL+EtmpepKzssxo/Zv5Jtn/N7BPT9Eir1fi1JeEfM/8q7TPrX+V6ivn8YTa+efuYr/R22kXSxMhDWl4Bqk5FsXw2gPS1+Vd//HPdj1ng+zGT8W+zV2Dw3l7U5MTHcs6BYYjXM8zmX8V/adnIH29B9O1RLN+dxMEfdiEczoYtSfszhnux/HwAdrsTbHOg6e0RNAVic5/F/K7UbzB+k8HnTvuf96EhPpKYX1LBN69f5AximKcbSWb30qp6fVK9QtmKJXHXPM2FPTlFODzXglsnO3HrSD2enG1dI62p8hur+cuQtOZEX8L75/fDLxA13kjWqCeCI/hNZQ2GnNlwZXgw6evFtwG/sujb7G6M+Ltwo6AYfkcm0tOyUZ0Xwc8rAyiIgb4orxZnPEWodGQiIyMPM+V9+LpIXZy5/m9rIljIzIaUnosRXx++8/vWBj23RU+ygVXR3YzPV+sQLcuBS8pCYXk5Djd7kBarn5Uzux7gravE0YYClGVlIt2Zi8HJNrzXGz/mah3rxI2RQuRkuODMzkNrawV6PXHSZJWuZ7c2LiNYgaIYWMQw69Tw5QnMHPcj252JjIJSRC6MY+F4qTJJKG1jk/atUex7rQVVNR6kO7Ig5bnXSLFnZQSLp6vgzsqEFAxh9HonyrPik5zWFu1z6dMTmD9eBlnKRIa3AKWTIfhLRNI6gwPnw/CVZyPdnY/As1Esn6taOwpVJk0T+3h96gDQI63TWP5hG4LBHKQ58+B7OorDZyo21D6bvQCt70bRWr2+3Vb2ufoa0Dpciuy8LNjdXlSejmLfgXyFUDLSunSnHw1VeSg/NY4jVxvgKfCj/+MoWoJsEnfDd3oII7NlcOdkYY+UjZz+Nsy9VgOn3Qnv0Shm9+fDZi9E2+VRHLgQVI4VS5+ZwFA/O3JMvf85abU581H30hCic0VJjS3WL9b2mbdPJS3m+OD9byTN8WdeP9Np1r+sfyrOjmNkWN0pYvNJ3koUMwtq/3KbDBcli/5dK9/diWOb2GlN1j6lncoLsnb8mPvHqn+5/clIY9JqPn4V2w38YzV+lLIm85+KP/P6zcY3b7dx/8fvtCovI/cmse/5ehTFrh4lY785vs3Hf9Kk1WD+ZUQ7d2EQh95pR3WdBxlON7LCNWgeK1Tm12Tst+UGMfZxG4rTnepYM9hl1p/fU8MnJ638LvWx++x/a3yYzy9J+dcE37x+kTOIYZ6ejGRrzRMnEkkrw/38ShfeGy1BuSsTmd4iHFnqWCOtyehleUSbxLBYXg8fhqT1MVcVeg69hEuvHEd/pVezQ7n+QyybHMRPwhH0sjerdD9uRkbwx8Zowt8fGiLo529qabnozq/D5UAHflrXj28jI/i3Cl9sUDD9g3hd+NDLlt2A31VXo0ggnWLjxDBz9PETnXi6Yj0ZScxnvNNqy8hBY0sVTs834d0nO3DvTA/+ZrZkjRRl+itxZbUZ58eqsdhUjFBuZoKPzNKTfRMRbRXDtoJaTN/tRLm461PRgPmbLWsvBcqi/FkPqnSIKFuE2aQ4tY9dPXDC5ihGx/VhRMrM/SXakBFpwNjbgxh+qhENoxUoKGJkSi2vLgqJd/1sJSHM3G5HCc/DBp2BfWI9eqBV9U+ipzVur62lFSuxO1PJts+StJrYZ5M8KB6PoPelfsy+P47lz2Zw9PmAggGFtL5Vjyy7E9kLQ9h3oEAhmpG3xtEZdsLmqkT0i8RdNmVxu9uOUrsTe7o6sHKuCulFdZh8oRnd1zrgy8hH048G0VDsRKr9z/yrkNalAJovTeDo2xHkClgS/a8XtrTPon3J4EOvXjHOFH8W9TM9ZuODpe8JNWHxTbUPbVIZ+m70olpz39mQtCRRv2KDASkT22kUTsY+pQ490mphn1X/GtmkF29MWo3HL9djM/CP1fhR2m0yv1jNH0p5k/G9Zl8yO63p+Wh+ewIDfW71hIRhz8L/TL8pvi3m/6RJq8H8xj5Ubv9gHN2N8U0Y3mbFN0nYz8ZG/eVRtNU6kT7Ug/3Ktxnx+Zrr053fLfRb4ZOTVuVO8Q74P942/Z14lm42fpPBh9X8xW1IVeqS1hw/3j4TQlfsZJzVIX6IlSq/EW3Ww4cxaVV2Itmd1hH1TuuS+Z1Wm6sOv6wPo4WT1oZOHBGO1xINcWPK349fVAQx6c6Hz+FGrqcVf6jwKzuhDPDaXyewucP4JhhcIz2iPm2YTUpHH+/AiXL9Qcfzs53WfTofYrEPdPpnO/DhbAD9FR4Uud1wNzbg633xnUymw5aehaLSIoy0V+HskVa80eVZ2+lMJp3bsVGpkhZGZOKTgK0ijLmPWlAoksJP21FmQPLtlQ2Y/WwC86/vxfT1CSycqYTL4mhYa6ctw42s2nJUz0TQfzWKiflClbTpfB3OPqqYu9mctH28Lj3Q6pKexhYsXw0hM9beZNpnSVoN/MfehANnxzH/fD0CkUJkebMhjfSAX+9IirR+PoCQ5shlrc25QYx/1ALfcA+m5vJR8XwUbc1ViH6ovpRsRf8z0nr0bhS9PQXKLvW+oyUJpxDcFj3JdlFM7WOLjln79PBRGcGC8NKlV682zhB/FvUzPcqkb9C/Sro9Dw2Xo+gIueAY7sHi02VrL6zcDnVhTnw5U8omUb+Sr6sDxy7WQjYYo7wePcnGgJV9Sh1GpNWsfyz6V88eozhj0proN5tm/Cq2G/hHWdRN7FfKMtJq0L9W84fV+OZtNez/2K8HMNLE8mZ0d+LQtUZ4YvN1MvYrbTCaXxXSajz/2+x+DHzRj1pPfH3IPTSy/nqAoX8K0HqNvWDrr5/J2p+1MIiZxXz4TkaV607cb6LUnd8txo/l/LPD/uftM8KH0rcm4zcZ/1rNX9yGVKUuafVU4NqpOrQJfEEkranWKZbXw4cpaeWFbemFOr8eMIxf+ivRImXBJRXiicoB/Kq0SDn+ZYM+Wr4X/1hZhwEnO953ozjThzk3P27LxwuhvXg9JwdSmhslmT48W7l3C0mrE1V9LfjiaA0GS3PgdGQhv7QUx/aWIFdYINgxSP++Hlwb8CIzIxPenOzYHRwPHj/RjlPBbDgyspBfUoJDi+1rpNWWloupyTos1HhR4s5EWoYbld0RfLUUux5hkc79ulnJgBS+MoHp4+XIdmchvaAEDefHlOsB/PqDFahzFwcR3VcMT30J8n056xZkZpvN5UP3e5M4+HL1GhlU4tO8qDvVjnBXEdwe9Xjbs7AXR2ILsLooTGPuVDW8niyke4sRfmUMC0/ESb+Vfdw3eqC1WnRY2aTaZ3U9wHBSL0Tb9VH0dOYiTXIjs6YCTedHkyet9myUnxnFodciKCvPQZrshqumAtVN6k9QqWS6H9GXh5WdCnm8D1MvdWPhLL8jlnr/M9I6o1xBcMImF6HlrSj6u3LWdoNM+1/xm5l9Vu1jP3k1jYXnalCQ71bxcX48AR+m9Vviz7x+RbcJqWHp7C+jrxOLp2oQuTyMJp1TG7ajU3F2GjNHipHB5sHCnNhLm3X9ig2BBizc6kVdIBt2Rxbk0ryEr8uNxl+y9il16JHWFPHH67eyj+VLibQa+IdtNpiNH6XdJv1rNX8o13JMxvda+w37X70ewEmrLc2LxjfZh0l8fJvbz/Kbz6/m45/tlLa+P4noVD4yJDfcHY0Yvzm1AdLqQt7SMJbfakVlTZ5yPcBVU4nW5YDygpWM/5U+8Iex71InBtlJkSNOoLn/lDzbgE9xp1Wp4z77n7fPaH7g6UbzSzL+TXb95HVtVuqS1nQvHn+iC1d6C+CVMpFbUoZTq10bvh6QjE16639SpFWrXN0J7cHlojBu1Q7g2/o+3PX5US1sF7MPsWZKWvGT0AB+F96Ln1U2YtXNJ3UXSnLD+KxuSPkI6+tACLP5Efxmi3Zamb229Gw0dtbi6mo7vjjThVtHQpgvz15HztKL/Tj/eCe+PN2Bm3M+5foBI7MFtUG8+WQXvjrdgfcWqjHUXItbsZ1WdvycWVSGJxZacOtUN7462YEPDtYiWpipLHZW6Vp/burZW4rGM4NY+PEklj8cRvRYAO7/v703fW7jStM9/4L5E+7ntBDEFgAIgJf7EgRBAAS4gOtwJyWuoLiL2kVtFCVZKllSy3J5k9SStZXdVqlkW+WyFi+yXVVeanH0VFXfmmtfh3vudUX09Nzoihszz8RJMIkEiI0LpIT0fGCcRJ7Ms7zv72Q+582TSdX641RQ527djH0PJ3Hgkxn5ZaSD97di2yv1KF56mUi2odWFvjtT2PuaP1q06iww+HzoemUYu+9P4aB4keZSB2o84chC+KYwjtDxNozfnsD8r0IYP+GD0xq5cKVqn2KTeNCmuumIc9Pq35pFqxW2vjZM3pnEwYfj8jcYvVs7sHvpRbpUkdawbYvhPdyHmTvj2H9frD3uREMwL7xcQ2dF5akJHLofjqZIrgbMfjwd/emgdfpfWdOq2HlTZS3G392MwNK65HAbE/k/dfvkFwkS9k+I1hH072rD1lvx+Uhef3L+UtlXzk8iakS+fIyhDF23prH/kj9hNFTnq8XorQkceDiOHT/1y0tC0qlfPkbnQNnefmwTL/M9EGOoAUXqpycJxt9q2hdv/KRqn7j+peRvaVIb//qQ/Dut6YzfVPZJxpd8bhL/pqpf9D/Z+FbsL9J4/o8VTeI4fVcH9r7ThpKlp4/J2i/uH8mur3L9Kca/tbsVE+9M4MCDrZj6iR8Foz1pi1ZRvqTPQ9lcB8bfHsP8h5PYfaMLwWDe8hK4ZO2X2yfKEOL59gwOnPckfIqTCT61YH/FBvH4UPKkJNeXVPZN9/6p1LXWNJ5oFWWZS1w4O9+Bj8704P29AWzd0qht0bpWA/C8+I9bHrddxHfRXIut8Cy9OCYuks/llqL9Z1Po74gIy7W2K3xTmEBvy/rLWksbMt2/tbSJ52iDffqBfiADZIAMZC8Da4q00uHZ63DhO8ngxuD9QbS3FsJgsmKTNQ8FfS2YeqcPXtU6qLX6OV4kY61lreW8TPdvLW3iOdk9Zug/+o8MkAEy8OQZoGiN+QbiswClePzlGGhF6K2t8vdb998NYfrlFvg8kTdc12OHJy5aM9y/9diG5z75ix59QB+QATJABrKTAYrWZ1C0crBm52Cl3+g3MkAGyAAZeJYZoGilaI16Y/xZHgzsO28GZIAMkAEyQAa0ywBFK0UrRSsZIANkgAyQATJABjTPQJRo/c/FLs03mDMg7c6A6Bv6hgyQATJABsgAGcgUAxStnFlxokIGyAAZIANkgAyQAc0zQNFKSDUPaaZmbCyX0QAyQAbIABkgA9nDAEUrRStFKxkgA2SADJABMkAGNM8ARWsKSPthiuvE1e7nTC57ZnL0FX1FBsgAGSADZEB7DFC0phCtAtpYgRr7Ww22Ok9sK39KOerf6vO4rb3BQZ/QJ2SADJABMkAGtMNA1otW5y0jGhY2/n/cK+IynVQBWhyrbKvT2P2xv9XHcls7g4O+oC/IABkgA2SADGiHgawQrZLBAvsJEzw7V4pTx00j6vev3P8kIFPEaLrpRrTRft4E16QFm3TasMFG9IllaOcCQV/QF2SADJABMqAVBjQtWiWdBTntZvi+MaLxhhlm+0phZr9qRO2ulfs3wsBCfMb+qctVxKmyTzlW+S3SeMeo89e97TLD9aEJLQ/NcLoyY4d1tzGNJRisgxdFMkAGyAAZIANkIBkDmhWtktOM4htGtP/JhLJOC55LEEm0XjTCP5sZsZZIcCr7lVRtYPU+ZTtRqj5vPdtC3JvnzGj81gj/KQv0xszYYz1t5Lm8EJEBMkAGyAAZIAPrYUCzotVwwoTeP5lgsyUXYJZXTKgZjz5G0plR/a/GFVHSvgdmWfymylcMKsRm7J/IixWh6uOV7XTSVO1Ilb+ijmoz6v/NiOreaHusOI6Rz7hrj2knXkzJABkgA2SADGiXAc2KViXS2vbPJpR2WCCiifFAMp8zwTcaPy/e8avZp4hT5Rzld2yqzhd56vxkv5Xz1pvKkdbtZgS/NSLwAiOt67Unz9fuBYu+oW/IABkgA88uA5oVrQLKqDWt1+Ovac0kvIrgVKeiPrUoTaf+2OOV3+mcm/IYsab1o/CaVgfXtMad2KS0ISPPtBsZIANkgAyQAc0zoGnRqogN+esBJ03wxLxwJeWY4fqLER3vmKFLEIlVylhLGisuld+xaWzZsfmJfseet5bf8tcDpvj1gLXYjuc8u7N1+p6+JwNkgAxkHwNZIVoTgbUsWu88XtGqtEcRo+rf8fYp+SKNzVfncTv7BhB9Rp+RATJABsgAGXg8DGS1aM00JGqBKbaT/Y7XFuX4RGm8c7jv8YBPO9POZIAMkAEyQAayiwGKVq5h0fwaFl5UsuuiQn/RX2SADJABMpAJBihaKVopWskAGSADZIAMkAEyoHkGKFoJqeYhzcRsjWUyCkAGyAAZIANkILsYoGilaKVoJQNkgAyQATJABsiA5hmgaCWkmoeUM+HsmgnTX/QXGSADZIAMZIIBilaKVopWMkAGyAAZIANkgAxongGKVkKqeUgzMVtjmYwCkAEyQAbIABnILgYoWilaKVrJABkgA2SADJABMqB5BihaCanmIeVMOLtmwvQX/UUGyAAZIAOZYICilaKVopUMkAEyQAbIABkgA5pngKKVkGoe0kzM1lgmowBkgAyQATJABrKLAYpWitYnIlolXQHqL01gx0IF1NuP/QJS4kbXxVHsfTCFfe8MoavDEWUPSZeP2gsT2H6oDM/pLFF5ydqq7pN6O9k5G5Un6Upx5nQfvnyxH1+c68Epb/rt3rg2pO9fSZeLqjNjGOi2ySw03pjB2NZoP4h2FR0OYd/xStkH+XtHsfDpbNTf4Su1MOksEOXVvDYj5x3+ZBr73htBaNEDuyE9O0i6PNRfCZ+vrmPXQplct6SrQO+9GczuKYa0xITU3YlDF/wwKL+b2zD/KLqMwx92ojIOQ+r+x9p/rfzFlpPsd7z61cyqt+OVI+kcaFm8jiNtzrTHR7xyuC+7xAP9RX89CQayQrRK+mLUhI5hT3fhU3VRlKwB/M7rgTPOjexJwPA465R0TlkY7F4UojWy/XjbkAv32QnMLrpgtVihyyuELS9a2Igbdp0Q14fKVylaI316cv1zYG7+SYnW9Psv2X0YvdOOUoMQnFa4z05jbl9J1FgX4lDsn9pWIO8XolWwE48XRbQOD9gg6a0wlFSg7coktk7mxz0+XhnKvqrTU5iciT5PFq3vT2D+TjeqrGFe4orWt4JwpDG21f1X6lXStfKnnJ9OGq9+NbPq7XjlSbkDOHVtAQF9ZOwEpp7HTGsVctLof7wyuY+CiAyQgXgMaFq0ihuY1TOCg69ewfn5AZRZIhfFeJ3Jtn2SPYj/8syKVis8L05jekeBLFSU7cfpQ0lXhNa3x9AR2HiuBLtKn9Tbj7d/T1K0pt9/y/gWbD9Uuhy1zNs3iv0/qZK5KJzpQu9woTyxqbs8jS094Qt5uqJVsbdjxzD2JBC5yjHx0oSi9YN+9BwLYXouLKLXI1pj+x+vHZncF69+NbPq7XjtcA6fx+WddVGTOl1hG6ZO/SMunNyG+sLcVU8W4tXDfRQxZIAMaFa0SlYfeudfxhuvH8OQtyjqgige3x319+FiUQD/VLMZ/zU4iN95GzBiijhUMvnwsd+PBms1Lvr68dfGEXxb40fN0sx/k7Hv5envAAAgAElEQVQMx6u68U3DML6t78W7FS5U5SxFTdIpX1+I2Yp2fFE/hO8btuDz6loMplm/ZPTgl8Eh/NA4ir81h5b/fqytldsnmWvwaX0jepfaIwaqZHDjbl0T+lT7Eg1gERnZcaAVu91lWNjVjo/P9uDBoQaMFUfsk+MswfbxJtw52YPPXujC27Nu+M1L/a8K4N4OPxb2d+OzE43Y1ujBzZM9eLC3Gp6laIpkzsfwSCNuP9+NT0914u1tXnQ6w+VLujJ0vRv9aFQ8Zj38khebVJGXkoUxjAyFb2jqbfFINHh9BL2TDRi8FsK+++PYfqEVLlX7paJaTN5sQIGvBr2XRrHv4TTmrzcsR60lazG8C32YfXcC+z8Yw/RLTahUnV95cgL7P5zGYdUj3MO3GuXzJV0hmt+KtP/wo1E0uyPCVtLZUf78KOYWK+THwVJOHvyvhBAKCQEeOU7dJ/V2Ir8p+6V8N946UYtW1eNsyeHGzWMBNCzZP5n/lsvRxRetkq4cL59rwrgt0taq/jZ8MFy0LC4y6V+lfSIVtm66MYKmykhbcoZ6cVh+1F6CtrencehSACZdCdpvj6K1OnxcuqJV0ttgrKhC980QeltXL54SitZ7m+H31WLy3Q6Umy1Yq2iN1/9U/Mn2q/Cg+8Io9tyfwoH3RzF2LIDCPGX8pR4/ig/i1a/kqZlVbyv5IpV0VZh47SImyiL+U/LFdaikcw/OXb6IxbGmtJdnKOczjVyvaQvaggyEGdCsaHWGXsYvXt8F95KQUjssLFpH8WdvAMMWB6yGAky6+vGdxx0RLUK0BgfwpS+IbbY8WHNsyDfa5cdVQhQt+Ibwm4pKeA022EylOO4dxB8rS2GU18QJUZy4fCFaRt09eLe4DG6jDfocB2rym/CV14PiJdEii+YE9St9kfJa8GOcSKt4vDnm3oL3CiLr+sqLu/C78uIo8a6UE5uGRWsfHh2uRajcAaPJiZ6tHfhsunz5cV1hnReHGotRmWuD3pKHockO3O4PPwaVqgJ4eKYFO0ud6JnswucHvKhxlOHcTzpwqDy8ZrBnqhUXukpQbrMhx2BHVUMt7uypQr5KtMW2K/a3wV+N0uLwzU69HRatM9j9ehCuKgf09iJ4ToUw/4pP9o8oRxat98aw7VIbfIEC6I25MOXbZVEs/OM6M4zR2UrYnbnYZHLAOdCBuUsBWFTtk3TFaP95CO01K2+4SlvDAjxatMr1G0vQcj2EgZ482Ke2YO60e7ltyrnqPqm3lfxEqfD/wLYuXGiyyyJSCGHfQDtu9UYeUyfzn1KuWGsYb3lAKtEq6s+kf5X2iVTyNWH7ldpovwRasEtMIIprMXW5D6N3u1FlqsLAwz74lh7Hx65pPfxoEPVFYT8qywOU9aiHH01j+4sBFOQq+elNqkT7EovWAdQV5sL1wlaMT+RD6urEwRRrWgd6V3IWr/9R9pEngCv5qzg5ge2LlTCbbDAUFqNish7ucrVoTT5+lDqS1a9mVr2tnCun1btw+aXx5etuVJ7yvkDxME6/dRO7/Sv7H/d45Tymy5NI2omilQxoXLQ+Z/Whb9/LuPLaIga8hVFiLSxah3HZEbkISmY/fh1sQr9aNDa2Y5sqWqU4XQjKTxtbMKoWMJZa/L4hiPZl0Zq4fEnvxt2m6CipiJj+2NiEgTTqX25HAtEq8jdZ6/C1PwCP3J5CnAn0YDGOgFfKUqdh0dqD06oXcCRvLT7dX41CpX0GJ5rbfDizvQU/P9aFR2f78JvZ8rDoE6L1kAelOgsqettkMStsvvtQN45XWSCZKnDpH8Iv+oiXfZS/L87WoUNub/qiQN1uZTssWqfQ26byb3k9Zu53olxpv4i0ftQH35IQUc4VqWT1IvRJJFK6LF4edqJC7fN1iFa5vlI/QnfGsOtGM4o3eOmKzlWDXx7yoEzY01CCs8cbMaqKjEpJ/KfYYs2iNcP+jbTPitKjIYyORCZnsv8cfmy93wH3YA92LFQhcGErurr92Hq3bXlSmHakVWeFzlGAkpk+7LqZ3hpTpX0iTSxawyJZcjVg9k4bijs6MB8rWlOsaRWP3eP1X11/okmToakRW98awsiJZjSOVaO4NHc5yp/O+JHtnEb96rbEbks6GwLz13BqcyRCrz5GjrR27cW5KxdxlJFWClBOQsjABjCg2UirclG1ekbDa1r3Rta0xhWt1gC+bmiQRad8roi0NjZjUCVSlAuqLFqDLRhRPWoXL0V9XR9cEl0i0hojWlXly6K1sRsHTRFRpZStpHKkNUH9y8c4W/A/fF4UxGujzoGdns24aLdCl9uAP3qqkRfnOKUsdaqIVvVb41J1AB8fCEeC5UjebBfem/VgoLoApXY77M2N+GJbBXRCJKUlWlsw40zcf3V7Vrsd96bracTc3VaULNlAjrQmehtbiNaPB1G/FMVNVP96Iq2iTEOwFTNvDmPb252oUE2gEtW3mv2yD/d34KjLAntTI94fL1mOkqfyn1KPEK3b4ryIJYTQS//QjEl7xH/Vm9uXlweEJyWZ8+9y+8xVGBAvM8UI/vCLTn3YfCqEgV4b8vaOYPInnZhb+jqAOD9d0bpcl8GD4Y83w68S/kpesjSlaNXZUf3iVgwvdmD3akVrgv6r25NItIpjJIMdubVVqJlpwsD1ECa2l8iT+3TGj3x+GvWr2xK7LZk6ceTaCbTE+E8cJ9a0Tr7ANa2xNuNvRkzJwPoY0LRoVZwr6Uuivh4QFq0j+KqqGk3GXFhNJVjwDOCbivDjfXFeMtEoLuqLNUP4rLICHkMurMZSHPOGzw9/MkeI1sTli8fPoaot+Ku3DoMWB0x6O8psLszZIxGjZPUv98taiz8E27Hfaochx4Yicx5sKmGqz23A76rdGK/sx02nLe1ZWmrRWoAjxztx2u+A0ZCLovJy7NvZmb5o1eWid6oTH+7xobPIDqMxXMaoJ9J/pY9rScM33WnMna5BYUEu9IVlCL62FTuOhkW17F8RaU0kWnUOVJ0dw75LTaisciLHbIc1UI2alrwoG65HtEqF1Rj++RbUVViRO9aPHRcCyFW9Pb2WfseeY61vwPuTVdg934b5kojAFG+UJ/OfUo6I5A1s68OtwULYDDYUOh3hSYmuEAvHenCpIx9WQy7K/T5cO9kbEa0Z9q/SPsNgD3aecEU9RRF5YnwHr27F7rsDqC2w4Lm2dux5dww7T1Ut+y9d0SpsoHMWoGz3Zux7uzHtiZ/SxlSiVT7O24RtvxrHvlWK1kT9V+oO20I8tYheHiDlFKLudCeCPaWwF4SXvxTs2IKDl2thlp90iDWtycePKDud+tVtid229J7C1YNtUevUlWMCUycw28avByj2YLo+oUL70X4KA1khWpXGKmlYtA7ibmUQD+oG8V3DZjx0uVGjEg2pROMmUxlOuHvwTcOQ/CLW3XIXqpWXjOQXsVKUry/ETHk7fl0/iO+DW/CltxkLdufyDThV/aIvIhLWV9qOLxuG8UNwAF97/WhRR391eVisGcS3gSDaVPsVOyRKU4tWK4pr/bh5rAefn+nC7R01GG6txb00I61y2835GBoK4tbxLnx6uhN39tRhW5Vjuf+J2pbO/rBoHUfoeBvGb09g/lchjJ/wwbm0nlGuP4lolfPFi1iH+zBzZxz774u1r51oCOYtP0KVj1nj8gDJUITg5RCGtoRFsPBjxclRzB4qh1416Uinr8mOkfRFOHakF4/2uKLElhBiyfynLlNf5sbrR7rx2Zku3J1zyUs+RH6h348bx8P73xx3wdvcgF/FvIiVKf+K+sUYrrsUQntg5cVYrOF1nZ7E4Z83yWukJZsPoY9nMLMz8hg6dk2r/KLfuy3y8hf1mlaxnvXAr0KYfrkF7sqVdaltpWyLtqX+Tqt6Da0DNa9OLr08Fp5cSOI7rUmWByTrv9KOsJ3iiFadBQafD12vDGP3/SkcvD+OuUsdqPGEXzRLa/wksb+6/kTbkq4EQ+euYrsvPZsmKof7aT8yQAZWw0AWi9YhXFI93lxNp1MdGxbFmSs/Vf1KvhAnzRWb8dvSp+v7tEr/EqXhm+4Eelsi0cVEx3J/dl7wpPJ6TL+5+jWmT4u/0+2/eGmu++4wGivSHwvpjJ90609kb6l0Gq9emFueBCU6jvuzc3zSb/SbVhnIYtEaveZ0Iw0cFq2ZKz9VW4VYzcmxocReh8/r2zET52WyVGVkc374phv9IlY294dtX3kDKJgfxcR0+Bunz6J9kvVf0ufB6c2D3pSL3I42bH+/E+XG1YrW5OMnWf3p+MM1dxnnQ/H/uUM65/OYlWOCNqFNyEBqBiha47zN9sRFq74SPwsO418C7TipWif7rABN0Zp64D4rLDyL/RTrpftujGH+w2nM396M9vbotdipbMLxw/GTihHmk5FsZSArRWu2Gpvt5oWCDJABMkAGyAAZIANrY4CiNU6klTCtDSbajXYjA2SADJABMkAGMsUARStF6/JnhDIFGcvlBYwMkAEyQAbIABlYLwMUrRStFK1kgAyQATJABsgAGdA8AxSthFTzkK53ZsbzObsnA2SADJABMpD9DFC0UrRStJIBMkAGyAAZIANkQPMMULQSUs1Dytlx9s+O6UP6kAyQATJABtbLAEXrGkRrP0xQ/mIdIPbH7uNvDlQyQAbIABkgA2SADKyPAYrWFKJVEafqNBl0atEae07s72TlMG99YNN+tB8ZIANkgAyQgaeLgawXrc5bRjQspP8vDlcLsFqEpjo30bGx+2N/pyqX+U/XoKM/6U8yQAbIABkgA6tnICtEq2SwwH7CBM/OleLUcdOI+v0r928UDKsRmMqx6aYb0Ub7eRNckxZs0mXOBhvRTpax+sFJm9FmZIAMkAEyQAYiDGhatEo6C3LazfB9Y0TjDTPM9pXCzH7ViNpdK/dvlJOFAE31p9SlHKf8FqkiYJV9sb+V/WtOXWa4PjSh5aEZTlfm7LDm9qVYfsFyI4ORtqAtyAAZIANkgAwkZkCzolVymlF8w4j2P5lQ1mnBcwkiidaLRvhnMyfWVisy1ccr24nSjQJTiHvznBmN3xrhP2WB3pg5e2xUm1lO4kFJ29A2ZIAMkAEyQAZWMqBZ0Wo4YULvn0yw2ZILMMsrJtSMRx8j6cyo/lfjighp3wOzLH5T5atBUQSnel+i7dUcK8pI1Y5U+SvaUW1G/b8ZUd0bbY8VxzH6yS88kAEyQAbIABkgA1nGgGZFqxJpbftnE0o7LBDRxHjiy3zOBN9o/Lx4x692nyJERZroTylTnS/2pfqtnLfeVI60bjcj+K0RgRcYaV2vPXn+ytktbUKbkAEyQAbIwJNmQLOiVRgmak3r9fhrWjNtQCE8RR1KGltfov3q45RjYlP1MWveFmtaPwqvaXVwTWvcic2abZtlM1D2kzcUMkAGyAAZeJoZ0LRoVQwvfz3gpAmemBeupBwzXH8xouMdM3QJIrFKGWtJFZEpzlVvq8uKt1/ZlypVl7PWbfnrAVP8esBa7cfzeIEnA2SADJABMpAdDGSFaE0E07JovfN4RKsQofH+lPYpecpvkSrCVdkX+1vZzzQ7Bgz9RD+RATJABsgAGXgyDGS1aM0kNLHiMva3Unei/SJfyUuUKmUwfTLw0+60OxkgA2SADJCB7GGAopXrFrkOlAyQATJABsgAGSADmmeAopWQah5SzoKzZxZMX9FXZIAMkAEykCkGKFopWilayQAZIANkgAyQATKgeQYoWgmp5iHN1IyN5TIaQAbIABkgA2QgexigaKVopWglA2SADJABMkAGyIDmGaBoJaSah5Sz4OyZBdNX9BUZIANkgAxkigGKVopWilYyQAbIABkgA2SADGieAYpWQqp5SDM1Y2O5jAaQATJABsgAGcgeBihaKVopWskAGSADZIAMkAEyoHkGKFoJqeYh5Sw4e2bB9BV9RQbIABkgA5ligKKVopWilQyQATJABsgAGSADmmeAopWQPhFIJV0B6i9NYMdCBdTbGz47K3Gj6+Io9j6Ywr53htDV4Yjub4p8SZeP2gsT2H6oDM/pLNHnJmFH3Sf19ob3L04bJF0pzpzuw5cv9uOLcz045U2/3RvVPnWf1durLX+t9k9Vj7pN6u1450k6B1oWr+NImzNt/8crh/sYfSIDZIAMrI+BrBCtkr4YNaFj2NNd+FTdNCRrAL/zeuBchRh6WoCXdE7UX5nB7kUhWiPbG9k/SZcL99kJzC66YLVYocsrhC0vIuBS5Yu2CEFTJ8T1ofJVitZInzLVv1S2EmJrbv5JidaN6f9a7Z/aNum3T8odwKlrCwjoI+wEpp7HTGsVcp7BsZvKtsxf302Z9qP9yEBiBjQtWiWdFVbPCA6+egXn5wdQZoncNJ4Gp0r2IP7LMytarfC8OI3pHQUQfla2N9Kvkq4IrW+PoSMQn5tU+etpi7pP6u31lLnac5+saI349En1P5m91G1Sb8c7xzl8Hpd31kVNWnSFbZg69Y+4cHIb6gtzn6rJdDwbcF/imyhtQ9uQgcfHgGZFq2T1oXf+Zbzx+jEMeYuibhiSLg9H/X24WBTAP9Vsxn8NDuJ33gaMmCKGk0w+fOz3o8FajYu+fvy1cQTf1vhRsxQZ2WQsw/GqbnzTMIxv63vxboULVTlhcZNW+fpCzFa044v6IXzfsAWfV9diMM36JaMHvwwO4YfGUfytObT892Ntrdw+yVyDT+sb0bvUHjEgJIMbd+ua0Kfal2igiMjejgOt2O0uw8Kudnx8tgcPDjVgrDhinxxnCbaPN+HOyR589kIX3p51w29e6n9VAPd2+LGwvxufnWjEtkYPbp7swYO91fAsRZskcz6GRxpx+/lufHqqE29v86LTGS5f0pWh690ZLHw6G/V3+CUvNqkiUyULYxgZCt/w1dtyvyo86L4wij33p3Dg/VGMHQugME8pvxpDj7Yg4IyIUefuEexaKFsWD5UnJ7D/w2kcfhRpx+FbjctR7WT5kq4QzW+pzns0imZ3pC5JZ0f586OYW6yAQWeBlJMH/yshhEJCgEeOU/dJvZ3Ib8p+Kd+Nt07UotUQKUtyuHHzWAANS/ZP5r/lchJEWiVdOV4+14RxW6T8qv42fDBctGy/jPs3zrKGSLuT218+Likf+QheH0HvZAMGr4Ww7/44tl9ohUvFvyhD7RP1ttIOkUq6Kky8dhETZRFbKflinJV07sG5yxexONYEu8pfyjFMI9cc2oK2IANkYL0MaFa0OkMv4xev74J7SUipOxoWlaP4szeAYYsDVkMBJl39+M7jXhYlsmgNDuBLXxDbbHmw5tiQb7TLj/PEOrkF3xB+U1EJr8EGm6kUx72D+GNlKYxChMiiOHH5QrSMunvwbnEZ3EYb9DkO1OQ34SuvB8VLoiVZ/UpfpLwW/Bgn0ioeW4+5t+C9gsj6y/LiLvyuvDhKvCvlxKZh0dqHR4drESp3wGhyomdrBz6bLl9+nFlY58WhxmJU5tqgt+RhaLIDt/vzZdEiVQXw8EwLdpY60TPZhc8PeFHjKMO5n3TgULmwTy56plpxoasE5TYbcgx2VDXU4s6eKuSrRFtsu2J/G/zVKC0OiwH1tjiu4uQEti9WwmyywVBYjIrJerjL0xetogxJV4z2n4fQXrNScKSTHz5GCPBo0SrvN5ag5XoIAz15sE9twdxpt8yOyFP+1H1Sbyv5iVJh34FtXbjQZA/7Q2eBb6Adt3rD/hHnJfOfUm6iSGsq0fo4/Ku0MVUangCttH9yPoRoncHu14NwVTmgtxfBcyqE+Vd8UT5S+0S9HdWm6l24/NL48nUlKk/xdfEwTr91E7v98TmLe45yLtPl8UI7Ra4dtAVtQQbiM6BZ0fqc1Ye+fS/jymuLGPAWRom1sKgcxmVH5CYhmf34dbAJ/WrR2NiObXGiH0JQftrYglGVwJIstfh9QxDty6I1cfmS3o27TdFRUhEx/bGxCQNp1K/AmEi0ivxN1jp87Q/AI7enEGcCPViMI+CVstRpWLT24LTqBRzJW4tP91ejUGmfwYnmNh/ObG/Bz4914dHZPvxmtlyOhMqi9ZAHpToLKnrbZDErbL77UDeOV1kgmSpw6R/CL/qIl32Uvy/O1qFDbm96kVZ1m2O3DU2N2PrWEEZONKNxrBrFpbnLUUxJlzrSKsrLpGiV21vqR+jOGHbdaEbxBi9d0blq8MtDHpQJexpKcPZ4I0ZVkVEpif8UW65ZtD4G/yptTJUmEq3J+RCidQq9barrQ3k9Zu53olw15lPXbUNg/hpObY5EoNXnyJHWrr04d+UijjLSSvHJCQgZIAMZZ0C7olUWHWJN62h4TeveyJrWuKLVGsDXDQ2y6BQ3FjnS2diMwTg3KVm0BlswonrULl6K+ro+uCS6xPKDGNGqKl8WrY3dOGiK3BTVN7NU9SvHSs4W/A+fFwXx2qhzYKdnMy7ardDlNuCPnmrkxTlOKUudKqJV/da4VB3AxwfCkWA5kjfbhfdmPRioLkCp3Q57cyO+2FYBnRBJItKaUrS2YEb1eF5d/0ZtSwY7cmurUDPThIHrIUxsL5EnL5LOjcFPBlBbELF/3r7RqOUBog2ZFq2GYCtm3hzGtrc7UaGaQG1E/2Uf7u/AUZcF9qZGvD9eshwlT+U/pX4hWrfFeRFLCMGX/qEZk/aI/ao3ty8vDwhPSjLvX6WdydJEolWck5iPOKLV04i5u60oSXMMyeWbOnHk2gm0xJmQiDWtky9wTWsy3zEvfqSIdqFdyMDaGdC0aFUcK+lLor4eEBatI/iqqhpNxlxYTSVY8Azgm4rw431xXlLRqsvHYs0QPqusgMeQC6uxFMe84fNNcqRQiNbE5YvlAaGqLfirtw6DFgdMejvKbC7M2SOP85PVv9wvay3+EGzHfqsdhhwbisx5sKluqvrcBvyu2o3xyn7cdNrSnsGkFq0FOHK8E6f9DhgNuSgqL8e+nZ3pi1ZdLnqnOvHhHh86i+wwGsNljHoi/Vf6uJZUyilE3elOBHtKYS/IxSaTAwU7tuDg5VqYZf+Uov0XkwhNFcFgssPe1Yzxu1OPVbRKhdUY/vkW1FVYkTvWjx0XAshVvV2+ln7HnmOtb8D7k1XYPd+G+ZKIwBRv1Cfzn1KOeMFoYFsfbg0WwmawodDpCE9KdIVYONaDSx35sBpyUe734drJ3ohozbB/l9tndaH39iT2vFoTxb2SL9J4ojU1H0K0TmPudA0KC3KhLyxD8LWt2HE0PClTl59s29J7ClcPtkWtw1aOD0ydwGwbvx6g2IPp2m/CtB1tRwbSZyArRGusQ8OidRB3K4N4UDeI7xo246HLjRqVaEglGjeZynDC3YNvGobkF7HulrtQrbxkJK9pTVG+vhAz5e34df0gvg9uwZfeZizYncvLGFLVL/okImF9pe34smEYPwQH8LXXjxZ19FeXh8WaQXwbCKJNtT/WHrG/U4tWK4pr/bh5rAefn+nC7R01GG6txb00I61y2835GBoK4tbxLnx6uhN39tRhW5Vjuf+xbVrNb/Eyk8HnQ9crw9h9fwoH749j7lIHajyRt7St3a2YeGcCBx5sxdRP/CgY7XlsolUyFCF4OYShLXnyREL4seLkKGYPlUOvmnSsps/xjpX0RTh2pBeP9riiouxCjCbzn7osfZkbrx/pxmdnunB3ziUv+RD5hX4/bhwP739z3AVvcwN+FfMiVqb8q7RPsrrQd2cKe1/zr060puBDrFkPXh9H6Hgbxm9PYP5XIYyf8MFpjQh/pQ2JUklXgqFzV7Hdl/7FNFFZ3E8bkgEyQAY2hoEsFq1DuKR6vLmRQIRFcebKT7etQpw0V2zGb0ufru/Tptt/Hrcxgzyb7SheGuu+O4zGitUITiFaJ9Dbkv45sTaSSqfx6oW5ZZEfm8/fZJMMkAEy8PgZyGLRGr3mdCPhibdmdiPLT1WWEKs5OTaU2OvweX07ZuK8TJaqDOY//sFEm2+MzSV9HpzePOhNucjtaMP29ztRbkxfgIYjrdEvYq3WN665yzgfqkh7Sc5qy+fxG8MK7Ug7koFniwGK1jhv+z1x0aqvxM+Cw/iXQDtOqtbJcnA+W4PzWfW3WC/cd2MM8x9OY/72ZrS3h5dhpGuPjRCt6dbF4zgmyQAZIAOPj4GsFK0E5PEBQlvT1mSADJABMkAGyIAWGKBojRNp1YJj2AZeIMgAGSADZIAMkAEyEGGAopWilev2yAAZIANkgAyQATKgeQaiRCvVfETN0xa0BRkgA2SADJABMkAGtMMARStnVpqfWfGCoZ0LBn1BX5ABMkAGyMCTYoCilaKVopUMkAEyQAbIABkgA5pngKKVkGoe0ic1o2O9jCaQATJABsgAGdAOAxStFK0UrWSADJABMkAGyAAZ0DwDFK2EVPOQcparnVkufUFfkAEyQAbIwJNiYENEq6RzoGXxOo60OWUB9KT/o9STMibr5UAmA2SADJABMkAGyEBmGEhLtEr6YtSEjmFPd2HcqJyUO4BT1xYQ0If/P7gWRGtg6nnMtFYhR5f+/ywnZJmBjHalXckAGSADZIAMkIH1MpBUtEo6K6yeERx89QrOzw+gzBJfADqHz+Pyzjo8tyQQtSBadYVtmDr1j7hwchvqC3Pjiu31Go/ncwCSATJABsgAGSADZODxMJBQtEpWH3rnX8Ybrx/DkLdoWZDGOkbSVWHitYuYKIsI2rBoHcStshr8k38zvg0O4mtvPUZMkU5J+kLMVrTji/ohfN+wBZ9X12JQla83lWPR1YGv6ofwQ3AAn1f70BQVye3B8/ZKnPf249vGYfzF34pdlkj5op2SzomSzj04d/kiFseaYDdE2hjbD/6Oth3tQXuQATJABsgAGSADWmIgoWh1hl7GL17fBbc5hdCr3oXLL43DqXoMHxato/izN4BhiwNWQwEmXf34zuOWj5N0doy6e/BucRncRhv0OQ7U5DfhK68HxUvllObX4mxBKbxGGwyGfPyqWS4AABmMSURBVMxUbcYXpQWqNbOj+C7QhB02B0z6PIy6NuMHtwt6VTuWDV08jNNv3cRuf4q+8KUsRqTJABkgA2SADJABMqBJBhKK1uesPvTtexlXXlvEgLcwbqRV0tkQmL+GU5uLojoXb3mAZPbj18Em9OsskPRu3G0axd+aQ1F/PzY2YUBZYpCTh96iOlz1dOG3dQP4rmkU/73ahU3ifF0ejvqH8IYjIkIlRyO+r6lBqUq0ypHWrr04d+UijjLSGuWjZUHPgUm7kAEyQAbIABkgA1nAQGLRKj9eF2taR8NrWveuXNMqmTpx5NoJtMSsdY0rWq11+ENDEG2KaG3sxkFTRHSqRZSIxE65B/D7aj8m7UVwGe3IK2jHj9Vu+cWquOXbg/jW70f5kmgVa1onX+CaVrVduc3HPGSADJABMkAGyEC2MpBUtCqdkvQlcb8eYOk9hasH2+Top3KsSMOicgR/cHvRZsqF1VSCo95BfFNRCqMcKbUjVLUFf/XWYdAiHu/bUWZzYc7ukGc6kq4IL9VvwRtOJ0w5dpTbXDjl3bIq0RqYOoHZNn49QO0XbvNCRQbIABkgA2SADGQrA2mJ1nidk3QlGDp3Fdt9K50fFq19uFoaxL3aQXzXsBkPXW7ULL1IJcoTL2LNlLfj1/WD+D64BV96m7Fgd8rLEMRXC8rzgvioblh+CesLTz1mi5rw51VEWuO1mftW+oo2oU3IABkgA2SADJCBbGBg7aK1dBqvXpiLWkOaDR1mGzkwyQAZIANkgAyQATKQfQysWbS65i7jfKiCC5ezYOEyB2b2DUz6jD4jA2SADJABMhDNwJpFKw0ZbUjag/YgA2SADJABMkAGyEDmGKBoZaSU0XIyQAbIABkgA2SADGieAYpWQqp5SDlrzdyslbalbckAGSADZCBbGKBopWilaCUDZIAMkAEyQAbIgOYZoGglpJqHNFtmgGwnoxVkgAyQATJABjLHAEUrRStFKxkgA2SADJABMkAGNM8ARSsh1TyknLVmbtZK29K2ZIAMkAEykC0MULRStFK0kgEyQAbIABkgA2RA8wxQtBJSzUOaLTNAtpPRCjJABsgAGSADmWOAopWilaKVDJABMkAGyAAZIAOaZ4CilZBqHlLOWjM3a6VtaVsyQAbIABnIFgYoWilaKVrJABkgA2SADJABMqB5BihaCanmIc2WGSDbyWgFGSADZIAMkIHMMUDRStFK0UoGyAAZIANkgAyQAc0zQNFKSDUPKWetmZu10ra0LRkgA2SADGQLAxStFK0UrWSADJABMkAGyAAZ0DwDFK2EVPOQZssMkO1ktIIMkAEyQAbIQOYYoGilaKVoJQNkgAyQATJABsiA5hmgaCWkmoeUs9bMzVppW9qWDJABMkAGsoUBilaKVopWMkAGyAAZIANkgAxongGKVkKqeUizZQbIdjJaQQbIABkgA2QgcwxQtFK0UrSSATJABsgAGSADZEDzDFC0ElLNQ8pZa+ZmrbQtbUsGyAAZIAPZwgBFK0UrRSsZIANkgAyQATJABjTPAEUrIdU8pNkyA2Q7Ga0gA2SADJABMpA5BihaKVopWskAGSADZIAMkAEyoHkGKFoJqeYh5aw1c7NW2pa2JQNkgAyQgWxhgKKVopWilQyQATJABsgAGSADmmeAopWQah7SbJkBsp2MVpABMkAGyAAZyBwDFK0UrRStZIAMkAEyQAbIABnQPAMUrYRU85By1pq5WSttS9uSATJABshAtjCwbtHqvGVEw4JlQ4WPpDPD/3cjyt2RcqUpE3q/MkOvi+zbSCObzhrR9aZZ7oeks6DmfxrRDxP6YII3lJk6N7L9LIsXHTJABsgAGSADZOBpZiAt0SoZLLCfMMGzc6V4c9w0on7/yv3rMdqTFq1K24V4Lf+9NkWr/bwJrkkLNmVIxCs2YMoLIBkgA2SADJABMqAFBpKKViHactrN8H1jROMNM8z2leLUftWI2l0r96+nc09EtJ4xLUdalbZrWbQ+5zLD9aEJLQ/NcLo21v5K/5nyIkUGyAAZIANkgAxohYGEolVymlF8w4j2P5lQ1mnBcwkietaLRvhnN1Y0pSVa3WaU3zKi9W9G9Py7Cc0fmGBzhNshzq/4xojKATPcnxvR/XcTOv9sQkmDqp0uC6oemtD570Z0/LMJ1R+sTrRKdguKrpnQ8n8Z0fN/G9H8wIS8qkj5UqUZTf+HCbYWM7y/NaLr70Z0f2OCOYEd1wKEENXmOTMavzXCf8oCvTFS/1rK4zm8MJEBMkAGyAAZIANaZSChaDWcMKH3TybYbMmFkOUVE2rGo48RorH6X8NrQsW6UOWv74FZFr/p5Is1rcp5StqnWtNq3G5G1X4zLKUWbMo3o+g9I1p/qqxJDYvW7r+YUNJuwaZcC/JvGdHzy0j95X80ouVtMyyFFuQEzKj6MrKmVXFWokiraH/+eybUv2CGuciC5ywWmHeZ0PpbEwxLolQWrf9uQstvTSjutEBntkBfGql/PfZR2recVptR/29GVPdG+2E5ny+bbeiaa9qVF3QyQAbIABkgA4+fgYSiVYm0tv2zCaUdFggBF89B5nMm+Ebj58U7Pp19QhSmehFLsljgWDSj5kMTWr83ovt/GdH7QUQUikirT/UClRQyoecPZhh1FkhuE5r+bkK+KdJu9YtYShsTila7GfX/XxxR/XcT8tSi9X+ZUJwXqUMpd6NSOdK63Yzgt0YEXmCkdaPsynIe/4WINqfNyQAZIANkIBUDCUWrOFGIouU1rdfjr2lNVcFa8lOJVpFfeN+ItntmFA5aYCq3QH/QBHUkt+Kb6BeopCETur8xwyREa40JLf/ThDx9RFCuWrT+vyaUJVlLKkdaVSJ2LXZIeo5Y0/pReE2rI0k7kpbBCGzciRhtxgsnGSADZIAMkAHtMZBUtCoOk78ecNIET8wLV1KOGa6/GNHxjhm6BJFYpYzVpOmIVvcPRvimLNhkscDYYUblZ8b0RavRjOr/ZkTwpxYY7RYYOszw/Uv85QFCHLdcMiNH1CM+wSVEr86C/LtGdP3WjLx6CzZZw20oHg4vTxB9zbRolb8eIPq/gXZfjY94rPYGM31Cn5ABMkAGyMDTzEBaojWRAZZF653HLVotMG0zoekHI3r/w4iWj00oOmJCp2rNbLJIq+iPrsmMmt8b0f0fRrR/aULJ6yZ0Ln2nVd3fTa1m1P2fJvT8hxFtD8ORWpEvv4h1xYSWH4zo+X+MaP3ChPL+yDKKTItWdRu5zYsUGSADZIAMkAEy8LQzsC7R+rQbh/3jBYAMkAEyQAbIABkgA9pggKKV6zq5rpMMkAEyQAbIABkgA5pngKKVkGoeUs5wtTHDpR/oBzJABsgAGXiSDFC0UrRStJIBMkAGyAAZIANkQPMMULQSUs1D+iRndaybUQUyQAbIABkgA9pggKKVopWilQyQATJABsgAGSADmmeAopWQah5SznC1McOlH+gHMkAGyAAZeJIMULRStFK0kgEyQAbIABkgA2RA8wxQtBJSzUP6JGd1rJtRBTJABsgAGSAD2mCAopWilaKVDJABMkAGyAAZIAOaZ4CilZBqHlLOcLUxw6Uf6AcyQAbIABl4kgxQtFK0UrSSATJABsgAGSADZEDzDKxJtEq6PBz1D+Oyw6L5Dko6JyZ3d+PdoSJs0iVub2l3Cx6GitPuj6QrQP2lCexYqIB6O94MRNLlourMGAa6bXL5ki4fwetT6G1L3J545Sj7JJ0L/Q9msPDpLA4/WllOqnylnGSpuk/q7WTnpJsn6Upx5nQfvnyxH1+c68Ep79rskG59azlO3Wf19lrKEufkzg1i77GKtPlabT2Jyhes1V6YwPZDZXguCf+rrU/Lx6fiP1V+pvsm6aqw5cNBBEsi3EvdnTh0pRamNHyUqv2p8tPpn6SzwtYexND1EOY/nMK+W/1o68hPeg1Np9zHcUyq/qfK34g2qq8Z6u14ZUs6B1oWr+NImzNj14d49XIfI6bZyEBaolXSF6MmdAx7uguXRFd2idapPd24u+Gi1Yn6KzPYvShEa2Q7HgSS3YfRO+0oNYRvUusVrUodYvIQvLpStKabrxwXL1X3Sb0d79i17hMX67l5rYrWiE83ov+JROVabRd7XqLyxQ2zTkyuDpVrTrRKnkZsvxSAMQ2hFtvfdH5ncnykU3+iY9YrWpVyM9k/Q1s7dn4whK6BElhy7bDW+dCx152WqFbalyp9mv2vvmaot+PZRModwKlrCwjoI5OYwNTzmGmtQk6Gxka8dnAfRWw2MJBUtIrZttUzgoOvXsH5+QGUWRTRlT2iNV0nlHS3rjLSaoXnxWlM7yiAsJOyHa8+y/gWbD9UCmnpAhQWrZPobY1cpOKdl2pfJm9a6j6pt1O1aTX52hatEZ9uRP9tc0MZjbRmuvzV+DXdY6VgK/ZStIYDAauItCr2zdT4FxOdxhtT2Dqen9HI39Psf/U1Q72t+E6dOofP4/LOuqhJpa6wDVOn/hEXTm5DfWFuRv2gbgu3KVy1zkBC0SpZfeidfxlvvH4MQ96iqAElLpZH/YO4VVaDf/JvxrfBQXztrceIKeJwSV+I2Yp2fFE/hO8btuDz6loMqvL1pnIsujrwVf0QfggO4PNqH5qWZprh8nvwvL0S5739+LZxGH/xt2KXJVJ+MsOK8/cuhB8/hx9Bt2NvcbRA3OQsxYG5Ntx7oRv3Djbg2Gz7smiVdGXoejf8+F08glf+Dr/kjXo8VrIwhpGh8AVFva1um6QrRNONETRVRuoPi9YxdG9xo/31Ucw/nMKen3XD7470T7IWw7vQh9l3J7D/gzFMv9SEyuJIvqhjXTetggo0nR3EjvensO/dEYweqkauKdJGUb66T+ptdf8SbUs5dtS2BXB5oRMfn+nBg8MN2FFlj+EocaQ1x1mC7eNNuHOyB5+90IW3Z93wmyPt0xWU4/judjx4oRef/aQdb4Sq4LdF7JMsfyP8m9I/xS60/XQEu+9NYPeNbnS9OLosWiVdNYYebUHAGemPc/cIdi2UpX9zSlp+IZrfivB7+NEomt2RuhL5TL1fynGgaLwNobfGMP9wEnve7EEw6FieeD2XhJ8w30NoanKj48JKvqUCP0L3J3Hw40gb5aUutxrhVCZ2RbWYvNmAAl8Nei+NYt/Dacxfb1jOT1a/0o/1jI9U/pVStS/J2rh0Iq2p6hd9XE//ktlPyvUh9GgAdflJmKH/k/OZ5vVTsDDx2kVMlK20tYjQlnTuwbnLF7E41gT70pM6hW+mkes9bfHs2CKhaHWGXsYvXt8Ft0ooKGCIi+VR/yj+7A1g2OKA1VCASVc/vvO45ZuKpLNj1N2Dd4vL4DbaoM9xoCa/CV95PSheuimV5tfibEEpvEYbDIZ8zFRtxhelBeGow1L53wWasMPmgEmfh1HXZvzgdkG/ysclQjQePR4tWkX7t+/vwe2xclRZbbAVluLg3q5l0ar0M1Vq8FejdEkMq7fV50m+Jmy/UguLqt3hm/o05t/sgN/vRI4lH66TIRw4Wy2LYmE/15lhjM5Wwu7MxSaTA86BDsxdCsSUs7blAcImwasTmFl0w2G3wVBcgaYL49ixWAGdqp3qPqm31f2Lty0iytW9rfh4oQ6hSiesplyUVFXhQGtB1OOuZJHWwjovDjUWozLXBr0lD0OTHbjdH4n8tG/txrujJXAarLA48tHeXo3+gsjATZUfr92x+9R9Vm+n8o+IVAWvTWL2hAdORy4MlS60XR7fMNGaqnx1P8ICfXWiVUSG8nYMYd/bnaipK4DBYkduMIDWrSVLfCbnJxXfSvuk3m4cThBplUXhvTFsu9QGX6AAemMuTPn2tOpfLn+Ny2dS+VeUn6x9Sv2J0rBojRbssmhfWtOaTv1yG9bcvxT+K6vH9CfdcKseV6v7kur6Qf+Hr0Pqa4Z6W23L56p34fJL45HJWLzJTvEwTr91E7v9K4VtVFnxzuW+9AMBtFVW2CqhaH3O6kPfvpdx5bVFDHgLYyJkK5cHSGY/fh1sQr/OAknvxt2mUfytORT192NjEwaWRJGUk4feojpc9XTht3UD+K5pFP+92rV0UxLlD+EN1YtekqMR39fUoFQlqtIZsHFFq9ONt87Wo0d1UVa/iJVuJC5V/eLmX3o0hNERRxQM4Yv6JPraIxchqa0d+6/WwSrsZ/Ui9Emcm9rDTlSo+r/WSItUXIvph92oUs3cpepGbL/btjypSNW3ZPnC5ovHu3GyOtK/eMcnE62SwYnmNh/ObG/Bz4914dHZPvxmtlzmQ5Rlc3txbaEVr2+twc6WMtTn2aIYTZa/Xv+m8o9UUoepD7tRZYz0X73mdL2R1lTlq229NtFais53xtHbHJkERJWZgp9UfCtlpRStH/XBlxux4fJ5KepfPm6toi6N8SeL1gTtU+pPlKaKtKbiSyk3U+Nfstdg7NEAagtW2l7Uner6Qf/HHzeK35RU0tkQmL+GU5uLou4PkXwnSrr24tyVizjKSGtcGym2Ypoec0+DnRKLVvnxk1jTOhpe07o3+ZpWyVqHPzQE0aaI1sZuHIx53KwYTEQSptwD+H21H5P2IriMduQVtOPHarcciQtHcqO/TiDZg/jW70e5SrQp5SVL44rWgmrcOl2HjpzIRVktWpOVt5o8yVyFgTvdqFpaC6ycG76oR79AJTW3Yf56PWyKaP14EPUxSxqU85VU2KkhxYtY8fLDN50uuKJEaxBzv2xDySrtq7RFnYr+HTrSheNVyQeSEK3b4ryIJb62MDDbhfdmPRioLkCp3Q57cyO+2BYdCZb0uSitKMVopw/nD7bjRk9BVKQ4Vb66zavZlkVFEv9IFfWYedCJCtWkKFq0ujH4SbQoyNs3mvbygFTlq/uyNtFajPZb4+gOxvdfKn5S8a20T+rpwuHLtTDHYU4WhR92ojJenixaU/O75vEhRGsS/4r2J2uf0r9EaVqiNUX9chsyNP7lSP71SWydDD/5iu0H/b8+/yv2lEydOHLtBFpi7g8iX6xpnXyBa1oVWzGNfy1+Fu2SVLQqBpH0JXG+HjCCP7i9aDPlwmoqwVHvIL6pKJXfBBaiNFS1BX/11mHQIh7v21Fmc2HOHo44SroivFS/BW84nTDl2FFuc+GUd8vjE636Qhw52oNr/cUoNNmQV16J0ws9q14eoNgnUWoY7MHOE66oCKA4NtVNXYi5qrNj2HepCZVVTuSY7bAGqlHTkhc12xQz9erz05g5WAaD8EOJM6quRPny471rE5herILDngt9cTkaX98qLw/YiLdVxfIA3+Y2fHIogKEKJyzGXBRVVODwlnLkqUSIiEQPbOvDrcFC2Aw2FDodsugUN80jxztx2u+A0ZCLovJy7NvZuSxaRZR+arIOOwKFKLfbkGOww9vbhM/3Li1PSZGfyF/p7k/lH8lQis7bk9i6uwJWay7MAR/63ppULQ8oRfsvJhGaKoLBZIe9qxnjd6dWiFbJ6kLv7UnsebVGnswo7UtVvnKcSJOJ1oTl66zI3zuC+Z+1wxvIl5cHWANetM97ZIGZip9UfCvtE2+P77jXjzqPAzpjLswV+TAs8ZFMFKaqf7n8NY+P1OMvWfuW60/kvxSfvErF13L5a+5fIYIpxn9OsBU77w2jW3w9wCauP170vtyMErMFqexP/6cnMCy9p3D1YNvy0yPFryINTJ3AbBu/HqC2CbfT4+ppt1NaojXWCOFIaB+ulgZxr3YQ3zVsxkOXGzWqyJJ4EWumvB2/rh/E98Et+NLbjAV7WFQJsVKeF8RHdcPyS1hfeOoxW9SEPz+mSKvoj7nEhbPzHfjoTA/e3xvA1i2NGypahY3qLoXQHlgJWjoXdflFjMN9mLkzjv33xdq+TjQE8yIvwiytv9H5ajF6awIHHo5jx0/9yFWJQtHPhPmFFWg+O4Qdv5rE/HsjCB32wB5n/XKs79P9LekdaO6uxfWFTnxytgf3DtZje5VjxQVaX+bG60e68dmZLtydc8nLPwQfxbV+3DzWg8/PdOH2jhoMt9bi3lKkVYhiW2klju5ow73Tvfj8hS68s6cWoRLlO7jJ89PtQ7LjUvlH7/Fj89UQ9j2cxM7LbfDP92OP6jut1u5WTLwzgQMPtmLqJ34UjPbEFa19d6aw9zV/lGgV7UpVvtL2VKI1UfmSPg9lcx0Yf3sM8x9OYveNLgSDeZFJURJ+0uFbtE+Is7K9/dh2dxIHHoxj7lIDipai/ylFYZL6lb6LNCH/KcZPKv+mbJ/on9WFePZNFWmVbSNexHyC41+MQVt3E0be3Ir9H05h760+tLXn0/9pTKrU/CXalnQlGDp3Fdt9K+8Pic7hftqKDFixJtFKw6UePFJ5PabfDMIRIyJpu9S2o402zkaSrhzdd4fRWBFZCkP7bpx9aUvaci0MSKXTePXC3Krf0VhLXTyHjD5NDFC0ZuiNQf/hEZx98T+h1GGQH+mL9JOJ/y1rfj9NkD9rfRFRUqc3D3pTLnI72rD9/U6Uq14Ke9bswf7ypq01Blxzl3E+lLn/kKe1/rI9HIMbxQBFawZE6/9eLskCNVvTjYKL5TyZC5VUWI2+G+Kx/jTmb29Ge3v0Wmj65cn4hXan3ckAGSAD62OAojUDojWbIqrxIsAcVOsbVLQf7UcGyAAZIANkYOMZoGjNgGglqBsPKm1Km5IBMkAGyAAZeLYZoGilaI36jBYvCM/2BYH+p//JABkgA2RAqwxQtFK0UrSSATJABsgAGSADZEDzDPz/x0j6NDkHYGYAAAAASUVORK5CYII=;" parent="5mr8kqb3Nry0wDjkXf5w-1" vertex="1">
                    <mxGeometry x="860" y="-422.5" width="685" height="297" as="geometry"/>
                </mxCell>
                <mxCell id="h9OEV1z8nox2Ov8Pxtjx-3" value="" style="shape=image;verticalLabelPosition=bottom;labelBackgroundColor=#ffffff;verticalAlign=top;aspect=fixed;imageAspect=0;image=data:image/png,iVBORw0KGgoAAAANSUhEUgAAAkcAAAE9CAYAAAABEsbNAAAgAElEQVR4Aey9+VcT2fr/+/lvqrsWQ7gZSPhmYshKwhASCDMrYR5ECHMAFScQcZ4Q21m0HWlHHBAc2uPQitpq262n7bbP59w+59zP+t7hT3jfVRUqqcQklRZQ1OeHrJ3Unp/9rr1f9eyd5L++ilOAXmQD0gBpgDRAGiANkAZIAz4N/BcZgm4G0gBpgDRAGiANkAZIAwENEByR54w8h6QB0gBpgDRAGiANiDQwb3DEsFnod77C7hR5WAMzbCO+KfsdP7vf4qUrcjqOXBk2E92OF7hhqcDXbPjy5ptw/0r75rvuWMrjbHJiuhmDxoA9GHcV/nnYCW0MNmJYK45N9uFft5fhz1teHCkJlOOzefT42NqoQFppEca/bcdv0z34+3gDdpRpERdD+2IpfyHTfAj7zFf7F+L+WOz6ny/bRSuHYUm/0ewzX3FJeT0YOX4eE9cmcWKZI+x6MV91UTkBTwjZ4q/Z4oPBkTAw3CK0PE8KjrLgzfsJtz4gHP2V9glpP2Q4VzgS2sqwWgyOvQtHscYL6cKFypIKPL/agm9q02BUqmG027F7WSZS5hGOmMxizBzIg2YeyxT3ZSHtI65nLu+5B5GFuj9iuT/n0va55mWUW3HDsQrJCzD+pN+/tni871iWDF/CaFsO5Ikfpr73bSfl+7LHZ57h6BeMaoI9EqECW/STbwzwFtqnD/F5scMRw+ox/G0PrrdoF/RJkHG68OoLh6OF1Nuivz/Ve/HDAsAR6ffDLYQlG8axKi/6OrGQGqeyP9xYf8q29sORb1vsLnalbsTh/EeYKX2OG449qJGp+MWOYVtxxHUFnYkBUVtNf8NdS8VsPLet9gJjpmEcds7w+acdo/78gpEiTb4M68BAgW/bzbf1dg8DikBdXH6GTYcz9QDOFMxgpuwV7heMo1+djq9ifIqMJX+k9nH1xyc1oD9rAtMlr/Cs7Cmu2NbBER9oIytvx3bHXdwvfY1npQ8wnrkSjkSlHxak4gUbhQtjgSNGYUTnQD1+uNiNt1fbcXekBPWG4BthLp6Rr7VmDG9rxo+XvXhz0YNLq7Nhkfn6zyjtuHqrCSsjbKtyfYqan9Vi6FgLNhRkYfe+VryZ8uKXEzXos/jaz2gduDLpxX/f9G0NctuD/BbhmRLkzI4/o3fi9vFC5GfZcehgK15P9eK3o4X++Gj1Czafi32k7C/VPqEN4UKp+4NJ3od79n3YlP8CP5ZcxDLDFlwseYX7ecPIiZND6v4W6oymfybBiRbrBVwvfomnpTO4YtuBSmF+kKifKz9qfn5b/hbWqFuwyfEAM+WvcN95Gu2K2flH1o/TZa/wvDwwR/DzROE2WGfHf073F+kXC6lfQV9cmD9wBoNFgXlTHEfvg+drssfHs0cIHP2Ge/bNqFakIykhD03ZD/DY3su7sGODo8j5hUGONvkG0pRja3EwHDGsEtkZ05gpPIrW5Cwo4g1IS16JodQSxMcAR7Hmj9Y+vW4bhg01sCRqEZ9gR3P2DK6bnH74cWe9xA1rPTRxashlBXCnDqNeHoAjqXih/+FCHxwFgwEPB7Nnjhg2GUu2tuBShwUWtQpxMg1yaiv5LSiDyD7vu/hzT9aDY924vy4LWSoVFAYzhvd34emgGYmsHExaAe7erEFzXPhJTzI/D0e9+O1kJXpsKZDJtViyoQ1/bM8OOrPEVNbgzwieIx4+rnXg4UEXunJ1kCeqkJKSzOeXql+w+fvbR9r+0don1B9LyLBh7o/kfXhYNomVSitqs5/hef422GUtOFAyg2GVAEfvf38yrBE1ObdxIq0OpsQUxMWlw6o7imnHKui48ZesXyI/D0dv8LjgKNpUGUiMz0RN1g94ltMWPP7ak3gZwXM0p/uL9Cs5f8xVv0ycCkn6AvQcOIvV+eHniVj0T2k+HjB8SbYPgaPgs0CMfBhXS8fg4ia/mDxHkfMLRo0GH4E0YSZ/tgxbip9jlyYAG0L6WEImxvzR2sfEZaEsdQe+yZ3E9aJneFz+G17Y2v2HxpXqbThbcBPHskaw0uhBQZIuyKslFR+tH1KeI0Zuw0SIV4WHp6kq1M0HHBmcuDNVgyUJgUmNsRbj8YQLpZw+VHZc4zxH2kC8uD+MVH4ejrwYKw3kZ0oq8HasAEZx+6XgaLoeXcpAGUIbpOr3p3vPM1mx2J9fXCK0T6g/ljAiHBVsRDorhzn9Ng/tDGvDmoLn2J4swNH7359MvBcnXcFeG95zU34UFQIcRatfKv/sFzpGNYGJn9EcxtP8IejF4x8FjuZ0f5F+JeePuepX4zmI69evYXzEg3SRxz0WzVOawH1BtvgwtogOR8qtmC7Zh0Iejjw47JqEd3YbhRugbPPdkG21kMlXuR23SvahQDy5sRYsyw9OFzrYYSd/thDDhc+wPfl94Si2/EyE9nFPzk22Z7hp24gmdTHSZUaoDefx0tYNVty/OAPSVUvhSduFg84HOJ9R8pfiQ20hfI4NjpZiteFdMBDK4EKGTcFA1APZ4eN9cFGNxhA4mplwo4zXhx5DR72Y8uj8nrSgenk4ipaf21YLPijOFLrx5lghv+ALZTHuavx5KD/sN/R8k3cV6kXj4c8nUb8/3fvah4fT6PaP1j6h/ljCsPcH57mJBidhvk3KHW4W7m+h3oj65+CmfBq9SeH1xXuOotUvlT9c+zQHMOMcRqpoPBntcfyUtzbigXxG4v4T+hkacp5F0u/C6peJS0aSsQi9B7/DajpzFHaeDNUlff4wIBTOziFw9Cumc/rgkOmQJHNjuf1HfG+tQQK/+JVgY9EvOJXmhCJOD5N2F86WvA6Boze4ZVuJApkeSbIK9Nuf+/MLlTOsGkty3+CqxQ1lnBb6pIwgeODShZ38WSVyTXfw2HkYzclWyOMNMCR3YdjUHnahFOoTQm5bLZb8kdrHsKXYVDyD0RQrEuMMMKraMGh/7Icj7kyIN/so+rVlMMl0/LaDLeMKns1O5FLxQjsjhZJwxKqxdFsHXh8oQb1FA5lMjVRbNrqLUoJuQs4OrSO9uLcqA8kyFYzGlCD7R4rnF4+xbtwdzESmSgW53oT1ezvx4zoTZLOLlyzfhefXWrCX/7ZaMow2Gw6NlqFcxnku9BiKkp/bzooJjjJL8ORaA1ZlqpGQoII+XQvFbP3R4EOqfsHukfovFc/pRsr+0donlB9LGPb+iAmOIt/fQr2R9Z+KuuyneOTYjkoFt+1lgEHVBo/GzOtLEo5YifyxwpFiG26VXYRXmYr4OC208kzI+fkp+v0n9C9aSPqNPn/Ml34da07TmSPR7+lE0yTFLRo4eoHTmQdwtugnPC59hHNZfcgUeQr0Kftwofglfxh5ImsFbIYz+FvQgey7+CZjH74rfBE2vzDQ8cq1OF74Aj+WvcCt3P4gzwCXJtzkz1+Ps6As/SjOFT7F4/JXuOc8gf5kk39bSyg/UsjEmD9c+7hFM1W3DxeLfsGzsme4bh9FS+oR3Jv1HHG/kaJU9mKr/XvcLXuN56XPMO04jFalD06k4iO1WbguBUdcOu5AZceaetw734W3kx14dLAKA/kpQVt7XLqEbCcununG26kuPNntgFn0ZB4t/mudGRu3N+PZFS9+u+jBxJocWEWeRK6PGa5SXDjZgbfTPXh9ph47SrV++IqWP2Y4YjWoWt6AhxNe/DHZiZmDRSia1ajU5B2tfsHO0fovpIlkPyn7S7VPKF8qDHd/SMOJ7wsT0e5vod5w+ufiuAPVzZZzuFr8Ak/LnmLacRTL1CZeX1L1S+aPFY7YdJSZzmOqxHcfTjs2Ip8/cB79/hP6Fi0k/UafP+ZLv6Ub6dtq0XRIcR8PiMS2D/EcvcSIxFfxxZnp/eIYRBoHGgcpDfi+rUb3t5SdKH7h7yX6naOFtzHpeO42DoGj6GeByOBzNzjZkGz4MTTggyO6vz+G7anO4Hs+Ka8Xu7lfyL5Kv5BN2gjWxmKyB8ER7f0GnUlaTOKktszfxEFwNH+2JF2SLUkDn78G/HBEg/35DzaNMY0xaYA0QBogDZAGpDVAcESeI/IckQZIA6QB0gBpgDQg0gDBkcgYRNPSNE02IhuRBkgDpAHSwOeuAYIjgiN6WiANkAZIA6QB0gBpQKQBgiORMT53Eqb+0dMeaYA0QBogDZAGpDVAcERwRE8LpAHSAGmANEAaIA2INEBwJDIG0bQ0TZONyEakAdIAaYA08LlrgOCI4IieFkgDpAHSAGmANEAaEGmA4EhkjM+dhKl/9LRHGiANkAZIA6QBaQ18UnDEyFPRt6EJzyd78HbCg3GvCZqQP01dDIPO/Ylq//5uzKzO8P/parh2mbua8Xq971/Nw8XTNWkBk43IRqQB0gBpgDQw3xpYVHDEsCrkNblx/UwX3l7vwsxBF5qMvkFnWDWWbO3AL3ucKNGpkWK14eh4N6Y8+kXnCmRYHVYe7MITgqNFNzbzfQNReTQpkwZIA6SBz08DiwaOGFYOc0sjfj5Zge5cHZQKNaylZZjebYeWlYNJycP0dBP6dXL/gptYVoW/f1cKxyL0HsVys5g6yXMUi50ozec38dCY0piSBkgDi1kDiweOEq04dnEJlukD8MMkaLB6bw1aEuRgClz4+6liZIlAiEmyYeJWAzrlcjCpTty5VIkqmSi/Ph+3zrlRluC7xiiM6Byoxw8Xu/H2ajvujpSg3hAQKKN34vbxQuRn2XHoYCteT/Xit6OFyJmtM1o8wxqw6WQf/nV7Gf/681YrNlkCbeFEwBqs2L7bg5fXuvHTtzXYu9MTtK0m1b7FLCRqW0BHZAuyBWmANEAa+LQ1sHjgyF6GmS2Z/BkdmcWGPaMe/Hy5E6+vN6FfI0dcdQ3+PJSPFDEcsVYcn2rBUJocDJuM1pFOXGrU8J4lzhOVv7IV97yG2c/JWLK1BZc6LLCoVYiTaZBTW4mZA3kwiOHnWgceHnShK1cHeaIKKSnJiIsxXrgZGDYdey4EwxHD6jE05sUPwzmwJauQnGHFjkNdfjji2i/VPqF8Cj/tm47Gj8aPNEAaIA0sbg0sGjj6urIad716MHEZ2HumCZsKtUiKU2PZviasTJGDcbrw6kyJ34vDCYtR5OLyrXq0z3qL4vLK8fx4ISzcNpzMgmMXGtCtmfUayW2YuBnw7Pg9PFNVqBPDz3Q9upTBHh9BxLznKEq8P104ODI6cWe6Bk2zXiwurfhANhND+4TyKVzcNxWND40PaYA0QBr4tDWwaODoq4pqPFyeCiYpF5fOVqBem4y04mLcvDoLRxoHrk8vxWpDAFxk7iq8GS9BrgA3rBZDY+3Yk6eAprEezzdYEC/E8fARnD9UvD74qUL9bJ6/Gi+kD+s5Si/A/ckq1MUF2v8uHEVvn1A+hZ/2TUfjR+NHGiANkAYWtwYWDRwxWaWY2ZWDeDYZrhVN+HnSi6d7irB1V53Pc8Qmo3FzB375xvdtNY3VhmPj3bjeovMf0ObEpqyuwfMtedgw5sEWawBEuG+7Ld3WgdcHSlBv0UAmUyPVlo3uohR//gWFo4R0jJ71YqrPDKNcBb0tF2OnvKJtNen20c20uG8mGh8aH9IAaYA08HloYPHAUXwG9p5twkqRZyhUZEySEb1Bv3Nkfud3jpiEDHwz3ovfDzqgC/EAcQeeO9bU4975Lryd7MCjg1UYyE/BV4J3iTuQPb0wniOuL/JMB46NteHXKS+eH3Kjb0UDXol+50iqfaH2oM+fx01I40jjSBogDZAGFpcGFg0cccIw1NXixZlK9Ng0kCWqoM/KRlu+74A1CWdxCYfGg8aDNEAaIA2QBj5XDSwqOOJ+BDK7thyXuR+BnOzEzD4XPBkq/7bX5zoI1C+aYEgDpAHSAGmANLB4NLCo4IiEsXiEQWNBY0EaIA2QBkgDX6oGCI7oj2fJM0caIA2QBkgDpAHSgEgDBEciY3yphEz9pqdD0gBpgDRAGiANBDRAcERwRE8LpAHSAGmANEAaIA2INEBwJDIGUXOAmskWZAvSAGmANEAa+FI1QHBEcERPC6QB0gBpgDRAGiANiDRAcCQyxpdKyNRvejokDZAGSAOkAdJAQAMERwRH9LRAGiANkAZIA6QB0oBIAwRHImMQNQeomWxBtiANkAZIA6SBL1UDBEcER/S0QBr45DTAJJdgxcggCuSBP5f+Uidx6jcBDGlg/jXw2cARw2ah3/kKu1PCT5YM24hvyn7Hz+63eOmKnI4TGcNmotvxAjcsFfg65M9r31eEjNKOq7f6cL3F919xDKtAw6Yu/DleCvt71mHuasZr0R/XRmsbw1pxbLIP/7q9DH/e8uJISSQ7pWH0bB9+35kD2Xu2S2iHuH1saSXenClGtqhMRpaN8etLsFwT3BaG1aJ/fzdmVmeAFaUXyl2IkGFzkDb6H2Q6g9uyEHUJZSY2z6BsRRMPJgzbguxT/y8qz/1/qDj719vBsBroNwj5/2+4T7xF4caD0OiUnxz4CPaJFDLxmfDsP47h8nT/n0ZHSkvX53/RIJuSTb8EDXwxcCQMJgcJy/Ok4CgL3ryfcGu+4ehqF17ttSOZlYOJt2BsvBuvPxAcBfqvxeBYFDjKKsXD0UqcOl+DJtncQEEMR0xiJk5PNmOtPlAmW1yBv485YQwBIIbVYeXBLjz5guAoMD5ZSNv1/nBkr9SB+4/Cr5Od0Cx7Btem1R8MMIU+zCVkTHtQvG0YcSGaEJepbzmA4wOlSIySRpye3tNiThogDfxVDXxmcPQLRkO8EKEGiQWOQvPMx2feczTeiCvj9ehQyvG104Un39Tj5hzgyNQZu+dI6APnlYkGR/blHkw0atC4uQMn3HPzOojbxy3Ybbu8uNyk9nsyite0465X7/8stPFjhD7P0b+QlReAt4Vuh9hzJNTFeUDnCkf+sqz7UXzkCOSfEEQwucdQFgWOGNaG3uNH0CKCbKG/FNICSBogDcyXBhYNHPm2xe5iV+pGHM5/hJnS57jh2IMamWp226EVR1xX0JkYWLyspr/hrqViNp7bVnuBMdMwDjtn+PzTjlF/fsFgkeCIYR0YKPBtu/m23u5hQBGoi8vPsOlwph7AmYIZzJS9wv2CcfSrY3Pt83A04cLwYCvGq1UoXduK090luCeCo6+1Zgxva8aPl714c9GDS6uzYRF5b1iDFdt3e/DyWjd++rYGe3d6grbVGIURnQP1+OFiN95ebcfdkRLUG4JvlmhwxLAGbD7ZhBUaORLcVXi+OdPvdeDyDR1rwYaCLOze14o3U178cqIGfZZA+VLtUzU24LedOfwTP1/XqVZsyfTZmPu86aRv28+39deKTZYQ+0foH8OmYGCsG0eKuTFSoKClAiNVOl4XmuZG/LLOJAlgPjh6C2t5O8ybf0H5mf+gdM8VGDKSA3l1zUhbdQdFx/4D98m3KBjaAsXsmRdf/idIt3fCvCVCfm0LTMPPUXryT5SOXoF16Cf/tlpAn5HhiJEXQ9d7E4Vjf8J14g0KhvdBoxPuD9+2mt9zpC6Fbu0rlA8vC4xhlPx8/eL27bmKjGV3UOrf9uuG7exdGJIDY5LU+hylPTV++0RrH19+ai+sW39C6cn/gfv4L8hbsR6KZB+AM5p1cJz6D9zf+bYGue1Ffotx/14kieCOMXbi8LFlSBNdE2xHYeBeJFuQLUgDc9PAIoOj33DPvhnVinQkJeShKfsBHtt7fdtQbCxwFDm/IJRIcCTEcyHDlmNrcTAcMawS2RnTmCk8itbkLCjiDUhLXomh1BLExzBR83A0WYlqRxkebSnG6PFqLLEV49EsHDGsHoNj3bi/LgtZKhUUBjOG93fh6aB5Fib0GBrz4ofhHNiSVUjOsGLHoS4/HDFsMpZsbcGlDgssahXiZBrk1FZi5kAeDKL2RYWjjELcO+yEntv2484DXahEVYIALxwc9eK3k5XosaVAJtdiyYY2/LE9m98C4dofrX28XTUOTF2uRFW8HIzeidvny+EUtU0YAw5C91wIhiOp/hWubsP9HgMYNg2jYx14uS+P103dxm6cq/UBhFB+uNAHN/8b5d+chSHTjK+TcqBZ+RruQa//XEtC2V6YKxuRpNbhK2U+dGt/RVFrEQ8HUvkZNg9pI/9GYX8vklR6xKV6YN7xz5jhiOuXZuAp7E1LIUtOwVeJGUhynUXRtmFef+IzR75zS/9C4fpdUCX7Jgjp/OL2GRCX3gnLyJ/+9jFsdDiSKp+zuXrlnyhe1oz4RDXYlGKoG3YgxRjsnWRKJlARzXOUN4BzI0tpS42+ROCH8nD3M12bGxiQ/RRYZHAUfBaIkQ/jaukYXNxiHRMcRc4vDPb7w1EZthQ/xy5N8GQulCsV+uCoCtVx6dhzxouft2Qh3lKEGQGODE7cmarBklkY4cpjrMV4POFCKdd/oxN3pmvQJIoPOtMjt2HiZsDzwnlfeA/MVBXqRAASDY5MXc18Hn/eW904VCQsrhwceTFWGvAcMCUVeDtWwJ8Zkmof3x/ew9OO0Vw5FA31eLHO7AcPsf3CwpFE/+Lc1fh9NBdyYwFuj7hwaLwajQkGbDndgqHUQJvF9Yjf++DmP8hyBiYVJn8crpGtSJi1H5NoQ3LdPmRveIDCw/9A+fj/A/dQL98HqfyMbguc4xPQiMbvr2yrMUkr4QjxqvAQdOYc1Pz9IfIcxRXBtPf/hK0szb+ASOaXaJ8kHEm0j7N1nH0v8vY+Ru7KQ0ir6YJKrwcj0iaXRhqOBgmOCIz8uhbfw/Q+MHeRLeZui8UNR8qtmC7Zh0J+8vfgsGsSXtE2U7b5bsi2WggcKbfjVsk+FIgmYIa1YFl+cLpQIYX3HBViuPAZts9uA4TmkfrshyNWDltDOVbmKsG8A0fcgh5YyDk4mplwo4zrf3oB7k9WoS4uEP8uHC3FakMgPlybfFtQ7x7I5qBp3Vg7duYE8utbm/DzkJn/xp5vWy04H1PoxptjhUiPoX1CWyzeFtzvMaJxczu/DSZcF4eR4Shy/xiNA9MTbjQ21uP7LiM8O9swWpyLyxfdPFyKyw/3XoAb8bfVGMdJlI/umPXcpUG7/h8oXr8LOkc5ElPSEF89jYrhFUFwFDF/6g4UnjoHtWj8wsNRZtgzRz64eYhUbWB8xP0QPEfcthp3nS2ZQPn+g1DM6kkyv0T7GLYLtu8ewCg60ydv/8m/rSZVvtBWJiEViVlt0C85gJzRV8hvcQUBMlN8ERU7NkT0xtK22twnfWEsKCRbkgYia2CRwdGvmM7pg0OmQ5LMjeX2H/G9tYZ/cmfYEmws+gWn0pxQxOlh0u7C2ZLXIXD0BrdsK1Eg0yNJVoF++3N/fkEEDKvGktw3uGpxQxmnhT7p3a+Lh4cjJXJNd/DYeRjNyVbI4w0wJHdh2NQOrQi+hHpCQzEcCXFBcMRvS3Xj7mAmMlUqyPUmrN/biR/Xmfiv1DMJ6Rg968VUnxlGuQp6Wy7GTnlF22pqLN3WgdcHSlBv0UAmUyPVlo3uopSgpyxue7B1pBf3VmUgWaaC0ZjCn0lhdPm4OVEBl2jxZizFeHTJhbI4znPn8xyJfwIgCI4k2ifu86PDNfiO8+yIzo8J8VwYFo7Y6P1j2FTsHF+KiT0e3jOlbWnEndE6PBvJ8Xt+xHWEvpeGIzcsR94gqygLXyemIjHTi4zNv8UORwmVsBz6N/JaG5CQpEd85kpk7f2//NtWQns4fWqH/zcKuqsRl6hDgs7nXeNskjLwFmXb9kGTbsLXslQkZPZAn2flxzcUjpg4JzL2/Bv2aiFeIv877etH5jf/8bePYV0wH/437I1FYBMNkBUdRP6x/wnAkVT74pwwrj2HtJJKyDR6fltQ7rkLdwgIMaa9KD55E0ZTOr5K0CE+Ncd/ZsqnDTqQLWiFwsgLG9mGbDNXDSwyOHqB05kHcLboJzwufYRzWX3IFHlS9Cn7cKH4JZ6VPcVE1grYDGfwt6AD2XfxTcY+fFf4Imx+wVjxyrU4XvgCP5a9wK3cft7zIcRxYTg44q/HWVCWfhTnCp/icfkr3HOeQH+yKabfQpKCI678r3VmbNzejGdXvPjtogcTa3JgFXnK5JkOHBtrw69TXjw/5Ebfiga8Ev3OEXcgu2NNPe6d78LbyQ48OliFgfyUoCdzrp6EbCcununG26kuPNntgJmVQ9fSiN+2+c4PcWn4/rIZ2HuxA3sc0nDEpZdqn6/MNIyc7cMfI5F/RykcHPF5o/RP+N2of076vG+MqQj3b/Tidrs2CA65csK9pOFIicTS43Ae+Tfcp/+Bwo1HoKsbR2mMniOuTtY0iOxdr1F++t8o2XESho5b/gPPQW2ybIR9/z/hOv1PFA+v85+v4Q88e6dRcOSfcJ16i6LtZ5Fms/BbU6FwxNdXdBZlR05CNQuh0fIHte/kf6No67dI63/qhyMuPqHoW+Qf+RPu029RsGoQ8uorKAk9kB2xfQrEWVbBuvEZSk/9D9wn/4Gi7WegNwWPD8NmILn9BgqP/RvuU1yaXVCK5gCuHdxX+b+lr/KH1TFnH3qRDUgDc9fAIoOjlxgRue1pgOc+wGRDsuH7aiDctt/7ljWf+ehHIEnT86knKov0FE4DiwyOop8FCtcBukbCJg0sjAYWKxxx480kF2PFyDr6+xDyFJGnjDSwIBogOCJhLYiwCFgWBlg+pF0XMxx9SDtQXZ++lmkMaQz/qgYWDRz91YZTehI7aYA0QBogDZAGSAMLoQGCI/IckeeINEAaIA2QBkgDpAGRBgiORMZYCPqkMumphjRAGiANkAZIA5+WBj46HP0vo4VolQCNNEAaIA2QBkgDpIFFowGCIxLjohEjPVl9Wk9WNF40XqQB0sDnqgGCI4IjgiPSAGmANEAaIA2QBkQaIDgSGeNzJWDqFz3dkQZIA6QB0gBpIHYNEBwRHNHTAmmANEAaIA2QBkgDIg0QHImMQVQdO1WTrchWpAHSAGmANPC5aoDgaJHAEcNm4sR0MwaNcj+9M+4q/POwE1o2cG0hhcuL0/UAACAASURBVMgkGtC2rhEzE17841oH7u4ohCvlw9z8DGvFsck+/Ov2Mvx5y4sjJfPbZ4ZVomtUKL8X/7jaifujpWg0fJj+LeS4xVI298e0ywersTNnfu0aS91CGiYhBY0txZjcXo3HuypwyZuNItWHsT/DpmH3SC2e763Ds2/m3w6cvpqXCeXX4PGuSlxebkOl5sP0T7AxhWRv0sD8aIDg6BODIyazGDMH8qCJAExS8dFuHFuvB6/25CNfo4JcY0Clx4XR6uB/TY+Wfz7iGFaLwbH3h6NI/Rfg6GKDCgyrQKLagCXrPPh9jx2qCLacj/7MdxmR+idVT6xwxKTm4PoqK5Ij2EQqPlo7rLXluLs8EzaVEjJlCkrK7djgVPsfBqLlna84hlWjb+37w1Gk/gtwNFak5PWVoExBdUs5Hi43QxHBlvPVp/ksJ1L/5rMOKmt+Fm+y48LakeDoU4MjpwuvosGRRHykG4oDhpbtvbjTpf+gi1Voe+YMRxH6L4YjoU4mpxTPzpfD+SktXhH6J/QpUuiHo+zoniPGasfdaHAkER+5fgXqumtxoSrlI+trjnAUof9iOBJswKTbcGNLLnI/JX1F6J/QJwoXdkEm+y4e+xIcfSJwxGgduDLpxX/f9G0NcdtP/BbUmRLksHJIxrNaDB3z4JCnCGfG2vHrtS7M7C8P2lZSl1fi+WQrvltmgzPMdgCjMKJzoB4/XOzG26vtuDtSgnrRthSjd+L28ULkZ9lx6GArXk/14rejhb72pTpx51IlqmSBxZnR5+PWOTfKEkTXoniOotUv3X/ftprgOZKlpKJzSyvejOT4n+yjlc9NWqzBiu27PXh5rRs/Ha/F5nWN+Hm9mV/sGTYb47eWYJk60JecPg9erM3ww4Bk+ek52Lffg1+u9eCPy62YXJ+HgtlxkOqf1KTqg6MKbHGmY/0KFx6MVuNvQwVoNfomIybZghMj1Xi8x7c1xG0/8VtQG3Jg5fQlFc9v25Vjuysb+wfcuL+rEtdX2lEl0pEqNw+3Rlw4VGdCbpjtNCZJi6XNRbiytQqPdlbgUm8OKkT5GXUmzg1lw5ZmwfZVLtwbrcEPg9m+9mkzcWFbXrCW1Jk4u9mBgvjAmETzHEWrX7r/vm01wXOUqNKhudOFB70myGfhKFr53Ph9rUnDYF85vt9Vhe+HCrDGU4w7HuOsvjJw8JtitCsDfbHWleP2UkNAXxL2Y3UZ2LLShb/tqsHMDhdOeaywK2Mbfyl9UfziWdRpLOZnLAiOFhUcBYMPDz8hZ46Yyhr8Gc1zFCGe88gMHevDy31FaDRrIFcZ0LqpFb+N5vq36DjvUUquHbtHPXgz1YHpITvsct9kzLDJWLK1BZc6LLCoVYiTaZBTW8lv8RmEyZ+Do2sdeHjQha5cHeSJKqSkJCOOW1zZZLSOdOJSo2Z2spcjf2Ur7nkDkzt3U0fyHMVSP58/Yv8DZ46Ec00PdxXBrYmtfwyrx9CYFz8M58CWnAyNJQujY914HSMcxdL+2g3dmFlngVamhEJnRK2nAC3pwTe61PhHmhh9cFSDh+vz4MlQI1GmQXWbGzPdGfz4CPmYPCeeRfMcRYj3lV+L7/uzUWlIRpJci8YOF7+tJGzRcfpSmywYXubCg90VOOMxI3sWlhlWhequMhytTEWGUom4hGRYC/JwbZXVf+aOh6NdFbi6yo5mkwZJCUqoVSqwvL5UaOytxNHiZL++bI0uTNQEbwtHgqNY6uf1FbH/gTNHwrmmqz3ZKJ6FGanyGTYFywaqcaU1A1aFCsmGdGwYqMLdGOFIqnyu7a62KlxvSYUmQQG5WguXKwt1uhB9ReifoA8Kg+1F9vh87UFwtKjgSPpAttTiGCneB0fBZ3mY9ELcu1aF6hC3P8PKoTBlYeeBTvy6ywY1t/jIbZgI8VrxkDFVhToxHE3Xo0v0dCuePOLyyvH8eCEsXHkyC45daED3LJwI6SLCUQz1c2VE7r/IcxRnxNaTXRiv9i2kfD6J8hmjE3ema9Ak8nKZu5pjhyOJ8rk2JBeUYOpkM85vKMP6pdkoNarwVejYRIA/wX6RQmFbbUR0IJvJycOjgSzoRXXMDY6Cz/IwumxM7MpHmah83tasHHJ9OoZWVeJ+j4k/88XITPg2xGvFQ8ZoPtyCvjjP0WgRmmeBPbSvrCUXN4aykc7pKyEVo1uK0BKixYhwFEP9fNsjwIN4W42J02JguAoH8lUBr45E+YwmExdGnagWebnSqkpjhyOJ8rm2KzNzcGa4DGNtuVhRmg5nivJdfUXoX6it6fPnCwU0tr6xJTj61ODIXY0/D+X7n6ZDhcxEiA8LR9zh7gmXaPEKuOy5chlrMR5fqeAXJx8cLcVqQ3Aacf38ttp0FepDFkMhDd+GsXbsyVNA01iP5xssiA9Jyz1BD4Q5kB1L/XybI/Y/AEdcOmVlDf4+Xor8WdiRKp9JL8D9ySrUxQX6HwxHWThzswkrtYH43OWBbTWp8v02SlDDnJuJ7vZSnP62FTe603jPiD8+Qv+E+EihAEfib6sxWQ48GMyGUTQGjMOJH1dn+r2JoeVFig9bfmoOJrfbUeAvP2Abrlzu8O/UzjwU87DMwVEpvCGwLK6f9xyN5qPCX17wAsW3YcCNTRY5kouLcLM9NcgrxtfJqtEb5kC2D86i18/nj2AfMRxx6RR5TtzfYINtFnakymd0WZgYyYdbpK9gOErH/j0l6EwO2DCr3uXfVpMqX7AjE69CmikNLRU27FvnwnfVumB9ReifkJ/CYM2RPT5fexAcfWpwlFmCJ9casCpTjYQEFfTpWv+ZGe5GZSLE++CoFzNb7CjQqiDXZWDwm048W2dGIrc4xadix1gLjjRlIF2pRLxSj4aBFrzanevzHLFqLN3WgdcHSlBv0UAmUyPVlo3uosABWyk44tqnrK7B8y152DDmwRZrYKIXJhlukWkd6cW9VRlIlqlgNKbMbptI1x+9/8FwxMQZsPG4F5ebfO3nPArR+sckpGP0rBdTfWYY5SrobTYcOekVeY7SMHLWi8utRihlybC4SjE90eM/cyRZfpwBq7ZUYagiHRatb9syz7sE/wgB4UjjK9gvUhgWXsLBUWoOpncVoStVhfh4JVJ0Gv+ZGd6+EeJ95dfgWqcF9mQlktR69C2vxA2PEQm8vnRYt7YMu0oNMCYpECdPQUVzGe72mn2eI1aFmq4K3FtlQ4UhGYmJKhgyMtCSHfg2mxQcce1TOAtws9OKlWvLsTY1nL4UaOytxcQSPZQJSug1av+2nFT90fsfOHPEp4tLwaqhanxb4ms/t+0VrXwmXo8Nm6pxps4IvUyJlAwTdq6vFnmO9BjeXI1v3VooElTIsNtwZntNAI6kyo9LQVdnPpY79MhI9m1b5tQU43EICHPAGnX84/LgHbuIC/u7kC4COa7P9CIbfE4aIDhaJDd1rL9zxC1CVcsb8HDCiz8mOzFzsAhFoq2eSPE+OOrC5WE3ps924bcr7ZjeYIdNEVhAkkw52LPHg5+v9eDt5Tbc2lqAMtGTPHeguGNNPe6d78LbyQ48OliFgfwUv2s+FjhiEjLwzXgvfj/ogC6CByAh24mLZ7rxdqoLT3Y7YJ5NJ1U/vyhFsA8HXdzvHHEHsoUbWF5eidfn3SgXzr1I9E+e6cCxsbbZw+wurB9u8cMRV6bR5cLN893443onvt/oQN6SWjwPOZAdyX7cVmZyVi72jHrw02QP/vsaN7YV8GYG2hutf0KfIoUxwxGbjNL6IlzdXo2ZkUpMrspGnmirhzs7FS7eV34ljnscOLOpCg93ujHeZoY1KaAvmd6EjcvLcWdXDR7tcONsVxYKRNte3IHlpqZCTGypxKORClxblY9eqzqgL35bLbLniLdPvAGbN9Tg4SoLUiLoKz49E2MbqjCzuxLTfRakCfqSqN9n/0j9D4YjLm2SPQ93tzhQKHgnJcpPSrVgdC13mL0KkyvtWNFa5ocjrjy93Y7vtvjafb7dgpySAtwKOZAdyX6cvpRpZmxaXo7vR3y/wzS5Kg+eVKX/fojWPy6Oj493omfsIq5dP4SlusDYCvEUEiB9LhogOFokcLTQgvLBUTcOFdGENl+2NnUGzhzNV5mfajk+OKrCDomfCvhU+/cx2p1aFQxHH6MN4epk4gqw+swOuBJpLglnH7r2eQAiwdEXBUfBB7LpJp7bTSw+c/Sl2zKcZ+pLt8lc+y8+czTXsuYrPxOnR27vfhxeWfTOea75qoPKmdu8RPabH/sRHBEcBbnV6caK/cYiOArYiuAoYIv5uocWIxyxue1Y216KZDpvRPPmZ752Ehx95gM8XxM1lTP/ix/ZlGxKGiANkAYWpwYIjgiO6AmINEAaIA2QBkgDpAGRBgiORMYggl+cBE/jQuNCGiANkAZIAx9SA/8Vl6TFx3z9L6Plo9b/MfsurlupMYJeZIOF0oBYa/T+4855ZH+yP2lg8WuA4Ogjw6FwkyzUokjlEnBxGhB0RuHin5RpjGiMSAMfXwMERwRH5LH6Arx2NNl+/MmWxoDGgDTw6WiA4IjgiOCI4Ig8S4tkHqDF89NZPGmsPu+xIjhaJJMibX/R9tdCaoAm8s97IqfxpfElDcyvBgiOCI7Ic0SeI/IcLZJ54LNe4DJ7sX3TUhjlKaQ30tui1wDB0SIRqUKdhzPTHmzINvhhRVFfh3+OlcKsDlxbSO+CQmdFz4aleDLhxT8mO3FvdznqzB+obrUdJ6/34V+3l+HPW158WzW/9SrURizfK5Tfi39c7cIPeyvgyfoyPFZSiy4rM6J/XTVG7B9v4WIVqWhqLcXk9mo8HqnARK8dJdoP0x5WZsHo7lo831uHZ9/Mvx1YmQ6e5UL5vj9+vbzCgWrD/D7tSo3zx4xnZamw9R3G2IAbctn8jisrc2BVwSuM6ue33A9pL61rACsHtwe9+tuq591WC90nVmZCrmcD2ivsiJvncY6l7YqC5dh9/AImrk3ixIqi94aw/8otcr935lgaKpWGvsrvmxxjhSNFvhtPDpcgIwIwScVHg6uila14vb8UZaZU6E1WNHZVY3+T2Q9r0fLOV5xCbcaGY+8PR5H6L8DRhCcNCrUB2gwr2ja04u2+IqRGsOV89WkxlCN1H8YKR6zJgetrcpASYdKTio/WjuwGN+7222DXaqFISUVZRT42Fhk+6PzEygxYNvj+cBSp/wIcHS3VgZWlIEmTitpWNx6uyEJyBFtGs9WnGscm5aL90En05+nea1xZzU7cyB94R3+fCxx5qx3vZZcPpQc2tRHtrZVRgY2VmWFv3YiOyo8DR2UbJ7CnMx8q5dwePAiOPjHPkcJVhdfR4EgiPtJCzcFD50gv7i6zfFAYCm3PnOEoQv/FcCTUqSiswPMLlXARHEGAo1250Z+82ex83I0GRxLxkSZxVqZFQ08tLtamftTFYc5wFKH/YjgSbMBa8nBzSx7yviA44vouq9yG8U21SHyPfrPaA/ghIhz9jFFddP0Ktl+MIec5WvRwZG6BVwKOPrZtyzZ9hzUFc9cBwdEnAkcKSxEmJ3vw3zd9W0Pc9hO/BTXuRqHaAMl4tRmbjrdhrLscZ7/twK+T3XhyqAqerMD2VXptLV5MtuH86gK4TO9uNymMmVg2vASPLnnx9loH7u/htqUC+RXWUtw5WY6ygiKMHWnH36d68fvxcl/7sktxd6IWS/Si9Jkl+P5CDWq1omtRPEfR6pfuv29bTfAc6cxZWLajHW9GnTDOwlG08jmgSrY5cfhQG15N9uCPK+2Y3lQM96ydOKiTsq/Kkoutuzx4fsWL3y614vK6fDhm7eHL78E2dz72HmzHmykvXp1qwOq8wDhEq59rX7T2S01YPjiqxLZiK4b73XgwWo2764vQnuF7+mJ12Tg5UoPHe3xbQ9z2E78FtcGObFkKJOP5bTsXdlTm4sBgBe6PVOL6qnzUGAKTmCavALdG3DjckIk87btPfawqFS2eElzdVoVHOysxscyBKlF+VmfDufV22M3Z2LHajXujNXi4brZ9RhsubCuASxGoj9XbcG6LE8WiMzDR4Cha/dL9922rCZ4juTYdnm43HvRlQjULCdHK58YvITUT21a5cXekBjM73DjdloN8zez4xGDfeJ0Jq3rKcGNHNX7Y5sKxZivMs/bwjX85Vtms2Ljy3fGXqp+Ll2q/oEFW1YSd54f/EhSyqjU4U/Yaz8t/x8/ut/7Xy8KdPv3x22o/YmdqGzY5fsBM+Ss8KBhHp1rvh21WOYRLhVvg0KzCSP4DPCr/O544t/D5ubbFqxqxNnca35e+wuOSuziZ2QVLUgpYmQ3LnS8xquO8fjo408ew2ZjPl5uSfgUPspbw7xOSvdiZdw8Pyl7jWekP+C57LZyK2D1k0eCIG5+M2kG01+TxUMnKMpDTvA4N+WbeE8nbX5YGQ4EHS7zr0bd6M3q6u+E0pQXiFZnIrupF2/KNWLZyPTxLl8A0e59xW2HOzrVwF9ahpmMIvauH0e5phlmI11RgyarNWL52W/C2n7eR9+KxMisKuwNx/QMDKDQG7jV+7DV5KGhcic7+TehbvgYNlcVQ+/XH1b8KTksRSj2D6Fu9CT3dXbAZY7efoK+CdeNYVxpS93us8wRH72E0YRDmM/RtqwWDDw8/IWeOFI31+DOa5yhCvG/x7cPPB13wODKgT7PCu60dv+8t9G/Rcd4VU3Eh9u5tw29TnbixsQglRh+4KNTpaNvpweU+OxwZqVDrM1DYXIfHh0uQKcAFB0fXOjFzpBrLS8zQ61JhMqcjmYM3dRp6Rrtw2ZPBe6a4ra3ywTY86LcGeaoieY5iqZ8HhIj9D5w5Es41zYy6UG+KvX/NW714ssEOsz4VBmsmmrvL0GnzwYuUfRVqC79d+MOGfDjT0mDIysXWQ934cTgXWt4+HFz14vfTdegvMkFnMKFtazv+GMmHeta+0euPPj5SWvUtjrV4OFyAVqsBcqURtR0VmOmxBj3hswWFeBbNcxQhXij/+5V2VKfreT00dfm2lYQtOs57lGLNxsblbvywuxJnWrNhU/kmOVamR213OY7VmGHRaJGo0CO7pACTa3JgEOCCg6NdFbi2Oh+eTCMUCi1StHokcPAm06GprwrHynyLJbe15WhyY6I+zb94cjaKBEex1M/nj9j/wJkj4VzTtV47SlNi719FRxWut5qhVWih1KWhojIXDaliOKpFJPty53247cKJViusah2UBhNWrarEtMeEJN4+3Jmz6OMfvX7p8RE0yMrKsObsKGqS//oCxhpO42VEz9EbPC48jvaULMiT7KjLeYhnuV1+/fJwVPYE0/kH0ZrigCIpFVqlZVYfBVjhfIlr2R3IVKRBqWrA2rznuJ3VwNvHmTmDSUsxWFklNjt/xL28tVDLtKjKeYGjqem8hipzXuJG9lJok4xQKstQmbEJjcmxL+6hZ476B/rhmNUHry15Doo6h1BtS4e6cDnaG4r821v8vVOyEn3edmRnmCFTGKEyV6KoIAfx/PimwtywGg3F+VAn6xGvSEOKvZ3fIlPy8RycbEW3pwFmQxoSkzORWT+IvuZyfx18G3I60S/hOeJgsmx5MBxx8JTXsRGemiJokg1I1DpQ4BlGR7Vj1v6++vu625GTno4EhQnmunVYvqSYb7+gnWghm6SHIr0MvQfPYk3RX9dWaNkER4sKjqQPZM8NjoLP8ihsZXgwWYemkG0lDlwM9nyMHu7Cr6MFSOcWb2MBroZ4rXjImKpDixiObizB8tSAJ0jYwuI9L2VVeH6yHA6uPL0dJy82YcUsnAjpIsJRDPXHAke850iThV2nu3GuKd0PZrH0L83txo3THlzaUonN7fmozk6DUug77zmKbF9FVinuTtWjVewly3fhyUQ1avxw1IPjNQHbKapr8PbbMmTN1hG1fgn7hN74oZ998FKD3Y7ApMI6CvBoMBepou2PucFR8FkeNjUXEyMFcIvK59rFgYsyzYr1a6pwvy8TGm7yVmXh2xCvFQ8Zo4WoFMPRnhJ41IE+iPuZkJ2Hm+vtMHPlKcwY3VoCjyY4bUQ4iqF+vu0ScMR7jpLSsG64GgcLRV6NGMpX2+wYH3ZhrCMPK11WFBp0/gOvvvGLbF/WYMOF0ULUir1kZjumtuejmF8cOTiKPv5R64+h/cJY8HB0bhQ1s+ArXI8ljA5Hr7FHH/A4svoxPHVu8OuXhyPXJbSKvIdCnaxqGBPlp1GXFNADq9mBmyUHUSJLQaLxJJ44VkCp2oBL9oPYXXQKdUnFWF90Gytn+6HW7cS5wtv4NmcUq9M7UaTK8I+PUE+0MJrnyJ9P68aSvmF0dS2FQdQPVpaLsmXDcFsD/ffn4e4pZTkaBgKeHeHgd//qdmT44WgTKjJF/dfVonV1Gx8vlMW+Lxxpq+FZ3cl74vxlpTagfYWHHx+f52ozKrIC7WczW7GsvcbvWRXyRQp1bYdw/fo1jI92wCTSeaT0UtcJjj41OKqvx59jJRG/waaIEO/zbIQs3tzh7tnF2QcngYWZBw1u8b5ag3o/HLVgKDM4jQA1fHrOczRdB08IbAlpuDZs/LYTB8qMyPAswYstdmhC0irUJgwfDW4nXza/+Eevn08Xsf+BbTUuXWpjPX79rgJlKb7++OAohvJT0uEoycOK3gp8d6Idt5dnz3rGOM9PcLv5w+EC/MzCkWe2Pr6tnP0v16DWD0ch+Suq8eZ4GXJENlJEql/CPlITQdjFNdeJB+tykSaCFw6Oflxjg1Z0TVx2pPiw5ZscmNyejyJ/WYGJmSuT5RbvnU6U+uGoDL1Rvo3Eb6uNFqLKX15gouXLkxmxYrACm7NTkFJWgpsdZr9XQegDB0d9A8GQweflF//o9fPpItgn9MxRckEh7m90wD67GPvgL4byk3QwZVrgqXZg/5AbZ2vTZ5+83/22IXc4XLAvD0e7C1EjXvxNdkzucIrgKLjfbLjxj1R/jPbx2fKvb6v5x8d4Ej/lD72jv3AHsln9YcwUbET6rB54OCo/geow+uDhqOwU6kRxHBxNlx7y6U85gPOlh1CXdhET5lIszX2IzbrlOFV8QKRfDuxNMKe0os00ikMFP+CCuYIfH6H90cJY4CjR3AxP92q09bQhQ+R5Y2XZKO4dhsscrHmhPh6O1gZ7ooQ4LvTBSQgccYevV7TAKLZJTgf626qCvEnicnxlhfEc8XDUAbNYf8YGtPeL4SikfqsHfZ21McMRm2SAMqMcfYe+w9rC4LkktI2xfObhKP7/CDzBxJJpPtP8L/rjWd4lG/O31ZxuPL3WhKH8dKRo02C1mWAQL54R4oVtn8c7CuG2pEFvtWHDgS483zC7rZOShdFjHhxrsyEnLRWaVAs8wx68/mbWc6ROR8euLvz9sBuevAzo9OnILnJiRaUp4H2RgCMeSpoa8GJHMbYdbcOu/HdBS6FORc9oLx4M2pCmT0NWtmkWPqTr54EjYv+D4UihsWLbSS+utfnaz23bResfl35oRx02NeTAYUnjtxXLVjTjH7OgKmlftRWbvvXi3nAe8tNSoc+0YfOs/XUxwJF0/dHbL3XPhoWXcIujyY7pXSXwmvSQyXXQpxrBueWF8tkI8b7yazHZlY18nQ4KXQaW9VfhZuvsto48HUOD5RhxZSAtWYtEdSqqPOW4uyzL5zmS6VHnrcS9NQ5UpeshV+qQas2Exx743zgpOOLamFxUhJtdOVg14MKgOdBuf/tlWjT11WJiaQbUCh1SDYZZ+JCunysjcv8DZ474dEmpWL2+GsfLfe3ntu2i9Y9NSoW3uxD9BRmw6HT8tmJuXSkez4KqpH1lqVjBbat5LLCotVDoM7Cyvwo3Ws38Qic1/tL1R2+/YF8unNOBbPVO3CqbQK/GCllSOgzJdl5/c4YjWSFWOV/ialYbrIpUKFR1WO14hu+zl8zapxwbiqZx0nEXm1NSoE2/isv287hj74GM97wUodd2HKuMVbCqMpCYlAm7+RqehQE5sS3E76XgiNWUoK53Bex6HdTOPnR6KqEW4Fqmha58Dfq6W5GVbkKi0ghleilK3KVQ8O1Lg6VxGD2tjTAZ05CgMEKZUYIcawZ/7/rgaCvaG1wwaIxI1NiR5xlGV3VeENxx31brWNUHe2oa4uXcDoApzANGGDiSWZHPbatVF/LbeolaO5yeYXTW+MoPC2d/EY4EW+YPnsHQfJw5SrN83K8OEhz5SD9mOFJnYMmaJsxMePHH9S48OeJCpdgbESHet3h349rmatw4143fr3bg5pYiFM2eKeLAQmd34sD+Vvwy2YO3V9rx/c4y1Ii2vbgDv33rl+DBhW68nezCzJE6DJdnBLaWYoAjRUoODnzXi7dHimERQR1Xv/BKKSzFxHg33k514+k3Rfw2HA8+EvXzaSL2PxiOuLT62jq8vliNWuFQdJTyua3GtIJCHNjbipfcwfhJzvY1WJGfyrc7FvuqrLnYNuLB86s9+P1SK66udyJPqDvctpzIcyRVv5R9hIkjUii1OAr5uEW8fEkJrm2vxszuKkyuscMpfhqMEO8rvwon2pw4s7kaD3dWYLwjG9mirRVFWiY29btxZ6QGj3ZW4Fx3LopE217cgd/mlmJMbKnCo5FKTK4pQF+2wb91EQscsUkZ2LKxBg9X50Avgjqhf1wos9hwdEMV37/p5dkwzaaTqp/LG8k+oZ4jLq0ivwB3tzpRLBxKjdI/bqtRbc7C5hUufM8djB/hbO+Ex+SbP2KxL3cge3VPOW7urMHDrS5825IJi9IHiFLjL1U/3/co7efi+TRz/Sq/LBMu60VMl/yCZ+XPMZ2/FQX84v/u7xz9Fc8R17Z45RKszb2BO6Wv8aT4Lk5meWGZ3Z7hxq/G9hIvOO8Sd0g7eQsmy9/gksm3fnJnftSaFdjmuIO73MHxMq5tY2jTxP7ty9AzR9zWV//yZl6nbFIm8trWoS5XgJk0ZNQOoLXS7ocTTttpJe1Y2jOMSOXnGwAAIABJREFUvjWb0d3ViXxzeuD+UGQiq6oHrX0bsGzVMNrb2pBnSue3sX1wsgGNtR409W1EX/8Qlta5kSLauuPHT5aGdFcv2lZswnLu0HZbPQyi+9+X5l044q7HcQeyl6xEV/9m34HsqtKQA9lz8xzxdSRpUT5f31YTCvxYIcGRb9LgFreFfPkWby/GKt/11ixkvV9K2Yvdvh/r/hbqFRbvnR/xRyaFtnyO4adg34X8EcjPcUw/ZJ98cLQRbuu73tQP2Y75qGvefudoPhozlzIIjj4sHM33L09/KfAj1U8Bjharfedyj85H3nCeifkol8oQe46CzwwtOttwfx+yuZn+PmSRnHMV6yPctpY4/lN6z/1C9uiJ83P/heyP3WmCI4IjKfD4FOIJjnw6jjSfEBxFt08ku8V6ney7sPaNdRw+1XSfExzN1xjQf6stEor/FACA2riwW58Lad/5mjCoHFqESQOkgS9BAwRHBEcLetZpIRd8Kjt2WPsSJjPqIy3apAHSwHxpgOCI4IjgaIEPwy8GiJuvCYPKocWHNEAa+BI08F9fxSnwMV/cmaOPWT/V/XHHn+xP9icNkAZIA6SBxaYBgqOPDIeLTRDUHpqkSAOkAdIAaeBL1wDBEcERee5IA6QB0gBpgDRAGhBpgOBIZIwvnZSp//S0SBogDZAGSAOkAQUIjhYAjuogCyJw4bMQvo/wwuUNdy1a2e+TnssTyytavRRHky1pgDRAGiANfEoaIDhaQDiKBhVikURKx6Xh4sRhaD7x51jeC+UJZYbWLS5DnFZIL44X3oemE65TSJMhaYA0QBogDXyKGiA4igBHDCuHdioR9q6kIC+QMMjR4kNhQfgshEIZ4lAcF+69+JqQj7sm9YqUlrseWma0z+HqEZctvKeQJkLSAGmANEAa+NQ1QHAUCY60SXD+TxLUifLwcBQmPhQgOHGEXgsFEEFA4uvh3ouvCeUKef9qKJQVKRTKE8cL70PjuM+hcUIaCmmCJA2QBkgDpIFPUQMERxHgKGGTDOXHk8B5iMINbLR4MSyI33PlhPvMXQv3EqcPly9cu6SuicsR3oeGQhnCdfFn7lq460IaCmkiJA2QBkgDpIFPXQMER2HgiAMi868ymB3hwShafCg8CJ/FYTjRiIEj3HvxNS6/uLxI7yPVI5QVKRTyhZYrXA9XvziO3tPESBogDZAGSAOfsgYIjsLBUZkM5S+SkBDBa8REiRcDBScMAUAEkYR+ft80QnmRwkj1CNe5UPw+lnaI84jrFcoRX6P3NDGSBkgDpAHSwKeqAYKjEDjivELqszI4ByJ7jSLFC5AghJwoBKAQh2KxiNOKr4vfC3nF16Teh5YrfBZCLr/wPjQUyhauC5+FMPR66GchHYU0MZIGSAOkAdLAp6gBgqNQOFIkwf4/MmhVEeBIIp4TQThYCHctkmCk0nLx0V6R2hDuulCXEIrbJL4m1CeOF96L0wnXKKQJkTRAGiANkAY+VQ0QHIXAUdwqGVyXkvBVhC01qXhOCAIsCEARLhQLJlx86DVx+ljec/nDpQu9LnwWQnGeSNdCr4d+FpdB72lyJA2QBkgDpIFPTQMERyI44rbU0n9MRGZFBK+RRLww+KGwIHwWQiFdpDDWdJHyc9cjlSG+Hu596DXucyyvaG2hOJoYSQOkAdIAaeBT0gDBkRiObEkoeSuDPILXiJGIFwZeAAwBKoTrXBh6TfgcSyguJ9x7cRnh4oX6xaE4nZBfuMZ9Ft5HC2NNF60MiqOJkzRAGiANkAYWiwYIjkRwpBiToWh7eK8RN2BS8YtlUKkdNMGQBkgDpAHSAGng/TVAcCSCIxLS+wuJbEe2Iw2QBkgDpIHPRQMERwRHMW2dfS6Cp37Q5E0aIA2QBkgDUhogOCI4IjgiDZAGSAOkAdIAaUCkAYIjkTGkSJLi6WmDNEAaIA2QBkgDn78GCI4IjuhpgTRAGiANkAZIA6QBkQYIjkTGoKeBz/9pgMaYxpg0QBogDZAGpDRAcERwRE8LpAHSAGmANEAaIA2INEBwJDKGFElSPD1tkAZIA6QB0gBp4PPXAMERwRE9LZAGSAOkAdIAaYA0INIAwZHIGPQ08Pk/DdAY0xh/CA0wySVYMTKIArnoF/dN3di2sQH6BNE1mn9oQSYNLEoNEBzNCpNR2nH1Vh+ut2j4gWJYBRo2deHP8VLYI/zXmtQka+5qxuv15pgGnmGtODbZh3/dXoY/b3lxpCT8BMqwaRg924ffd+ZA9p7tEtotbh9bWok3Z4qRLSqTkWVj/PoSLNcEt4Vhtejf342Z1RlgRemFcin88ABC+l08+mXiM+HZfxzD5en4SnR/MKwGWT0HMbamGImi63S/fPj7hWxONpfSAMGRGI6uduHVXjuSWTmYeAvGxrvx+gPBkTBQHHgMjkWBo6xSPBytxKnzNWiSBUOLUEasoRiOmMRMnJ5sxlp9oEy2uAJ/H3PCGDKRM6wOKw924QnBUUzgG+t4zCUdD0ek30WhX33LARwfKA0LQEycFa0HT2C5TblotDMX3VFegozPVQMER2I4Gm/ElfF6dCjl+NrpwpNv6nFzDnBk6ozdcyQITAqO7Ms9mGjUoHFzB0645zbBitvHsCq07fLicpPaP2kXr2nHXa/e/1loI4WLb0Lk4Yj0+9H1y7A29B4/ghbRQ0bo/RJfvgXjGyoRF/LQwaVj5OUYODWBsyPN0IaJDy2LPi++e5HG5PMYE4IjMRxNuDA82IrxahVK17bidHcJ7ong6GutGcPbmvHjZS/eXPTg0upsWETeG9ZgxfbdHry81o2fvq3B3p2eoG01RmFE50A9frjYjbdX23F3pAT1hmAhRYMjhjVg88kmrNDIkeCuwvPNmf5tLS7f0LEWbCjIwu59rXgz5cUvJ2rQZwmUL9U+VWMDftuZwz/x8nWdasWWTJ8nifu86aRv28+39deKTZaAl4mf2CP0j2FTMDDWjSPFCnDblQUtFRip0vHQpWluxC/rTJIAxuStw3cjg1h+6CIunx2Fp3YZDpybwNl93bAkyMEYO3Ho7DCciYE2Mfo2HDgzhNz4wLVIExfD5mPl+HVMTU0Fva5vb/DbOFJevu9sFvqdt7BG3YJNjgeYKX+F+87TaFeo/H1jEpxosV7A9eKXeFo6gyu2HaiUqcCwFizLf4lRjRIcpDqMh7FRl8PnSzZO4L61xl9GpDbwcET6/ej65XR4+NgypEUBG0ZWjx3nhsJu1zNyFwbPTODc7hboopQRSQd0PTDfkS3IFnPRAMGRGI4mK1HtKMOjLcUYPV6NJbZiPJqFI4bVY3CsG/fXZSFLpYLCYMbw/i48HTTPwoQeQ2Ne/DCcA1uyCskZVuw41OWHI4ZNxpKtLbjUYYFFrUKcTIOc2krMHMiDQTQJRoWjjELcO+yEntv2484DXahE1ezhTh8c9eK3k5XosaVAJtdiyYY2/LE9m39C5dofrX2ciBiNA1OXK1EVLwejd+L2+XI4RW0ThMaw6dhzIRiOpPpXuLoN93sM4M9MjXXg5b48fvuybmM3ztUGAEKoIzTk4Oj8xEG0ZWagdMN5XD20Apn6Kmw4fwZ92XJw/a/Ydh476w08SHAQZl12EmOdWZJgEVrX+3xmeDh6g8cFR9GmykBifCZqsn7As5y2WfsbUZNzGyfS6mBKTEFcXDqsuqOYdqziF8E8yyNMZuSBYUuxKf8p7jlWQskqUJH1AmN6rWQfeDgi/X50/TJ5Azg3sjTslpqgK4YtxOqzu1GVJA3tQh4KaaEnDXxYDRAcBcFRFarj0rHnjBc/b8lCvKUIMwIcGZy4M1WDJaJvmjDWYjyecKGUgxWjE3ema9Akig860yO3YeJmwPPCeV94D8xUFepEABINjkxdzXwef95b3ThU5BOMD468GCsNTLhMSQXejhXwZ4ak2sfdeD4PTztGc+VQNNTjxTpz0IFS4eYMC0cS/YtzV+P30VzIjQW4PeLCofFqNCYYsOV0C4ZSA20W6ggNeTga6+FBMrXzKI56c8AdYu8Yu4DVeb78rH0tTo95+TRMYjnWj4+iVi1dtq/v8+E5eoVRTeAGZjSH8TR/yAez8V6cdP2On91vg14vy4+igpUjTnscT+y9SEoawiXbPowUnkBNXB7WFd5CfwyLqA+OSL8DYx9Xv0zeYGxwdG43qkRe51C90+fAfUS2IFt8DA0QHIXCESuHraEcK3OVYN6BI25BDyy2HBzNTLhRxsFRegHuT1ahLi4Q/y4cLcVqQyA+3ID7AOXdA9kc/Kwba8fOnEB+fWsTfh4y42uufn5bLTgfU+jGm2OFSI+hfUJbLN4W3O8xonFzO78NJlwXh5HhKHL/OK/U9IQbjY31+L7LCM/ONowW5+LyRTcPl+Lyw72PBY4Y1oTWg2ew0q6Esn43zqwvD3uuI1z5c73m8xy9wu6UwPgwmgOYcQ4jlbM/B0fl0+iNADpM4kqcK9mPGsN5TKQ7scT2AzZpenCqeB8KRPAcqZ1+OCL9flT9znVbLdL40nUCBNLAh9UAwVEYOBJEGARH/LZUN+4OZiJTpYJcb8L6vZ34cZ2J/0o9k5CO0bNeTPWZYZSroLflYuyUV7StpsbSbR14faAE9RYNZDI1Um3Z6C5KCdoyYVglWkd6cW9VBpJlKhiNKfyZF0aXj5sTFXCJ4IuxFOPRJRfK4mKAI4n2ifv86HANvuM8O6LzO0I8F4aFIzZ6/xg2FTvHl2Jij4f3TGlbGnFntA7PRnKQEMviz22rSXiOuLYlVW7HmY2t6Dh4HN2i81bi9i/Ee0k4YlNRl/0UjxzbUangtt0MMKja4NH4fuqB22oZLpzCydy72KSSQ2O8jIncs/g+txPxsdiH+ymKySpUi9KSfgOgKh7zhdTvnA9kx+XBO3YRF/Z3IV10r4vbT+8/7CJJ9v4y7U1wFCMccTfI1zozNm5vxrMrXvx20YOJNTmwilzj8kwHjo214dcpL54fcqNvRQNeiX7niDuQ3bGmHvfOd+HtZAceHazCQH7KO1tXCdlOXDzTjbdTXXiy2wEzK4eupRG/bfOdHxJuVobNwN6LHdjjkIYjLo9U+7g03JmgkbN9+GMk8u8ohVtc+LxR+if8btQ/J33eN8ZUhPs3enG7Xfo8DV92jHDEHXpedeIaJr7x8GeauLwf4iUFR3wfEpxotpzD1eIXeFr2FNOOo1imNvHjzx3Ersr+CS/KuO00+f/f3nt/x3Fc+eL+b5qcA6C7TyN7ACI+5EAQGXOQSJCiGMAIkCJpUgxikmWREkmLUQTFCCZJWAWKkr0SbUmWJVleB1nycmWtnmx5n61n72rf+vue9/M91YOLuWh098wAGHAA3B/mVLi3blXd+lTXp6tqZqBZh/Fq6BO8WBTbnSm+c0T95eRI5Ql+w1hINH7VV/kvTvKr/FpqI7YMvYBX7pzD6jx3ckfjK+HMzG3x8/z0s5CjGVo8ZYLNzwkm4z7/xn2qPwKppTTh0eGj6PTYuRVMzT9MyZjP/JgLORJyNCM7KzK5Z35yi88fnM+1rFbsOPaYy9+HrPT9+xAtJR91W0/j2Z0tM3ZfTnDy4HAivk9e3ws5EnIk5EgwIBhIEgwE6jZgz4Z2ZMl9I8FkkmByvhI4IUcCQHkICQYEA4IBwYBgQDDAMCDkiDljvjJk6Xfybu3K2MjYCAYEA4KBmceAkCMhR/K2IBgQDAgGBAOCAcEAw4CQI+YMYeczz87F5+JzwYBgQDAgGEg2DAg5EnIkbwuCAcGAYEAwIBgQDDAMCDlizkg25irtkbcpwYBgQDAgGBAMzDwGhBwJOZK3BcGAYEAwIBgQDAgGGAaEHDFnTDc7Xw4Dbh+3epSeW/5k8/zs+ckmW5+Um/k3G/G5+FwwIBgQDCQGA0KOppEceZEOr3wO6lh0uH60uJc9le/2iWZP5ImZgOJX8atgQDAgGEg+DAg58iBHWsBC8DUd9ZtN1x0dL7kbKXHLc04GNx0niaEyznyvsqRPoZueknnlUzkJk2/iypjImAgGBAOCgcRhQMiRFzkKmmj8ykS2x58/alHkbgSG5xGoeR6PK7lKcz2KO0PS4+UpTrqUjhaSvoSJm3TiW/GtYEAwIBhIbgwIOfIgR2mPGwhdMqF2iNxAHE1OZRQZcYtTHoVuem55pM9Drkf5seQ5dZxpsiVhck9iGR8ZH8GAYEAwML0YEHLkQo4UISr7xEDZYndi5CV3kgtnWoHXLc+ZTzoUeslpMnC9aHlK1+9D5SWc3okm/hR/CgYEA4KB2YMBIUdu5KjDQOjnJtI8do00HzkRFQrVZOBxt7Qzj/QpdMp52kuH5yt9/lEyN7lbHi8n8fF+FH+IPwQDggHBwNzEgJAjB3FQu0LZNw007vXeNfKTu02UWEgH16E4hcomj/N0rPlUhut7xd36IHlz8wEg4yrjKhgQDAgGJmJAyJGTHKWbqP/KQDDTgxxFkSuQcdJBacqj0AlGnk9xCsmGXxmSURkKKZ+HSkZyHuc6Ep84WcQn4hPBgGBAMDA/MCDkyEGOUnYZ6HzRxAKPI7VociIdagJR3CukSUZyZ5rn87ibbSpLoVOfyvB8Fac0hVRewvnxAJBxlnEWDAgGBAMTMSDkiJEjdaRW/KGOym6PXaMock4w3OKURyEB0iut8vmH9FXIy/A46bjlcRnJKSSbPE36Ek6cOOIT8YlgQDAgGJi7GBByxMlRrYm2+wYsj10jLYrcbaIosuFHOLjMqeuUkX2er/J4mmzwPNIhGbfj1COZhHN30svYytgKBgQDggF/DAg5YuQofchAyxH3XSMFpGhyAZs/2MQ/4h/BgGBAMCAYmA0YEHLEyNFsGDBpozxYBAOCAcGAYEAwkFgMCDkScjTuN5BkwiV2wol/xb+CAcGAYCD5MSDkSMiRkCPBgGBAMCAYEAwIBhgGhBwxZwibT342L2MkYyQYEAwIBgQDicaAkCMhR/K2IBgQDAgGBAOCAcEAw4CQI+aMRDNRsS9vO4IBwYBgQDAgGEh+DAg5EnI0694WAqmZMDMLkJ5bgszg/5BPgn2g/Kz8rfw+Vx/qgqnEz6P5gKO5Oj/mY7+EHAk5mlULnlrEMr5dKoQowYTIjXQqv89FgiSYSjwx4niaqziajwRiLvdZyJGQo1lFjtQOBn/QJiKesWQPLt65jG1LSpGR24FtF+/gyEohZMrXyv9z7YEomJpIjjJy+3HkznH05SYG93MRR3NtXsz3/gg5EnKUlIudltWGHcf2ocka/4vlM3GU9iDIEZGwO6OkjJO+jJXHcefiHtQmaKHidUWLK//PtYfmXMVU31N3cOep/gkvE7XfuRwVT4kmR3MRR3NtXsxof0oH8OThh5CfNv55P6NtcHABIUcOhzzIwXDWra95Dx07VnkuRk65ZrZh0a630Xb1K3Re+Ai1/SuROvo/cVqgBkUnfo/KxujgU7oF3/scrQPLsMDjf+acbZ3OtJZaif7Tl3AwVDyh/miLt1NOpIN2fpxpp74zHa8+Lx9P2THdpyYSoWQiR6p/fKy1QB4aL27E9oOl4HGuk8g4r5PH46mTj1ks8bGxGt1NdKaj2YhXn9uLp6yNG8fuT6zlE02OVJ/4GPGx43GlowUq8NCPHkZzYeTZpfV2Y/+VBhgxPJ+0QDmWvzWIgz/ZggPvbsayUMRO2L6/nLfTK67p+ag+vAKP3N2Mx95ch4HvN6EoOP2XjrVAEA0XNmLb/onPRq+2RcvXMmvR/+4g1m/IscdEC6Sj7KmNOPAPrQjG4N9o9pWcjymPU1ktkIOqLWcxtLsV+jTVSbYnGwo5miPkSAsUImfvfbQf/i4ycouQWrodVae/QMND9aOAj4cc1aLgyX9F62DfBHIyWaBROa30+2h98iBSfCZA/tozuLS33XWS8IUilrhzMXCmo9mIV5/bi6dsRDd8jHfxOx1jb/zJTY5y0HhlEDsPK3IUidN4JzrkdfJ4PPXyMYslHhmr8JGTMx3NRrz63F48ZcMEZ/yRcHhXNPpx2cyTowh2nOM4VXJEWNACuWi+NpEcxSonPbcwZ+dq7Hq2AXm5mUjNzUfxhhC6V+SOI4Bu5eLNU8RiiXoZ2V8ybc9mmxz9cCMeHapDWsCCllqGvpGN2D2t5Mh7fMkHWkoF1p29jO21GdPuN6ojnlDI0VwhR9n7seT6j1GQG3krWth0A6GzZ2ApwNs7R1+iaklEHg9QpktXq3sOHT7kSAvUYuul81ib795OvlDwePihfwevvfaa/VE7RbQ4UN6rzx3DiTsRHXVUVZPTPnqnSN2xuGMfN9Q07MbF0TfuyGIUlpOtsZ0o+35SZLGhxWdZznh9OhZztolIUKSeUlBfxupwHKuRfEJb7Hsil7FtpbozFe6n7YeVx8f8QvUp33m2hd254j6mOMeCesusPjmAge154HGuk8g4r5PH46mT+uUM3fzs9FkyY0r1x3m0Zh+psaM2tz6qcuF+hnEd1pmIcbqP5PQJYSxcLnx3z+lbleZjxMeOx5VOspMj1d7KEwPY/Ej+uD7x/iVz3CZHIyvQP9KHmgwLC1o6sP18HzZOKzmK7TmRGnoC1w/1uL48a1YIe6+O4OaxNdO2o+U3LkKORsmR1vAYbhzbh+3nXsA/3DyB/r5tOHNrBDdPDaA8zYJWsAnnbh5Eox5ZtLX89TgzvB91qZE8P2cvyFuDol1vouW536Pryn007X8C6fxOTXAtSg9+hPYrX6D9xEuo2P9P44/VfORa/SWETp6AyXZkNGMnFt98HXkmkaPPUbfhKGpP/AahK79DyxNDyMkLfz1bCzSi5OSf0XPra/vTffMXKCkZ3y/NakXe1jfQPPQFOi9/iqaDp8bKq35rKSXIWHEFi09+itC1P6D9mZdRVFsCTZGznMew+Orv0XUjUoeqq/v0yfFtLtiEZ5/bhiLWD+5Tt4esTSyeitzJ4ccJnHSEH/rjL1iT/A47fuCLgatckRUiTx7kSC0cVHaM5BB5WTJxx8Gpay9iVAcjR7aeZ18jBE/dT1J+UASK7p2M75fSjSxcvP54FjU1NoUH12HNqjCOeFxrDmHn+Q50DW/EvrvL0bS6GZte34RdlxsRpLsFpdXovbAWu97cjH1vrMW67y5Gfm7kOEJLL8SSE6uw880B+1hEHY2oz8plEWzyOnmc48YvPlcxZeOd4ZOP8dhc8MVSdHIUJkYJxlEMx2paegFqDvZhy52N2PvDdRg43YqyggiO1PhPaecorxStJx7G9jc2Y/edNVi7vwqZRgSDencXvvNmP1btqkEew2+43iCar6/Bsk1NeHi4H7vf3IBtFzpQztqnLWrApptNyKutw7KLa7H73gD2XG9Cjv1im4+258PHguGjwbVoq4zUrY7amq+vQmtrJbourMWee5ux61Yv6isj/febRzY5utuBlkP9WLUiEwUH+/HwthYMjpIjrXgJBu52oYT1VytowKZXQigcncdaSjYWbQih//l12HNvE3bdXorm5mz72U9zj89NHie57StjBY7e2o96l+e/ZnVi3/AIbh1fizwXObczHXEhR4wc3R45i/WVJWg/dBsvn9uByvxeHLo9jEeqFbkIovvJ23hqxSL77UC9LVRsu4KhTVUxvy2kdZxEWc9KmNl5WJCxBHl7PkHLupZRew0oOvYlmr+zFWZmPlIK+1F29PMxcqQF/OULQi+h+8jBsTtGNtAC/age/gBFi4gc/QntT5xATnEJAhlNyHv01wgd3jWBpWuBXlQMjSdHWqAIOXs/QP2q1TCycrFAL4HZeRMtT4br1AKZsPrfQ+j0LeRX1yJgFkKvO4DS5Z3jtn+1thF0++0cNezFrWOrXY/UVJ/cFjLKU4SCdlPGyIvj22auC4Tj22jjScR4MjW2qIyW4bq2zG8xYjs41E4Vqjdtr3YpYuN2rObeVyfh8U4TceLtoLaQP71C54Mnrb4KRQXhhzWPK3L06Fsr0VIbRMWxDXjsegvyCiqx8o1+hOrD+qVHNmLb4TKYRgbS8gtQuqkRlSWRh3re3rXYcbwWWZkZMOobse6VXlRkRhYG1RZeJ4872+mV9uqnynf383hMeI0dkWJlh+PEqW/LGU65brSy0caR1+W0q2yrj3sfFXZiIEc+mCb7XqFzPPjY8Xh45yhCDoggHxi9c6QFslB+fDXWbilDVk4mFhrZyFnZhUcuLrZ3zameyZIjLZCP5msbMXi4EtlZGUgrKEXrhQ3YfrgUgdFFWq0HxuI6dJ1VxGYdNny3DsH0ME7D5GUQO4eaUV6RjdSsRah+qh97ztWOPedscvSP67D1Ygi1i/OQqmfCCGZhoYMEaIFi9NxxI0cD2HO7C/X1OUixgig/0o99J6rGyvvNI5scvdmFkiXt2HqsGV03e1Be34ytRI4CWag6tQFr12SPrlUWgnv7Mbg9shbmbl+F3S92o25JHtKsLGQ2L0bH+sKx+tUY8DHlcRofFWqBZjx68zh6zfFznOvMVFzIESdHQ1uwKGChcNMFXBissbdzNw49j0cbwgMVqN+Da0ODto6mh3Dg+gn0Zcc+iJpei6zlp1B96G00P/sZQtf/hK79W23yoOU9gcbrI8ihN+qUdPAL11Hl6rjKuQtjqZ2ju8gziByNv5CtFRxF05UbyJowAV3IkbkTix27PvbOz/AtZNtvNz0oP/87VC72/6HA6ORoX9zkKPzQv2OTDPUg5osAXxxsGVuE3NLRyjvL8LqilXUjOaqM0+ZYnk207uAIu6Tt31dvMhSuIyL3awvV7xXG+nCyydGtJmQGLGRvX42tOwugFprWWxvQ2xyeN2mtLVj//CqsebINLeuqUFCUOfa2qXYcFXnavFUd2VnQ9GL0vLIGrWWxz7lY2urWT38/Jxc5oiNbt36oPEV+FMmmkPT8+xg7OYpWP9XnDGMZG6UT7VhNS69B/zsu5OleN0rZs23S5KigAQP3elHBns1aVQu23Q2hgNkPt9VCWnklOi9kuCapAAAgAElEQVRuwO5TNTb5CZOj8XedtJJGDL7ZjZLR8jY5+nEfah3E3+kjb3K0CX2dkXmhhTqx99oSpNvPZv95ZJOjt7pRklKMnpFN2HWsEgsrm/EIO1Zb2NiOHTfDc1kzyrDiznLUjV7hUC/O3a9uwLK2yEuNs92xpm1ydOs4etkuVaxlp1tPyFEc5EgLlGLd2WHsrM9AxorjGD4QmrDr4jVACkDBA5+h9cDTyFscgq4uTS+9i+6DO8LkqPAomq/eQnZKBODjyFE0edY+NFx/BwXBSPmFrbcROnOK3TlykKOyU2i9cNFevHi7XXeObHL0LgqZ/fFl2lB25jNU1PlfptNaX0D30UPjdrjG2ZnMsRo7dhpbDOitNwoZcpInVZ4THpLT0dQE+zaBiRwr2AuQZ91qwRl/QbbvqdG3c0c7aSGht3pagJykZnx9EfJj92PCMV5ETvdE+O7GWFscfaK2UMjHyy8eCzlS5bW0LGQ2VKBusBUrr/dj47bCsd3GQE0Ltvx4I7ZdfQgDr2zE9hM1SGdzxK/+WGXULx76+3l6yFGiMUX9CeP5Mi5ejOBUyfz76CRHkbITMeeB6enCUZRjNZscvf0wGkd3L73GXZGjpigXst3k6ghp4F6Pfb2CbGtVzXjk9RAKidw4MGmTpx902tcDXMlRdQseudsRKa+O1X7UjTIH2aL6KPQmRw7y1RbCnuuNyBi15zePxshRwELO6g4saciA5iBHqg8t1/rR06he2vuw40jZ2K6QFihA54h64ZkGcuRzrEY+mKlQyFEc5EgNitlzBMOH12Hj2UsYKJ8IBq9LY1qgC+XnP0VVSxUW6oXQKwdR8t3fRshRWg/Kz32JhnUPIc3MR2rlTlSd/EPkWC2aPLAIObvvo/3xJ5CRW2h/W636zBdoWF47uhWqvq32v9C6/wAyg4sQyF2Goid+h9ZtD4+BnEDnSo4Cxcjdex8dT55CTnEpFhqFSKvcgvyGilH7mbA2fITQ94eRV1WNgFGAtKrtKNu4dRwR0kpPovXKGygoLcaCtDykFtaMbU2r+idzIZsIDB0RXXzq+NiFarUIOAkGT0cuZEd+7M6NHKndG7JPR3a0+JA9+1gqSt30tk62iJxQHyhNtil/jByNkigqz/s68f5HhAzZi6GTLI3uTJEtqpsWU/UjmNQOHhJOooXRyJGWko8lx7rRvLQIWXnh45C87Q/hscsNY/fQcnesQv/WYuQ1lWBRec4ErEZrg42plAYMDr2A509vRrFjEVNy3jeKk9/JN9zPSofGnMaFp5MFU86+UFud+W59DGMpcgmb+qd0nb7wxPRMkaNANipOrMPui60oq8hBipmF9MVVqGsf/20xLZCBqlMDGHysGGlGJtILc8ZIuI0TD7l9rDa8EQOHK5CdlYnUghK0DK23j9XUt2611EKErq1CX38JMjIysDAzH2UHV+PR0+FjszA5GsAjx+qQn5eJ1PxiNJ9fj+2Ps2O5BJMjv3nEyRHNJyc5UvlpK3qx49hitF5bg/aqyEu4OlIMProGe251omZx0D5WS19cg8491WPzmOxGC30vZEeZx9FsxysXchQnOdLSGrHr8isYeaZ/wnGUcr7XpTE1MfX2S2g8/yW6rn2G5sPnkbf8OtpHd45U2UDpPlQ//TFC175E29ErWLTxB2hnv3MUTa4ZLcin3zl6Tv3O0UNjO1vhb6t9hOr+S2g48zlCl36Dhp27YfIL4eQLlztH4b61Im/wLprOf47Oq/fRcuQmimrLI8cgqZXIWnMTDafvI3T992g/MYKiunLHA6gEWRteR/NzX6Lr6mdoOfI0Mth2tapHfZX/4jR9lZ8WAgkn/gryZH2ixiiWT1RyFLCQVluLnnOrsfNN9fswG/DIxS7UVUeOZjPXr8Due5uw751BHHh3EI+9uR5bzzWiQH2rJtZ2pDZiy9ALeOXOOazOm1husn6QclPDVMzjF2XnSNmxL2Qf6MPgKxuw9011d6cbTc25Y88mqitQ24C1Ixux794GbD9TP2HX3FOeX4q2E6uw/QebsOe1Neg/UI0sdi8mpbwa3c+utr9YsPeNfmw63ojCsWMndWF6A/qfCGHDSxux5wf92PBkLXJG7yTZ7U8wOfKbR7GSIy1NHbsNYO/F+gmkR0vNRfEjXdjw4jrs+dEm7LzRg+bm3HHPfhoDrzDaV/m1KPPYy+5k84UcxfiAnayDZ2M5LdCHiud+hiL2o2sz2Q+/H4GciV8zlkXPe9GbyV82Vr93U364A9V5YTKm7h0tyCxC563NWN41keT4YVRLacKjw0fRyb5tSvqCKe/xTtRcmEkc0Tg/qDC8c7QRy9rjw+x0tXc659F0tclpR7Uxlh+B9JvHTptTTQs5EnIUPhZLqYRZVomAnge96TJaL91EtmNHZ6pgi6e8ltWKHccem/D3ITPxP1iJWhDmgt2Z/E8sLa0SD7/5MDo78pFmpGNhei7y+tqx+dU+1LjsAHnhSx3f1W09jWd3toztpHJdwdTMk6OZxBEf6wcRd7tzNJPtmK55lNA2238fstL370OizePpbp+QIyFHYXKUO4iqE79F6PpXCJ37R5Q1xf4TBdMNSj978g/qM7+QEamb6X9TV3cZsld2oP/59fbvvuy924+Bs+2orc6K+UhNYSlQtwF7NrQjy+W+kS1PzYTqG/VTwsRibKZx5Pc8mQnZAydH0zSPZsJXfnVEm8d+ZScjE3Ik5CiuhWYyIJvuMoogqTdPOQ5J7CJGJEH5Wflb+X26xzJZ7AmmEo+l+YCjZMGztCO2e5F+fhJyJORozi54fsAX2dQfHuJD8aFgQDAwVzEg5EjIkZAjwYBgQDAgGBAMCAYYBoQcMWfMVQYs/ZK3O8GAYEAwIBgQDMSOASFHQo7kbUEwIBgQDAgGBAOCAYYBIUfMGcKqY2fV4ivxlWBAMCAYEAzMVQwIORJyJG8LggHBgGBAMCAYEAwwDAg5Ys6YDga8HMY4gKk0/7jVweVecWc5pefM80t72XXL97IzmTrJVrxlqVy0kNuNtS+8TDT7Ipc349mEgXiw7abrljeV/it70T5u9t3a4ZbHy3rJ483nNv3iXnb9ynCZKk8fnq/ik7HtLMPTPO6sazL1cXs8TrZjyXPTofLJEAo5mmZy5AQaBwCP88Hn+RSn0GnPr5wqwz9eurHa5OX9ynC9WOvnZaYS9/MTl/E6eD5vL49zfYkLQZpNGOD49ms36VGodHmcl1X5Xh8qR3JnOUqTbQqpHMkp5HLK89LlcjcdL1tOXaVHH5LxNNVDeSqkvFhCXo7ifuW4fdKnPGea2yEdlecV5/puetw+t8HLOfN5msf9yjjr5rrJEBdy5EGO1P84BV/TUb/ZdJ0E0eQ0uBwoPE5yFar8aB8/fbLh1PFKu9VFupNpI5XlodOOX528XLxxXg+PKzvONNnm+TzuJqe8RIcKT0XvGwhdMuP6s8ZEt2s221c+rftP3cZBHwzU9D+Y/7aarA9jab/Cb6wf3g6Oe68416c46VJI+RQ681U62ofKqtBNl+ROmVe+U4+neRmK81Dp+qVJxvW4fYqTHoVcn/K8Qi9dZ74zze0pmduH66i4nw2nLk9PphyVcWsX5fE6HnT8W3UtXePAMNMN+nZB+QOt36u/WtBE41cmsl3+qFKViSYnuwQIleZxkruFsepxm1TGGZJ9nk9xp4zbI5lXHsmdttzy3XTc8qhsLKEqzz+qDE9TnNuiPAq9yig5LzcTcbUQFn+oI3RZyNF0+1v5tuSXkydHWouB0IcGUtUf33q8TCUyP5b2e2E2lnyaD24h9ctNRnmko0KVx9POeLxy0qeQ7DnTlB9rSOVjDZ12qZzK53G3tFee0yalyV6sIZVzhlRe5fM46fE8Hie5W6j0+Ids8zyKU3lKU0hlSO6W5rIHFRdy5PGwS3s8/BavHkxug+Mmp8FXodeAkw7ZpHQsIZWhkOrhdVEehW66pE91kg7lu6Wd9tx0KY/sUkj2yAaFlD+VkNvicWqLm22u5xV3Kyd5s/N4LRZy4Te22goT3XOIHCnME+4ppP470858kjtDp55KK51YP27luQ2SU0j187SzLpKp0Es/mo5T7qyD0k49nlZx0vMLqQzpUJrKR0s7y6k0leFxyqOQZFTeLSRdCqmMW9opc9NReaRHIenxUMn85Fx3uuNCjlzIkXqYln1ioGyxOzGKJp/qYMZangOHyjhDAgzpUkj5KqQ8CrmMx5Wc63OZM066PN8tj8vjjTvb67TvTJN9nk82nCHpLqgzUf2+ge5vdCz9i47m2yYyCsK40AImSj82UPOEicW/NtD7jY7Q+waCFRHcaGUmWj81kNFuouZDHT1/09H7sQEzYEGVL7sfPvZR9aujn7ImVta2r6NspYnKn+ro/ZuB7n82UMh1skwU3zXQ9U3EjrJVv8WCvai/a6Dy1waW/tlAyW4DrV/r6P7IQLpuQas20PYnAzkWq7PcROtXBrJGd0y1FAuZjxto+hcdvf+lo/u+gdLlqu2RMmO+cplLfv5T5bQsC4uGDbT/m46l/66j7S0DubH6L4b223X47Bz51a8Vm2j6Rseyv4/3bd/npj1+vv1WfQtYyHlBR8cNEylqvFMsFL6to+lA2H/RxofsKzux7HypcacyKnSmY5F5laF8v1DJSM7r4vF45VzfK+7WV9J1hl5tceo507ycsz7SJR1n2qlPen4ht0Fxr5DbIR1nnTzfqe8n47o87izD0zzuVkbJvT5cX8VJz5k/E2khRy4PdK3DQOjnJtI8FoBocgIHDawzdBtYpw5P++krGelSnIdUVulQnOTOPMrnejzO6+H5zjjpkX2v0KucM98r7VYPz6N6neVJR+VzHR6nMjkjOkI3TKRZFlJKTeQ8YSCvNkwMwuRIR/d7BoJLLASCJvJf1tH7tjl2BGOTo/8w0P6hgYJuCwHTQmrRxKMzZavqj+7kqPe+gcJOCwszLQRHdCx9PVI+Y0hH52smzFwTqZ0mmv9gIJg72r4VJnr+j4HSdgvBV3Us+9hERrmJ+v+to6IzvEDnv6mjcS/1x0L6BQPtz4Tv2alF2fq+gZ7fGSjotRDItGCsMFF+KFx/uM3jiYPyYd9bkfZF81/wNQONT5swF1lYYFkwv2Og40NjbO75+U+1z6/9NIZe5EK1P1r9yoa2xUDfJHeONNNC+W901A9aML9noOMOw0aU8YnWfpJT6MSvM016KvSS+eU7ZSpNeRTyOihOem4h6VAYTYfqoTBaOdKjkOtTPN5Q2aKPKhuLbaeOX53x6DrtULv8QipD9VBI+RR65Ss52XfT9SrnLEN2yEayhUKOHORIPUizbxpjC4ZzwKLJnQPuBIozTfbjySddCnmdlEdhvPad5ci2yvf7UD1c3y1Oen71kI5fSOUppLp46BanPpBtSjtDkqesNNF8X8eSEROlB01kVUV2TcLkaPxdFq3WRPs3BnJGibW9uP9fAwWjhIXsOkM/clTLLhJr/QaW/sqEbu88WVDko/XY6E6EYaLqD/rYjqfamej5rQkjYMF8xkDHmbBe2W91VK8Y3flZZqDzU8PW0SwTdX80UMB2xqq+0lGzalTXMVecfXBL+/ovy0Tjf7uQq78ZyI3Vfz7tp/Z4kqMY6lc2pkKO7DZUmWj6SkfXJwYyMyO+jGl8RnegYtk5UnXRfKCQfOAMSe7EvTNN5Uif0hRSPoWUz0MvmVu+M88r7ZVP9ZLcGXK5knG5X5qXU3FnOZJzmVse1eEWkj6XkT3Kc0tTOZJRWpVxi1MehVyP8lTolk/tIBlPO+Nki+eTXZ7H41QmGUIhR44HvpZuov4rA0H2EOMDFU1Og8/LqMF3y3fT4XnxlvGrh2Rkk6d5nTxfxSlNIdelOJdRnEKqj4fOONnxy+c6PO5XD5f5lXHqOdOabsHoMVFw1ED9b3S0nIjsnNjHapy8tBjo+NpAFl/c2WLP28Hj3uTIQb5WGej9OEx4VPmFbQba/6+O0C8MtH1lIHTXhJ4yuhMUAzmyCd6vdFQts5C610DnSGTXR8kqvmBEyjFXePv94p7+U+Tk7waKyyOEwWnHJpc+/vNrP9nyJUdR6lc2tAEDfR957yRTPV5hygoD7fcNtH9uICc/0tdEkCPVBid+3drlpeOXr2Run2h1+tl0ts2p60yTvjNfpZ0f3i6nPtlxhqTnDLktv7hTRvbd7JHMqwyXcx0/WyTj+s64l91Y893sedXLbXIdpw2njMqpfC8Z6SQqtMnRwtTMMYaZqIq87Cbbt9VSdhnofDGyQDjbHU2u9N0GNNoAc7lX3NkWrkf18pDrO3VJz5nvTJMNr3yyQ3oUkj6FTj2e7yxD6VhCbscr7rRDes6Q9ChfSzFR9KqB0kETZnH42Cf9+waWjS6U9sL8sW4flWQUWwiUmih5V0fnTRMLZ4gcWScNNB6zkN5nIrPBGvczALEuvoHtBjrvmCj7pYHyFrZ4ByyknzPQ+88GFnVbSMmwoHebqByKjShE95+F4F0dPR+ayG20sDDdgt5lomB15OczopEjNWZe7afxVORIHb+1XzSRYlnQK8N+UvnR6lc2tFYTof8wUNRiYaFhIa3Osu8QjdnPslDzpY7ud8I7epRvly0x0fCFgeI6C8ZBA6GfGjDSYievtg2P9vN6KE7YpZDynaGXfLL5VI5CXh/P84qTPperPGc6Vj0q5wypPIVOuVea9CkkPZVWceeH9EhOaV6O8pw6lE+60ULS53aoDMmcacrnZXieX76bjNvncW6T56u4M811Ke7Uo/yZCL9V8D9qHxgxUh1MJnKkHpbq69SV3ZEFgg9CNDnp8kFXeZSmkPR4yGVeca7P7XrFnXZUOpaPsx6y71fWWYbXTTK3PJJNNuQ2qX1ki8soT4WUz0MqS6HSU+Od0m6i6u3whedl3+jo+JmJglECQeSo8XkDLV/q6P2rgeYRA1ZWBD+xLO7hurzuHPnvHBmHDPuS99L/1tEHHXYbf2wgMzt8ITvqsZrqp26h+gsdvS73arQ0C9nHDTR/ri6E6+j+xECJOpIbJX/cr854NP/Z/VYXsq8YaP9Kx1LbvwZK2IXvWPzn135q08IOE0s+N7D0v3SE7kV23uwL2T71221UF6ufNdD+tY6l/xnGQCb7iQ8ty0TtHwx0/yRi1y6nmyj9SEfDjlEyFLCQO6Kj/bKJgDoWjWFnL1r7Sc5x65fHZRTnIc0JnqfiZN8tJDkPeXlu0ytO+l72SU4ht6PyJpOOtwzV7awvHjtK1+tD9klOaWd9bmme52wPt+MW99L3yud1kT2uy+MkdytDeV76vOyDiMuPQLKjAnVfpO2+AcvjwR9N7hxANejOgXfmUTqW0M2+ynPWQXk8n8eddnjaS88rn+riNtzyVHk/G87ysaa5TR6n8s48laaPnw7J/EIiRzWrI2TIT3+6Zar+4A0D+WpXa5TMLci1UPFbHXXrH0ybpruPYs//5xOcWHbzl5uOyvPSnWy+sx5KxxJSnc52uaWdeaosz1NxvzTVxUPS9wq5rrM+p4ynyR7lOdPR8pWcyniFXIfbU/puH9KhkOzyNJWjPB46ZW7lub6K8zIU5+Uoz1nuQaaFHDFylD5koOWI96ISTf4gB1Lq9l9EEuGfMDkav7OTiHq8bGq6icXf6KhYa9nHRQuyLKRvDX8Vf9EoYfIqK/kzjxfxufhcMDB7MCDkiJEjAe7sAW4yjNUDJ0fqW2g7TTT9S/horfdrA20/MrCo1ZvgJ4PfpA0yzwQDgoFkx4CQIyFHrtvryQ5caZ88XAUDggHBgGAgURgQciTkSMiRYEAwIBgQDAgGBAMMA0KOmDMSxUDFrrzdCAYEA4IBwYBgYPZgQMiRkCN5WxAMCAYEA4IBwYBggGFAyBFzhrD62cPqZaxkrAQDggHBgGAgURgQciTkSN4WBAOCAcGAYEAwIBhgGBByxJyRKAYqduXtRjAgGBAMCAYEA7MHA0KOhBzJ24JgQDAgGBAMCAYEAwwDQo6YM2aC1WumieC20f9WYvGZqFvqmD1vLV5jJfiZ2hiK//z9J/7x94/XvJT8uec3IUce5Ej9aWbwNR31myP/EM4nQDQ516U4lVlyOPyv7co+xUmHQtJV9at46Sc6mg5N/OXjzCs6ep4PtzH92Yn/pdP3cxOp6k8uAxYK3tXt/7jp+28dPf9LR+N1Eyb7A02q2y1U5Yt/Hi5P/4Ojwq5r4brVr0XX/IeOjrPh9iob2mYDy34aJoJ2epWBXoy30fc3A7ku/2XH++9sj5IVvW8gdMmM6Q9QneVjSbvVr/6uo/JzHV0/MJHG4y7tj6WOeHWoTYQZjp+p/lq3sl33n6P4wMS/RIkmj6Uvyey/WNpPOsoXicDfbPIPYVGeTxPXh0Thg/CnQu7/cNpE6ccT5y0v4xdX9hI9//3q57JE+S/e+fWtNOvbD3Qr7dsF5Q+0fj4oPK4FTTR+ZSLbgzxEk3NbFNeqTbS9ZyJFkRUWJzkPuX0Flry7OjrOjydHlN92LJyvyFHXjfE6ZFPpKnLUsNOClmohUGmh4p90ND/hrk/l3MLgHR2tT41/KNjk6C86er8yEBz9V3pXcnTfgBkDmeD9d7ZB9aX4Qx2hywkkRy7jb0+uL3Qs+38G8i0TlRT3wIiz3ZRO6zeR3xy/3zlmeFzZnSo5orYp35b80vshG01OdtzCZPafW3u98hKFv+nyj1e7o+VzTPG4Wzk+P5U/5PkU2TlJFD74OHD/q/zZMP95+/3iifJfvPPrW3UtXViYmvnACEqykqO0x8M7E2qg3AYymtytjLbCRPf/09H9sokAj7vU4bRvPWug96XwrkzGUQO1e8Lx4o901A+E2xgrOaK2mc8Y6PYgU6TjFnqSo383UHPLQNvx0d0kt52jGMmRs/9u7Uhknlf9aoLV/YuBTEVwWTyetqRf0FG/xR1Xfnb88BN+OOqoXRO/XV6nwnuiyJGqh/uMx3kbosUT4b9odc6UnPuEx2eifj98Oet3zg95PkXIkdNXiUg7/T9b5n8ifBGPTT6neNzNhk2O3AQzlZeM5EgtEGWfGChb7L7QRJN7+U7LNlH9rzq6XjIR4HEHOXKzv/BRA32jR1QVn+tY9rPwcVnFlzrKW+IjR2rnKKXeRPWnBmrWuvfRqw8q35Mc/YeOwg4TrX80kJNuuR+rxUCO3PqvJn/Z/ciRXB8MlDU52l5novp9A93f6Fj6Fx3Nt01kFIR1xt6snjCx+NcGer/REXrfQLDCYWN0y9pt/LU0CznXDTQ9boHH/XzlJpv04s4xw+P2sanaVtdRvcNExXs6ev9moPufDRQyH2lZFhYNG2j/Nx1L/11H21sGch39V76fNDkqtlB210DoLwZ6/k1H42UThhXxL/cZj7v5yC8vEf7zq0/JZgJ/3Cc8Hq1t1L6qP0bmBx19970V++6qPJ8M9M7S5xORo2Se/344Tsb5JeTI5c6R1mEg9HMTaQ7SQoMbTU56kw3d7GvdJro+N2GWG2j9yEDj1waClon6v+lYNHqM5bxzpAhEcRmRg8idI/Xg7IOO0D+ayMgluYlYH67e5MhAcamF4CsGWr5rQdsU/c6R2w6KW/+5L9VEqvrjRHKUM6IjdMNEmmUhpdREzhMG8moj/VPkofs9A8ElFgJBE/kv6+h9O0wyx9n3GH/1phHcYYWPRVmcl/WKh9s8tcXLy7bKp4ejergXdlpYmGkhOKJj6evhxVHJg68ZaHzahLnIwgLLgvkdAx0fGuNwPllyFC6no/2GCStoIqXCQtn7OjqvW1g4Oo+S2X9+vnXKEoW/qfjH2cZEpt3mpzyfIjtHicIHjamr/wPhl6Nknv/U/mhhovwX7/wScuQgR+ohn33TQOPeyBsvH8xocq47mbiXfS3fRPM3BvJ2GQhdNVH4Ux3Vm000/9lE1ujiE+uxmqpjYZ6FrKcMdP3WjOkOEO+LLzkqs6A1GGj/g4ms9SZ6nReyo7yZefWf1+81eVJWmmi+r2PJiInSgyayqsIX0VVZVcZ5YVGrNdH+jYEcRoJjqZ+3ZTLxye58+NUV7p+O2v4IbrV+A0t/ZUJXO0tZJhr/24WcOS7Eq/5PZudIqzDQ9jcDQXb/SmsxEPo6fATp1/Z4ZYnwXzxtSCT+4mkH1w23yWV849g54va84l7zQ55P0clRIp9Pc2n+J8v8EnLkJEfpJurVpeLMyCLDHxRaFDnXnUzcy74CTO1fDNS9HL6vYp0z0PqSgY7Rb6OpumIlR9QuxaQb/m6gMMe9r6TnDKOSo4CF/B8aaLhhoCtechSDf70mj2qnplswekwUHDVQ/xsdLSciOycTyFGLgY6vjTFyaZePoX6nP+JNJ2JxDz8cx1+k1tS3Az82YRA5+ruB4nL/sZ4SOfovBzlqnujfeH3lpp8I/7nV45WXSPx51Zks+fJ88l8f1DglEh9+/p/wfJul8z+R/otnHgk5cpCjlF0GOl/0PqePJo/H+W66XvbDi5aOrj/rKCq2sKDfQPcfdXS+HPnWWKzkSNlauMhE9hkdPb8zYLGdE7c2OfOikSNbv81Ex1919MRJjrz6z9vgNnm0FBNFrxooHTRhKv9YFtK/b2DZR+HjUVVGHat13DGRUWwhUGqi5F0dnTfDP6tA9mOpn3QnG6b1G8hnd4Ema4eXC/fPhxypn6a4q6PnQxO5jRYWplvQu0wUrI7gR9lT2Mh/U0f7RRMplgW90hr3cwleclV/ya91tKmfhwhaCJSbKH0vfMxJx2q8vVOJJ8J/1B51L6vmSx3d74R33Cifh4nEH68nGeNe80OeT/47R4l+Ps2W+T+b5peQI0aO1ARXXxGv7HZ/u44mn+rDzM++kgVf1dH3Pw2kq52AHBONf9fRfjKyuDnvHNl3i/5oIMO+sBu5c6TuGy39q462H5nIq3fvq7Mvdtui/s6R447TO/rYJXJlz97J8DlW8+s/b4/r4hSwkNJuouptA13f6Fj2ja0adcMAABaTSURBVI6On5koGL2sHn546Gh83kDLlzp6/2qgecSANXpfy25flPHnbUi2eLSHo90/dSH7ioH2r3Qstf1joGR55OiR+rSww8SSzw0s/S8doXvhnSeSqdBTXmqi7HUDnX/V0at+R+uKCTM9Nnxx+w8yro4fa/9goPsnE/tN7UoU/sh+soZ+81OeT1HIUYKfT7Nl/s+m+SXkiJOjWhNt9713UtQdFT/5VB9qibY/1fYlunys/VcPguqvDZTWxb7whh8eOmpWe5eJtf5E+0HsRxaaZPRFovCXjH3lbZrv8yPW/icKH7HWz8dsNsYT5b94fSG/kM3IUfqQgZYj3otnNHm8znfqJ9q+s75kS/v1X/38gNlmIWBZMNaHvy6eY3iPlbNvYXI0/tjJqeNXv1NX0slNYKZ7fGYCf9Pd5um2N9/nh1//ZwIffvVP91jPtL2Z8F+8fRJyxMhRvM4T/ZlbILVSE7Wf6Oj9/3T0fmmgcl3sxEiNUyzkSMZz5sZztvla8CfY8MOs4GNq+EhG/wk5EnLk+gvgfg8CkU3tQSD+E/8JBgQDgoHkxoCQIyFHQo4EA4IBwYBgQDAgGGAYEHLEnCFMPrmZvIyPjI9gQDAgGBAMzAQGhBwJOZK3BcGAYEAwIBgQDAgGGAaEHDFnzAQblTrkrUcwIBgQDAgGBAPJjQEhR0KO5G1BMCAYEAwIBgQDggGGASFHzBnC5JObycv4yPgIBgQDggHBwExgQMiRkCN5WxAMCAYEA4IBwYBggGFAyBFzxkywUaljZt56tKw27Di2D01WfD8WOavHp3QATx5+CPlp86jPMn9lQRMMCAYSgAEhRwlw6gNZYBuvI3T6GRiByMKo6QOovXYPBdmRPNU2LVCDgu99jtaBZeP+cX0q7dYCq1B5+U9oXt9q/7O7XU/rbXQ98RgCrE1TqSPWslpqJfpPX8LBUPG4/mmBPDRe3IjtB0vB43ZbA0E0X9+MZaHxvoq5zkA5lr81iIM/2YID7060o0WRx1IPbzOPU1ktkIOqLWcxtLsV+gz7nNog4cyQf/Gz+FkwkFgMCDmaZeRIK/0+Wp88iBTH4qelbUTN1fdQGGSL+5JhhJ5+AmlO3UAtCp78V7QO9o0jD1OZbDY5uvQFQudHkGuG26A9IHKUv/YMLu1tn0AQFHlovDKInYcVOYrEVb+1KZIj8p0WyEXztYnkKFY56bmFvM08znW1lAqsO3sZ22sz5G1yls1tPo4ST+zCJ/4V/0bDgJCjWfYA1eqeQ4cbOQoEETzwe9QvLR5bFDMGf4Om/iVj6WhgmIo8vHP0Oiq3f4ymNQ12nQ+CHGmBWmy9dB5r8xlJHB1jLZCO6pMDGNieBx5X/Q6To01Y1jGxXDx+SSw58m4/b2Nq6AlcP9QzgUDb/bRC2Ht1BDePrUHQQZq5DYnL4iEYEAzMZwwIOaKFs+Ex3Di2D9vPvYB/uHkC/X3bcObWCG6eGkB5mgWtYBPO3TyIRj2yeGr563FmeD/qUiN5vmAq3IqK7/0T2q98ha5Lv0LDjgNIz4q84WtWK/K2voHmoS/QeflTNB08hZy8zDDRyHkMi6/+Hl03/oyeW1+PfbpPn4Q5usgFel5HaP9WLAxY0AJNKDn5S5SUhtumBRpRcjJStvvmL1BSMr7dXvVrgUoUPf0FqpZkQAtkIn35MMo66ux2pfT9I9q3rUSYHL2JReWH0Th0HdmGhQnkKG8Nina9iZbnfo+uK/fRtP8JpI/eCdLqLqL98YsoO/Y5Oi+8gaLuE2h87vdoP3oU1ugdGq/2cZ+rcXr2uW0o8lj4Cw+uw5pVYZ/yeJgcrUPvQ5XoHFqLPfc2Y9etXtRXRh6QWnoBag72Ycudjdj7w3UYON2KsoKIXLVjSuQorxStJx7G9jc2Y/edNVi7vwqZxvgx4m3m8XE+MFbg6K39qHfxgWZ1Yt/wCG4dX4s8Fzm3I/HxYyv+EH8IBuYPBoQcMXJ0e+Qs1leWoP3Qbbx8bgcq83tx6PYwHqlWZCOI7idv46kVi8JkJZCOim1XMLSpyk7HMmmyd36B1m1rkKpnI5DbiuyHjiK3IEyOtEARcvZ+gPpVq2Fk5WKBXgKz8yZanjyIVLaIaW0j6HbZOVL1a1mPoeHSDWSlWtCCh9F4/jwsVpbaqAV6UTE0nhxFqz998GM09zdDC3Sh/Nh9tD+xHymBdGTv+hx1nWonRt05egcFuUHk7L6PJStqoLXcGnfnKK3jJMp6VsLMzsOCjCXI2/MJWta1hP1ZdxEd195GUXk1cvZ8hq7jJ5Ee3ISai79BaaXyf4z+adiLW8dWTzhSo76n1VehqCBMOHg8TI4GsOd2F+rrc5BiBVF+pB/7TlSNks0slB9fjbVbypCVk4mFRjZyVnbhkYuLx/l4suRIC+Sj+dpGDB6uRHZWBtIKStF6YQO2Hy4dd2eLt5nHqX82DgLNePTmcfSOHm9ymcTnz8NdxlrGWjAweQwIOeLkaGgLFgUsFG66gAuDNdACFdg49DwebQgvpoH6Pbg2NGjraHoIB66fQJ/jsrMfGFPqT6Lh5E9Rt/McipZtRmZ+fuTysrkTix27QmqHqHv4FrIZwfElR/YOz6cor7IQ6LmL9m0Pjdnn7XIlR9Hqb30BnYd3IZD/PTQevIjK0y8iJ7UZJafeR/EiRV4UOXrXvvOkFT2F5mcvIrNpGCF2IVvTa5G1/BSqD72N5mc/Q+j6n9C1f6t970ntHHV8/2mb1Bj9H6JlnbrYvRjF3/8dKuosaNHaNzaO+3zJEfcDj9OxWl9nZKdGC3Vi77UlSFc7cek16H8nfOFaXbqmz4F73Sjl4zPJO0daQQMG7vWign3TTKtqwba7IRQw+7zNXnFNkaNbx9Hr2HXy0pf8yT9AxXfiO8HA3MSAkKOxRfUx3I5CjrRAKdadHcbO+gxkrDiO4QMh13sdfpNFSyuEXrUe+Q+fQc2JX2PJ2s4wObAX/zC58C3f+gK6jx4at5vE9fX+99Hc34Kc3b9B1ZLw8RGXq7g3OfKuX8s+gIbnLiOn9y6a1rQguP9jlC/ZicVDF5FpH+MxchQoQHD/fdRtu4H2UXKkdn6CBz5D64Gnkbc4BD23CKlL76L74I44yJF3+6iP0Y7VSM8ZhsnR+IvUWlsIe643IoPI0dsPo3F018lZntJq56gpyoVsN3mYHPXYR7hjtqqa8cjrIRTGS458jtXItoRz84Eu4yrjKhiYHgwIOYqDHCnQmT1HMHx4HTaevYSB8omDoHlceNVSGlGw5xaK2npg5OTbx2ZW/z10jRIdLVCM3L330fHkKeQUl2KhUYi0yi3Ib6gYd2ynlZ5E65U3UFBajAVpeUgtrBl37KKVnEDLUy+h7vQLyGG7EHzCuJKjKPVrgXaUnX0Hiw9/ZO9MpS5/C42HXkPrwW1hcsN2juy6yk6h5dLnYztH9nHc+U9R1VKFhXoh9MpBlHz3t7GToyjto/75XcgmHbcwKjkKZKPixDrsvtiKsoocpJhZSF9chbr23PHjE8hA1akBDD5WjDQjE+mFObZ/qE7NQ24fqw1vxMDhCmRnZSK1oAQtQ+vtYzXnNxPJllfoeyE7pQGDQy/g+dObUZwS2SXzsiX5E+e4+ER8IhiY+xgQchQnOdLSGrHr8isYeaYfWS5v9F4XXtW3o1LKd6Hi8M/QfvUrdF35DC1HhpFfGhxbXO0Lx4N30XT+c3RevY+WIzdRVFs+7mhMC5Qga8PraH7uS3RdVTaeRgYjQVqgE2Xn/oyug9vsuzJuk9iNHCk9v/rVReycR/8VXVfVcZoFregYmq//GxpX1YTvDDnIkSJ7+Y//Ht1jO0cZ0NsvofH8l+i69hmaD59H3vLraI9x5yha+3g/1Vf5L7p8lZ/rOOPRyJFdv7qQfaAPg69swN4312HrxW40NeeOGx+lF6htwNqRjdh3bwO2n6m3d9Z4fZ7y/FK0nViF7T/YhD2vrUH/gWpkxXlvKNpX+bXURmwZegGv3DmH1XlCjvi4SHzuL3gyxjLGsWJAyNEoOYrVYaKX/JPL60cg5/rYqd8+iuVHILWUJjw6fBSd7JuXc9030r/kn7cyRjJGyYQBIUdCjsZ2rpIJmFNti5bVih3HHov570PW7TiGZP7E5A/770NW+v59iJaSj7qtp/Hszpa478vF1AaZT3NyPsnYC3GZbxgQciQPc3mYzyMMBOo2YM+GdmTJfSPB/TzC/Xxb2KW/UyezQo7kASGLhGBAMCAYEAwIBgQDDANCjpgzhG1PnW2LD8WHggHBgGBAMDDbMSDkSMiRvC0IBgQDggHBgGBAMMAwIOSIOWO2M11pv7ytCQYEA4IBwYBgYOoYEHIk5EjeFgQDggHBgGBAMCAYYBgQcsScIWx76mxbfCg+FAwIBgQDgoHZjgEhR0KO5G1BMCAYEAwIBgQDggGGASFHzBmznelK++VtTTAgGBAMCAYEA1PHgJAjIUfytiAYEAwIBgQDggHBAMOAkCPmDGHbU2fb4kPxoWBAMCAYEAzMdgwIOZpmcqRlfA+vL96FrID84/lsnxzSfnnACwYEA4KB+YkBIUfTTY6yT+KdOUyONCuEvVdHcPPYGgSFAMo29DTPH1mI5udCJOMu455sGBByxB7umrEHLzYdQl3Gdjzd8GP8JPQb/HTJIVSMkgAtrRFrK57HndZf4IP29/BS7VH0GJn2AqkZ38G1jl/jo9A/45dd98c+v2h+0i6vBdbhfOdL2KRHdpQqSt/CvfLusQXWr34tUIXvNP4Au7PX4vHFb+O90K/x48Zr2JAerj8asLSGx3Dj2D5sP/cC/uHmCfT3bcOZWyO4eWoA5WkWtIJNOHfzIBpZ+7T89TgzvB91qZE2a1Yn9g2P4NbxtcgTcjQ2dtH8L3J5+AsGBAOCgdmDASFHTnLU8T5eaziF/swqmCm5yNELEAhY0AIFWFbzQ1wuWo5SPRcpKcWoyLuAu4t3jSMJWvAKfuGycxQzOfKsX5GjT/HTpgtYn1kCPbUSy6rewc9q1iMlBpKiyNHtkbNYX1mC9kO38fK5HajM78Wh28N4pFr1L4juJ2/jqRWLwmQvkI6KbVcwtKlKCADDiDzcZs/DTcZKxkowIBiYLAaEHLGFz965CT2P/rTITgk5VksdxJXO8btCaofoF6EL6GbkZMrkyKt+e+fo1ziREwG7lvMsPliyH/msfmqvM7TJ0dAWLApYKNx0ARcGa6AFKrBx6Hk82hDub6B+D64NDdo6mh7Cgesn0Jc90RdO25KOjIn4QnwhGBAMCAZmPwaEHE0gR8+hx4Vs2OQodBdbTX+yoAUv4Z8a9iDHYUML9OPZzlcxaETKV5fdm3isFvKof5QcHc+NlNdyzuC9xoModNTlNjFjIUdaoBTrzg5jZ30GMlYcx/CBUEy7Um71Sd7sfzjIGMoYCgYEA/MVA0KOYiVHgUIsr/4AP1l8BD3p6lhrERZlrkd/Ttm4Yyct/Un8oOMFDGYUIjUliKBVCcs+lmvD4ZZf4WpRI9JT8lEafBo32z5OKnKkJoHZcwTDh9dh49lLGCif+GDQUhowOPQCnj+9GcUpEaI2XyeQ9HsiRsQn4hPBgGBgtmNAyFGM5EgNtLqQvab8Fl5u/Tk+6PgAdxdfwLbsUixgOzdaoBgdpbfxWtuv8LOOn+Hu4sNYMkoi8nNP4fnWX+BnHR9gpGoHahcN4y3nhewHuHNEfdx1+RWMPNPv+nMEWmojtgy9gFfunMPqPCFHs/0BIO2XRUwwIBgQDEzEgJAjRo4EIBMB4uYTLaUJjw4fRSf7ZpubnuTF5k/xk/hJMCAYEAwkFwaEHAk5GncsGG2Cain5qNt6Gs/ubJH7SIKduLATDVsiT67FQcZDxmM+Y0DIkSxwcS1wgboN2LOhHVly3yguv83nh4z0XRZZwYBgYLZhQMiRkCNZ5AUDggHBgGBAMCAYYBgQcsScMduYrbRX3sYEA4IBwYBgQDAw/RgQciTkSN4WBAOCAcGAYEAwIBhgGHjg5EgY7/QzXvGp+FQwIBgQDAgGBAOTx4CQI8YUBUiTB5L4TnwnGBAMCAYEA3MFA0KOhBzJVqpgQDAgGBAMCAYEAwwDQo6YM+YK45V+yNubYEAwIBgQDAgGJo8BIUdCjuRtQTAgGBAMCAYEA4IBhgEhR8wZwrInz7LFd+I7wYBgQDAgGJgrGEgacqQFcrD82B288tKLuHb2AEL58qemcwVk0g95YAoGBAOCAcHAbMLAt9KsbyfNVpoWSMdCqxRdh6/jmTWFSdOu2TSg0lZ5AAkGBAOCAcGAYGBqGPhWXUsXFqZmJhURye0/g2dWCzkScE8N3OI/8Z9gQDAgGBAMTAYDNjmaTMFElincNISnVuQmFWFLZH/FtkxewYBgQDAgGBAMJA8GkpIcBfvP4MqBPhRkZmFhQO4eyYRJngkjYyFjIRgQDAgG5j4GkpIcadk92HdpBHfu3MTOeiFHMhHn/kSUMZYxFgwIBgQDyYOBpCRHwf6zuHqwD0XZOQjIzpEcL8rPLQgGBAOCAcGAYGAGMZCU5Mi+c7Q8R4Awg0CQN5bkeWORsZCxEAwIBgQDDxYDSUmO7G+rrSkSciTkSDAgGBAMCAYEA4KBGcdAUpGjyO8c3cAzQo5mHAzypvJg31TE/+J/wYBgQDCQHBhI0l/IPii/kC1vCkIOBQOCAcGAYEAw8EAwkDTkSNhycrBlGQcZB8GAYEAwIBiY7xgQciSs/IGw8vk+8aT/svgIBgQDgoHkxYCQIyFHQo4EA4IBwYBgQDAgGGAYEHLEnCEsPnlZvIyNjI1gQDAgGBAMzBQGhBwJOZK3BcGAYEAwIBgQDAgGGAaEHDFnzBQjlXrk7UcwIBgQDAgGBAPJiwEhR0KO5G1BMCAYEAwIBgQDggGGASFHzBnC4pOXxcvYyNgIBgQDggHBwExhQMiRkCN5WxAMCAYEA4IBwYBggGFAyBFzxkwxUqlH3n4EA4IBwYBgQDCQvBgYI0daIAfLj93BKy+9iGtnD8jfdwhpkrcIwYBgQDAgGBAMzEsMjJEjxWAjf/x6Hc+sKZyXDhEmn7xMXsZGxkYwIBgQDAgGZgID48gRVZjbfwbPrBZyRP6QUCajYEAwIBgQDAgG5g8GXMlR4aYhPLUiV3aOZDtVMCAYEAwIBgQDgoF5hwFXchTsP4MrB/pQkJmFhQFr3jlF3g7mz9uBjLWMtWBAMCAYEAw4MeBKjrTsHuy7NII7d25iZ72QI6fTJC0TSTAgGBAMCAYEA3MXA67kKNh/FlcP9qEoOwcB2TmSnTPZUhYMCAYEA4IBwcA8woArObLvHC3PESDMIyDIG9DcfQOSsZWxFQwIBgQD8WHAlRzZ31ZbUyTkSMiRYEAwIBgQDAgGBAPzDgPjyFHkd45u4BkhR/MODPJmEd+bhfhL/CUYEAwIBuYmBsbI0fhfyD4ov5AtbwpCDgUDggHBgGBAMDAvMTBGjoT9zk32K+Mq4yoYEAwIBgQDgoH4MCDkSN4K5uVbgTwo4ntQiL/EX4IBwcB8woCQIyFHQo4EA4IBwYBgQDAgGGAYEHLEnDGfWLH0Vd4CBQOCAcGAYEAw4I4BIUdCjuRtQTAgGBAMCAYEA4IBhgEhR8wZwqDdGbT4RfwiGBAMCAYEA/MJA0KOhBzJ24JgQDAgGBAMCAYEAwwDQo6YM+YTK5a+ylugYEAwIBgQDAgG3DEg5EjIkbwtCAYEA4IBwYBgQDDAMPD/Azgv0+EjivJ8AAAAAElFTkSuQmCC;" parent="5mr8kqb3Nry0wDjkXf5w-1" vertex="1">
                    <mxGeometry x="490" y="-30" width="583" height="317" as="geometry"/>
                </mxCell>
            </root>
        </mxGraphModel>
    </diagram>
    <diagram id="G8eXiWYkImRgTHK2uPkp" name="第 3 页">
        <mxGraphModel dx="1236" dy="518" grid="1" gridSize="10" guides="1" tooltips="1" connect="1" arrows="1" fold="1" page="1" pageScale="1" pageWidth="827" pageHeight="1169" math="0" shadow="0">
            <root>
                <mxCell id="IJHI46-00uATuvEDK32k-0"/>
                <mxCell id="IJHI46-00uATuvEDK32k-1" parent="IJHI46-00uATuvEDK32k-0"/>
                <mxCell id="IJHI46-00uATuvEDK32k-31" value="" style="group;strokeWidth=3;" parent="IJHI46-00uATuvEDK32k-1" vertex="1" connectable="0">
                    <mxGeometry x="9" y="40" width="810" height="410" as="geometry"/>
                </mxCell>
                <mxCell id="IJHI46-00uATuvEDK32k-8" value="" style="group;fillColor=#0050ef;strokeColor=#001DBC;fontColor=#ffffff;" parent="IJHI46-00uATuvEDK32k-31" vertex="1" connectable="0">
                    <mxGeometry width="130" height="220" as="geometry"/>
                </mxCell>
                <mxCell id="IJHI46-00uATuvEDK32k-2" value="拦截器&lt;br&gt;Interceptor&lt;br&gt;&lt;br&gt;&lt;br&gt;&lt;br&gt;&lt;br&gt;&lt;br&gt;&lt;br&gt;&lt;br&gt;&lt;br&gt;&lt;br&gt;&lt;br&gt;&lt;br&gt;&lt;br&gt;" style="rounded=0;whiteSpace=wrap;html=1;" parent="IJHI46-00uATuvEDK32k-8" vertex="1">
                    <mxGeometry width="130" height="220" as="geometry"/>
                </mxCell>
                <mxCell id="IJHI46-00uATuvEDK32k-3" value="afterCompletion()" style="rounded=1;whiteSpace=wrap;html=1;fillColor=#1ba1e2;strokeColor=#006EAF;fontColor=#ffffff;" parent="IJHI46-00uATuvEDK32k-8" vertex="1">
                    <mxGeometry x="10" y="50" width="110" height="40" as="geometry"/>
                </mxCell>
                <mxCell id="IJHI46-00uATuvEDK32k-6" value="postHandler()" style="rounded=1;whiteSpace=wrap;html=1;fillColor=#008a00;strokeColor=#005700;fontColor=#ffffff;" parent="IJHI46-00uATuvEDK32k-8" vertex="1">
                    <mxGeometry x="10" y="110" width="110" height="40" as="geometry"/>
                </mxCell>
                <mxCell id="IJHI46-00uATuvEDK32k-7" value="preHandler()" style="rounded=1;whiteSpace=wrap;html=1;fillColor=#60a917;strokeColor=#2D7600;fontColor=#ffffff;" parent="IJHI46-00uATuvEDK32k-8" vertex="1">
                    <mxGeometry x="10" y="170" width="110" height="40" as="geometry"/>
                </mxCell>
                <mxCell id="IJHI46-00uATuvEDK32k-9" value="" style="group;fillColor=#1ba1e2;strokeColor=#006EAF;fontColor=#ffffff;" parent="IJHI46-00uATuvEDK32k-31" vertex="1" connectable="0">
                    <mxGeometry x="330" width="130" height="220" as="geometry"/>
                </mxCell>
                <mxCell id="IJHI46-00uATuvEDK32k-10" value="拦截器&lt;br&gt;Interceptor&lt;br&gt;&lt;br&gt;&lt;br&gt;&lt;br&gt;&lt;br&gt;&lt;br&gt;&lt;br&gt;&lt;br&gt;&lt;br&gt;&lt;br&gt;&lt;br&gt;&lt;br&gt;&lt;br&gt;" style="rounded=0;whiteSpace=wrap;html=1;" parent="IJHI46-00uATuvEDK32k-9" vertex="1">
                    <mxGeometry width="130" height="220" as="geometry"/>
                </mxCell>
                <mxCell id="IJHI46-00uATuvEDK32k-11" value="afterCompletion()" style="rounded=1;whiteSpace=wrap;html=1;fillColor=#1ba1e2;strokeColor=#006EAF;fontColor=#ffffff;" parent="IJHI46-00uATuvEDK32k-9" vertex="1">
                    <mxGeometry x="10" y="50" width="110" height="40" as="geometry"/>
                </mxCell>
                <mxCell id="IJHI46-00uATuvEDK32k-12" value="postHandler()" style="rounded=1;whiteSpace=wrap;html=1;fillColor=#008a00;strokeColor=#005700;fontColor=#ffffff;" parent="IJHI46-00uATuvEDK32k-9" vertex="1">
                    <mxGeometry x="10" y="110" width="110" height="40" as="geometry"/>
                </mxCell>
                <mxCell id="IJHI46-00uATuvEDK32k-13" value="preHandler()" style="rounded=1;whiteSpace=wrap;html=1;fillColor=#60a917;strokeColor=#2D7600;fontColor=#ffffff;" parent="IJHI46-00uATuvEDK32k-9" vertex="1">
                    <mxGeometry x="10" y="170" width="110" height="40" as="geometry"/>
                </mxCell>
                <mxCell id="IJHI46-00uATuvEDK32k-14" value="" style="group" parent="IJHI46-00uATuvEDK32k-31" vertex="1" connectable="0">
                    <mxGeometry x="670" width="130" height="220" as="geometry"/>
                </mxCell>
                <mxCell id="IJHI46-00uATuvEDK32k-15" value="拦截器&lt;br&gt;Interceptor&lt;br&gt;&lt;br&gt;&lt;br&gt;&lt;br&gt;&lt;br&gt;&lt;br&gt;&lt;br&gt;&lt;br&gt;&lt;br&gt;&lt;br&gt;&lt;br&gt;&lt;br&gt;&lt;br&gt;" style="rounded=0;whiteSpace=wrap;html=1;" parent="IJHI46-00uATuvEDK32k-14" vertex="1">
                    <mxGeometry width="130" height="220" as="geometry"/>
                </mxCell>
                <mxCell id="IJHI46-00uATuvEDK32k-16" value="afterCompletion()" style="rounded=1;whiteSpace=wrap;html=1;fillColor=#1ba1e2;strokeColor=#006EAF;fontColor=#ffffff;" parent="IJHI46-00uATuvEDK32k-14" vertex="1">
                    <mxGeometry x="10" y="50" width="110" height="40" as="geometry"/>
                </mxCell>
                <mxCell id="IJHI46-00uATuvEDK32k-17" value="postHandler()" style="rounded=1;whiteSpace=wrap;html=1;fillColor=#008a00;strokeColor=#005700;fontColor=#ffffff;" parent="IJHI46-00uATuvEDK32k-14" vertex="1">
                    <mxGeometry x="10" y="110" width="110" height="40" as="geometry"/>
                </mxCell>
                <mxCell id="IJHI46-00uATuvEDK32k-18" value="preHandler()" style="rounded=1;whiteSpace=wrap;html=1;fillColor=#60a917;strokeColor=#2D7600;fontColor=#ffffff;" parent="IJHI46-00uATuvEDK32k-14" vertex="1">
                    <mxGeometry x="10" y="170" width="110" height="40" as="geometry"/>
                </mxCell>
                <mxCell id="IJHI46-00uATuvEDK32k-19" value="客户端" style="shape=umlActor;verticalLabelPosition=bottom;verticalAlign=top;html=1;outlineConnect=0;strokeWidth=3;" parent="IJHI46-00uATuvEDK32k-31" vertex="1">
                    <mxGeometry x="380" y="320" width="30" height="60" as="geometry"/>
                </mxCell>
                <mxCell id="IJHI46-00uATuvEDK32k-21" value="1.发送请求" style="text;html=1;align=center;verticalAlign=middle;resizable=0;points=[];autosize=1;strokeColor=none;" parent="IJHI46-00uATuvEDK32k-31" vertex="1">
                    <mxGeometry x="273" y="290" width="70" height="20" as="geometry"/>
                </mxCell>
                <mxCell id="IJHI46-00uATuvEDK32k-22" value="Controller&lt;br&gt;控制器" style="ellipse;whiteSpace=wrap;html=1;fillColor=#e3c800;strokeColor=#B09500;fontColor=#000000;" parent="IJHI46-00uATuvEDK32k-31" vertex="1">
                    <mxGeometry x="190" y="105" width="80" height="50" as="geometry"/>
                </mxCell>
                <mxCell id="IJHI46-00uATuvEDK32k-23" value="" style="endArrow=classic;html=1;exitX=1;exitY=0.5;exitDx=0;exitDy=0;entryX=0.5;entryY=1;entryDx=0;entryDy=0;strokeColor=#33FFFF;strokeWidth=2;" parent="IJHI46-00uATuvEDK32k-31" source="IJHI46-00uATuvEDK32k-7" target="IJHI46-00uATuvEDK32k-22" edge="1">
                    <mxGeometry width="50" height="50" relative="1" as="geometry">
                        <mxPoint x="330" y="130" as="sourcePoint"/>
                        <mxPoint x="380" y="80" as="targetPoint"/>
                        <Array as="points">
                            <mxPoint x="230" y="190"/>
                        </Array>
                    </mxGeometry>
                </mxCell>
                <mxCell id="IJHI46-00uATuvEDK32k-24" value="" style="endArrow=classic;html=1;exitX=1;exitY=0.5;exitDx=0;exitDy=0;entryX=0;entryY=0.5;entryDx=0;entryDy=0;strokeColor=#33FFFF;strokeWidth=2;" parent="IJHI46-00uATuvEDK32k-31" source="IJHI46-00uATuvEDK32k-22" target="IJHI46-00uATuvEDK32k-12" edge="1">
                    <mxGeometry width="50" height="50" relative="1" as="geometry">
                        <mxPoint x="330" y="130" as="sourcePoint"/>
                        <mxPoint x="380" y="80" as="targetPoint"/>
                    </mxGeometry>
                </mxCell>
                <mxCell id="IJHI46-00uATuvEDK32k-25" value="2.return true" style="text;html=1;align=center;verticalAlign=middle;resizable=0;points=[];autosize=1;strokeColor=none;" parent="IJHI46-00uATuvEDK32k-31" vertex="1">
                    <mxGeometry x="130" y="170" width="80" height="20" as="geometry"/>
                </mxCell>
                <mxCell id="IJHI46-00uATuvEDK32k-26" value="&lt;font color=&quot;#000000&quot;&gt;视图&lt;br&gt;View&lt;/font&gt;" style="ellipse;whiteSpace=wrap;html=1;aspect=fixed;strokeColor=#6c8ebf;fillColor=#dae8fc;" parent="IJHI46-00uATuvEDK32k-31" vertex="1">
                    <mxGeometry x="530" y="40" width="60" height="60" as="geometry"/>
                </mxCell>
                <mxCell id="IJHI46-00uATuvEDK32k-27" value="" style="endArrow=classic;html=1;exitX=1;exitY=0.5;exitDx=0;exitDy=0;entryX=0.5;entryY=1;entryDx=0;entryDy=0;strokeColor=#33FFFF;strokeWidth=2;" parent="IJHI46-00uATuvEDK32k-31" source="IJHI46-00uATuvEDK32k-12" target="IJHI46-00uATuvEDK32k-26" edge="1">
                    <mxGeometry width="50" height="50" relative="1" as="geometry">
                        <mxPoint x="460" y="120" as="sourcePoint"/>
                        <mxPoint x="510" y="70" as="targetPoint"/>
                        <Array as="points">
                            <mxPoint x="560" y="130"/>
                        </Array>
                    </mxGeometry>
                </mxCell>
                <mxCell id="IJHI46-00uATuvEDK32k-28" value="" style="endArrow=classic;html=1;exitX=1;exitY=0.5;exitDx=0;exitDy=0;entryX=0;entryY=0.5;entryDx=0;entryDy=0;strokeColor=#33FFFF;strokeWidth=2;" parent="IJHI46-00uATuvEDK32k-31" source="IJHI46-00uATuvEDK32k-26" target="IJHI46-00uATuvEDK32k-16" edge="1">
                    <mxGeometry width="50" height="50" relative="1" as="geometry">
                        <mxPoint x="460" y="120" as="sourcePoint"/>
                        <mxPoint x="510" y="70" as="targetPoint"/>
                    </mxGeometry>
                </mxCell>
                <mxCell id="IJHI46-00uATuvEDK32k-29" value="" style="endArrow=classic;html=1;exitX=1;exitY=0.5;exitDx=0;exitDy=0;entryX=1;entryY=0.3333333333333333;entryDx=0;entryDy=0;entryPerimeter=0;strokeWidth=2;strokeColor=#33FFFF;" parent="IJHI46-00uATuvEDK32k-31" source="IJHI46-00uATuvEDK32k-16" target="IJHI46-00uATuvEDK32k-19" edge="1">
                    <mxGeometry width="50" height="50" relative="1" as="geometry">
                        <mxPoint x="460" y="220" as="sourcePoint"/>
                        <mxPoint x="510" y="170" as="targetPoint"/>
                        <Array as="points">
                            <mxPoint x="810" y="70"/>
                            <mxPoint x="810" y="340"/>
                        </Array>
                    </mxGeometry>
                </mxCell>
                <mxCell id="IJHI46-00uATuvEDK32k-30" value="拦截器执行完毕，响应用户" style="text;html=1;align=center;verticalAlign=middle;resizable=0;points=[];autosize=1;strokeColor=none;" parent="IJHI46-00uATuvEDK32k-31" vertex="1">
                    <mxGeometry x="520" y="320" width="160" height="20" as="geometry"/>
                </mxCell>
                <mxCell id="IJHI46-00uATuvEDK32k-35" value="" style="group" parent="IJHI46-00uATuvEDK32k-31" vertex="1" connectable="0">
                    <mxGeometry x="151" y="280" width="107" height="90" as="geometry"/>
                </mxCell>
                <mxCell id="IJHI46-00uATuvEDK32k-32" value="DispatcherServlet&lt;br&gt;&lt;br&gt;&lt;br&gt;&lt;br&gt;&lt;br&gt;" style="rounded=0;whiteSpace=wrap;html=1;strokeWidth=1;" parent="IJHI46-00uATuvEDK32k-35" vertex="1">
                    <mxGeometry width="107" height="90" as="geometry"/>
                </mxCell>
                <mxCell id="IJHI46-00uATuvEDK32k-33" value="doDispatcher" style="rounded=1;whiteSpace=wrap;html=1;strokeWidth=1;fillColor=#d80073;strokeColor=#A50040;fontColor=#ffffff;" parent="IJHI46-00uATuvEDK32k-35" vertex="1">
                    <mxGeometry x="9" y="40" width="89" height="40" as="geometry"/>
                </mxCell>
                <mxCell id="IJHI46-00uATuvEDK32k-37" value="" style="endArrow=classic;html=1;strokeColor=#33FFFF;strokeWidth=2;exitX=0;exitY=0.3333333333333333;exitDx=0;exitDy=0;exitPerimeter=0;entryX=1;entryY=0.5;entryDx=0;entryDy=0;" parent="IJHI46-00uATuvEDK32k-31" source="IJHI46-00uATuvEDK32k-19" target="IJHI46-00uATuvEDK32k-33" edge="1">
                    <mxGeometry width="50" height="50" relative="1" as="geometry">
                        <mxPoint x="251" y="390" as="sourcePoint"/>
                        <mxPoint x="301" y="340" as="targetPoint"/>
                    </mxGeometry>
                </mxCell>
                <mxCell id="IJHI46-00uATuvEDK32k-45" value="" style="endArrow=classic;html=1;strokeColor=#33FFFF;strokeWidth=2;entryX=0.5;entryY=1;entryDx=0;entryDy=0;exitX=0;exitY=0.5;exitDx=0;exitDy=0;" parent="IJHI46-00uATuvEDK32k-31" source="IJHI46-00uATuvEDK32k-32" target="IJHI46-00uATuvEDK32k-2" edge="1">
                    <mxGeometry width="50" height="50" relative="1" as="geometry">
                        <mxPoint x="81" y="350" as="sourcePoint"/>
                        <mxPoint x="301" y="340" as="targetPoint"/>
                        <Array as="points">
                            <mxPoint x="65" y="325"/>
                        </Array>
                    </mxGeometry>
                </mxCell>
                <mxCell id="IJHI46-00uATuvEDK32k-43" value="" style="group" parent="IJHI46-00uATuvEDK32k-1" vertex="1" connectable="0">
                    <mxGeometry x="138" y="480" width="150" height="190" as="geometry"/>
                </mxCell>
                <mxCell id="IJHI46-00uATuvEDK32k-39" value="HandlerExecutionChain&lt;br&gt;&lt;br&gt;&lt;br&gt;&lt;br&gt;&lt;br&gt;&lt;br&gt;&lt;br&gt;&lt;br&gt;&lt;br&gt;&lt;br&gt;&lt;br&gt;&lt;br&gt;" style="rounded=0;whiteSpace=wrap;html=1;strokeWidth=1;" parent="IJHI46-00uATuvEDK32k-43" vertex="1">
                    <mxGeometry width="150" height="190" as="geometry"/>
                </mxCell>
                <mxCell id="IJHI46-00uATuvEDK32k-40" value="applyPreHandler" style="rounded=1;whiteSpace=wrap;html=1;strokeWidth=1;fillColor=#fa6800;strokeColor=#C73500;fontColor=#000000;" parent="IJHI46-00uATuvEDK32k-43" vertex="1">
                    <mxGeometry x="10" y="40" width="130" height="40" as="geometry"/>
                </mxCell>
                <mxCell id="IJHI46-00uATuvEDK32k-41" value="applyPostHandler" style="rounded=1;whiteSpace=wrap;html=1;strokeWidth=1;fillColor=#f0a30a;strokeColor=#BD7000;fontColor=#000000;" parent="IJHI46-00uATuvEDK32k-43" vertex="1">
                    <mxGeometry x="10" y="90" width="130" height="40" as="geometry"/>
                </mxCell>
                <mxCell id="IJHI46-00uATuvEDK32k-42" value="triggerAfterCompletion" style="rounded=1;whiteSpace=wrap;html=1;strokeWidth=1;fillColor=#e3c800;strokeColor=#B09500;fontColor=#000000;" parent="IJHI46-00uATuvEDK32k-43" vertex="1">
                    <mxGeometry x="10" y="140" width="130" height="40" as="geometry"/>
                </mxCell>
                <mxCell id="IJHI46-00uATuvEDK32k-44" value="" style="endArrow=classic;html=1;strokeColor=#33FFFF;strokeWidth=2;exitX=0.5;exitY=1;exitDx=0;exitDy=0;entryX=0.5;entryY=0;entryDx=0;entryDy=0;" parent="IJHI46-00uATuvEDK32k-1" source="IJHI46-00uATuvEDK32k-33" target="IJHI46-00uATuvEDK32k-39" edge="1">
                    <mxGeometry width="50" height="50" relative="1" as="geometry">
                        <mxPoint x="260" y="530" as="sourcePoint"/>
                        <mxPoint x="310" y="480" as="targetPoint"/>
                    </mxGeometry>
                </mxCell>
            </root>
        </mxGraphModel>
    </diagram>
</mxfile>